<?xml version="1.0" encoding="UTF-8"?>
<svg id="Layer_2" data-name="Layer 2" xmlns="http://www.w3.org/2000/svg" viewBox="0 0 49.35 48.7">
  <defs>
    <style>
      .cls-1 {
        fill: #FF3131;
        stroke-width: 0px;
      }
    </style>
  </defs>
  <g id="Layer_1-2" data-name="Layer 1">
    <path class="cls-1" d="M47.64.28C36.04,11.68,16.08,32.37,4.89,44.16c-.81-3.64-.31-7.49-.99-11.16-.21-1.12-1.99-.85-1.96.27C2.04,38.17-.04,42.79,0,47.7c0,.55.45.99,1,1,4.42.09,8.9-1.3,13.05-2.66,4.32-1.42,8.54-3.1,12.71-4.89,1.18-.51.16-2.23-1.01-1.73-4.01,1.72-8.09,3.33-12.24,4.69-2.54.83-5.2,1.69-7.89,2.18C16.34,35.01,35.82,14.84,46.86,3.89c.36.66,1.57.76,1.87-.18.3-.92.61-1.74.61-2.73,0-.87-1.09-1.31-1.71-.71ZM2.04,46.67c.07-1.45.28-2.88.56-4.31.13,1.36.36,2.71.84,4.03.02.06.06.12.09.18-.5.05-.99.08-1.49.1Z"/>
  </g>
</svg>