<?xml version="1.0" encoding="UTF-8"?>
<svg id="Layer_2" data-name="Layer 2" xmlns="http://www.w3.org/2000/svg" viewBox="0 0 78.66 140">
  <defs>
    <style>
      .cls-1 {
        fill: #231f20;
        stroke-width: 0px;
      }
    </style>
  </defs>
  <g id="Layer_1-2" data-name="Layer 1">
    <path class="cls-1" d="M34.57,101.02c-.04-.12-.11-.23-.21-.32-.09-.1-.2-.17-.32-.21-.12-.06-.25-.09-.39-.09l-.27.04c-.17.05-.32.13-.44.26-.05.07-.1.13-.16.2-.09.16-.14.32-.14.5v.28c0,.14.02.27.09.39.04.12.11.23.21.32.09.1.2.17.32.21.12.06.25.09.39.09.09-.01.18-.02.27-.04.17-.05.32-.13.44-.26l.16-.2c.09-.16.14-.32.14-.5v-.28c0-.14-.02-.27-.09-.39Z"/>
    <path class="cls-1" d="M38.1,104.23c-1.29,0-1.29,2,0,2s1.29-2,0-2Z"/>
    <path class="cls-1" d="M42.54,102.46c-1.29,0-1.29,2,0,2s1.29-2,0-2Z"/>
    <path class="cls-1" d="M39.43,98.46c-1.29,0-1.29,2,0,2s1.29-2,0-2Z"/>
    <path class="cls-1" d="M43.87,97.57c-1.29,0-1.29,2,0,2s1.29-2,0-2Z"/>
    <path class="cls-1" d="M68.34,52.26c-.25-1.95.24-3.82-.72-5.63-.77-1.46-2.09-2.65-3.2-3.81-.61-.64-1.27-1.19-2-1.67-.88-.58-1.47-1.27-2.22-2.01-1.26-1.26-2.81-2.1-4.25-3.11-1.55-1.09-3.15-1.65-4.93-2.17-1.9-.56-3.74-1.3-5.67-1.75-1.93-.45-3.65-1.06-5.65-1.01-2.05.06-4.11-.05-6.17.02-1.92.06-3.8.56-5.64,1.15-1.91.61-3.84,1.22-5.68,2.04-1.71.76-3.01,1.86-4.48,3.03-1.43,1.15-2.89,2.17-4.07,3.64-1.11,1.38-1.93,2.98-2.68,4.6-.75,1.63-1.43,3.18-1.56,5.02-.15,2.12-.13,4.33-.13,6.47,0,.98.1,1.93.26,2.9.19,1.11.22,2.19.34,3.31.09.95.36,1.87.43,2.83.08,1.12,0,2.26-.02,3.38-.05,2.13.13,4.26.15,6.39.02,2.21-.35,4.35-.5,6.55-.3,4.38.16,8.81,1.63,12.93.61,1.72,1.61,2.98,2.86,4.22,1.26,1.26,2.46,2.54,3.6,3.92,2.25,2.73,4.49,5.6,7.54,7.34,1.52.88,3.11,1.91,4.81,2.32,2,.48,4.07.98,6.09,1.27.8.12,1.61.17,2.42.21.15.3.41.53.83.53,3.4-.03,6.72-1.06,9.15-3.73,1.31-1.44,2.43-3.09,3.71-4.57,1.27-1.46,2.19-3.19,3.36-4.72.52-.68,1.14-1.27,1.54-2.05.41-.8.57-1.71.97-2.51.38-.75.99-1.32,1.48-1.99.53-.73.86-1.55,1.19-2.4,1.52-3.97,2.22-8.27,3.52-12.32.65-2.01,1.37-3.87,1.82-5.96.16-.76.33-1.51.42-2.29.12-.96.51-1.83.55-2.81.04-.92.2-1.71.33-2.62.13-.99.04-2,.09-3,.1-2.03.75-3.95.92-5.97.18-2.09-.19-3.91-.45-5.95ZM66.66,59.27c-.26,1.74-.74,3.37-.81,5.14-.03.88.07,1.8-.08,2.67-.13.78-.29,1.45-.34,2.25-.06.91-.33,1.67-.46,2.56-.15.97-.32,1.92-.52,2.88-.46,2.16-1.36,4.08-1.92,6.19-.52,1.95-1.13,3.87-1.65,5.82-.6,2.24-.99,4.63-2.03,6.7-.41.82-1.04,1.42-1.57,2.14-.49.68-.79,1.43-1.08,2.23-.63,1.77-1.93,3.05-2.94,4.59-1.23,1.86-2.7,3.43-4.03,5.2-1.21,1.6-2.33,3.13-4.07,4.11-.74.42-1.52.7-2.31.9-.13-.07-.28-.12-.45-.12-1.78,0-3.57.04-5.34-.18-2.03-.26-4.14-.79-6.13-1.27-1.63-.4-3.23-1.42-4.67-2.3-1.37-.83-2.56-1.94-3.67-3.13-2.26-2.43-4.22-5.13-6.58-7.46-1.32-1.31-2.21-2.51-2.81-4.35-.47-1.46-.81-2.94-1.03-4.46.4,0,.81-.21.98-.72.15-.46,1.88-.87,2.32-1.08,1.03-.48,2.08-.89,3.14-1.29,1.89-.71,3.81-1.23,5.74-1.8,4.11-1.21,8.31-1.84,12.48-2.8.94-.22,1.75-.35,2.71-.32,1,.04,1.95.01,2.94-.18,2-.38,3.77-.35,5.77-.02.91.15,1.83.08,2.72.33.9.25,1.75.7,2.64,1,1.64.55,3.23,1.19,4.7,2.12.08.79,1.03,1.45,1.69.7.11-.12.21-.24.32-.36.47-.52.34-1.29-.2-1.68-1.82-1.32-3.88-2.14-5.97-2.84-.89-.3-1.74-.73-2.64-1-1.07-.31-2.18-.23-3.26-.44-1.98-.38-3.92-.35-5.9.05-1.27.25-2.44.11-3.71.15-.94.03-1.83.32-2.75.51-2.36.49-4.71,1.01-7.08,1.43-2.3.4-4.51,1.17-6.76,1.79-2.21.6-4.41,1.38-6.53,2.3-1.12.49-2.62.82-3.56,1.71-.18-3.89.58-7.68.5-11.57-.04-1.89-.18-3.78-.15-5.67.03-1.86.11-3.66-.22-5.5-.31-1.73-.42-3.53-.66-5.28-.3-2.13,0-4.35-.01-6.5,0-1.86.23-3.35.98-5.03.74-1.64,1.51-3.35,2.59-4.77,1.07-1.4,2.44-2.37,3.78-3.44,1.51-1.2,2.84-2.34,4.61-3.08,3.31-1.38,7.07-2.81,10.64-2.85,1.83-.02,3.65.04,5.48,0,2.03-.05,3.82.54,5.78,1.03,1.58.39,3.09.99,4.64,1.47,1.8.56,3.46,1.01,5.05,2.13,1.34.94,2.83,1.71,3.98,2.92.55.57,1.01,1.17,1.64,1.64.78.58,1.59,1.03,2.28,1.74,1.01,1.04,2.37,2.2,3.04,3.54.45.9.43,1.84.41,2.82-.02,1.06.04,2.02.24,3.05.36,1.89.41,3.77.12,5.68Z"/>
    <path class="cls-1" d="M52.56,95.4c-.59-.9-1.46-.99-2.43-1.25-1.42-.39-2.81-.91-4.25-1.23-1.48-.33-2.99-.39-4.5-.37-1.57.02-3.1.36-4.66.43-1.63.07-3.04.27-4.61.73-1.47.43-2.97.75-4.38,1.36-1.19.51-2.36,1.25-3.47,1.93-1.83,1.13-3.56,3.34-2.67,5.6.45,1.14,1.47,1.79,2.4,2.52,1.24.97,2.46,1.97,3.89,2.64,1.4.65,2.88,1.08,4.38,1.44,1.59.38,3.21.9,4.82,1.2,3.03.56,5.44-.93,7.72-2.74,1.21-.95,2.73-1.53,3.84-2.59.54-.53.85-1.18,1.26-1.8.42-.62.89-1.13,1.02-1.89.04-.26-.02-.47-.12-.66.81-.77,1.74-1.43,2.18-2.51.39-.95.13-1.96-.42-2.8ZM49.14,99.54c-.69.69-1.06,1.54-1.92,2.03-.84.48-.48,1.57.22,1.82-.03.04-.05.08-.08.11-.74.83-1.93,1.19-2.82,1.82-1.66,1.16-3.13,2.77-5.22,3.14-1.2.21-2.29-.14-3.44-.45-1.17-.32-2.36-.56-3.54-.85-2.6-.65-4.68-1.67-6.78-3.32-.7-.55-1.9-1.16-2.16-2.05-.31-1.08.63-2.2,1.44-2.78,1.7-1.21,3.67-2.22,5.67-2.77,1.06-.3,2.12-.62,3.18-.89,1.31-.34,2.57-.29,3.91-.42,2.34-.24,4.67-.57,7.02-.2,1.33.21,2.62.66,3.91,1.05.77.24,2.27.25,2.54,1.15.31,1.07-1.28,1.98-1.94,2.63Z"/>
    <path class="cls-1" d="M78.51,54.19c0-2.83.3-5.69.07-8.52-.1-1.18-.35-2.35-.46-3.53-.12-1.29.15-2.58-.05-3.85-.31-1.99-1.5-3.71-3.06-4.93-1.83-1.44-4.03-1.9-6.1-2.89-2.32-1.1-4.59-2.18-7.03-2.99-2.44-.81-4.98-1.66-7.5-2.2-1.24-.27-2.48-.5-3.68-.93-1.09-.39-2.13-.89-3.28-1.08.07-.11.3-.31.36-.38.21-.26.36-.53.49-.84.24-.57.35-1.17.43-1.79.14-1.11-.03-2.18-.76-3.06-1.47-1.77-3.96-2.11-6.15-2.09.27-.85.25-1.71.24-2.64,0-1.29.42-2.49.72-3.72.21-.86.39-1.78.52-2.7.16-.43.22-.91.16-1.47.05-.85.04-1.69-.07-2.51-.26-1.95-2.39-2.53-4.03-1.7-.35.17-.6.44-.87.71-.14-.07-.3-.12-.5-.09-1.02.12-2.04.29-3.07.39-1.1.1-2.2.06-3.31.09-1.63.05-3.31.34-4.89.74-1.37.35-2.87.9-3.66,2.16-.55.88-.42,1.94.49,2.5,1.56.96,3.93.59,5.68.56,1.98-.04,4.05-.31,5.99.2.14.04.28.07.42.11,0,.18.01.37.01.55v4.81c0,1.29,2,1.29,2,0v-4.4c0-.16,0-.33-.01-.49.32.05.65.09.99.1.77.03,1.55-.07,2.26-.28-.26,1.07-.58,2.12-.73,3.21-.16,1.15.21,2.53-.36,3.57-.08.14-.12.28-.13.41-.82.08-1.64.19-2.46.38-.74.17-1.45.37-2.2.46-.61.07-1.1.24-1.58.63-.38.31-.65.67-1.1.87-.59.27-1.06.47-1.37,1.09-.28.56-.23,1.15-.19,1.75.05.82.01,1.64.01,2.46,0,1.29,1.99,1.29,2,0,0-.63.02-1.26,0-1.9,0-.34-.23-1.15-.04-1.43.04-.06.42-.15.48-.17.23-.09.39-.18.59-.33.35-.26.63-.71,1.02-.9.4-.2,1.04-.16,1.48-.26.53-.12,1.05-.26,1.58-.38,1.1-.25,2.19-.34,3.31-.38,1.67-.06,4.23-.09,5.33,1.46.47.67.27,1.73.04,2.45-.13.4-.34.63-.6.95-.29.36-.43.7-.49,1.12-.57-.01-1.14,0-1.7.02-1.29.06-2.5.59-3.77.56-2.73-.07-5.26.87-7.97,1.2-2.72.34-5.53.9-8.27,1.01-1.21.05-2.4-.07-3.6.09-1.43.2-2.86.4-4.28.6-1.32.18-2.63.61-3.95.71-.46.03-.92.03-1.39.02-.16-1.21-2.01-1.24-1.99-.08-.11,0-.23-.01-.34-.01-1.08-.01-1.24,1.37-.51,1.84-.12.15-.24.3-.34.42-.78,1.05-1.48,2.14-2.07,3.3-.56,1.08-.9,2.25-1.38,3.36-.53,1.22-.64,2.42-.83,3.73-.18,1.2-.52,2.36-.66,3.57-.16,1.29-.03,2.59-.07,3.89-.07,2.79-.75,5.48-1.38,8.18-.62,2.68-.31,5.34-.44,8.06-.06,1.24-.43,2.44-.48,3.69-.05,1.36.07,2.72.01,4.09-.11,2.74.58,5.21.89,7.9.31,2.74-.04,5.47.35,8.22.39,2.72.04,5.46.72,8.15.64,2.55,1.39,5.22,2.6,7.57,1.16,2.26,2.45,4.25,3.19,6.71.7,2.32,1.8,4.57,2.81,6.77.95,2.08,2.29,4.04,4.23,5.29.83.54,1.74.89,2.62,1.32,1.13.55,2.02,1.18,3.28,1.42,2.59.49,5.08,1.56,7.63,2.23,1.28.34,2.54.55,3.82.7-.22.66-.21,1.41-.17,2.09.08,1.37.07,2.74.07,4.12,0,1.14-.22,2.48.11,3.6.35,1.21,1.47,2,2.64,2.32,1.26.34,2.82.31,4.1.08.66-.12,1.27-.42,1.93-.52.77-.12,1.45-.21,2.15-.59,1.07-.59,2.16-1.34,2.99-2.24.91-.98,1.12-2.02,1.02-3.33-.12-1.7.13-3.35-.57-4.96-.22-.5-.35-.91-.39-1.37,1.69-.29,3.37-.61,5.03-.96,2.22-.46,4.68-1.09,6.69-2.2,2.1-1.16,3.37-3.32,4.87-5.12,1.54-1.83,3.32-3.44,4.48-5.56,1.1-2.01,1.76-4.23,2.37-6.43.64-2.29,1.23-4.51,1.67-6.85.26-1.38.7-2.72.98-4.1.25-1.24.4-2.5.72-3.72.31-1.17.89-2.22,1.28-3.36.45-1.3.78-2.66,1.11-4,.58-2.35,1.34-4.67,1.41-7.1.08-2.66,1.16-5.12,1.41-7.75.11-1.2-.03-2.32.22-3.52.25-1.18.23-2.36.21-3.56-.04-2.8-.02-5.6-.02-8.4ZM39.43,2.92c.63-.55.91-1.09,1.87-.87,0,0,0,0,.01,0,.05.07.06.16.08.28.04.26.03.54.02.82-.68-.02-1.37.03-2.07.05-.09,0-.18,0-.27,0,.12-.09.24-.18.36-.29ZM31.04,5.36c-1.82.06-3.81.28-5.63.03-.12-.02-.33-.09-.52-.14.07-.09.13-.18.16-.2.2-.17.45-.3.68-.42.58-.27,1.22-.43,1.84-.58,1.47-.34,2.98-.57,4.49-.59.99-.02,1.96-.07,2.93-.16-.84.39-.7,1.91.43,1.91h.15c0,.15-.02.3-.03.45-1.47-.35-3.01-.35-4.51-.3ZM38.33,6.3c-.27-.02-.53-.06-.79-.11,0-.33,0-.65.03-.97.49,0,.98,0,1.47,0,.74,0,1.52-.12,2.27-.09-.01.16-.03.31-.05.47-.52.74-2,.76-2.93.7ZM44.87,134.68c-.46.78-1.38,1.36-2.12,1.83-.4.26-.81.55-1.27.67-.55.16-1.14.15-1.7.3-.5.13-.96.36-1.48.41-.59.06-1.19.08-1.79.07-.79-.02-1.99-.15-2.38-.97-.31-.65-.07-1.67-.07-2.36,0-1.39.07-2.79-.02-4.17-.04-.63-.37-1.96.17-2.43.07-.06.11-.14.16-.21.56.04,1.12.08,1.69.11,1.03.06,1.93-.01,2.93-.26,1.35-.33,2.74-.23,4.12-.41.31-.04.62-.09.93-.14.04.42.15.82.31,1.22.2.48.45.95.55,1.46.14.69.06,1.42.06,2.12-.01.83.35,2-.09,2.75ZM76.53,62.82c.01,1.21-.08,2.3-.29,3.48-.22,1.18-.01,2.35-.17,3.53-.33,2.42-1.26,4.71-1.38,7.17-.11,2.48-.81,4.8-1.41,7.2-.3,1.2-.6,2.41-.99,3.58-.38,1.14-.97,2.19-1.29,3.36-.3,1.08-.46,2.19-.66,3.29-.23,1.3-.62,2.55-.92,3.84-1.01,4.45-1.73,9.25-3.84,13.35-1.09,2.12-2.84,3.69-4.35,5.5-1.51,1.8-2.77,4.02-4.96,5.05-2.04.96-4.42,1.52-6.63,1.93-1.25.23-2.51.5-3.78.74-.12-.31-.28-.6-.53-.89-.8-.91-2.07.29-1.52,1.23-.75.11-1.5.19-2.25.23-1.07.05-2.05.07-3.1.33-1.2.3-2.29.16-3.51.13-2.64-.07-5.11-.59-7.64-1.32-1.18-.34-2.34-.73-3.5-1.1-1.13-.36-2.39-.49-3.49-.9-.99-.37-1.95-1.03-2.91-1.49-1.02-.48-2.01-1.02-2.79-1.84-1.73-1.79-2.46-4.16-3.48-6.37-.51-1.1-1.02-2.16-1.37-3.31-.33-1.08-.65-2.15-1.13-3.18-1.05-2.24-2.49-4.21-3.29-6.57-.85-2.51-1.74-5.06-1.85-7.72-.05-1.27-.01-2.54-.12-3.8-.13-1.43-.41-2.82-.41-4.27,0-2.63-.03-5.09-.49-7.69-.22-1.22-.5-2.38-.49-3.63,0-1.27.1-2.53.06-3.81-.08-2.5.49-4.93.46-7.44-.02-1.27-.05-2.54.09-3.8.15-1.43.6-2.82.9-4.23.53-2.44.86-4.87.82-7.37-.03-2.45.52-4.76.85-7.18.18-1.28.75-2.45,1.21-3.66.47-1.24,1.1-2.38,1.82-3.49.47-.72,1.24-1.55,1.77-2.43.51.02,1.02.04,1.52.02,1.27-.04,2.47-.41,3.72-.62,2.69-.46,5.37-.77,8.09-.79,2.51-.02,5.04-.6,7.53-.88,1.19-.13,2.38-.27,3.56-.48,1.29-.23,2.54-.7,3.84-.88,1.29-.18,2.45.1,3.73-.26,1.21-.34,2.45-.34,3.7-.29,2.45.1,4.58,1.3,6.95,1.82,4.88,1.08,9.83,2.54,14.32,4.77,3.66,1.82,9.39,2.8,9.21,8.02-.08,2.49.46,4.86.51,7.34.06,2.61-.13,5.23-.13,7.85s0,5.27.02,7.9Z"/>
  </g>
</svg>