<?xml version="1.0" encoding="UTF-8"?>
<svg id="Layer_2" data-name="Layer 2" xmlns="http://www.w3.org/2000/svg" viewBox="0 0 80.26 149.13">
  <defs>
    <style>
      .cls-1 {
        fill: #231f20;
        stroke-width: 0px;
      }
    </style>
  </defs>
  <g id="Layer_3" data-name="Layer 3">
    <path class="cls-1" d="M68.37,74.23c0-4.87.33-9.82-.04-14.67-.3-3.94-1.17-7.88-2.85-11.33-1.87-3.82-4.73-6.16-7.7-8.67-2.91-2.47-6.58-3.03-10.08-3.32-2.15-.18-4.33-.07-6.48-.07-2.09,0-4.18-.05-6.27.14-2.01.18-3.99.56-5.98.93-2.16.4-4.35.66-6.51,1.04-3.36.59-6.55,2.12-8.68,5.4-2.25,3.48-4.06,7.54-5.26,11.67-.64,2.18-.62,4.13-.58,6.41.05,2.54,0,5.08,0,7.62,0,2.47-.02,4.91.25,7.36.27,2.43.55,4.84.73,7.28.18,2.48.51,4.93.8,7.39.22,1.81.73,3.42,1.21,5.1-.14-.17-.28-.35-.43-.51-.81-.85-2.01.56-1.19,1.41,1.35,1.41,2.22,3.31,3,5.28.16.76.32,1.53.53,2.28.11.39.35.59.62.66.27.67.55,1.34.86,1.96.44.88,1,1.64,1.4,2.55.43.99.76,2.04,1.15,3.05.73,1.9,1.6,3.36,3.12,4.46,1.52,1.1,3.19,1.87,4.75,2.87,1.73,1.11,3.28,2.57,5.08,3.54,1.84.99,3.69,1.39,5.71,1.21.93-.08,1.86-.26,2.79-.36.99-.11,1.98-.09,2.97-.32,1.73-.4,3.25-1.44,4.85-2.26,1.88-.96,3.88-1.67,5.68-2.84,1.64-1.07,3.11-2.56,4.7-3.75,1.53-1.13,2.92-2.49,4.18-4.02,1.22-1.48,2.44-3.12,3.32-4.91.85-1.72,1.4-3.64,1.88-5.54.5-1.98.88-4.03,1.57-5.93.31-.86.66-1.71.81-2.64.18-1.09.11-2.21.09-3.32-.12-5.05-.02-10.11-.02-15.16ZM66.69,81.93c0,2.41-.04,4.83.01,7.24.02,1.05.13,2.17-.05,3.2-.17.97-.59,1.85-.89,2.76-1.21,3.57-1.56,7.51-3.25,10.85-1.78,3.5-4.54,6.39-7.44,8.51-1.5,1.1-2.83,2.55-4.41,3.49-1.72,1.03-3.58,1.73-5.35,2.64-1.59.82-3.1,1.85-4.84,2.14-.9.15-1.82.13-2.72.25-1,.13-1.99.31-2.99.34-4.01.12-6.93-3.26-10.32-5.24-1.47-.86-3.17-1.6-4.44-2.87-1.26-1.27-1.78-3.41-2.44-5.15-.69-1.81-1.73-3.36-2.47-5.15-.36-.87-.74-1.74-1.11-2.61-.31-1.46-.56-2.94-.9-4.4-.47-2.05-1.3-3.95-1.6-6.07-.65-4.64-.89-9.33-1.45-13.98-.56-4.64-.38-9.33-.38-14.01,0-2.12-.32-4.44.13-6.52.46-2.13,1.2-4.26,2.07-6.19,1.59-3.49,3.34-7.36,6.37-9.31,3.23-2.07,7.26-1.99,10.82-2.61,1.98-.35,3.94-.75,5.94-.93,1.95-.18,3.9-.14,5.86-.14,4,0,7.86,0,11.81.91,1.65.38,2.95,1.05,4.32,2.21,1.51,1.28,3.11,2.48,4.47,3.99,2.37,2.65,3.83,6.22,4.62,9.93.89,4.22.77,8.53.69,12.85-.08,4.62-.03,9.25-.03,13.87Z"/>
    <path class="cls-1" d="M64.35,89.19c-3.39-1.56-7.21-1.81-10.88-2.21-1.96-.22-3.87-.72-5.84-.95-1.89-.22-3.75-.12-5.62.23-2.01.38-3.93.62-5.98.59-2.08-.03-4.12-.01-6.18.21-3.71.41-7.44.95-11.14,1.47-1.95.28-3.82.73-5.59,1.61-1.48.74-3.1,1.5-4.21,2.75-.85.96.56,2.38,1.41,1.41,1.19-1.33,3.19-2.28,4.84-2.91,2.02-.77,4.19-.97,6.32-1.21,4.72-.53,9.31-1.43,14.08-1.36,2.32.04,4.47-.18,6.75-.61,2.49-.47,4.89-.35,7.37.14,4.47.9,9.44.61,13.65,2.54,1.16.53,2.18-1.19,1.01-1.73Z"/>
    <path class="cls-1" d="M57.62,94.74c-1.99-2.16-5.63-1.83-8.27-1.74-1.91.07-3.8.05-5.7.24-2.05.2-4.08.53-6.13.77-2.13.25-4.27.44-6.4.7-1,.12-1.96.26-2.92.57-1,.32-1.97.75-3.02.89-1.26.17-1.27,2.17,0,2,1.31-.18,2.5-.63,3.76-1.02,1.57-.49,3.26-.57,4.89-.74,3.05-.32,6.07-.75,9.12-1.09,2.79-.31,5.65-.37,8.46-.37,2.37,0,4.98.19,5.58,2.9,1.15,5.14-3.8,8.65-7.75,10.62-2.87,1.43-5.64,2.02-8.81,2.38-2.71.31-5.35.77-8.08.44-2.68-.33-5.67-1.28-7.18-3.7-.62-1-.87-2.15-.74-3.32.07-.65.27-2.34,1.02-2.58,1.22-.39.7-2.33-.53-1.93-1.98.64-2.54,3.36-2.53,5.2.01,2.68,1.63,4.99,3.83,6.4,2.47,1.58,5.61,2.07,8.49,2.07,1.7,0,3.35-.29,5.04-.5,1.76-.22,3.53-.37,5.27-.73,3.11-.66,6.45-2.28,9-4.17,2.22-1.64,4.09-3.89,4.82-6.59.59-2.18.39-4.96-1.21-6.69Z"/>
    <path class="cls-1" d="M31.48,104.01c-.05-.17-.13-.32-.26-.44-.07-.05-.13-.1-.2-.16-.16-.09-.32-.14-.5-.14h-.44c-.14,0-.27.02-.39.09-.12.04-.23.11-.32.21-.1.09-.17.2-.21.32-.06.12-.09.25-.09.39.01.09.02.18.04.27.05.17.13.32.26.44.07.05.13.1.2.16.16.09.32.14.5.14h.44c.14,0,.27-.02.39-.09.12-.04.23-.11.32-.21.1-.09.17-.2.21-.32.06-.12.09-.25.09-.39-.01-.09-.02-.18-.04-.27Z"/>
    <path class="cls-1" d="M42.59,106.67c-.05-.17-.13-.32-.26-.44-.07-.05-.13-.1-.2-.16-.16-.09-.32-.14-.5-.14h-.44c-.14,0-.27.02-.39.09-.12.04-.23.11-.32.21-.1.09-.17.2-.21.32-.06.12-.09.25-.09.39l.04.27c.05.17.13.32.26.44.07.05.13.1.2.16.16.09.32.14.5.14h.44c.14,0,.27-.02.39-.09.12-.04.23-.11.32-.21.1-.09.17-.2.21-.32.06-.12.09-.25.09-.39-.01-.09-.02-.18-.04-.27Z"/>
    <path class="cls-1" d="M36.73,100.16c-1.29,0-1.29,2,0,2s1.29-2,0-2Z"/>
    <path class="cls-1" d="M48.73,99.72c-1.29,0-1.29,2,0,2s1.29-2,0-2Z"/>
    <path class="cls-1" d="M41.18,99.72c-1.29,0-1.29,2,0,2s1.29-2,0-2Z"/>
    <path class="cls-1" d="M47.4,104.61c-1.29,0-1.29,2,0,2s1.29-2,0-2Z"/>
    <path class="cls-1" d="M35.92,106.23c-.03-.08-.07-.16-.1-.24-.09-.15-.21-.27-.36-.36-.08-.03-.16-.07-.24-.1-.18-.05-.35-.05-.53,0l-.36.08c-.17.05-.32.13-.44.26-.12.12-.21.27-.26.44-.03.12-.06.24-.08.36-.04.13-.05.27-.02.4,0,.13.05.26.12.37.06.12.15.21.26.28.1.09.21.15.34.18l.27.04c.18,0,.35-.05.5-.14.07-.05.13-.1.2-.16.08-.08.14-.18.19-.29.05-.03.11-.04.15-.08.11-.07.19-.16.26-.28.07-.11.11-.24.12-.37.03-.13.02-.27-.02-.4Z"/>
    <path class="cls-1" d="M80.25,76.28c0-3.15,0-6.29,0-9.44,0-2.81-.56-5.6-1.17-8.33-.3-1.33-.72-2.61-.75-3.98-.04-1.71.11-3.44,0-5.15-.08-1.22-.5-2.36-.69-3.56-.24-1.49-.09-3.03-.02-4.53.13-2.52.02-5.11-1.34-7.31-1.13-1.82-2.73-3.6-4.62-4.58-1.02-.53-1.79-1.23-2.72-1.89-.93-.66-2.06-.87-3.14-1.14-1.29-.32-2.61-.39-3.92-.58-1.45-.21-2.88-.45-4.34-.51-1.35-.06-2.68-.44-4.04-.41-1.39.03-2.73.4-4.11.41-1.22,0-2.35.38-3.55.43-.01,0-.02,0-.03,0,.04-.07.07-.14.09-.21.27-1,.54-1.99.34-3.03-.2-1.05-.87-2.02-1.46-2.88-.53-.77-1.08-1.46-1.94-1.86-.05-.02-.09-.03-.14-.05.13-.14.22-.32.22-.57,0-1.38.14-2.77.09-4.15-.02-.46-.09-.91-.17-1.36.16-.02.32-.03.48-.05,1.84-.24,4.3-.68,4.93-2.8.26-.86-.08-1.73-.77-2.25-.86-.64-1.92-.63-2.94-.56-.69.05-1.38.02-2.07,0-.11-1.27-.36-2.51-.94-3.71-.72-1.49-2.54-3.11-4.11-1.66-1.29,1.19-.96,3.61-.7,5.16.06.37.1.74.14,1.11-.06.02-.12.03-.17.05-.11-.06-.23-.11-.39-.11-2.65,0-5.31-.05-7.97,0-1.1.02-2.13.23-3.21.44-.87.17-1.77.28-2.6.61-.82.32-1.76.85-1.43,1.89.28.86,1.07,1.15,1.88,1.21,1,.08,1.9.43,2.89.62,1.22.24,2.46.16,3.7.15,1.41-.01,2.81-.17,4.19-.47.56-.12,1.11-.19,1.68-.26.39.27.9.39,1.39.37.05,0,.1,0,.15-.01,0,1.4,0,2.8,0,4.21,0,1.14,1.73,1.14,1.73,0,0-1.38,0-2.76,0-4.13.39.06.78.13,1.17.18.43.06.84.08,1.25.09.05.23.1.46.13.7.16,1.57-.04,3.16-.05,4.73,0,.08.03.15.04.22-.29-.02-.58-.03-.87-.01-1.85.13-3.68.91-5.44,1.49-1.82.6-3.44,1.36-4.53,3.03-1.02,1.59-1.17,3.59.03,5.06-2.24.15-4.47.55-6.69.92-4.73.78-9.62,1.09-14.25,2.42-.04.01-.08.03-.12.04-.06-.38-.32-.7-.81-.66-1.86.17-2.74,2.36-3.54,3.84-.57,1.05-.97,2.2-1.46,3.29-.59,1.3-1.17,2.63-1.46,4.03-.14.66-.19,1.32-.39,1.96-.18.59-.41,1.14-.51,1.75-.22,1.41,0,2.84-.22,4.27-.19,1.26-.4,2.52-.54,3.78-.09.8-.03,1.58-.03,2.38,0,.84-.16,1.66-.27,2.49-.34,2.64-.07,5.32.39,7.93.54,3.03,1.15,6.05,1.73,9.08.25,1.3.61,2.58.81,3.89.23,1.51.3,3.05.54,4.56.47,3.06,1.05,6.25,1.02,9.35-.02,1.36.23,2.61.37,3.96.15,1.46-.09,2.93.03,4.4.11,1.4.48,2.72.77,4.09.29,1.33.23,2.69.41,4.03.17,1.34.47,2.7.83,4,.34,1.23,1.01,2.23,1.65,3.32,1.36,2.33,1.8,5.08,3.15,7.4,1.34,2.31,3.67,3.88,5.69,5.52.97.79,2.03,1.42,2.99,2.21,1.01.84,1.96,1.77,3,2.57,2.13,1.65,4.5,3.33,7.13,3.99,1.27.32,2.57.46,3.87.49-.04.1-.08.2-.11.28-.16.45-.37.89-.53,1.34-.38,1.02-.38,2.1-.39,3.17,0,2.02-.11,4.75,2,5.81.9.45,1.89.32,2.86.29,1.03-.04,2.05.13,3.08-.02,2.11-.32,3.26-2.11,3.4-4.16.08-1.26.02-2.54.02-3.8,0-1.41,0-2.82,0-4.22.13-.05.26-.09.39-.14,2.5-1,4.71-2.67,6.87-4.26,2.17-1.59,4.5-2.86,6.97-3.89,1.01-.42,2.03-.82,2.95-1.42,1.16-.74,2.14-1.8,3.04-2.84.84-.98,1.56-2.06,2.41-3.04.91-1.06,1.8-2.1,2.48-3.34,1.46-2.63,2.92-5.25,4.24-7.96.5-1.03,1.09-2.05,1.5-3.14.49-1.31.52-2.76.83-4.12.67-2.91,2.01-5.61,2.63-8.54,1.25-5.88,1.1-11.94,1.09-17.92ZM45.03,7.69c.45-.02,1.3-.05,1.55.37.05.08.03.17-.04.33-.1.22-.29.41-.48.56-.64.49-1.51.65-2.28.77-.4.06-.81.13-1.22.17-.04-.33-.06-.66-.05-.99.01-.39.02-.78.02-1.16,0,0,0,0,0,0,.84.04,1.66,0,2.5-.04ZM39.21,1.95c.66.47,1.01,1.55,1.24,2.3.17.55.25,1.13.3,1.7-.75.06-1.46.32-2.17.53-.01-.09-.01-.17-.03-.26-.08-.46-.85-5.35.66-4.27ZM33.41,9.5c-1.42.31-2.83.42-4.28.44-1.45.02-2.72-.03-4.12-.43-.38-.11-.76-.2-1.14-.25.36-.08.72-.13,1.05-.19,1.05-.19,2.07-.46,3.14-.49,2.39-.08,4.78-.03,7.17-.01-.17.22-.32.46-.41.72-.47.06-.93.13-1.4.23ZM38.7,9.63c0-.47.01-.93,0-1.4.37-.11.74-.23,1.12-.33.33-.09.65-.14.98-.17,0,.16,0,.32,0,.47-.02.57-.05,1.14-.02,1.71-.7-.06-1.39-.18-2.08-.29ZM31.37,23.9c.45.6,1.6.45,1.54-.49-.03-.54,0-.98.48-1.28.47-.3,1.08-.39,1.61-.53,1.5-.38,3.06-1.42,4.64-1.27.48.05.95.18,1.42.26.39.07.82.08,1.21.18.53.14.86.68,1.05,1.19.25.68.14,1.41.21,2.12.06.68.3,1.21.75,1.65-.13,0-.27.02-.4.04-.84.13-1.65.31-2.5.39-1.4.13-2.8.27-4.19.49-1.57.25-3.05.21-4.63.18-.15,0-.31,0-.46,0,.12-.29.09-.62-.19-.91-.59-.6-.69-1.33-.52-2.03ZM41.48,147.25c-.84.25-1.77.07-2.63.06-.76-.01-1.61.2-2.35,0-1.73-.48-1.29-3.5-1.28-4.83,0-.98.16-1.81.53-2.72.21-.52.41-1.03.52-1.56.64-.02,1.27-.05,1.9-.08,1.65-.09,3.32-.29,4.93-.7,0,2.04,0,4.09,0,6.13,0,1.43.03,3.22-1.63,3.71ZM78.42,86.23c-.19,2.75-.44,5.61-1.11,8.28-.66,2.64-1.84,5.12-2.45,7.77-.29,1.25-.32,2.6-.72,3.82-.39,1.17-1.07,2.29-1.61,3.39-1.21,2.47-2.57,4.83-3.88,7.24-.67,1.23-1.49,2.26-2.39,3.32-.84.98-1.57,2.06-2.41,3.04-.79.93-1.66,1.9-2.69,2.56-1.03.67-2.19,1.08-3.3,1.56-2.23.95-4.34,2.11-6.31,3.53-2.16,1.55-4.3,3.28-6.77,4.3-2.08.86-4.36,1.2-6.59,1.32-.73.04-1.46.08-2.2.09-.21-.13-.48-.18-.7-.12-.1.03-.17.08-.24.13-1.45-.01-2.89-.14-4.28-.54-2.45-.71-4.81-2.42-6.77-4.05-.91-.75-1.75-1.58-2.68-2.32-1.02-.81-2.12-1.49-3.12-2.33-1.92-1.61-4.06-3.01-5.19-5.34-1.1-2.25-1.62-4.74-2.9-6.91-.6-1.02-1.18-1.92-1.46-3.1-.33-1.38-.67-2.78-.78-4.2-.09-1.16-.12-2.33-.37-3.47-.31-1.4-.69-2.75-.74-4.19-.05-1.27.11-2.55,0-3.82-.13-1.42-.39-2.73-.37-4.17.04-2.77-.5-5.63-.9-8.36-.4-2.74-.64-5.47-1.23-8.17-.58-2.68-1.04-5.4-1.56-8.09-.53-2.71-.98-5.37-.94-8.14.02-1.26.29-2.49.39-3.74.11-1.45.06-2.85.26-4.3.17-1.25.43-2.51.51-3.76.09-1.38-.08-2.56.37-3.9.4-1.18.47-2.41.86-3.59.42-1.26,1.02-2.43,1.53-3.65.39-.93.82-1.8,1.31-2.68.5.24,1.26,0,1.31-.76.06-.91,2.98-1.23,3.62-1.36,2.27-.45,4.51-.83,6.8-1.15,2.72-.38,5.43-.85,8.14-1.27,1.35-.21,2.71-.37,4.07-.44,1.49-.08,2.97.09,4.46.02,1.24-.06,2.46-.35,3.69-.49,1.45-.17,2.92-.24,4.36-.5,1.19-.22,2.37-.11,3.55-.32.54-.1,1.07-.25,1.62-.29.74-.05,1.47.02,2.22-.07,1.26-.16,2.45-.43,3.73-.29,1.34.14,2.65.31,3.99.42,2.64.23,5.39.6,7.96,1.26,1,.26,1.63.71,2.42,1.37.86.72,1.87,1.08,2.78,1.7,1.64,1.12,3.28,3.18,3.86,5.12.77,2.58.15,5.28.24,7.91.04,1.26.32,2.44.6,3.66.33,1.45.22,2.95.22,4.43,0,1.25-.05,2.49.17,3.73.24,1.36.64,2.69.92,4.05.58,2.85.83,5.55.82,8.45,0,5.78.29,11.64-.1,17.41Z"/>
  </g>
</svg>