<?xml version="1.0" encoding="UTF-8"?>
<svg id="Layer_2" data-name="Layer 2" xmlns="http://www.w3.org/2000/svg" viewBox="0 0 92.84 206.01">
  <defs>
    <style>
      .cls-1 {
        fill: #231f20;
        stroke-width: 0px;
      }
    </style>
  </defs>
  <g id="Layer_1-2" data-name="Layer 1">
    <path class="cls-1" d="M48.75,142.26c-.04-.12-.11-.23-.21-.32-.09-.1-.2-.17-.32-.21-.12-.06-.25-.09-.39-.09l-.27.04c-.17.05-.32.13-.44.26-.05.07-.1.13-.16.2-.09.16-.14.32-.14.5v.28c0,.14.02.27.09.39.04.12.11.23.21.32.09.1.2.17.32.21.12.06.25.09.39.09.09-.01.18-.02.27-.04.17-.05.32-.13.44-.26l.16-.2c.09-.16.14-.32.14-.5v-.28c0-.14-.02-.27-.09-.39Z"/>
    <path class="cls-1" d="M52.28,145.48c-1.29,0-1.29,2,0,2s1.29-2,0-2Z"/>
    <path class="cls-1" d="M56.72,143.7c-1.29,0-1.29,2,0,2s1.29-2,0-2Z"/>
    <path class="cls-1" d="M53.61,139.7c-1.29,0-1.29,2,0,2s1.29-2,0-2Z"/>
    <path class="cls-1" d="M58.06,138.81c-1.29,0-1.29,2,0,2s1.29-2,0-2Z"/>
    <path class="cls-1" d="M82.52,93.51c-.25-1.95.24-3.82-.72-5.63-.77-1.46-2.09-2.65-3.2-3.81-.61-.64-1.27-1.19-2-1.67-.88-.58-1.47-1.27-2.22-2.01-1.26-1.26-2.81-2.1-4.25-3.11-1.55-1.09-3.15-1.65-4.93-2.17-1.9-.56-3.74-1.3-5.67-1.75-1.93-.45-3.65-1.06-5.65-1.01-2.05.06-4.11-.05-6.17.02-1.92.06-3.8.56-5.64,1.15-1.91.61-3.84,1.22-5.68,2.04-1.71.76-3.01,1.86-4.48,3.03-1.43,1.15-2.89,2.17-4.07,3.64-1.11,1.38-1.93,2.98-2.68,4.6-.75,1.63-1.43,3.18-1.56,5.02-.15,2.12-.13,4.33-.13,6.47,0,.98.1,1.93.26,2.9.19,1.11.22,2.19.34,3.31.09.95.36,1.87.43,2.83.08,1.12,0,2.26-.02,3.38-.05,2.13.13,4.26.15,6.39.02,2.21-.35,4.35-.5,6.55-.3,4.38.16,8.81,1.63,12.93.61,1.72,1.61,2.98,2.86,4.22,1.26,1.26,2.46,2.54,3.6,3.92,2.25,2.73,4.49,5.6,7.54,7.34,1.52.88,3.11,1.91,4.81,2.32,2,.48,4.07.98,6.09,1.27.8.12,1.61.17,2.42.21.15.3.41.53.83.53,3.4-.03,6.72-1.06,9.15-3.73,1.31-1.44,2.43-3.09,3.71-4.57,1.27-1.46,2.19-3.19,3.36-4.72.52-.68,1.14-1.27,1.54-2.05.41-.8.57-1.71.97-2.51.38-.75.99-1.32,1.48-1.99.53-.73.86-1.55,1.19-2.4,1.52-3.97,2.22-8.27,3.52-12.32.65-2.01,1.37-3.87,1.82-5.96.16-.76.33-1.51.42-2.29.12-.96.51-1.83.55-2.81.04-.92.2-1.71.33-2.62.13-.99.04-2,.09-3,.1-2.03.75-3.95.92-5.97.18-2.09-.19-3.91-.45-5.95ZM80.85,100.51c-.26,1.74-.74,3.37-.81,5.14-.03.88.07,1.8-.08,2.67-.13.78-.29,1.45-.34,2.25-.06.91-.33,1.67-.46,2.56-.15.97-.32,1.92-.52,2.88-.46,2.16-1.36,4.08-1.92,6.19-.52,1.95-1.13,3.87-1.65,5.82-.6,2.24-.99,4.63-2.03,6.7-.41.82-1.04,1.42-1.57,2.14-.49.68-.79,1.43-1.08,2.23-.63,1.77-1.93,3.05-2.94,4.59-1.23,1.86-2.7,3.43-4.03,5.2-1.21,1.6-2.33,3.13-4.07,4.11-.74.42-1.52.7-2.31.9-.13-.07-.28-.12-.45-.12-1.78,0-3.57.04-5.34-.18-2.03-.26-4.14-.79-6.13-1.27-1.63-.4-3.23-1.42-4.67-2.3-1.37-.83-2.56-1.94-3.67-3.13-2.26-2.43-4.22-5.13-6.58-7.46-1.32-1.31-2.21-2.51-2.81-4.35-.47-1.46-.81-2.94-1.03-4.46.4,0,.81-.21.98-.72.15-.46,1.88-.87,2.32-1.08,1.03-.48,2.08-.89,3.14-1.29,1.89-.71,3.81-1.23,5.74-1.8,4.11-1.21,8.31-1.84,12.48-2.8.94-.22,1.75-.35,2.71-.32,1,.04,1.95.01,2.94-.18,2-.38,3.77-.35,5.77-.02.91.15,1.83.08,2.72.33.9.25,1.75.7,2.64,1,1.64.55,3.23,1.19,4.7,2.12.08.79,1.03,1.45,1.69.7.11-.12.21-.24.32-.36.47-.52.34-1.29-.2-1.68-1.82-1.32-3.88-2.14-5.97-2.84-.89-.3-1.74-.73-2.64-1-1.07-.31-2.18-.23-3.26-.44-1.98-.38-3.92-.35-5.9.05-1.27.25-2.44.11-3.71.15-.94.03-1.83.32-2.75.51-2.36.49-4.71,1.01-7.08,1.43-2.3.4-4.51,1.17-6.76,1.79-2.21.6-4.41,1.38-6.53,2.3-1.12.49-2.62.82-3.56,1.71-.18-3.89.58-7.68.5-11.57-.04-1.89-.18-3.78-.15-5.67.03-1.86.11-3.66-.22-5.5-.31-1.73-.42-3.53-.66-5.28-.3-2.13,0-4.35-.01-6.5,0-1.86.23-3.35.98-5.03.74-1.64,1.51-3.35,2.59-4.77,1.07-1.4,2.44-2.37,3.78-3.44,1.51-1.2,2.84-2.34,4.61-3.08,3.31-1.38,7.07-2.81,10.64-2.85,1.83-.02,3.65.04,5.48,0,2.03-.05,3.82.54,5.78,1.03,1.58.39,3.09.99,4.64,1.47,1.8.56,3.46,1.01,5.05,2.13,1.34.94,2.83,1.71,3.98,2.92.55.57,1.01,1.17,1.64,1.64.78.58,1.59,1.03,2.28,1.74,1.01,1.04,2.37,2.2,3.04,3.54.45.9.43,1.84.41,2.82-.02,1.06.04,2.02.24,3.05.36,1.89.41,3.77.12,5.68Z"/>
    <path class="cls-1" d="M66.74,136.64c-.59-.9-1.46-.99-2.43-1.25-1.42-.39-2.81-.91-4.25-1.23-1.48-.33-2.99-.39-4.5-.37-1.57.02-3.1.36-4.66.43-1.63.07-3.04.27-4.61.73-1.47.43-2.97.75-4.38,1.36-1.19.51-2.36,1.25-3.47,1.93-1.83,1.13-3.56,3.34-2.67,5.6.45,1.14,1.47,1.79,2.4,2.52,1.24.97,2.46,1.97,3.89,2.64,1.4.65,2.88,1.08,4.38,1.44,1.59.38,3.21.9,4.82,1.2,3.03.56,5.44-.93,7.72-2.74,1.21-.95,2.73-1.53,3.84-2.59.54-.53.85-1.18,1.26-1.8.42-.62.89-1.13,1.02-1.89.04-.26-.02-.47-.12-.66.81-.77,1.74-1.43,2.18-2.51.39-.95.13-1.96-.42-2.8ZM63.32,140.78c-.69.69-1.06,1.54-1.92,2.03-.84.48-.48,1.57.22,1.82-.03.04-.05.08-.08.11-.74.83-1.93,1.19-2.82,1.82-1.66,1.16-3.13,2.77-5.22,3.14-1.2.21-2.29-.14-3.44-.45-1.17-.32-2.36-.56-3.54-.85-2.6-.65-4.68-1.67-6.78-3.32-.7-.55-1.9-1.16-2.16-2.05-.31-1.08.63-2.2,1.44-2.78,1.7-1.21,3.67-2.22,5.67-2.77,1.06-.3,2.12-.62,3.18-.89,1.31-.34,2.57-.29,3.91-.42,2.34-.24,4.67-.57,7.02-.2,1.33.21,2.62.66,3.91,1.05.77.24,2.27.25,2.54,1.15.31,1.07-1.28,1.98-1.94,2.63Z"/>
    <path class="cls-1" d="M92.69,95.43c0-2.83.3-5.69.07-8.52-.1-1.18-.35-2.35-.46-3.53-.12-1.29.15-2.58-.05-3.85-.31-1.99-1.5-3.71-3.06-4.93-1.83-1.44-4.03-1.9-6.1-2.89-2.32-1.1-4.59-2.18-7.03-2.99-2.44-.81-4.98-1.66-7.5-2.2-1.24-.27-2.48-.5-3.68-.93-1.09-.39-2.13-.89-3.28-1.08.07-.11.3-.31.36-.38.21-.26.36-.53.49-.84.24-.57.35-1.17.43-1.79.14-1.11-.03-2.18-.76-3.06-1.47-1.77-3.96-2.11-6.15-2.09.27-.85.25-1.71.24-2.64,0-1.29.42-2.49.72-3.72.21-.86.39-1.78.52-2.7.16-.43.22-.91.16-1.47.05-.85.04-1.69-.07-2.51-.26-1.95-2.39-2.53-4.03-1.7-.35.17-.6.44-.87.71-.14-.07-.3-.12-.5-.09-1.02.12-2.04.29-3.07.39-1.1.1-2.2.06-3.31.09-1.63.05-3.31.34-4.89.74-1.37.35-2.87.9-3.66,2.16-.55.88-.42,1.94.49,2.5,1.56.96,3.93.59,5.68.56,1.98-.04,4.05-.31,5.99.2.14.04.28.07.42.11,0,.18.01.37.01.55v4.81c0,1.29,2,1.29,2,0v-4.4c0-.16,0-.33-.01-.49.32.05.65.09.99.1.77.03,1.55-.07,2.26-.28-.26,1.07-.58,2.12-.73,3.21-.16,1.15.21,2.53-.36,3.57-.08.14-.12.28-.13.41-.82.08-1.64.19-2.46.38-.74.17-1.45.37-2.2.46-.61.07-1.1.24-1.58.63-.38.31-.65.67-1.1.87-.59.27-1.06.47-1.37,1.09-.28.56-.23,1.15-.19,1.75.05.82.01,1.64.01,2.46,0,1.29,1.99,1.29,2,0,0-.63.02-1.26,0-1.9,0-.34-.23-1.15-.04-1.43.04-.06.42-.15.48-.17.23-.09.39-.18.59-.33.35-.26.63-.71,1.02-.9.4-.2,1.04-.16,1.48-.26.53-.12,1.05-.26,1.58-.38,1.1-.25,2.19-.34,3.31-.38,1.67-.06,4.23-.09,5.33,1.46.47.67.27,1.73.04,2.45-.13.4-.34.63-.6.95-.29.36-.43.7-.49,1.12-.57-.01-1.14,0-1.7.02-1.29.06-2.5.59-3.77.56-2.73-.07-5.26.87-7.97,1.2-2.72.34-5.53.9-8.27,1.01-1.21.05-2.4-.07-3.6.09-1.43.2-2.86.4-4.28.6-1.32.18-2.63.61-3.95.71-.46.03-.92.03-1.39.02-.16-1.21-2.01-1.24-1.99-.08-.11,0-.23-.01-.34-.01-1.08-.01-1.24,1.37-.51,1.84-.12.15-.24.3-.34.42-.78,1.05-1.48,2.14-2.07,3.3-.56,1.08-.9,2.25-1.38,3.36-.53,1.22-.64,2.42-.83,3.73-.18,1.2-.52,2.36-.66,3.57-.16,1.29-.03,2.59-.07,3.89-.07,2.79-.75,5.48-1.38,8.18-.62,2.68-.31,5.34-.44,8.06-.06,1.24-.43,2.44-.48,3.69-.05,1.36.07,2.72.01,4.09-.11,2.74.58,5.21.89,7.9.31,2.74-.04,5.47.35,8.22.39,2.72.04,5.46.72,8.15.64,2.55,1.39,5.22,2.6,7.57,1.16,2.26,2.45,4.25,3.19,6.71.7,2.32,1.8,4.57,2.81,6.77.95,2.08,2.29,4.04,4.23,5.29.83.54,1.74.89,2.62,1.32,1.13.55,2.02,1.18,3.28,1.42,2.59.49,5.08,1.56,7.63,2.23,1.28.34,2.54.55,3.82.7-.22.66-.21,1.41-.17,2.09.08,1.37.07,2.74.07,4.12,0,1.14-.22,2.48.11,3.6.35,1.21,1.47,2,2.64,2.32,1.26.34,2.82.31,4.1.08.66-.12,1.27-.42,1.93-.52.77-.12,1.45-.21,2.15-.59,1.07-.59,2.16-1.34,2.99-2.24.91-.98,1.12-2.02,1.02-3.33-.12-1.7.13-3.35-.57-4.96-.22-.5-.35-.91-.39-1.37,1.69-.29,3.37-.61,5.03-.96,2.22-.46,4.68-1.09,6.69-2.2,2.1-1.16,3.37-3.32,4.87-5.12,1.54-1.83,3.32-3.44,4.48-5.56,1.1-2.01,1.76-4.23,2.37-6.43.64-2.29,1.23-4.51,1.67-6.85.26-1.38.7-2.72.98-4.1.25-1.24.4-2.5.72-3.72.31-1.17.89-2.22,1.28-3.36.45-1.3.78-2.66,1.11-4,.58-2.35,1.34-4.67,1.41-7.1.08-2.66,1.16-5.12,1.41-7.75.11-1.2-.03-2.32.22-3.52.25-1.18.23-2.36.21-3.56-.04-2.8-.02-5.6-.02-8.4ZM53.61,44.17c.63-.55.91-1.09,1.87-.87,0,0,0,0,.01,0,.05.07.06.16.08.28.04.26.03.54.02.82-.68-.02-1.37.03-2.07.05-.09,0-.18,0-.27,0,.12-.09.24-.18.36-.29ZM45.22,46.6c-1.82.06-3.81.28-5.63.03-.12-.02-.33-.09-.52-.14.07-.09.13-.18.16-.2.2-.17.45-.3.68-.42.58-.27,1.22-.43,1.84-.58,1.47-.34,2.98-.57,4.49-.59.99-.02,1.96-.07,2.93-.16-.84.39-.7,1.91.43,1.91h.15c0,.15-.02.3-.03.45-1.47-.35-3.01-.35-4.51-.3ZM52.51,47.54c-.27-.02-.53-.06-.79-.11,0-.33,0-.65.03-.97.49,0,.98,0,1.47,0,.74,0,1.52-.12,2.27-.09-.01.16-.03.31-.05.47-.52.74-2,.76-2.93.7ZM59.05,175.93c-.46.78-1.38,1.36-2.12,1.83-.4.26-.81.55-1.27.67-.55.16-1.14.15-1.7.3-.5.13-.96.36-1.48.41-.59.06-1.19.08-1.79.07-.79-.02-1.99-.15-2.38-.97-.31-.65-.07-1.67-.07-2.36,0-1.39.07-2.79-.02-4.17-.04-.63-.37-1.96.17-2.43.07-.06.11-.14.16-.21.56.04,1.12.08,1.69.11,1.03.06,1.93-.01,2.93-.26,1.35-.33,2.74-.23,4.12-.41.31-.04.62-.09.93-.14.04.42.15.82.31,1.22.2.48.45.95.55,1.46.14.69.06,1.42.06,2.12-.01.83.35,2-.09,2.75ZM90.71,104.06c.01,1.21-.08,2.3-.29,3.48-.22,1.18-.01,2.35-.17,3.53-.33,2.42-1.26,4.71-1.38,7.17-.11,2.48-.81,4.8-1.41,7.2-.3,1.2-.6,2.41-.99,3.58-.38,1.14-.97,2.19-1.29,3.36-.3,1.08-.46,2.19-.66,3.29-.23,1.3-.62,2.55-.92,3.84-1.01,4.45-1.73,9.25-3.84,13.35-1.09,2.12-2.84,3.69-4.35,5.5-1.51,1.8-2.77,4.02-4.96,5.05-2.04.96-4.42,1.52-6.63,1.93-1.25.23-2.51.5-3.78.74-.12-.31-.28-.6-.53-.89-.8-.91-2.07.29-1.52,1.23-.75.11-1.5.19-2.25.23-1.07.05-2.05.07-3.1.33-1.2.3-2.29.16-3.51.13-2.64-.07-5.11-.59-7.64-1.32-1.18-.34-2.34-.73-3.5-1.1-1.13-.36-2.39-.49-3.49-.9-.99-.37-1.95-1.03-2.91-1.49-1.02-.48-2.01-1.02-2.79-1.84-1.73-1.79-2.46-4.16-3.48-6.37-.51-1.1-1.02-2.16-1.37-3.31-.33-1.08-.65-2.15-1.13-3.18-1.05-2.24-2.49-4.21-3.29-6.57-.85-2.51-1.74-5.06-1.85-7.72-.05-1.27-.01-2.54-.12-3.8-.13-1.43-.41-2.82-.41-4.27,0-2.63-.03-5.09-.49-7.69-.22-1.22-.5-2.38-.49-3.63,0-1.27.1-2.53.06-3.81-.08-2.5.49-4.93.46-7.44-.02-1.27-.05-2.54.09-3.8.15-1.43.6-2.82.9-4.23.53-2.44.86-4.87.82-7.37-.03-2.45.52-4.76.85-7.18.18-1.28.75-2.45,1.21-3.66.47-1.24,1.1-2.38,1.82-3.49.47-.72,1.24-1.55,1.77-2.43.51.02,1.02.04,1.52.02,1.27-.04,2.47-.41,3.72-.62,2.69-.46,5.37-.77,8.09-.79,2.51-.02,5.04-.6,7.53-.88,1.19-.13,2.38-.27,3.56-.48,1.29-.23,2.54-.7,3.84-.88,1.29-.18,2.45.1,3.73-.26,1.21-.34,2.45-.34,3.7-.29,2.45.1,4.58,1.3,6.95,1.82,4.88,1.08,9.83,2.54,14.32,4.77,3.66,1.82,9.39,2.8,9.21,8.02-.08,2.49.46,4.86.51,7.34.06,2.61-.13,5.23-.13,7.85s0,5.27.02,7.9Z"/>
    <path class="cls-1" d="M54.32,57.7c2.78-1.06,5.42-2.56,7.82-4.4,1.03-.5,2.02-1.07,2.96-1.71,4.78-3.25,7.8-8.26,8.14-13.89.73-2.53,1.05-5.16.94-7.78.44-2.57.21-5.32-.92-8.24-.18-.47-.38-.92-.58-1.38-1.67-4.96-4.72-9.61-8.24-13.27C60.18,2.58,54.04-1.1,47.66.3c-.43.09-.84.21-1.25.34-.74-.04-1.49-.03-2.25.04-8.02.75-13.69,7.45-16.73,14.39-3.34,7.61-4.52,16.61-2.54,24.74.86,3.54,2.47,6.97,5.08,9.56,1.04,1.03,2.23,1.86,3.5,2.5.48.67,1,1.32,1.55,1.94,2.17,2.42,4.94,4.22,8.12,4.98,3.72.89,7.65.23,11.18-1.11ZM46.81,3.87c1.25-.45,2.53-.6,3.8-.52,1.72.52,3.38,1.27,4.97,2.16-.49-.07-.99-.11-1.49-.13-1.56-.57-3.15-.99-4.71-1.17-1.07-.12-2.1-.1-3.08.04-.09-.02-.18-.03-.27-.05.26-.12.52-.23.79-.32ZM38.4,13.76c1.89-2.43,4.34-4.52,7.17-5.46-.45.38-.89.78-1.3,1.21-1.5.7-2.89,1.6-4.14,2.72-.73.65-1.36,1.38-1.96,2.13.07-.2.15-.4.22-.6ZM36.33,22.18c.07-.24.16-.48.24-.72.38-.69.79-1.35,1.21-1.99.06-.08.11-.16.17-.24-.02.03-.03.06-.05.09-.81,1.59-1.49,3.3-2.01,5.07.01-.08.02-.16.03-.24.04-.28.08-.56.12-.84.09-.38.18-.76.29-1.12ZM48.46,43.49c-.78-.37-1.51-.88-2.15-1.49,2.59,1.35,5.67,1.64,8.62,1.12-.62.38-1.29.68-2.01.87-.42.11-.84.16-1.25.18-1.08-.17-2.16-.4-3.22-.68ZM55.7,34.81c-.21.07-.42.15-.64.21.15-.13.3-.27.44-.42.6-.64,1.1-1.35,1.5-2.12.29-.2.45-.49.45-.88,0-.03,0-.07,0-.1.1-.25.19-.51.28-.77.13-.15.26-.3.39-.45-.22.75-.47,1.48-.8,2.17-.43.9-.97,1.71-1.61,2.38ZM58.68,24.66c-.07.49-.2.98-.38,1.46-.06-1.49-.35-2.97-.82-4.31,0,0,0,0,0-.01-.08-.43-.19-.86-.32-1.28.38.32.68.67.91,1.04.32.99.52,2.03.61,3.1ZM51.31,27.46c.42-.21.69-.57.87-1,.17.05.35.1.52.16-.19.51-.61.94-1.21,1.18-.06-.11-.12-.23-.18-.35ZM49.05,26.76s.01.02.02.02c.17.96.69,1.86,1.14,2.71.15.28.58.47.89.42,1.39-.25,2.6-.97,3.23-2.07-.31,1.36-1.03,2.59-2.01,3.08-.5-.16-.99-.38-1.45-.64-1.12-.66-2.22-1.8-2.33-3.12.13-.14.3-.28.52-.4ZM55.72,23.35c-.55-1.03-1.43-1.84-2.74-2.16-1.2-.29-2.35-.17-3.38.25,1.07-1.2,2.37-2.06,3.82-2.2.18.12.36.25.54.43.67.64,1.17,1.46,1.55,2.35.09.43.17.87.21,1.33ZM51.42,16.57c.31.07.6.17.87.31-.66-.04-1.36.09-2.09.46-.71.36-1.33.86-1.86,1.45,0-.13,0-.26.02-.39.45-.52.93-.99,1.44-1.44.52-.16,1.07-.29,1.62-.38ZM53.78,33.52c-1.17,1.1-2.69,1.6-4.43.72-.22-.11-.4-.24-.59-.38,1.65.4,3.41.27,5.01-.34ZM60.63,26.72c.17.68.3,1.36.39,2.05-.27,1.08-.71,2.1-1.31,3,.56-1.66.84-3.41.92-5.05ZM42.62,27.24c.02.07.02.14.04.2-.03.79.02,1.57.14,2.34-.13-.24-.23-.49-.33-.74.03-.6.08-1.2.15-1.81ZM45.49,35.18c2.63,2.76,6.82,4.49,10.25,2.21.41-.27.79-.58,1.14-.92,1.29-.52,2.49-1.24,3.51-2.08.17-.14.34-.29.51-.45-.28,1.28-.78,2.51-1.59,3.53-1.22,1.55-3.12,2.59-4.99,3.21-.83.03-1.68-.08-2.54-.35-3.14-.99-5.62-3.19-7.38-5.9.36.27.72.52,1.1.74ZM41.07,40.26c-.49-.32-.97-.65-1.43-1-.36-.28-.7-.57-1.04-.87-.11-1.16-.11-2.33-.05-3.45.54,1.93,1.39,3.73,2.52,5.33ZM45.84,44.71c1.3.78,2.71,1.36,4.16,1.73-.34.1-.68.18-1.02.27-2.6-.73-5.03-1.94-7.04-3.65,1.25.64,2.56,1.2,3.9,1.65ZM45.28,47.36c-.47.04-.95.07-1.43.08-.54-.27-1.05-.59-1.53-.98-.78-.64-1.41-1.39-1.92-2.22,1.44,1.27,3.1,2.31,4.89,3.12ZM38.78,22.58c-.49,1.62-.79,3.33-.91,5.02-.06.23-.13.45-.19.68-.36,1.37-.66,2.82-.86,4.29-.11-2.19.17-4.41.69-6.54.34-1.39.8-2.88,1.41-4.34-.05.3-.09.59-.13.89ZM36.4,38.99c.12.26.26.5.39.75.28,1.79.82,3.52,1.7,5.11.42.76.89,1.42,1.41,2.01-1.66-1.63-2.6-3.82-3.23-6.03-.2-.69-.37-1.39-.51-2.1.08.09.16.17.24.26ZM35.92,45.89c-.06-.03-.11-.07-.17-.1-1.1-2.23-1.77-4.71-2.18-7.04-.02-.13-.04-.26-.06-.39.37,2.31.99,4.56,1.96,6.64.14.3.29.6.45.89ZM63.4,14.56c-.83-.85-1.69-1.69-2.58-2.49.32.17.65.34.96.52.6.62,1.14,1.28,1.62,1.96ZM33.1,33.68c.04,1.41.15,2.82.35,4.21-.22-1.46-.36-2.94-.42-4.42.02.07.05.14.07.21ZM62.74,50.29c-.51.45-1.03.89-1.57,1.31-1.26.61-2.58,1.09-3.92,1.47,1.85-.78,3.71-1.7,5.48-2.77ZM40.41,3.6c-.39.28-.77.58-1.14.88-.89.31-1.73.72-2.52,1.22.16-.12.31-.25.48-.36,1-.71,2.07-1.29,3.19-1.74ZM28.81,44.65c-3.51-6.2-3.46-14.2-2.06-20.99.88-4.27,2.46-8.74,4.96-12.5-.03.05-.05.09-.08.13-1.51,2.67-2.51,5.62-3.26,8.58-.89,3.45-1.55,7.03-1.61,10.6-.05,3.43.56,6.89,1.87,10.03.56,2.45,1.34,4.86,2.39,7.12-.85-.89-1.58-1.89-2.2-2.98ZM39.38,54.99c2.62.88,5.46,1.04,8.28.72,2.15.28,4.35.26,6.52-.02-1.22.49-2.48.89-3.76,1.17-4.04.89-7.87.19-11.04-1.87Z"/>
    <path class="cls-1" d="M70,181.1c-.55-3.73-1.16-7.41-1.45-11.17-.23-3.09-.44-6.18-.72-9.26.57.02,1.15-.45,1.02-1.23-2.65-15.71-2.06-32.1-7.31-47.32-.13-.37-.27-.75-.4-1.12,3.02-16.64,4.16-33.62,8.58-49.99.34-1.24-1.59-1.77-1.93-.53-.56,2.06-1.18,4.12-1.82,6.18-.2-1.14-.47-2.27-.85-3.39-.27-.8-1.37-1-1.83-.24-.91,1.52-1.59,3.13-2.12,4.8-.05-2.42-.26-4.85-.69-7.29-.14-.76-1.23-.94-1.7-.41-.22-1.27-.54-2.52-1.01-3.75-.3-.78-1.35-1.03-1.83-.24-.28.46-.51.93-.76,1.4-.5-1.36-1.23-2.64-2.42-3.33-.6-.35-1.24,0-1.47.6-1.32,3.51-1.92,7.1-2.18,10.73-.33.81-.64,1.63-.91,2.46-.49-.06-.99-.03-1.5.12-.35-.72-.73-1.42-1.17-2.08-1.25-1.86-2.93-3.34-5.11-4-.34-.1-.72.01-.97.26-.39.38-.73.79-1.03,1.23-.42.02-.83.31-.96.73-.14.48-.25.96-.38,1.44-.12.05-.23.11-.31.21-.12.13-.22.27-.34.41.05-1.44,0-2.87-.12-4.31-.03-.32-.16-.72-.5-.86-.67-.29-1.16-.39-1.88-.13-.46.17-.67.49-.73.96-.03.22-.04.44-.07.65-.16-.82-.32-1.65-.48-2.47-.22-1.1-2.04-.86-1.96.27.35,5.21.72,10.43,1.07,15.65-.55,2.25-.87,4.58-1.05,6.87-.53,6.87.15,13.79,1.03,20.59.44,3.37.95,6.73,1.37,10.09.13,1.06,1.49,1.27,1.89.47.47,4.33,1.27,8.63,2.42,12.77-.32,5.49.15,11.03.82,16.48,1.63,13.26,3.55,26.67,7.57,39.44.68,2.15,1.43,4.29,2.25,6.4,1.98,5.67,4.53,11.16,7.97,16.07.5.71,1.55.61,1.83-.24.16-.47.3-.95.43-1.44.31.64.62,1.28.95,1.91.48.92,1.82.43,1.86-.5.02-.37.02-.75.03-1.12.92.47,1.93.8,3.04.93.32.04.72-.21.86-.5.28-.54.52-1.09.75-1.65.12.12.23.25.36.37.3.29.84.41,1.21.16,2.91-1.97,3.48-5.87,3.63-9.13.2-4.34-.38-8.71-1.01-12.99ZM54.64,64.3c.22,1.71.36,3.43.45,5.15.01.27.02.54.03.8-.59,2.36-1.06,4.75-1.45,7.15-.03.21-.06.43-.09.64-.19-.96-.37-1.92-.55-2.88,0-.67-.01-1.34-.03-2,.19-1.82.44-3.63.79-5.43.23-1.15.5-2.3.83-3.42ZM64.07,189.65c-.18-.86-.38-1.71-.56-2.52-.36-1.6-.65-3.2-.93-4.81.53.41,1.45.26,1.6-.49.12-.58.21-1.15.31-1.73.34,2.61.66,5.22.84,7.84.12,1.72.2,3.5.17,5.28-.53-1.16-1.01-2.35-1.43-3.57ZM62.69,194.99c-.86-1.64-1.6-3.38-2.22-5.16.42,0,.83-.24.93-.71.06-.29.12-.58.17-.88.21.7.43,1.39.66,2.07.32,1.56.53,3.14.45,4.67ZM57.02,191.23c.12,1.64.2,3.31.18,4.97-.13-.32-.25-.63-.38-.95-.38-2.91-.8-5.82-1.23-8.73.4.87.82,1.74,1.25,2.6.06.7.13,1.41.18,2.11ZM42.66,66.99c.31.62.6,1.26.85,1.91-.55-.06-1.13,0-1.71.19-.05-.11-.1-.22-.15-.33.3-.61.64-1.2,1.01-1.77ZM53.28,184.46c.03.18.05.35.08.53-1.05-3.62-1.97-7.28-2.79-10.96-.02-.08-.03-.17-.05-.25-.05-.25-.12-.51-.17-.76-.09-.44-.19-.87-.28-1.31.33,1.1.66,2.2,1.02,3.3.42,1.26.86,2.51,1.32,3.76.29,1.9.59,3.79.88,5.69ZM62.73,178.54c-.32-.66-.63-1.33-.91-2.02-.34-3.64-.88-7.28-1.15-10.87-.51-6.85-.3-13.88-1.86-20.6.36,1.27.72,2.54,1.09,3.81.39,2.18.74,4.36,1.02,6.57.5,3.96.96,7.94,1.69,11.87.17.91.36,1.82.57,2.73.06,2.85-.06,5.7-.46,8.52ZM45.04,74.69c.18,1.13.3,2.27.38,3.42-.27,1.61-.35,3.24-.36,4.88-.16.05-.31.16-.41.31-.08-.33-.18-.65-.27-.98.04-2.13.15-4.27.45-6.37.06-.41.12-.83.2-1.26ZM60.09,137.97c-.12-.19-.25-.36-.37-.55-.17-.88-.34-1.77-.51-2.65.13-.06.25-.14.36-.24.37,1.06.76,2.12,1.19,3.16-.23,0-.46.08-.66.28ZM43.76,119.77c0-.47,0-.95.01-1.45.19-.65.37-1.3.54-1.95.13.7.25,1.39.38,2.09,0,1.17,0,2.33,0,3.5-.03.04-.06.07-.09.11-.27.45-.52.91-.75,1.37-.05-1.22-.08-2.44-.08-3.67ZM46.39,140.86c.03-1.83.09-3.66.15-5.48.13-.84.24-1.69.32-2.55.2,1.14.37,2.28.53,3.43,0,2.47,0,4.94-.03,7.42-.25.06-.49.21-.66.45-.12.17-.22.35-.33.52,0-1.26,0-2.53.02-3.79ZM54.44,125c-.23-1.17-.47-2.33-.74-3.49-.03-.69-.05-1.39-.08-2.08.04.26.08.52.13.78.18,1.01.39,2.01.62,3.01.02.59.05,1.18.07,1.78ZM49.1,103.73c.03-1.09.04-2.17.05-3.26.14-.7.29-1.39.48-2.07-.17,1.78-.35,3.55-.53,5.33ZM50.05,110.7c.2-.11.36-.3.43-.56.32-1.2.57-2.4.79-3.61.1,2.44.16,4.88.21,7.31-.41-1.08-.87-2.14-1.43-3.14ZM50.51,131.89c-.03-1.37-.07-2.74-.08-4.11-.03-3.72.02-7.45-.1-11.17.1.34.21.68.31,1.01.41,1.4.77,2.81,1.09,4.24.13,3.49.28,6.97.46,10.45-.53.44-.98.93-1.35,1.48-.11-.64-.22-1.27-.33-1.9ZM51.4,137.28c.2-.8.5-1.54.92-2.19.22,4.16.43,8.32.59,12.48-.48-3.43-.97-6.86-1.51-10.29ZM55.04,151.26c.01-.33,0-.65.03-.98.06-1.23.16-2.53.34-3.83.07.64.15,1.29.22,1.93-.06,1.98-.22,3.96-.5,5.92-.03-1.02-.06-2.04-.09-3.05ZM44.69,126.46c0,.17,0,.34,0,.51,0,1.89-.03,3.78-.08,5.67-.18-1.49-.34-2.99-.47-4.49.16-.57.34-1.14.55-1.69ZM47.29,147.35c-.02,1.11-.05,2.21-.09,3.32-.11-.65-.22-1.3-.32-1.96.11-.47.25-.92.41-1.36ZM41.78,80.75c.11.32.24.62.35.94.02.67.03,1.36.03,2.05-.18-.73-.34-1.45-.47-2.14.03-.28.07-.57.09-.85ZM49.2,160.7c-.39-1.73-.75-3.45-1.1-5.18.48-.02.93-.36.96-.96.01-.29.02-.58.03-.86.03.32.06.64.09.95.03,2.02.04,4.03.02,6.05ZM41.43,87.71c-.38.85-.72,1.71-1.01,2.59.2-1.19.4-2.4.59-3.62.13.35.27.69.42,1.03ZM59.4,184.77c-.97-5.38-2.16-10.74-3.19-16.08-.38-2.76-.71-5.53-.93-8.31-.01-.57-.02-1.14-.03-1.71.27.08.56.07.79-.06.12,1.39.27,2.78.45,4.16.5,3.81,1.22,7.69,2.39,11.4.32,2.75.71,5.5,1.25,8.22-.01,1.15-.07,2.3-.21,3.44-.18-.35-.35-.7-.52-1.06ZM57.2,85.95c-.33,1.78-.67,3.56-1.01,5.34-.03-.16-.06-.31-.09-.47.1-1.09.21-2.18.32-3.27.21-1.58.37-3.17.49-4.75.09-.81.2-1.61.3-2.41,0,1.84,0,3.67,0,5.51,0,.02,0,.04-.01.06ZM43.7,71.9c-.18.55-.34,1.11-.47,1.67-.19-.89-.43-1.77-.71-2.62.09-.03.18-.07.27-.09.47-.1.85-.05,1.23.19-.12.29-.23.57-.32.85ZM40.63,100.8c.08-1.48.23-2.96.45-4.43.25-.07.47-.22.59-.44.14-.25.25-.52.37-.78-.19,4.47.28,9.03.95,13.44-.02.16-.03.32-.05.47-.12.43-.23.87-.32,1.32-.61.79-1.17,1.6-1.65,2.46-.37-4-.56-8.02-.34-12.04ZM41.94,115.3c-.02.3-.05.6-.06.9-.04.58-.06,1.15-.08,1.73-.07.22-.13.44-.2.66-.08-.64-.15-1.28-.23-1.92.17-.46.37-.92.57-1.37ZM53.91,175.55c.59,2.15,1.29,4.28,2.1,6.36.05.33.09.66.14.99-.63-1.49-1.23-2.99-1.79-4.51-.15-.95-.3-1.9-.44-2.84ZM64.74,158.59c-.18-2.79-.43-5.58-.85-8.36.39,1.5.8,2.99,1.25,4.47.46,3.11.76,6.25.99,9.38-.43-1.84-.9-3.67-1.4-5.5ZM61.07,97.22c.18-.68.35-1.35.54-2.02-.18,1.27-.36,2.53-.54,3.79,0-.59,0-1.18,0-1.77ZM56.75,64.86c-.19-1.48-.43-2.96-.75-4.4.18-.41.36-.82.56-1.23.36,1.5.54,3.02.59,4.56-.14.35-.27.71-.4,1.07ZM40.72,66.39c-.21-.52-.47-1.01-.77-1.48.16-.25.33-.49.52-.72.46.18.89.41,1.29.68-.37.49-.72,1-1.04,1.52ZM35.33,74.88c-.07-.43-.13-.86-.2-1.28-.03-.36-.06-.73-.08-1.09.29-.7.62-1.39.99-2.05-.28,1.47-.51,2.95-.71,4.43ZM38.67,99.5c-.22,2.82-.2,5.67-.06,8.47-.23-1.36-.45-2.72-.64-4.08-.02-.12-.03-.24-.05-.37.23-1.34.48-2.68.74-4.02ZM40.75,127.15c.22,1.58.4,3.16.58,4.74-.02.11-.03.23-.05.34-.28-.72-.54-1.44-.78-2.12-.39-1.12-.74-2.26-1.05-3.41.1-1.64.27-3.3.55-4.94.24,1.8.49,3.59.74,5.39ZM45.16,168.74c-1.37-8.82-2.55-17.83-2.51-26.79.13.77.27,1.55.42,2.32.49,3.15,1,6.3,1.52,9.45.09,1.76.32,3.5.57,5.1.63,4.15,1.75,8.19,2.71,12.27.24,1.13.5,2.26.75,3.38,1.6,7.65,2.79,15.54,6.42,22.56.11.87.22,1.74.33,2.61-2.25-3.7-4.11-7.62-5.66-11.68-2.14-6.25-3.55-12.79-4.55-19.22ZM64.6,195.89c.2.38.41.76.63,1.13-.07.54-.16,1.08-.27,1.61-.24-.32-.47-.65-.69-.98.16-.58.28-1.17.34-1.77ZM62.37,123.21c1.34,6.95,1.99,14.01,2.67,21.05-.21-.76-.43-1.51-.65-2.26-.46-1.92-.84-3.86-1.19-5.8.12-4.78-.85-9.6-2.12-14.26-.28-1.92-.59-3.84-.94-5.75.08-.39.16-.78.24-1.17.81,2.69,1.46,5.44,1.99,8.19ZM60.95,82.69c.55-5.49.73-11.33,2.93-16.38.36,1.76.51,3.56.5,5.36-1.19,3.66-2.38,7.33-3.43,11.02ZM52.7,56.94c.6.97.96,2.31,1.21,3.35-.56,1.38-1.01,2.81-1.39,4.25-.05-.49-.09-.98-.15-1.47-.06-.48-.45-.86-.87-.97.27-1.74.67-3.46,1.21-5.17ZM35.52,67.54c-.22.31-.43.63-.63.95,0-.36,0-.72,0-1.08.19.11.41.15.63.13ZM32.83,94.48c-.15-1.95-.25-3.91-.28-5.88.1,1.96.2,3.92.28,5.88ZM36.65,108.56s.01-.08.02-.12c.31,1.78.65,3.55,1.06,5.3.33,1.41.67,2.9,1.11,4.35-.27.94-.5,1.88-.68,2.84-.28-1.49-.53-2.98-.74-4.48-.36-2.62-.62-5.25-.77-7.89ZM39.39,132.85c.43,1.08.92,2.13,1.49,3.14-.3,3.79-.28,7.61-.08,11.41-.05-.4-.11-.79-.16-1.19-.6-4.43-1.11-8.89-1.25-13.36ZM63.63,202.73c-.89-.19-1.7-.58-2.44-1.09-.01-1.75-.09-3.51-.22-5.25.43.68.87,1.35,1.33,2.02.09.14.21.23.33.31.52.8,1.08,1.56,1.68,2.3-.2.58-.42,1.15-.68,1.71ZM66.79,199.47c.25.34.65.48,1.02.44-.24.4-.52.77-.84,1.09-.15-.16-.3-.31-.45-.47.1-.35.19-.7.27-1.06ZM68.62,197.85c-.08-6.04-.62-12.05-1.4-18.04.19.03.38,0,.56-.06.58,3.76,1.12,7.53,1.24,11.33.06,1.87.16,4.51-.41,6.77Z"/>
    <path class="cls-1" d="M47.26,94.09c-1.15,2.35-1.31,4.8-1.67,7.35-.38,2.71-1.14,5.4-1.95,8.01-.13.42-.29.83-.42,1.25-.05-.39-.11-.78-.18-1.17-.27-1.51-.75-2.95-1.42-4.33-.25-.51-.91-.58-1.37-.36-5.03,2.46-8.05,8.25-10.43,13.04-1.14,2.3-2.16,4.66-3.16,7.02-.73,1.2-1.45,2.41-2.13,3.64-.78,1.39-1.51,2.81-2.23,4.23-1.46,1.79-2.55,3.99-3.47,5.97-1.1,2.36-2.05,4.79-2.91,7.25-.31.7-.63,1.39-.94,2.09-3.77,7.12-7.26,14.36-9.54,22.13-1.92,6.53-3.08,13.84-.82,20.44.17.5.59.73,1.08.7.58,1.68,1.41,3.26,2.59,4.68.1.12.22.19.35.23.19,1.1.45,2.18.8,3.23.85,2.51,2.61,5.06,5.59,4.75,4.87-.51,6.96-7.44,8.14-11.28.24-.78.46-1.57.67-2.36.27.31.56.6.86.89.48.45,1.23.36,1.57-.2,1.48-2.4,2.71-4.89,3.77-7.45.51-.81.97-1.62,1.39-2.39,2.74-5.01,4.66-10.46,6.35-15.89,1.52-4.89,3.01-9.82,4.4-14.75,1.88-6.67,3.69-14.3,1.9-21.2.26-1.59.45-3.18.55-4.78.08-1.39.08-2.88-.08-4.35.04-1.94-.14-3.86-.69-5.65.25-.67.51-1.34.75-2.01,1.01-2.89,1.87-5.83,2.52-8.82.64-2.95.49-6.13,1.84-8.88.56-1.15-1.16-2.17-1.73-1.01ZM28,183.47c-.77,1.14-1.64,2.19-2.61,3.09.59-1.44,1.14-2.88,1.67-4.34.71-1.65,1.33-3.32,1.9-4.89,2.16-5.87,3.76-11.92,5.34-17.97.28-1.06.58-2.12.89-3.16-.87,4.14-1.65,8.3-2.61,12.41-1.17,5.04-2.57,10.09-4.58,14.86ZM7.01,188.75c-.67-3.23-.47-6.74-.04-9.86.78-5.76,2.51-11.38,4.5-16.83-1.85,8.28-3.07,16.76-3.27,25.19,0,.18,0,.36,0,.53-.36.36-.75.69-1.17.96ZM24.7,157.33c-.5,1.31-1.03,2.63-1.61,3.91,0-.01,0-.02,0-.03,1.29-3.81,2.52-7.63,3.77-11.45-.02.54-.04,1.08-.07,1.62-.64,2.01-1.34,3.99-2.09,5.95ZM24.78,146.01c.21-.89.43-1.78.65-2.67.43-.77.87-1.54,1.33-2.29.03.48.04.96.06,1.43-.7,1.17-1.36,2.35-2.03,3.53ZM19.98,159.79c0,.06-.02.12-.03.19-1.34,3.18-2.62,6.38-3.68,9.65.71-2.33,1.56-4.59,2.41-6.73.41-1.04.85-2.07,1.29-3.1ZM21.82,164.85c.17.27.46.43.76.47-.5,1.56-1.01,3.13-1.52,4.69.05-1.21.12-2.42.22-3.63.18-.51.36-1.01.55-1.52ZM31.06,143.37c.26-1.17.49-2.35.67-3.53.14-.26.29-.51.43-.77.02.52.03,1.05.03,1.57-.37.91-.75,1.82-1.13,2.73ZM19,172.34c0,.38.01.75.02,1.13-.33.45-.67.89-1.02,1.32.34-.81.67-1.63,1-2.45ZM17.46,179.79c-.12-.39-.23-.78-.34-1.17.48-.44.95-.89,1.4-1.37-.28.74-.56,1.47-.86,2.21-.07.11-.14.22-.2.33ZM29.95,130.81c-.39.23-.77.49-1.13.77.31-.56.61-1.12.91-1.68.08.3.16.6.21.91ZM37.56,124.24c-.34.54-.68,1.08-1.01,1.63-.22.15-.43.31-.65.47-.19-.55-.42-1.09-.69-1.62.66-2.35,1.25-4.72,1.74-7.11.47-.43.96-.83,1.46-1.21,0,2.64-.32,5.26-.85,7.84ZM33.44,123.75c-.24.1-.47.21-.7.31.15-.31.31-.62.45-.93.33-.71.65-1.42.97-2.14-.23.92-.47,1.84-.72,2.75ZM32.72,126.26c-.33,1.09-.66,2.18-1.01,3.27-.17-.68-.42-1.33-.74-1.94.05-.1.1-.2.15-.29.51-.38,1.04-.73,1.6-1.04ZM16.58,186.67c1.4-.97,2.51-2.47,3.41-4.01.14.61.31,1.2.5,1.79-.19.81-.39,1.63-.6,2.44-.18.68-.37,1.36-.57,2.04-1.18-.11-2.34-.51-3.3-1.21.19-.35.38-.7.57-1.05ZM31.28,159.07c.2-.57.39-1.14.59-1.71-.92,3.4-1.82,6.82-2.77,10.23-.46,1.65-.94,3.3-1.46,4.93,1.09-4.51,2.48-8.96,3.64-13.45ZM18.39,190.81c-.23.13-.48.24-.73.34-.53-.31-1-.66-1.44-1.05.69.33,1.41.56,2.16.71ZM15.66,195.53c-1.56-.23-2.28-1.71-2.67-3.09.39-.51.76-1.02,1.11-1.55.07.07.13.15.21.23.76.75,2.32,2.27,3.49,2.11-.14.34-.28.68-.43,1.01-.21.44-.43.88-.66,1.32-.32.04-.66.04-1.04-.02ZM40.53,110.57s-.06.03-.09.04c-.09-.14-.17-.27-.27-.41-.4-.53-1.05-.67-1.57-.2-.18.16-.35.34-.53.51.03-.28.07-.55.09-.83.03-.28-.06-.5-.21-.66.71-.72,1.48-1.37,2.33-1.91.46,1.14.77,2.32.96,3.53-.22-.11-.47-.17-.7-.08ZM8.16,190.44c0,.63.03,1.26.06,1.9-.25-.5-.47-1.02-.66-1.56.2-.1.4-.22.6-.34ZM35.11,112.6c.09-.14.19-.27.28-.41-.16.52-.34,1.04-.52,1.55-.53.58-1.04,1.17-1.54,1.77.56-.99,1.14-1.97,1.78-2.92ZM16.83,201.24c-.54.5-1.2.93-1.95,1.02-.52.06-.99-.04-1.26-.17-.9-.42-1.43-1.22-1.9-2.24-.65-1.41-1.01-2.98-1.23-4.58.09-.09.18-.17.27-.26.48,2,1.25,3.91,2.44,5.6.3.43.88.67,1.37.36,1.44-.94,2.56-2.24,3.47-3.7.03,0,.05-.01.08-.02.69-.23,1.3-.63,1.83-1.13-.74,1.86-1.67,3.76-3.12,5.12ZM41.46,145.67c-1.23,5.38-3.01,10.61-4.55,15.91-.73,2.51-1.51,5.02-2.36,7.51,1.4-6.11,2.48-12.32,3.93-18.33.91-3.76,2.24-7.42,3.29-11.14.36-1.28.71-2.57,1.04-3.87-.02,3.37-.64,6.8-1.35,9.93Z"/>
    <path class="cls-1" d="M43.57,66.89c-1.32.09-2.64.29-3.93.58.11-.1.23-.2.34-.3.63-.58.15-1.74-.71-1.71-1.67.06-3.27.42-4.82.99.59-.61,1.14-1.24,1.64-1.88.39-.5.4-1.21-.2-1.57-.54-.32-1.1-.54-1.67-.67,1.79-1.51,3.51-3.12,4.94-5.03.62-.82-.56-1.86-1.37-1.37-1.92,1.19-3.79,2.48-5.59,3.86,1.93-3.27,3.41-6.81,3.5-10.5.03-.95-1.07-1.21-1.71-.71-2.49,1.95-4.8,4.11-6.96,6.43-.11.02-.23.05-.33.12-7.09,4.48-11.13,12.91-13.29,20.93-.45,1.15-.87,2.3-1.23,3.48-.11.36,0,.69.22.92-.36,1.95-.61,3.91-.73,5.88-.27,1.35-.28,2.74-.07,4.12.01.07.03.14.04.21.19,3.89.99,7.71,2.61,11.27.79,2.48,2.06,4.79,3.88,6.63.56.57,1.18,1.08,1.81,1.57,2.83,2.96,6.12,5.48,9.47,7.84.82.58,1.9-.56,1.37-1.37-2.27-3.45-5.94-5.24-9.15-7.65-.13-.1-.23-.21-.36-.3-.56-.59-1.1-1.18-1.61-1.81-1.39-1.69-2.53-3.53-3.46-5.48-.18-.53-.34-1.07-.47-1.62.89,1.25,1.85,2.45,2.83,3.57,1.76,2.02,3.71,3.98,5.82,5.74.06.12.12.24.18.35.2.38.53.51.85.49,1.51,1.19,3.1,2.27,4.75,3.18.76,1.1,1.53,2.19,2.31,3.27.76,1.04,2.27.17,1.73-1.01-1.01-2.19-2.28-4.23-3.63-6.24,2.91,1.39,5.95,2.4,9.26,2.5.84.02,1.36-1.13.71-1.71-.07-.06-.13-.12-.2-.18-.02-.14-.06-.28-.17-.43-2.5-3.41-5.31-6.61-8.48-9.4-2.34-2.06-4.94-3.98-7.82-5.23-.22-.46-.44-.91-.65-1.37-.29-.96-.64-1.9-1.02-2.83.44.25,1.04.13,1.38-.34,2.25-3.14,2.93-7.23,3.29-10.98,0-.06,0-.12.01-.18,3.67-1.46,7.44-2.76,10.79-4.83.36-.22.55-.69.47-1.09,2.19-1.24,4.27-2.65,6.12-4.42.6-.57.17-1.76-.71-1.71ZM40.21,69.37c-1.16.85-2.37,1.62-3.62,2.32-.43-.21-.87-.36-1.33-.46.26-.21.51-.42.76-.63,1.38-.5,2.78-.92,4.19-1.23ZM17.31,98.52c1.04.76,2.1,1.48,3.17,2.19.06.14.13.29.19.43-.31-.17-.61-.34-.92-.5-.28-.15-.58-.12-.85-.01-.56-.68-1.09-1.38-1.59-2.1ZM33.96,73.06c-.95.47-1.92.91-2.89,1.35.61-.44,1.21-.88,1.81-1.33.36-.03.72-.04,1.08-.02ZM16.42,88.61c.4.19.88.18,1.21-.16.07-.07.13-.15.19-.22.28,1.46.6,2.91.94,4.36-.14-.08-.29-.11-.44-.12-.69-.71-1.41-1.38-2.23-1.95-.09-.06-.18-.1-.28-.12.13-.63.28-1.26.45-1.89.05.03.1.06.15.09ZM21.21,68.75c-.17-.08-.36-.14-.54-.19,1.29-2.12,2.71-4.16,4.2-6.11-.16.48-.3.96-.45,1.44-1,1.66-2.07,3.28-3.21,4.86ZM15.44,92.85c.67.91,1.37,1.81,2.1,2.67-.73-.4-1.47-.8-2.22-1.17.02-.5.07-1,.13-1.49ZM14.58,87.16c-.35,1.19-.64,2.39-.86,3.6-.31-1.61-.3-3.23.15-4.73.19.41.43.79.71,1.14ZM30.88,106.7c.19.12.41.17.63.16.69.46,1.38.92,2.08,1.38.7.45,1.34-.09,1.44-.74.09.08.19.16.28.23.53.51,1.06,1.01,1.6,1.51-2.15-.44-4.2-1.26-6.2-2.26.07-.08.13-.18.18-.28ZM32.55,69.85c.11-.13.2-.28.31-.42.99-.52,2.01-.99,3.06-1.33-.31.26-.62.52-.93.78-.82.31-1.63.63-2.43.98ZM33.74,64.28c-.18.2-.36.4-.55.6-.02,0-.04-.02-.06-.02-.61-.11-1.23-.14-1.84-.13.21-.17.42-.34.63-.5.64-.08,1.25-.08,1.82.05ZM33.4,51.66c-.41,1.9-1.2,3.72-2.08,5.43-1.02,1.97-2.21,3.84-3.48,5.66.06-.42.12-.84.18-1.25.87-1.68,1.65-3.4,2.34-5.16.2-.51-.18-1.03-.66-1.21,1.19-1.21,2.42-2.37,3.7-3.47ZM23.15,86.8c-.2-1.3-.28-2.63-.27-3.96.19-.78.34-1.58.47-2.38.49-.23.97-.45,1.47-.66-.25,2.37-.7,4.81-1.66,7Z"/>
    <path class="cls-1" d="M85.22,85.41c-.69-3.04-2.23-5.78-4.23-8.15.55.32,1.12.62,1.69.89.95.45,2.13-.77,1.21-1.57-2.21-1.92-4.22-4.07-6.11-6.32.74.64,1.52,1.24,2.38,1.76,1.02.63,1.9-.74,1.21-1.57-2.08-2.5-4.42-4.77-6.89-6.9-2.17-3-4.13-6.2-6.83-8.7-.88-.82-2.01.2-1.57,1.21.24.56.5,1.12.77,1.67-.72.04-1.28,1.1-.66,1.73,1.3,1.34,2.48,2.79,3.58,4.3-.6-.71-1.52-.11-1.63.65-.56-1.37-1.14-2.73-1.75-4.08-.39-.88-1.99-.47-1.86.5.13.97.32,1.91.54,2.85-.28-.31-.55-.63-.83-.94-.48-.51-1.55-.3-1.67.44-.12.7-.07,1.39-.13,2.09-.04.47.2.76.53.88-.26.24-.41.58-.29.97,1.12,3.43,2.42,6.8,3.88,10.09,1.39,3.15,2.89,6.37,5.08,9.05.27.33.65.36.98.24.18.88.33,1.76.43,2.65-.25.04-.47.18-.61.48-.3.64-.61,1.27-.94,1.89-5.2,4.08-9.55,9.19-12.25,15.26-.21.48-.03,1.04.34,1.34-.35.95-.67,1.91-.94,2.86-.25.87.63,1.41,1.32,1.16-.53.8-1.03,1.63-1.45,2.49-.56,1.15,1.03,2.1,1.73,1.01.59-.93,1.14-1.88,1.67-2.84.93-1.36,1.97-2.66,3.03-3.94.14.07.29.11.49.08.01,0,.03,0,.04,0-.08.25-.17.49-.25.74-.31.55-.63,1.09-.95,1.63-1.08,1.4-2.12,2.83-2.99,4.37-.54.95.83,2.12,1.57,1.21.05-.07.1-.14.16-.2h0s0,0,0,0c.05-.07.1-.13.15-.2-.18.62-.35,1.24-.53,1.86-.31,1.08,1.28,1.77,1.83.77,2.15-3.9,4.95-7.47,7.3-11.26.49.27,1.17.12,1.43-.58.29-.78.52-1.58.73-2.38.27.33.72.48,1.1.37.49.31,1.24.16,1.51-.54.15-.37.28-.76.41-1.15.3.14.66.14.95-.01,2.25-1.18,3.68-3.29,4.56-5.64.26-.05.49-.19.64-.43,2.23-3.66,3.06-7.9,2.1-12.09ZM78.15,78.58c.08,0,.16-.02.24-.04.55.93,1.12,1.86,1.65,2.8-.65-.91-1.28-1.83-1.89-2.76ZM75.94,74.46c-.18-.17-.36-.35-.54-.52-.08-.39-.16-.78-.24-1.17.02.02.05.05.07.07.25.54.49,1.08.71,1.62ZM78.39,93.54c.62-2,1.38-3.97,1.79-5.82.1-.44-.05-.76-.29-.97.22-.47.46-.93.71-1.39.19.24.4.47.59.7.28,1.04.45,2.11.51,3.2-.14.05-.27.11-.37.21-1.25,1.19-2.19,2.59-2.95,4.11,0-.01,0-.03,0-.04ZM66.73,68.97c-.77-.97-1.55-1.92-2.36-2.82-.08-.09-.17-.15-.26-.19.06-.05.11-.12.15-.18.79.92,1.57,1.85,2.32,2.8.05.13.1.27.15.4ZM66.54,71.93c.57.74,1.13,1.48,1.69,2.22.39,2.52,1.4,5.13,2.91,7.35.03.21.05.43.08.64-1.13-1.91-2.04-3.97-2.92-5.95-.62-1.41-1.2-2.83-1.76-4.27ZM77.87,101.2c-.03-.08-.05-.17-.07-.25.89-2.94,1.77-5.96,3.52-8.4.05.66.06,1.33.05,1.99-.47,2.5-1.49,5.1-3.5,6.66Z"/>
    <path class="cls-1" d="M85.15,75.56c-.09-.05-.18-.08-.29-.1-.34-.43-.71-.83-1.13-1.17.25-.32.35-.79.17-1.17-1.17-2.49-2.6-4.85-4.22-7.08-.52-1.2-1.23-2.32-2.06-3.35-.16-.34-.3-.7-.45-1.05.75.09,1.56-.71,1.03-1.47-1.93-2.74-4.15-5.32-7.17-6.9-.01,0-.02,0-.03,0-.42-.29-.84-.57-1.27-.85-.21-.14-.41-.17-.6-.14-1.23-.78-2.5-1.48-3.85-2.07,0,0-.02-.01-.03-.02,0,0,0,0,0,0-.08-.03-.16-.07-.24-.11-1.1-.46-1.59,1.15-.81,1.79-.22.01-.44.03-.67.04-1.81-.62-3.65-1.15-5.55-1.47-.68-.12-1.38.52-1.28,1.14-1.02-.03-2.04.04-3.04.24-2.52-.24-5.1-.23-7.54.4-.59.15-.96.94-.6,1.47.19.28.43.54.67.79-.89.22-1.76.55-2.56,1.02-.24.14-.38.35-.44.57-2.09.5-4.17,1.02-6.26,1.5-.25.06-.5.11-.75.17-1.81.24-3.62.49-5.41.79-.66.11-.82.72-.64,1.23-1.44.51-2.86,1.13-4.25,1.89-.88.48-.47,1.86.5,1.86,1.57,0,3.12-.15,4.66-.42.5-.09.71-.44.71-.82.92-.14,1.84-.29,2.76-.44-.16.39-.08.85.23,1.11-.56.27-.62.89-.33,1.35-.02,0-.04,0-.06.01-1.13.2-.83,1.96.27,1.96,4.6.02,9.19.38,13.79.33,4.38-.05,9.02-.31,13.04-2.17.54-.25.59-.88.34-1.33.58-.31,1.14-.66,1.66-1.07.59-.46.24-1.52-.44-1.67-1.61-.36-3.22-.57-4.83-.67.03-.02.07-.03.1-.05.67,0,1.33-.04,1.99-.09,1.55.2,3.1.27,4.59.06.51-.07.75-.58.71-1.05.31-.29.39-.76.24-1.14.11-.06.23-.1.33-.17.1-.07.18-.14.25-.23.59.14,1.19.26,1.8.34.66.09,1.02-.56.96-1.14.36.15.72.29,1.08.44.44.18.78,0,.99-.3.37.26.75.5,1.16.71.14.07.28.1.42.1.12.09.23.18.35.27.1.07.2.1.29.13.18.17.35.35.52.54-.06.17-.08.36-.03.56.04.13.09.26.13.38-.4-.46-.79-.93-1.2-1.37-.48-.52-1.21-.29-1.54.19-.29-.17-.58-.34-.87-.49-.93-.48-1.78.47-1.37,1.37.55,1.22,1.17,2.4,1.82,3.57-.17.34-.17.77.13,1.15,1.21,1.55,2.35,3.14,3.48,4.75,1.17,1.77,2.39,3.52,3.59,5.27.2.29.39.58.59.88.09.27.19.54.28.81-.21.26-.29.62-.24.94.31,2.05.52,4.66,1.31,6.9.16.78.32,1.57.45,2.36.11.68.77.83,1.3.62.41.42.89.77,1.44,1.04.11.18.26.31.41.36.29.43.62.82,1.03,1.12-.86,2.55-2.43,5.61-5.03,5.52-1.29-.05-1.29,1.95,0,2,3.81.13,6-4.04,7.09-7.42,0-.01.02-.01.02-.03.98-1.43,1.19-3.26,1.03-5.06.3-3.08-.07-6.53-2.68-7.95ZM84.56,78.79c.29.69.53,1.37.71,1.97.22.77.44,1.64.55,2.53-.08,1-.24,2-.47,2.97-.08-.12-.16-.24-.23-.37.15-1.92.13-4.77-.55-7.1ZM46.29,59.77c1.45-.26,2.91-.52,4.36-.78.73.13,1.47.24,2.22.33-1.46.31-2.92.52-4.29.7-.14.02-.29.03-.43.05-.62-.09-1.24-.19-1.85-.3ZM48.54,53.8c1.31-.16,2.66-.18,4-.09-.52.13-1.05.26-1.57.39-.65-.03-1.3-.04-1.95-.02-.17-.09-.33-.18-.49-.28Z"/>
    <path class="cls-1" d="M37.09,97.91c-1.63,2.89-2.72,6.08-3.64,9.25-.1.36-.19.72-.29,1.08.01-.96.01-1.93,0-2.91.11-1.19.16-2.38.13-3.56.49.13,1.07-.11,1.26-.68,1.01-3.17.88-6.54.3-9.84.24-.24.39-.58.32-.95-.79-3.96-1.7-7.91-2.92-11.75-.56-5.07-2.45-9.98-4.05-14.77-.41-1.22-2.21-.73-1.93.53.4,1.77.84,3.53,1.29,5.3-.63-.06-1.37.51-1.14,1.25,1.27,4.13,2.42,8.31,3.8,12.4,0,.23,0,.46,0,.69-1.16-2.14-2.19-4.34-3.2-6.56-.74-1.73-1.54-3.43-2.37-5.13-.57-1.16-2.28-.14-1.73,1.01.72,1.5,1.41,3.01,2.1,4.53.5,1.16.99,2.33,1.44,3.5-.15.22-.22.48-.15.77.89,3.76,1.77,7.55,3.48,11.02-.03,2.56-.13,5.17-.02,7.75-1.64,5.92-3.44,11.82-2.69,17.98.06.49.47.88.91.98-.4,1.37-.77,2.74-1.11,4.12-4.04,6.36-6.75,13.41-9.69,20.35-.04.04-.09.06-.13.11-5.58,6.72-10.35,14.14-16.74,20.15-.94.88.48,2.3,1.41,1.41,4.17-3.92,7.65-8.44,11.12-12.98-.06.37-.1.75-.11,1.14-.02.97,1.4,1.39,1.86.5,4.08-7.79,6.85-16.24,10.83-24.06-.15.79-.31,1.59-.45,2.38-.36.46-.72.92-1.1,1.37-.56.67-.08,1.53.55,1.7-.37,2.16-.73,4.32-1.1,6.47-.19,1.25,1.71,1.81,1.93.53.53-3.49,1.39-6.91,2.35-10.29.81-1.13,1.58-2.3,2.3-3.49.12.27.24.54.37.8.35.68,1.36.62,1.73,0,1.56-2.65,2.02-5.8,2.08-8.91,1.22-2.79,2.28-5.68,3.06-8.63.47-1.37.82-2.78.89-4.25.03-.64-.57-1-1.13-.97.59-2.89,1.25-5.75,2.02-8.59.3-1.08-1.26-1.77-1.83-.77ZM30.23,109.39c0,.2.05.36.13.5-.38,1.51-.85,2.99-1.4,4.43.15-2.61.64-5.19,1.28-7.76,0,.94,0,1.89-.01,2.83ZM30.58,122.5c.09-.32.18-.64.27-.95.11-.4,0-.7-.21-.91.11-1.63.38-3.23.72-4.7.04.34.08.67.12,1.01.01.11.05.2.09.29,0,.1.02.21.03.31.03.36.22.61.45.76.04.78.05,1.57.05,2.37-.13.29-.26.59-.39.88-.34.73-.69,1.46-1.06,2.18-.03-.41-.06-.82-.07-1.24Z"/>
  </g>
</svg>