<?xml version="1.0" encoding="utf-8"?>
<!-- Generator: Adobe Illustrator 28.2.0, SVG Export Plug-In . SVG Version: 6.00 Build 0)  -->
<svg version="1.1" id="Layer_2_00000036952610996823151880000004020007080931309446_"
	 xmlns="http://www.w3.org/2000/svg" xmlns:xlink="http://www.w3.org/1999/xlink" x="0px" y="0px" viewBox="0 0 67 171"
	 style="enable-background:new 0 0 67 171;" xml:space="preserve">
<style type="text/css">
	.st0{fill:#231F20;}
</style>
<g id="Layer_5">
	<path class="st0" d="M55.5,150.4c0.4-0.5,0-1.3-0.6-1.5c-6.2-1.9-12.8-2.1-19.2-2.1c1.6-2.2,3.4-4.2,5.2-6.3
		c0.5-0.2,1.1-0.5,1.7-0.7c0.6-0.2,0.8-0.9,0.6-1.3c0.7-0.5,1.3-1.1,1.9-1.7c0.5-0.5,0.3-1.1-0.1-1.4c0.4-0.6,0.8-1.2,1.3-1.8
		c0.4-0.7-0.2-1.5-0.9-1.5c-5.9-0.4-12.1,0.6-17.7,2.5c-5.6,1.9-11.6,5-14.6,10.3c-2.1,3.8-2.3,9.1-0.4,13.1c0,0.8,0.1,1.7,0.4,2.5
		c0.7,1.8,2.1,2.8,4,3.1c0.6,0.1,1.2,0.2,1.9,0.2c2,1,4.2,1.7,6.2,2.1c7.2,1.5,15.3,1.1,22.1-1.9c3.1-1.4,5.9-3.6,7.3-6.9
		c0.2-0.5-0.2-1.1-0.7-1.2c-0.7-0.2-1.5-0.4-2.2-0.6c0.1-0.2,0.1-0.5,0-0.7c0.4-0.2,0.7-0.7,0.6-1.2
		C53.4,152.6,54.5,151.6,55.5,150.4L55.5,150.4z M43.6,161.4c-2.6,0.8-5.5,1-8.1,1.1c-1.5,0.1-3,0.1-4.5,0c2-0.6,3.9-1.2,5.8-1.9
		c-0.1,0.6,0.4,1.2,1.2,1.1C39.9,161.4,41.8,161.3,43.6,161.4z M22.6,142.8c1.9-0.8,3.9-1.3,5.9-1.7c0.3,0.2,0.6,0.5,0.8,0.8
		c-0.6,0.8-1.3,1.7-1.9,2.6c0,0,0-0.1-0.1-0.1c-0.2-0.4-0.7-0.6-1.1-0.5c-1.4,0.4-2.5,1-3.4,1.9c-0.5-0.1-1-0.2-1.6-0.2
		c-0.5,0-1,0.1-1.4,0.3c0.3-0.8,0.8-1.7,1.3-2.4C21.6,143.2,22.1,143,22.6,142.8L22.6,142.8z M23,151.5c0.4,0.4,1.1,0.6,1.5,0.1
		c0.1-0.1,0.1-0.1,0.1-0.2c0,0.2,0,0.5,0.1,0.8c-0.9-0.3-1.8-0.4-2.8-0.5C22.4,151.7,22.7,151.6,23,151.5z M22.1,154
		c0-0.1,0-0.2,0-0.2c0.6,0,1.2,0.1,1.8,0.3c-0.1,0.1-0.2,0.2-0.2,0.3C23.1,154.4,22.6,154.2,22.1,154z M26,146.1
		c0,0.1,0.1,0.2,0.1,0.3c-0.2,0.3-0.5,0.7-0.7,1c-0.2-0.2-0.5-0.4-0.7-0.6C25.1,146.5,25.5,146.3,26,146.1L26,146.1z M24.2,149
		c-0.6,0.2-1.1,0.5-1.7,0.6c0.2-0.5,0.5-1,0.8-1.5C23.6,148.4,23.9,148.7,24.2,149L24.2,149z M20.3,150c-0.1,0-0.1,0-0.2,0
		c-0.3,0-0.5,0-0.8-0.1c0-0.3-0.1-0.6-0.1-0.9c0.2-0.4,0.6-0.8,1-1.1c0.4-0.2,0.8-0.3,1.1-0.4C20.8,148.3,20.5,149.1,20.3,150z
		 M31.1,158.8c1.7-0.1,3.3-0.2,5-0.4c-2.5,0.9-5.1,1.6-7.7,2.3c0.7-0.6,1.5-1.2,2.3-1.6C30.8,159,31,158.9,31.1,158.8z M24.1,156.5
		c0.2-0.1,0.3-0.3,0.5-0.4c0,0,0,0,0,0c0.6-0.2,1.1-0.5,1.5-0.8c0.1,0.2,0.2,0.3,0.2,0.5c0,0,0,0.1,0,0.1
		C25.5,156.1,24.8,156.3,24.1,156.5L24.1,156.5z M19.1,154.1c0.4,0.4,0.8,0.8,1.2,1.2c0.2,0.7,0.5,1.4,0.8,2
		c0.2,0.3,0.5,0.4,0.8,0.5c0,0.1,0,0.2,0,0.3c-1.4-0.2-2.5-1.2-3-2.7c-0.1-0.3-0.2-0.7-0.3-1.1C18.8,154.2,19,154.1,19.1,154.1z
		 M20.9,159.8c1.7,0.5,3.7,0.1,5.2-0.9c0.4,0,0.8,0,1.2,0c-1,0.8-1.9,1.8-2.4,2.9c0,0,0,0,0,0c-0.3,0-0.6,0.1-0.9,0.1
		c-0.2,0-0.4,0-0.6-0.1c-1-0.1-2-0.1-2.9-0.1c-0.7-0.1-1.3-0.3-1.9-0.6c-0.1-0.1-0.3-0.1-0.4-0.2c-1.5-1-2.7-2.4-3.2-4
		c0.2-0.4,0.4-0.8,0.8-1.2c0.3-0.3,0.7-0.6,1.1-0.8C17.3,157.2,18.5,159.2,20.9,159.8L20.9,159.8z M33.6,140.3
		c0.2,0,0.5-0.1,0.8-0.1c-0.5,0.5-1,1.1-1.5,1.6C33.1,141.3,33.4,140.8,33.6,140.3z M14.2,147.3c2.1-5.2,7.6-8.3,12.6-10.2
		c5.2-2,11-3.2,16.7-3.1c-0.4,0.6-0.8,1.1-1.2,1.6c-1,0.4-2,0.8-3,1.4c-0.1-0.7-1-1.3-1.6-0.6c-0.4,0.5-0.9,1.1-1.3,1.6
		c-1.3,0.1-2.6,0.2-4,0.4c-1.2,0.2-2.4,0.3-3.6,0.6c-1.5-0.7-3.4-0.9-5-0.2c-1.6,0.6-2.9,1.8-4,3.1c-2.4,1.3-4.4,3.3-4.3,6.2
		c0,1.2,0.5,2.1,1.2,2.7c-0.1,0.4-0.1,0.8-0.1,1.2c0,0.3,0,0.5,0,0.8c-0.8,0.4-1.5,0.9-2.1,1.5c-0.2-0.3-0.5-0.4-0.9-0.4
		C13.2,151.7,13.4,149.2,14.2,147.3L14.2,147.3z M26.6,164.3c1.7,0.2,3.3,0.2,5,0.3c3,0,6.1-0.1,9.1-0.6c0.3,0,0.6-0.1,0.8-0.1
		c-1.4,0.3-2.7,0.5-3.9,0.7C34.1,164.9,30.3,164.9,26.6,164.3L26.6,164.3z M48.3,161.3c0.2-0.5,0-1.2-0.6-1.4
		c-1.2-0.3-2.5-0.5-3.7-0.5c1.8-0.7,3.5-1.5,5.2-2.4c0,0,0.1,0,0.1,0c1,0.1,1.9,0.3,2.9,0.5C51.2,159.1,49.9,160.3,48.3,161.3
		L48.3,161.3z M50.4,152.3c-0.2,0-0.3-0.1-0.5-0.1c0.1-0.1,0.3-0.3,0.4-0.5c0.5-0.7-0.3-1.7-1.1-1.5c-2,0.5-4,1-6,1.4
		c-4.1-0.4-8.3,0.1-12.2,1c-0.3,0.1-0.5,0.3-0.6,0.5c-0.9,0-1.8-0.1-2.5-0.4c0.5-1.3,0.8-2.8,0.7-4.2c0.6-0.4,1.1-1,1.6-1.5
		c1.2-1.1,2.5-2.2,3.7-3.4c0.2,0,0.4,0,0.6-0.1c0.6-0.3,1.2-0.6,1.8-0.9c-1.2,1.4-2.4,2.9-3.4,4.5c-0.4,0.6,0.1,1.5,0.9,1.5
		c6.4,0,12.9,0.1,19.1,1.6C52.1,151.1,51.2,151.8,50.4,152.3L50.4,152.3z"/>
</g>
</svg>
