<?xml version="1.0" encoding="UTF-8"?>
<svg id="Layer_2" data-name="Layer 2" xmlns="http://www.w3.org/2000/svg" viewBox="0 0 331.07 163.15">
  <defs>
    <style>
      .cls-1 {
        fill: #231f20;
        stroke-width: 0px;
      }
    </style>
  </defs>
  <g id="Layer_4" data-name="Layer 4">
    <path class="cls-1" d="M127.97,88.34c-.69-1.47-1.45-2.91-2.31-4.28-4.38-6.99-10.45-12.6-17.3-16.3-2.14-1.16-4.35-2.08-6.6-2.84-7.35-4.22-15.6-6.63-23.87-7.64-9.95-1.21-20.33-.36-30.03,2.83-11.35,1.01-22.54,4.8-31.71,12.55-5.98,5.05-10.76,11.65-13.57,19.46C.3,98.49-.39,105.23.2,112.03c.52,6.02,1.87,12.39,5.12,17.32.52.8,1.09,1.51,1.7,2.16,1.35,5.36,3.72,10.41,7.18,14.76,9.35,11.77,23.97,15.79,37.49,16.67,14.63.96,29.8-1.56,43.4-7.74,5.69-2.59,11.23-5.94,16.08-10.18,11.35-4.95,21.99-13.57,24.62-27.71,2.01-10.78-1.84-20.84-7.81-28.99ZM127.13,91.34c5.13,12.15,3.83,27.43-3.91,37.83.69-1.5,1.33-3.04,1.86-4.66.43-1.28.77-2.59,1.07-3.89,1.03-3.61,1.61-7.39,1.6-11.16-.01-3.71-.59-7.25-1.61-10.61-1.35-6.13-3.75-12.01-7-17.22,1.12,1.05,2.2,2.13,3.24,3.25,1.37,1.47,2.68,3.04,3.92,4.69.28.59.57,1.17.82,1.78ZM62.91,156.4c-.21.02-.42.04-.62.06-9.47.22-19.05-1.91-27.15-7.27,9.79,3.98,20.64,5.03,30.91,4.66,3.54-.13,7.09-.44,10.62-.85.45-.04.91-.06,1.36-.1,1.62-.16,3.23-.37,4.85-.61-2.15.86-4.36,1.59-6.6,2.18-4.46.83-8.94,1.43-13.36,1.93ZM48.26,62.33c1.99-.17,3.99-.25,5.99-.25-6.33,1.88-12.45,4.79-18.13,8.26-5.57,3.4-11.18,7.63-15.96,12.72.28-.44.55-.89.84-1.32,4.71-6.78,11.24-11.9,18.13-15.53,2.95-1.55,6.01-2.83,9.13-3.87ZM118.06,83.78c-2.56-3.2-5.46-6.08-8.52-8.59-2.87-2.36-5.94-4.47-9.13-6.34,4.05,1.9,7.97,4.23,11.66,6.91,2.23,2.44,4.25,5.11,5.99,8.01ZM82.8,149.94c-2.26.31-4.52.61-6.79.87-.6.04-1.21.1-1.81.13-9.09.47-18.39-.42-27.07-3.61-7.18-2.63-14.28-7.11-18.51-14.36-4.63-7.93-4.68-17.6-2.48-26.49,3.72-15.02,12.21-28.37,24.51-35.87,4.33-2.64,9.01-4.51,13.82-5.68,2.44-.39,4.89-.68,7.34-.87,12.38,2.81,24.49,8.79,33.22,19.1,5.21,6.16,8.8,13.82,9.32,22.39.49,8.03-1.53,16.01-5.08,22.95-4.49,8.78-11.1,15.41-18.79,20.02-1.2.3-2.41.57-3.62.82-1.36.22-2.71.43-4.07.61ZM28.12,143.15c-3.65-4.01-6.63-8.81-9-13.86-3.49-7.44-5.58-15.8-5.44-24.25.06-3.33.5-6.63,1.29-9.8,7.55-12.49,19.52-20.87,32.15-25.68.91-.35,1.83-.68,2.75-.99-1.22.73-2.41,1.51-3.57,2.35-11.71,8.55-19.92,22.85-22.77,38.15-1.76,9.44-.72,19.3,4.66,27.06,5.13,7.4,13.01,11.76,20.91,14.22.83.26,1.68.48,2.52.7-8.23-1.01-16.39-3.37-23.5-7.89ZM9.71,117.01c-.57-3.3-.54-6.66-.03-9.93.63-2.1,1.39-4.16,2.28-6.14-.37,3.63-.36,7.32.06,10.98.88,7.54,3.3,14.78,6.76,21.31-.11-.02-.22-.03-.34,0-.39.08-.77.14-1.14.18-.46-.59-.92-1.19-1.35-1.81-2.06-4.87-4.02-9.8-6.25-14.58ZM18.99,135.38c.37-.08.57-.33.66-.62.31.54.6,1.09.92,1.62.38.63.78,1.24,1.18,1.85-.49-.46-.99-.92-1.47-1.41-.45-.46-.88-.94-1.32-1.43,0,0,0,0,.01,0ZM118.3,132.48c-1.96,2.75-4.24,5.14-6.73,7.25-3.08,1.96-6.31,3.62-9.58,4.99-1.61.68-3.24,1.28-4.89,1.84,7.09-5.65,12.88-13.21,16.34-22.49,2.85-7.66,3.83-16.18,2.14-24.32-1.79-8.62-6.55-15.96-12.42-21.7-6.87-6.72-15.16-11.33-23.92-14.23,1.18,0,2.36.04,3.53.1,9.97,2.59,19.63,7.67,27.54,14.75,6.25,5.59,11.59,12.89,14.02,21.29,1.41,6.98,1.33,14.24-.41,21.11-1.3,4.14-3.23,8.07-5.62,11.42ZM63.83,62.66c.12.01.24.03.35.05,0,0-.02,0-.03,0-6.38,1.01-12.67,2.7-18.71,5.12,5.59-2.58,11.42-4.46,17.37-5.28.34.04.68.07,1.02.11ZM7.77,117.69c.03.06.05.11.08.17.19,1.07.42,2.14.73,3.18,1.23,4.26,3.23,8.24,5.71,11.79.07.17.15.35.22.52-2.3-.35-4.21-1.49-5.79-3.15-.94-4.08-1.22-8.31-.94-12.51ZM21.41,140.82c1.8,1.58,3.69,2.97,5.65,4.22,2.87,3.09,6.11,5.72,9.79,7.75,4.07,2.25,8.41,3.81,12.87,4.77-2.19.15-4.38.25-6.57.11-6.21-.39-12.13-2.71-16.68-7.57-3.07-3.28-5.39-7.3-7.39-11.48.76.77,1.53,1.51,2.33,2.21ZM112.81,73.18c1.92,1.43,3.73,3.04,5.43,4.8-1.53-1.32-3.11-2.57-4.73-3.75-.55-.59-1.11-1.17-1.68-1.72.32.23.65.43.98.67ZM84.33,60.64c2.15.48,4.31,1.07,6.44,1.77-1.19-.16-2.38-.3-3.57-.41-.16-.03-.31-.07-.47-.1-1.9-.37-3.84-.6-5.78-.72-2.68-.59-5.38-1.02-8.08-1.24-3.46-.29-6.92-.15-10.35.33-1.09-.11-2.18-.21-3.27-.28-.45-.03-.91-.04-1.36-.06,8.79-1.49,17.84-1.21,26.45.71ZM2,108.26c-.29-15.48,7.73-28.97,19.34-36.82,5.51-3.72,11.5-6.19,17.7-7.66-2.44,1.24-4.81,2.64-7.08,4.23-6.74,4.72-12.75,11.07-16.37,19.1-.49,1.1-.93,2.23-1.33,3.36-2.19,3.32-4.01,6.91-5.28,10.8-.55,1.69-.96,3.42-1.24,5.17-1.95,6.49-2.56,13.36-1.7,19.97-2.82-5.32-3.94-12.61-4.04-18.16ZM12.54,140.15c-1.15-2.03-2.06-4.16-2.8-6.33,1.75,1.1,3.69,1.72,5.75,1.83.19.42.37.85.56,1.27,2.71,6.05,5.91,12.12,10.68,16.41.83.75,1.7,1.42,2.59,2.03-6.74-3.2-12.72-8.04-16.78-15.2ZM87.94,155.7c-13.32,4.7-27.73,6.33-41.6,4.48-.45-.06-.91-.14-1.36-.21.11,0,.23,0,.34,0,5.67.02,11.43-.58,17.1-1.27,4.99-.12,9.97-.87,14.75-2.17,8.96-1.69,17.85-4.25,25.99-8.6.45-.14.9-.27,1.34-.42-5.2,3.51-10.91,6.18-16.56,8.17ZM132.88,120.61c-2.91,9.18-9.39,15.35-16.88,19.59.74-.84,1.45-1.7,2.13-2.6,3.3-2.78,6.26-6.05,8.58-9.89,5.41-8.96,6.66-20.03,4.4-30.21.6,1.29,1.14,2.6,1.59,3.97,2.05,6.22,2.17,12.88.18,19.13Z"/>
    <path class="cls-1" d="M325.41,101.34c-1.12-1.78-2.34-3.5-3.64-5.16-.63-1.78-1.37-3.52-2.23-5.21-.26-.84-.54-1.66-.85-2.47-2.38-6.18-6.65-11.27-12.07-15.03-2.02-1.4-4.15-2.61-6.35-3.68-.52-.29-1.04-.58-1.57-.86-12.42-6.42-26.62-8.61-40.46-9-13.66-.39-27.83.99-40.61,6.12-12.32,4.95-22.66,13.69-27.71,26.18-4.77,11.79-5.42,26.29,1.64,37.31,1.92,2.99,4.27,5.6,6.91,7.88,1.29,2.31,2.8,4.48,4.51,6.47,4.21,4.89,9.67,8.51,15.61,10.95,12.61,5.18,26.96,5.25,40.27,3.44,10.73-1.46,21.5-4.22,31.5-8.58,5.19,1.47,11-.46,15.69-2.67,6.29-2.95,12.08-7.26,16.85-12.28,3.84-4.04,7.64-9.04,8.1-14.78.53-6.61-2.15-13.13-5.6-18.63ZM318.38,112.34c-.8,3.32-2.06,6.4-3.69,9.26.8-2.27,1.39-4.61,1.75-7,1.57-3.98,2.57-8.23,2.9-12.46.12,3.44-.17,6.89-.97,10.21ZM292.78,141.15c-11.71,5.92-24.81,8.71-37.87,9.21,2.34-.26,4.67-.56,6.99-.94,13.73-2.26,27.78-6.7,39.05-15.11,4.3-3.21,8.15-7.03,11.16-11.46-1.03,2.51-2.33,4.9-3.85,7.17-4.43,4.55-9.82,8.26-15.49,11.13ZM268.98,64.43c6.7.65,13.7,1.6,20.39,3.45,5.06,1.8,9.88,4.3,14.25,7.46,4.18,3.03,7.92,6.82,10.91,11.12.49.99.92,1.99,1.29,3.03-1.84-1.84-3.76-3.6-5.74-5.27-5.46-4.61-11.44-8.76-17.89-11.86-12.51-6.01-27.1-5.99-40.58-4.12-3.1.43-6.21.98-9.31,1.64,6.31-2.45,12.91-4.15,19.52-4.99,2.37-.3,4.77-.45,7.16-.46ZM317.48,98.89c.02,2.5-.24,5.03-.73,7.54-.05-.67-.11-1.34-.2-2.01-.85-6.51-3.33-12.8-7.15-18.14,2.63,2.27,5.17,4.68,7.51,7.26.34,1.75.55,3.54.56,5.36ZM195.58,121.66c-1.01-12.46,5.88-23.12,14.89-31.03-5.59,7.83-8.78,17.16-7.74,27.13.8,7.64,4.18,14.52,9.26,20.22,3,3.37,6.45,6.28,10.1,8.93-.83-.23-1.66-.44-2.49-.69-6.29-1.92-12.61-4.73-17.91-8.75-.56-.57-1.11-1.15-1.64-1.76-.22-.25-.42-.51-.63-.77-2.1-4.08-3.46-8.56-3.84-13.28ZM241.62,149.16c-4.26.02-8.55-.13-12.79-.67-.43-.08-.86-.17-1.28-.26-5.27-3.45-10.33-7.29-14.47-12.05-5.15-5.92-8.28-13.19-8.51-21.07-.34-11.88,5.33-22.35,13.62-30.33,4.34-2.88,8.96-5.35,13.7-7.48,6.08-2.73,12.46-4.99,18.99-6.36,13.24-2.78,27.95-2.22,40.42,3.37,6.13,2.75,11.7,6.79,15.81,12.15,4.63,6.05,7.43,13.66,7.75,21.28.09,2.13-.03,4.22-.31,6.27-.75,1.88-1.61,3.71-2.61,5.43-3.14,5.44-7.62,10.01-12.69,13.68-11,7.95-24.45,12.16-37.71,14.36-6.57,1.09-13.24,1.66-19.91,1.7ZM235.25,73.7c-1.97.8-3.92,1.65-5.83,2.55.92-.56,1.85-1.12,2.8-1.64,1.01-.32,2.02-.62,3.03-.91ZM220.11,80.38c-1.11.91-2.18,1.87-3.21,2.86-2.41,1.61-4.74,3.34-6.96,5.21-5.29,4.46-10.03,9.81-13.05,16.08-2.99,6.21-4.05,13.07-2.97,19.89.17,1.05.39,2.08.65,3.12-1.53-3.01-2.7-6.2-3.52-9.48-.66-2.61-1.07-5.28-1.22-7.96,2.12-10.91,11.45-20.08,20.71-25.77,4.15-2.54,8.53-4.73,13.06-6.6-1.18.85-2.35,1.73-3.47,2.65ZM257.54,63.55c-9.03,1.62-17.97,4.71-26.08,9.18-8.1,2.55-15.91,6.01-22.99,10.52-7.47,4.75-14.66,11.65-18.41,19.83.19-1.4.45-2.8.83-4.18,1.52-5.64,4.55-10.74,8.5-15.02,8.45-9.16,20.39-14.66,32.3-17.68,6.15-1.56,12.46-2.49,18.8-2.7,2.34-.08,4.7-.05,7.05.05ZM220.91,149.02c1.99.52,4.02.91,6.05,1.22.58.38,1.16.75,1.75,1.12-3.07-.69-6.09-1.58-9.03-2.68.41.12.82.23,1.23.34ZM231.6,151.03c8.11,1.32,16.41,1.68,24.56,1.28,13.76-.67,27.58-3.88,39.72-10.53,1.42-.78,2.82-1.62,4.18-2.51-2.21,1.92-4.6,3.66-7.11,5.16-6.35,3.8-13.23,5.86-20.47,7.14-6.34,1.12-12.77,1.77-19.21,1.93-7.19.18-14.57-.21-21.74-1.55.16-.28.19-.62.05-.92ZM297.32,143.97c4.86-3.44,9.13-7.74,12.43-12.62,5.48-5.66,9.56-12.55,11-20.56.5-2.81.71-5.72.62-8.63.82,4.08.96,8.29.28,12.5-2.24,13.73-13.26,23.41-24.96,29.73.21-.14.43-.28.64-.42ZM219.38,67.51c5.26-2,10.74-3.37,16.3-4.26-2.33.47-4.64,1.03-6.93,1.67-11.34,3.22-22.75,8.78-30.81,17.6,5.52-6.82,13.08-11.83,21.44-15.01ZM256.51,156.58c-12.79,1.5-26.64,1.19-38.58-4.18-4.9-2.21-9.27-5.41-12.84-9.31,3.34,2.52,7.01,4.6,10.85,6.25,12.61,5.4,26.75,6.72,40.33,6.05,5.32-.26,10.72-.75,16.02-1.69-5.22,1.31-10.52,2.27-15.8,2.89ZM329.01,119.97c-.43,5.45-4.46,10.27-8.13,14.01-4.49,4.56-9.79,8.45-15.57,11.21-3.48,1.66-7.66,3.19-11.66,3.01,1.98-.95,3.94-1.97,5.84-3.06,12.36-7.07,23.33-18.13,24.45-33.02.27-3.52.03-6.99-.64-10.36.04.06.09.13.13.19,3.41,5.33,6.09,11.57,5.58,18.02Z"/>
    <path class="cls-1" d="M313.5,25.63c-11.03-6.07-24.56-5.68-36.76-5.89-6.92-.12-13.82-.62-20.74-.71-8.03-.11-16.05.1-24.08.3-7.75.19-15.51.35-23.26.23.07-.65-.41-1.35-1.2-1.08-1.02.36-2.05.67-3.02,1.15-.82.41-.52,1.53.2,1.8-.75,0-1.5.01-2.25.01-1.29,0-1.29,2,0,2,15.07.04,30.13.63,45.2.93,2.61.05,5.22.14,7.83.24,4.03.44,8.05,1.02,12.04,1.79.76.15,1.24-.49,1.24-1.08,7.65.51,15.3,1.16,22.95,1.87,3.66.34,7.3.87,10.96,1.23,3.58.36,7.26.37,10.65-.97.75-.3,1.06-1.38.24-1.83ZM293.61,25.38c-7.32-.68-14.64-1.36-21.98-1.9-5.46-.4-10.93-.67-16.4-.87-7.98-.85-16.02-1.17-24.06-1.26,6.96-.17,13.93-.35,20.89-.34,7.22.01,14.41.51,21.62.68,6.31.15,12.64.12,18.94.63,6,.49,12.15,1.45,17.66,3.95-5.4,1.16-11.29-.37-16.67-.88Z"/>
    <path class="cls-1" d="M132.99,12.48c-27.47-4.33-55.24-6.13-83.02-6.74,3.7-.39,7.39-.81,11.09-1.22,4.29-.04,8.59-.11,12.88-.11,7.81,0,15.62.19,23.43.41,8.8.25,17.61.55,26.42.68,1.13.02,1.36-1.67.27-1.96-20.8-5.65-42.45-3.4-63.74-.99-1.84.02-3.69.02-5.53.01-6.69-.03-13.39-.11-20.07.26-7.35.4-14.76,1.3-21.76,3.66-.92.31-.98,1.64,0,1.93,20.48,6.04,42.17,2.35,63.11,2.13,5.9-.06,11.8.14,17.66.9.92.12,1.16-.88.75-1.52,4.35.35,8.69.75,13.03,1.21,8.34.88,16.66,1.96,24.95,3.27,1.26.2,1.8-1.73.53-1.93ZM101.29,2.2c3.86.16,7.71.5,11.53,1.06-9.96-.26-19.92-.62-29.88-.78,6.1-.38,12.21-.54,18.35-.28ZM41.23,4.55c-4.61.4-9.23.71-13.85.84,4.58-.55,9.22-.77,13.85-.84ZM30.68,9.47c-4.64-.34-9.25-.99-13.77-2.08.64-.17,1.28-.34,1.92-.49.14.3.42.54.85.55,1.74.03,3.48.03,5.22,0,16.19.05,32.38.31,48.55,1.11-14.25.31-28.53,1.93-42.76.9Z"/>
  </g>
</svg>