<?xml version="1.0" encoding="UTF-8"?>
<svg id="Layer_2" data-name="Layer 2" xmlns="http://www.w3.org/2000/svg" viewBox="0 0 813.89 781.03">
  <defs>
    <style>
      .cls-1 {
        fill: none;
        stroke: #000;
        stroke-miterlimit: 10;
      }

      .cls-2 {
        stroke-width: 0px;
      }
    </style>
  </defs>
  <g id="Layer_1-2" data-name="Layer 1">
    <path class="cls-2" d="M87.32.97c1.58,24.4,8.26,48.08,12,72.18,3.91,25.24,5.65,50.78,6.34,76.3,1.35,49.85-.47,99.82-1.26,149.67-1.6,101.07-3.2,202.13-4.8,303.2-.9,57.06-1.81,114.11-2.7,171.17-.02,1.29,1.98,1.29,2,0,1.58-101.5,3.18-203.01,4.81-304.51.81-50.49,1.6-100.98,2.4-151.47.79-49.96,2.34-99.98,1.87-149.94-.26-28.14-1.52-56.32-5.21-84.24-3.64-27.56-11.66-54.57-13.46-82.35-.08-1.28-2.08-1.29-2,0h0Z"/>
    <path class="cls-2" d="M18.95.97c1.58,24.4,8.26,48.08,12,72.18,3.91,25.24,5.65,50.78,6.34,76.3,1.35,49.85-.47,99.82-1.26,149.67-1.6,101.07-3.2,202.13-4.8,303.2-.9,57.06-1.81,114.11-2.7,171.17-.02,1.29,1.98,1.29,2,0,1.58-101.5,3.18-203.01,4.81-304.51.81-50.49,1.6-100.98,2.4-151.47.79-49.96,2.34-99.98,1.87-149.94-.26-28.14-1.52-56.32-5.21-84.24C30.77,55.76,22.74,28.75,20.95.97c-.08-1.28-2.08-1.29-2,0h0Z"/>
    <path class="cls-2" d="M171.98.97c-1.43,101.52-2.76,203.04-4.74,304.55-.98,50.38-2.15,100.75-3.6,151.12-1.44,50.1-3.65,100.18-4.98,150.29-1.48,55.73-.85,111.92,9.91,166.82.25,1.26,2.18.73,1.93-.53-9.64-49.22-11.1-99.56-10.21-149.57.89-50.07,3.36-100.11,4.86-150.17,3.04-101.1,4.88-202.24,6.41-303.37.85-56.38,1.62-112.76,2.42-169.13.02-1.29-1.98-1.29-2,0h0Z"/>
    <path class="cls-2" d="M239.78.97c-1.46,100.85-2.75,201.7-4.7,302.54-.98,51.05-2.17,102.1-3.64,153.13-1.44,50.03-3.63,100.05-4.97,150.08-1.5,55.8-.87,112.06,9.9,167.02.25,1.26,2.18.73,1.93-.53-9.76-49.8-11.14-100.75-10.18-151.35.95-49.95,3.38-99.87,4.87-149.8,3.02-100.95,4.85-201.94,6.38-302.92.85-56.06,1.59-112.11,2.4-168.17.02-1.29-1.98-1.29-2,0h0Z"/>
    <path class="cls-2" d="M307.58.97c-1.45,101.49-2.77,202.99-4.74,304.47-.98,50.4-2.15,100.8-3.6,151.19-1.44,50.34-3.66,100.66-5,151-1.47,55.5-.76,111.44,9.93,166.11.25,1.26,2.17.73,1.93-.53-9.67-49.42-11.12-99.96-10.2-150.18.92-50.41,3.39-100.79,4.9-151.19,3-100.62,4.84-201.28,6.37-301.93.85-56.31,1.61-112.63,2.42-168.95.02-1.29-1.98-1.29-2,0h0Z"/>
    <path class="cls-2" d="M375.37.97c-1.42,100.82-2.72,201.63-4.69,302.44-.99,50.5-2.14,100.99-3.58,151.47-1.43,50.12-3.61,100.23-4.98,150.35-1.55,56.3-.98,113.04,9.86,168.51.25,1.26,2.17.73,1.93-.53-9.74-49.8-11.14-100.72-10.18-151.32s3.39-100.07,4.88-150.1c3.01-100.79,4.85-201.61,6.37-302.43.85-56.13,1.6-112.26,2.39-168.39.02-1.29-1.98-1.29-2,0h0Z"/>
    <path class="cls-2" d="M443.17.97c-1.39,100.82-2.7,201.65-4.7,302.46-1.01,50.99-2.16,101.98-3.62,152.95-1.44,50.21-3.65,100.39-4.98,150.6-1.48,55.72-.83,111.87,9.9,166.76.25,1.26,2.17.73,1.93-.53-9.72-49.7-11.12-100.52-10.18-151.02.94-50.2,3.39-100.37,4.88-150.55,3.01-100.86,4.84-201.74,6.37-302.63.85-56.01,1.63-112.03,2.4-168.04.02-1.29-1.98-1.29-2,0h0Z"/>
    <path class="cls-2" d="M510.97.97c-1.47,101.47-2.74,202.93-4.73,304.39-.99,50.28-2.14,100.56-3.58,150.84-1.44,50.4-3.68,100.77-5.01,151.17-1.47,55.59-.8,111.62,9.92,166.38.25,1.26,2.18.73,1.93-.53-9.7-49.53-11.11-100.19-10.19-150.52.92-50.45,3.41-100.87,4.91-151.31,3-100.31,4.81-200.64,6.33-300.98.85-56.48,1.6-112.96,2.43-169.44.02-1.29-1.98-1.29-2,0h0Z"/>
    <path class="cls-2" d="M578.46.97c-1.15,100.71-2.26,201.43-3.74,302.13-1.48,100.67-3.36,201.33-6.11,301.97-1.53,56.12-3.93,112.26-3.74,168.41,0,1.29,2,1.29,2,0-.17-50.01,1.8-99.99,3.22-149.96,1.45-50.78,2.65-101.57,3.7-152.37,2.06-100.22,3.49-200.44,4.69-300.67.68-56.5,1.33-113,1.98-169.51.01-1.29-1.99-1.29-2,0h0Z"/>
    <path class="cls-2" d="M641.4.97c-1.27,101.38-2.81,202.75-4.82,304.11-2.01,101.04-5.94,202.19-2.82,303.24,1.71,55.33,5.71,110.65,13.92,165.42.19,1.27,2.12.73,1.93-.53-14.92-99.6-15.93-200.68-14.46-301.18,1.47-100.48,4.23-200.94,5.85-301.43.91-56.55,1.7-113.09,2.41-169.64.02-1.29-1.98-1.29-2,0h0Z"/>
    <path class="cls-2" d="M727.04,779.81c-32.62-96.45-23.92-200.43-20.49-300.41,3.5-102.01,5.6-204.07,7.27-306.13.94-57.43,1.76-114.87,2.54-172.3.02-1.29-1.98-1.29-2,0-1.39,102.76-2.84,205.52-5.1,308.26-1.13,51.1-2.47,102.19-4.13,153.27-1.66,50.83-4.53,101.7-3.97,152.58.61,55.83,5.99,112.12,23.97,165.27.41,1.21,2.34.69,1.93-.53h0Z"/>
    <path class="cls-2" d="M804.63,779.81c-32.62-96.45-23.92-200.43-20.49-300.41,3.5-102.01,5.6-204.07,7.27-306.13.94-57.43,1.76-114.87,2.54-172.3.02-1.29-1.98-1.29-2,0-1.39,102.76-2.84,205.52-5.1,308.26-1.13,51.1-2.47,102.19-4.13,153.27-1.66,50.83-4.53,101.7-3.97,152.58.61,55.83,5.99,112.12,23.97,165.27.41,1.21,2.34.69,1.93-.53h0Z"/>
    <path class="cls-2" d="M.97,66.43c105.48-3.43,210.98-6.09,316.5-8.09,105.39-2,210.79-3.17,316.19-3.7,59.76-.3,119.51-.33,179.27-.15,1.29,0,1.29-2,0-2-105.96-.32-211.91.08-317.86,1.23-105.5,1.15-210.99,3.01-316.47,5.63-59.22,1.47-118.43,3.15-177.63,5.08-1.28.04-1.29,2.04,0,2h0Z"/>
    <path class="cls-2" d="M.97,138.13c106.19,0,212.38.78,318.56,2.27,105.36,1.47,210.71,3.67,316.03,6.67,59.13,1.68,118.25,3.55,177.36,5.67,1.29.05,1.29-1.95,0-2-105.81-3.78-211.65-6.86-317.5-9.17-105.43-2.3-210.87-3.88-316.32-4.72-59.38-.47-118.76-.71-178.14-.71-1.29,0-1.29,2,0,2h0Z"/>
    <path class="cls-2" d="M.97,212.3c105.81-.18,211.63.41,317.43,1.75,105.34,1.33,210.68,3.39,315.99,6.25,59.52,1.62,119.03,3.44,178.54,5.52,1.29.05,1.29-1.95,0-2-105.65-3.7-211.32-6.61-317.01-8.81-105.43-2.2-210.88-3.63-316.33-4.29-59.54-.37-119.08-.52-178.63-.42-1.29,0-1.29,2,0,2h0Z"/>
    <path class="cls-2" d="M.97,300.16c105.81-2.96,211.7-1.54,317.48,2.19,105.31,3.71,210.52,9.66,315.72,15.79,59.58,3.47,119.17,6.97,178.77,10.15,1.29.07,1.28-1.93,0-2-105.17-5.61-210.29-12.23-315.46-17.84-105.85-5.65-211.79-10.18-317.79-11.49-59.57-.74-119.16-.46-178.72,1.2-1.28.04-1.29,2.04,0,2h0Z"/>
    <path class="cls-2" d="M.97,382.19c105.72-5.63,211.64-6.01,317.46-3.45s210.52,8.03,315.68,14.17c59.61,3.48,119.21,7.12,178.82,10.56,1.29.07,1.28-1.93,0-2-105.69-6.11-211.34-12.9-317.09-18.05s-210.75-8.65-316.21-8.19c-59.58.26-119.16,1.79-178.66,4.96-1.28.07-1.29,2.07,0,2h0Z"/>
    <path class="cls-2" d="M.97,448.4c105.61,5.09,211.24,9.95,316.88,14.58,105.94,4.65,211.89,9.03,317.84,13.2,59.08,2.32,118.16,4.58,177.24,6.75,1.29.05,1.29-1.95,0-2-105.38-3.86-210.75-8.03-316.12-12.34-105.88-4.33-211.75-8.97-317.61-13.81-59.41-2.72-118.82-5.51-178.23-8.38-1.29-.06-1.28,1.94,0,2h0Z"/>
    <path class="cls-2" d="M.97,526.38c105.26,6.39,210.55,12.18,315.88,17.42,105.61,5.26,211.26,9.95,316.92,14.06,59.71,2.32,119.43,4.47,179.16,6.42,1.29.04,1.29-1.96,0-2-105.76-3.46-211.49-7.56-317.2-12.13-105.84-4.58-211.67-9.79-317.45-15.57-59.11-3.23-118.21-6.61-177.3-10.2-1.29-.08-1.28,1.92,0,2h0Z"/>
    <path class="cls-2" d="M.97,640c105.44-1.56,210.89-2.23,316.34-2.08,105.7.15,211.4,1.15,317.09,3.02,59.52,1.05,119.03,2.36,178.53,3.95,1.29.03,1.29-1.97,0-2-105.46-2.81-210.95-4.77-316.44-5.89-106-1.12-212-1.37-318-.8-59.17.32-118.34.92-177.51,1.79-1.29.02-1.29,2.02,0,2h0Z"/>
    <path class="cls-2" d="M.97,715.51c105.65-1,211.3-1.82,316.96-2.38,105.54-.55,211.08-.91,316.63-1,59.46-.05,118.92-.07,178.37.03,1.29,0,1.29-2,0-2-105.83-.18-211.66-.06-317.49.23-105.42.29-210.85.84-316.27,1.61-59.4.43-118.8.94-178.2,1.5-1.29.01-1.29,2.01,0,2h0Z"/>
    <rect class="cls-1" x=".97" y=".97" width="811.95" height="772.51"/>
  </g>
</svg>