<?xml version="1.0" encoding="UTF-8"?>
<svg id="Layer_2" data-name="Layer 2" xmlns="http://www.w3.org/2000/svg" viewBox="0 0 125.77 138.33">
  <defs>
    <style>
      .cls-1 {
        fill: #393493;
      }

      .cls-1, .cls-2, .cls-3 {
        stroke-width: 0px;
      }

      .cls-2 {
        fill: #ed1a6b;
      }

      .cls-3 {
        fill: #ed186a;
      }
    </style>
  </defs>
  <g id="Layer_1-2" data-name="Layer 1">
    <g>
      <path class="cls-1" d="M22,15.42l.1-1.82c.04-.77-1.15-.77-1.2,0-.56,8.95-.07,17.92,1.23,26.79.14.93,1.61.68,1.61-.22-.04-8.76-.09-17.53-.14-26.29,0-1.11-1.67-1.1-1.72,0-.4,8.96-.8,17.93-1.19,26.89h1.75c.05-9.71-.45-19.41-1.48-29.07-.12-1.08-1.72-1.14-1.73,0-.04,10.24-.1,20.49.86,30.7.09.94,1.55,1.31,1.77.24,1.87-9.01,2.28-18.24,1.19-27.37-.14-1.15-1.81-1.22-1.84,0-.29,9.22-.52,18.47.89,27.62.18,1.14,1.72.7,1.84-.25,1.26-10.21,1.05-20.52-.58-30.68-.17-1.09-1.84-.78-1.87.25-.14,4.75-.02,9.51.39,14.25.19,2.19.46,4.37.75,6.55s.61,4.7-.37,6.85c-.29.64.04,1.48.84,1.46,6.05-.14,12.06-.86,17.98-2.16,1.22-.27.69-2.08-.51-1.86-6.8,1.22-13.61,2.43-20.52,2.91v1.97c6.34-.77,12.7-1.28,19.08-1.49l-.27-1.99c-5.49,1.19-10.98,2.38-16.47,3.57-1.13.25-.86,2,.27,2,5.45-.02,10.9-.16,16.34-.43,1.32-.06,1.32-1.97,0-2.05-6.13-.35-12.27-.29-18.39.18-1.31.1-1.34,2.12,0,2.06,6.81-.28,13.56-1.28,20.3-2.29,1.15-.17.89-2.16-.28-2.04-5.66.55-11.32,1.11-16.97,1.67v2.08c4.41-.47,8.82-.95,13.23-1.42.78-.08,1.3-.82.89-1.56-.19-.35-.38-.7-.57-1.05-.64-1.17-2.42-.13-1.79,1.04.19.35.38.7.57,1.05l.89-1.56c-4.41.47-8.82.95-13.23,1.42-1.31.14-1.33,2.21,0,2.08,5.66-.56,11.32-1.11,16.97-1.67l-.28-2.04c-6.55.99-13.11,1.96-19.74,2.24v2.06c6.12-.48,12.26-.55,18.39-.2v-2.05c-5.44.27-10.89.42-16.34.44l.27,2c5.49-1.19,10.98-2.39,16.47-3.58,1.11-.24.87-2.02-.27-1.99-6.38.22-12.75.72-19.08,1.54-1.22.16-1.29,2.07,0,1.97,7.07-.54,14.05-1.77,21.03-3.02l-.51-1.86c-5.75,1.25-11.58,1.94-17.46,2.07l.84,1.46c1.9-4.15.38-9.07-.04-13.4-.49-5.06-.65-10.15-.5-15.23l-1.87.25c1.61,9.98,1.77,20.14.54,30.17l1.84-.25c-1.39-8.97-1.12-18.08-.85-27.12h-1.84c1.08,8.97.72,18.04-1.09,26.89l1.77.24c-.99-10.2-.99-20.46-.93-30.7h-1.73c1.03,9.66,1.51,19.36,1.46,29.07,0,1.13,1.7,1.12,1.75,0,.4-8.96.78-17.93,1.16-26.89h-1.72c.07,8.76.14,17.53.23,26.29l1.61-.22c-1.33-8.72-1.79-17.54-1.61-26.35h-1.2l-.02,1.82c0,.73,1.08.72,1.12,0h0Z"/>
      <path class="cls-1" d="M48.36,31.94c2.74-.07,5.48-.18,8.22-.19v-1.25c-3.34.22-6.62.15-9.94-.24v1.56c4.39.29,8.78.08,13.13-.57.89-.13.69-1.68-.22-1.59-3.6.34-7.2.68-10.8,1.02l.22,1.64c3.98-.91,8-1.62,12.05-2.09,1.09-.13,1.14-1.68,0-1.73-4.4-.22-8.81-.06-13.18.5-1.12.14-1.18,1.72,0,1.79,2.68.16,5.37.13,8.04-.13,1.51-.15,4.75-.09,4.85-2.28.09-1.79-1.73-3.84-2.99-4.91-1.48-1.24-3.26-2.09-5.18-2.37-.94-.14-1.95-.19-2.87.05-1.12.29-1.87,1.12-2.48,2.06-1.18,1.82-1.77,4.05-1.69,6.21.16,4.19,2.81,7.87,6.62,9.53,4.12,1.79,10.63,2.68,13.1-2.14.41-.81-.5-2-1.37-1.37-4.88,3.57-11.69,3.26-16.03-1.05-1-.99-1.98-2.25-2.1-3.7s.84-2.82,1.8-3.86c1.88-2.04,4.35-4.52,7.26-4.78,3.61-.33,4.9,3.08,5.31,6.05.18,1.31,2.17.75,1.99-.55-.45-3.22-1.93-6.78-5.48-7.47-3.81-.75-7,1.81-9.56,4.27-1.27,1.22-2.51,2.58-3.1,4.27s-.25,3.44.61,4.93c1.76,3.04,5.13,5.2,8.49,6.01,4.07.99,8.45.07,11.82-2.41l-1.37-1.37c-1.67,3.29-5.86,2.86-8.83,1.99-3.18-.93-5.86-2.94-6.88-6.2-.49-1.59-.51-3.3-.08-4.91s1.28-3.71,3.16-3.81c2.91-.17,5.85,1.5,7.35,3.98.19.31.62.87.58,1.25-.03.31-.03.19-.3.35-.16.09-.44.11-.6.13-1.11.19-2.25.28-3.38.36-2.23.16-4.47.17-6.7.04v1.79c4.37-.57,8.77-.76,13.18-.56v-1.73c-4.21.51-8.37,1.24-12.5,2.21-.9.21-.73,1.74.22,1.64,3.6-.36,7.2-.71,10.8-1.07l-.22-1.59c-4.2.65-8.46.83-12.7.57-1.02-.06-.97,1.45,0,1.56,3.28.37,6.67.37,9.94-.06.77-.1.83-1.3,0-1.25-2.78.14-5.56.33-8.32.7-.42.06-.32.75.1.74h0Z"/>
      <path class="cls-1" d="M81.93,21.3c-2.74-1.02-6.48-2.83-9.08-.51s-.28,5.96,1.5,7.98c2.29,2.6,5.95,1.64,8.86,2.95,1.16.53,3.28,1.61,2.85,3.2-.4,1.43-2.13,2.23-3.41,2.65-3.32,1.08-6.96.46-9.77-1.57l-1.02,1.75c3.21,1.57,7.28,2.52,10.82,1.55,3.01-.82,5.54-4.31,3.23-7.17s-6.47-1.55-9.7-2.29c-1.63-.38-3.29-1.16-4.4-2.43s-1.51-3.2-.23-4.5c2.45-2.52,6.91-2,9.28.3.94.91,2.39-.53,1.44-1.44-2.22-2.15-5.47-3.01-8.48-2.3-3.17.75-5.85,3.43-4.88,6.87s4.68,5.26,7.91,5.68c1.87.24,3.85-.19,5.68.32,1.39.39,2.75,1.56,2.05,3.13-.87,1.96-3.38,2.17-5.24,2.13-2.24-.06-4.44-.61-6.45-1.59-1.18-.57-2.08.99-1.02,1.75,2.46,1.76,5.58,2.59,8.59,2.3,2.74-.27,6.29-1.41,7.39-4.23,1.28-3.28-2.45-5.48-5.06-6.3-1.62-.51-3.3-.41-4.95-.77s-2.67-1.71-3.56-3.12c-.48-.77-1.06-1.76-.83-2.7.2-.86,1.02-1.37,1.83-1.56,1.06-.25,2.16-.02,3.2.21s2.14.39,3.22.58c.55.1.76-.64.23-.84h0Z"/>
      <path class="cls-1" d="M104.99,22.15c-1.54-1.97-4.2-2.79-6.63-2.47-2.27.3-4.54,1.67-4.9,4.1-.39,2.69,1.79,4.97,3.99,6.16,1.25.68,2.77,1.09,3.76,2.16.86.92.93,2.07.04,2.99-2.18,2.28-6.27,1.86-8.83.57l-.81,1.92c3.29.9,6.97,1.51,10.1-.24,2.07-1.16,5.34-5.14,2.42-7.13-1.4-.95-3.21-1.54-4.84-1.95s-3.42-.58-5.16-.6c-.7,0-1.37-.05-1.73-.72-.31-.57-.36-1.28-.39-1.91-.03-.77-.08-1.64.27-2.34s1.16-1.11,1.88-1.37c3.19-1.15,6.89-.32,9.32,2.01.98.95,2.48-.55,1.5-1.5-2.25-2.16-5.38-3.33-8.5-3.13-1.51.1-3.11.46-4.41,1.27-1.5.93-2.13,2.38-2.18,4.1-.04,1.43.05,3.09.92,4.29,1.07,1.47,2.72,1.36,4.35,1.42,1.81.06,3.6.43,5.3,1.03.78.28,1.62.59,2.32,1.04.38.24.38.36.28.8-.09.37-.25.72-.45,1.05-2.17,3.57-7.08,2.76-10.43,1.85-1.12-.3-1.9,1.37-.81,1.92,2.52,1.26,5.49,1.68,8.23.89,2.24-.65,4.62-2.52,4.33-5.1-.35-3.11-3.55-3.89-5.83-5.22-1.97-1.15-4.19-3.94-1.73-5.83,2.22-1.71,6.01-1.29,8.01.55.42.39.95-.18.61-.61h0Z"/>
    </g>
    <g>
      <path class="cls-1" d="M55.33,56.4c-.26-.25-.47-.52-.83-.61-.26-.06-.54.08-.62.35-.24.87-.22,1.86-.26,2.76-.04.95-.08,1.91-.08,2.87-.02,1.91.06,3.82.18,5.73.05.86,1.19,1.01,1.48.2.66-1.83.49-3.79.31-5.69s-.45-3.85.32-5.6l-1.4-.38c0,2.05-.05,4.1-.06,6.16,0,1.03,0,2.05-.01,3.08,0,.97-.17,2.1.12,3.03.21.66,1.14.66,1.35,0,.29-.93.13-2.06.13-3.03,0-1.03,0-2.05,0-3.08,0-2.05-.04-4.1-.03-6.16,0-.7-1.09-1.09-1.4-.38-.82,1.85-.78,3.8-.6,5.78s.46,3.96-.19,5.87l1.48.2c-.15-1.91-.23-3.82-.28-5.73-.02-.96-.04-1.91-.04-2.87,0-.9.09-1.87-.06-2.76l-.35.62c.17-.04.31-.14.48,0,.24.19.59-.12.35-.35h0Z"/>
      <path class="cls-1" d="M53.69,50.47c-.12-.18-.15-.3-.15-.49,0-.02.01-.18,0-.08,0-.05.02-.09.03-.14s.02-.09.03-.14c0-.02.08-.21.03-.09l-.33.25c.59-.21,1.17-.46,1.76-.7.06-.03.13-.05.2-.07.01,0,.1-.03.1-.03,0,0-.13.01-.05,0,.1,0-.13-.03-.05-.01.03,0,.11.04,0,0-.1-.04-.04-.02-.02,0,.11.06-.13-.11-.04-.02.07.07-.08-.15-.02-.02.01.02.02.04.03.06.04.05-.03-.08-.03-.09,0,.04.03.1.04.14.02.06-.01.09,0-.07,0,.03,0,.05,0,.08,0,.05,0,.1,0,.16,0,.07-.04.06.01-.07,0,.02,0,.05-.01.08-.01.04-.02.09-.04.13,0,.03-.04.12,0,.02.04-.11-.01.02-.02.03-.02.04-.05.09-.08.13-.01.02-.13.19-.06.09.07-.09-.03.03-.06.06-.04.05-.09.09-.14.14-.12.11.1-.06,0,0-.05.03-.1.06-.15.09-.04.03-.09.05-.13.07-.03.01-.12.05-.01,0,.11-.05,0,0-.03,0-.05.02-.1.03-.14.04-.03,0-.23.04-.09.02.13-.02-.04,0-.07,0-.06,0-.13,0-.19,0-.1,0,.16.03.07,0-.02,0-.04,0-.06-.01-.05-.01-.1-.03-.16-.05-.12-.04.15.08.01,0-.05-.03-.1-.06-.15-.09s-.06-.08.06.05c-.02-.02-.04-.04-.06-.05-.03-.03-.07-.06-.1-.1s-.06-.07-.09-.11c.12.12.08.11.05.06-.02-.03-.04-.06-.05-.08-.03-.05-.05-.09-.08-.14-.07-.14.04.14,0,.02-.02-.05-.03-.1-.05-.15,0-.02,0-.04-.01-.06-.04-.13,0,.04,0,.07-.03-.08,0-.2,0-.29,0-.1-.04.18-.01.09,0-.02.01-.05.02-.08.01-.04.07-.2.02-.07-.06.14.02-.04.04-.06,0-.02.02-.03.03-.05.06-.11-.06.08-.06.07,0-.02.08-.09.09-.1s.03-.03.05-.05c.08-.08-.08.06-.08.06,0-.04.2-.11.23-.13.08-.04-.18.06-.09.04.02,0,.04-.02.07-.02.05-.02.1-.03.16-.04.02,0,.04,0,.05,0,.09-.02-.2.02-.1.01.04,0,.08,0,.12,0,.05,0,.09,0,.14,0,.07,0,.1.04-.1-.01.02,0,.05,0,.07.01.05,0,.09.02.13.04,0,0,.06.02.06.02,0,.01-.19-.1-.09-.04.03.02.07.04.1.06.13.07-.14-.13,0,0,.03.03.06.07.09.1-.15-.15-.09-.13-.06-.07.01.02.03.06.05.08.06.07-.05-.17-.03-.08,0,.03.02.06.03.09,0,.01.02.07.01.07,0,0-.01-.21-.02-.1,0,.04-.02.23,0,.08s-.01.04-.02.08c0,.02-.02.05-.02.07-.04.12.08-.14.03-.07-.03.04-.05.09-.07.13-.01.02-.03.04-.04.06-.05.08.13-.14.04-.05-.04.04-.08.08-.12.12-.01.01-.03.02-.04.04.11-.13.12-.08.04-.03-.04.03-.09.04-.13.07.15-.1.15-.06.09-.04-.03,0-.06.02-.09.03-.02,0-.03,0-.05.01-.06.01-.05,0,.03,0,.14-.02.09-.01-.14.02-.1.02-.2.05-.3.06-.22.04-.41.26-.46.46-.06.23,0,.48.17.65.73.74,1.79.18,2.29-.52.22-.31.33-.68.35-1.05.03-.44-.15-.84-.41-1.17-.47-.58-1.25-.73-1.95-.62-.73.12-1.35.65-1.58,1.35-.25.76.03,1.58.52,2.17.52.62,1.34.85,2.12.72.74-.12,1.42-.64,1.79-1.29s.46-1.64-.14-2.22c-.17-.16-.38-.28-.61-.32-.34-.05-.62.02-.93.16-.43.2-.84.43-1.26.65-.24.12-.6.25-.74.49s-.14.57-.1.83c.06.41.28.79.56,1.09s.79-.09.56-.43h0Z"/>
      <path class="cls-1" d="M74.99,50.49c-.43-2.7-3.67-3.4-5.93-2.79-2.53.68-4.78,2.9-5.21,5.53-.27,1.68.77,2.48,2.06,3.26,1.66,1,3.33,2,4.99,2.99,1.39.83,3.13,1.57,4.24,2.77s.3,2.59-.92,3.35c-2.89,1.79-7,.81-9.36-1.39l-1.25,1.63c2.46,1.66,5.28,3.24,8.36,2.57,2.55-.56,4.65-3.06,4.01-5.75-.6-2.55-3.32-3.54-5.5-4.35-1.5-.56-2.93-1.26-4.25-2.17-1.09-.75-2.33-1.65-1.94-3.14.42-1.64,2.13-2.3,3.68-2.29,1.85,0,3.49.92,5.23,1.42,1,.29,1.55-1.11.7-1.65-2.42-1.51-5.73-2.48-8.49-1.38-2.36.94-4.03,3.68-2.87,6.16.61,1.29,1.94,2.18,3.1,2.93,1.32.85,2.73,1.5,4.2,2.04,1.92.71,5.53,2.04,3.83,4.74-2.09,3.32-6.7.63-8.99-.9-.98-.65-2.11.83-1.25,1.63,2.1,1.95,4.96,3.03,7.84,2.84,2.59-.17,5.87-1.46,6.4-4.33.6-3.19-3.09-4.75-5.31-6.04-1.62-.95-3.25-1.89-4.87-2.84-.57-.33-1.85-.77-1.95-1.52-.09-.7.38-1.59.74-2.16.8-1.28,2.12-2.19,3.58-2.55s3.73-.02,4.36,1.62c.19.49.86.3.78-.22h0Z"/>
    </g>
    <g>
      <path class="cls-1" d="M26.72,96.32c1.02-5.09,2.16-10.18,3.52-15.19.3-1.1-1.39-1.56-1.7-.47-1.9,6.65-2.98,13.5-3.24,20.41-.04,1,1.62,1.26,1.78.24,1.17-7.48,2.47-14.96,4.07-22.36l-1.86-.51c-1.18,6.65-2.26,13.32-3.37,19.98l2.02.56c.52-3.76,1.04-7.52,1.55-11.28.48-3.49.81-7.02,1.96-10.37h-1.92c2.01,5.09,4.87,9.74,8.53,13.81.72.8,1.97-.05,1.74-1.01-1.28-5.22-4.18-9.76-7.1-14.2-.74-1.13-2.48-.13-1.82,1.06,2.39,4.35,4.64,8.78,6.76,13.28.33.69,1.5.69,1.83,0,1.93-4.08,3.26-8.39,3.95-12.84.2-1.26-1.67-1.84-1.95-.54-.78,3.58-1.61,7.15-2.41,10.73-.29,1.29,1.66,1.84,1.99.55,1.12-4.38,2.48-8.7,4.08-12.93.42-1.1-1.41-1.88-1.92-.81-1.68,3.56-2.49,7.39-2.33,11.33.05,1.35,2.05,1.35,2.1,0,.13-3.61.5-7.21,1.11-10.77h-2.05c3.49,8.98,8.03,17.47,13.66,25.3.78,1.08,2.28.41,2.08-.88-1.36-8.92-8.96-15.15-11.11-23.77l-2.04.86c3.29,6.39,6.56,12.79,9.84,19.19l1.94-1.13c-2.88-5.05-5.76-10.1-8.65-15.15l-1.94,1.14c2.69,4.01,4.31,8.55,5.09,13.3.17,1.06,1.97.82,1.89-.26-.39-5.11-2.19-9.93-5.04-14.18-.8-1.19-2.67-.14-1.94,1.14,2.88,5.05,5.77,10.1,8.66,15.15.72,1.26,2.59.15,1.94-1.13-3.29-6.39-6.58-12.78-9.85-19.18-.59-1.15-2.34-.34-2.04.86,2.14,8.64,9.67,14.91,11.07,23.78l2.08-.88c-5.53-7.63-10.14-15.94-13.58-24.71-.34-.86-1.86-1.15-2.05,0-.63,3.75-1.02,7.53-1.16,11.34h2.1c-.14-3.55.53-7.04,2.04-10.27l-1.92-.81c-1.6,4.23-2.94,8.55-4.05,12.94l1.99.55c.79-3.58,1.56-7.17,2.38-10.74l-1.95-.54c-.7,4.27-1.98,8.4-3.83,12.31h1.83c-2.11-4.5-4.37-8.92-6.76-13.27l-1.82,1.06c2.82,4.29,5.65,8.65,6.91,13.69l1.74-1.01c-3.43-3.77-6.19-8.13-8.08-12.87-.36-.91-1.58-.97-1.92,0-1.18,3.33-1.56,6.87-2.05,10.35-.52,3.76-1.05,7.52-1.57,11.28-.18,1.31,1.81,1.9,2.02.56,1.08-6.67,2.2-13.34,3.21-20.02.18-1.2-1.63-1.75-1.86-.51-1.42,7.45-2.79,14.9-3.95,22.4l1.78.24c.24-6.75,1.29-13.43,3.14-19.94l-1.7-.47c-1.12,5.1-2.09,10.21-2.83,15.38-.09.65.88.96,1.02.28h0Z"/>
      <path class="cls-1" d="M63.55,87.15c.18-.82.19-1.65.18-2.49-.01-.93-.1-1.96.32-2.82.73-1.53,3.09-1.98,4.62-2.04,3.16-.13,6.48,1.67,6.55,5.14.03,1.38-.5,2.76-1.72,3.49-1.48.9-3.55,1.26-5.27,1.16s-3.08-.92-3.75-2.49c-.34-.79-.48-1.68-.51-2.53-.03-.8-.06-1.86.54-2.48.52-.55,1.39-.61,2.1-.63.96-.03,1.94.02,2.9.11,1.8.18,3.81.65,5.17,1.91,1.05.96,1.8,2.42,1.68,3.88-.14,1.62-1.5,2.57-2.95,3-1.94.58-4.12.59-6.1.19-1.55-.31-3.42-.83-4.45-2.14-1.17-1.5-.24-3.57.8-4.87s2.46-2.22,4.04-2.66c3.22-.91,7.81.67,8.08,4.5.11,1.58-.56,3.28-2.03,4.02-1.74.87-4.3.77-5.93-.28-1-.64-2.2.87-1.28,1.66,1.88,1.63,4.57,1.81,6.91,1.21,2.21-.57,3.88-2.24,4.45-4.45,1.23-4.75-2.71-8.7-7.23-9.21-4.49-.5-9.6,2.68-10.52,7.25-1.16,5.77,5.97,7.65,10.35,7.49,2.37-.08,5.13-.6,6.78-2.46,1.46-1.65,1.65-3.96.84-5.97-1.87-4.63-7.62-5.79-12.11-5.36-1.16.11-2.34.44-3.14,1.34s-1.07,2.08-1.1,3.25c-.06,2.28.57,4.85,2.38,6.38s4.22,1.68,6.46,1.32,4.61-1.15,5.81-3.17c1.01-1.69,1.08-3.91.39-5.73-.77-2.02-2.37-3.45-4.4-4.15s-4.49-.6-6.54.16c-1.04.39-2.08.9-2.71,1.85s-.69,2.01-.61,3.06c.09,1.15.33,2.29.21,3.45-.04.46.71.56.81.11h0Z"/>
      <path class="cls-1" d="M85.36,75.81c.14,6.24.25,12.47.2,18.71-.01,1.42,2.15,1.41,2.2,0,.23-6.21.46-12.42.68-18.63h-2.23c.62,5.83.84,11.68.68,17.54-.04,1.48,2.16,1.44,2.27,0,.32-4.18-1.16-9.66,1.86-13.16,2.34-2.7,6.43-2.87,9.63-1.92l.31-2.3c-2.04.11-4.04-.59-6.06,0-1.65.49-3.08,1.56-4.14,2.9-2.54,3.18-2.76,7.32-2.86,11.23-.04,1.55,2.37,1.55,2.4,0,.08-3.24.11-6.85,2.14-9.56.8-1.07,1.91-1.97,3.21-2.33,1.73-.47,3.55.2,5.31.1,1.3-.07,1.62-1.92.31-2.3-3.92-1.16-8.78-.77-11.72,2.36-3.84,4.08-2.3,9.98-2.67,14.99h2.27c.15-5.86-.1-11.71-.72-17.54-.15-1.4-2.18-1.46-2.23,0-.22,6.21-.44,12.42-.65,18.63h2.2c.02-6.23-.23-12.51-.88-18.71-.1-.95-1.55-1-1.52,0h0Z"/>
      <path class="cls-1" d="M104.52,87.53c4.28-.69,8.61-1.12,12.94-1.19,1.14-.02,1.48-1.84.28-2.06-4.4-.83-8.88-.7-13.23.34-1.26.3-.87,2.04.29,2.14,3.17.28,6.35.25,9.53.16,2.49-.07,5.25-.21,6.75-2.51,1.15-1.76,1.04-4.17.1-6-1.11-2.15-3.46-3.26-5.79-3.45-4.97-.42-9.35,3.27-11.4,7.52-1.13,2.35-1.86,5.05-1.33,7.65s2.58,4.43,4.82,5.52c2.41,1.18,5.11,1.55,7.76,1.13,1.33-.21,2.63-.65,3.82-1.28s2.81-1.58,2.71-3.11c-.06-.79-.73-1.38-1.55-1.18-4.47,1.14-10.26,2.42-13.69-1.65-3.25-3.87.8-8.32,4.31-10.14,2.3-1.19,4.86-1.59,7.42-1.37.65.06,1.19-.59,1.19-1.19,0-.71-.56-1.11-1.19-1.19-5.39-.7-11.46,2.03-14.24,6.78-1.4,2.39-1.55,5.23-.1,7.63,1.32,2.19,3.66,3.76,6.12,4.36,3.6.86,7.32.02,10.82-.88l-1.55-1.18c.03.37-1.73,1.14-2.04,1.27-.85.38-1.78.63-2.7.77-1.78.25-3.62.03-5.3-.6s-3.47-1.84-4.13-3.55c-.74-1.91-.18-4.17.55-5.99,1.36-3.38,4.28-6.56,8.05-7.06,1.75-.23,3.83.15,5.02,1.56.92,1.09,1.21,2.83.58,4.14-1.01,2.09-4.1,1.76-6.03,1.81-2.85.08-5.7.08-8.55-.17l.29,2.14c3.96-.96,8.08-1.09,12.1-.41l.28-2.06c-4.51.17-8.98.71-13.37,1.74-1.03.24-.57,1.72.43,1.55h0Z"/>
    </g>
    <path class="cls-3" d="M15.35,6.3c-2.53-.21-5.22.28-7.41,1.6-1.24.75-.76,2.82.75,2.79,2.13-.05,4.24-.31,6.32-.75,1.67-.36,1.32-3.13-.41-3.01-2.35.16-4.67.51-6.96,1.05-1.71.4-1.36,3.17.42,3.08,2.05-.09,4.1-.19,6.15-.29l-.43-3.16c-1.11.32-2.22.64-3.33.95-1.78.5-1.41,3.15.43,3.2l2.3.06c1.8.04,2.08-2.2.84-3.11-4.23-3.13-10.24.53-10.1,5.54.09,3.03,1.81,5.72,2.08,8.72.21,2.28-.43,5.25-2.87,6.1-1.15.4-2.05,1.87-1.23,3.03.77,1.08,1.7,1.68,2.89,2.21.31.14,1.14.37,1.32.68.15.26.01.85,0,1.12-.18,3.38-.14,6.73.3,10.09.36,2.77.5,7.17,3.76,8.1,1.62.47,3.51.48,5.19.56s3.51.06,5.26-.05v-4.46c-1.67.17-3.35.21-5.02.05-1.13-.1-2.99-.17-3.92-.88-.77-.59-.3-2.57-.26-3.44.09-1.8.18-3.6.28-5.4.14-2.79.54-6-1.1-8.46-.87-1.31-2.13-2.12-3.56-2.7-1.03-.42-2.33-.63-3.21-1.35l-.98,3.73c4.72-1.84,7.9-6.37,7.6-11.51-.14-2.33-.94-4.85.4-6.97,1.01-1.6,2.75-2.62,4.65-2.62,2.53,0,3-3.65.59-4.38-2.74-.82-5.58.09-7.68,1.94s-3.14,4.83-3.49,7.65c-.39,3.14.1,6.3-.15,9.44-.02.19-.16.67-.11.83-.1.33.01.23.34-.3l-.22.13c-.15.01-.68.26-.95.36-1.43.58-2.26,1.54-2.39,3.11-.11,1.28,1.12,2.11,2.23,2.23s1.64,2.34,1.87,3.26c.63,2.5.99,5.07,1.61,7.57.49,1.97,1.13,4.03,2.32,5.71.62.88,1.33,1.65,2.22,2.27.46.32.96.56,1.48.77.27.1.53.18.8.26.13.03.26.06.39.09.36.12.29,0-.2-.36v-1.18h0c.27-.26.53-.53.8-.79-.51.28-1.7-.35-2.11-.64-.77-.54-1.17-1.26-1.35-2.16-.58-2.8-4.87-1.62-4.29,1.18.79,3.82,5.01,6.87,8.93,5.89,2.43-.61,3.18-3.58,1.3-5.29-1.27-1.16-3.03-.86-4.13-2.28-.97-1.26-1.43-2.9-1.81-4.42-.56-2.22-.98-4.46-1.42-6.7-.7-3.57-2.37-7.22-6.41-7.63l2.23,2.23c-.07.82-1.23,1.32-.02.86.43-.16.87-.32,1.26-.55.98-.57,1.6-1.49,1.86-2.57.65-2.7.21-5.66.21-8.4,0-2.16.17-4.52,1.42-6.36.94-1.4,2.61-2.34,4.28-1.84l.59-4.38c-5.06.02-9.43,4.02-9.84,9.06-.22,2.62.84,5.25.03,7.82-.61,1.92-2.14,3.64-4.02,4.38-1.4.54-2.41,2.55-.98,3.73,1.21,1,2.53,1.55,4,2.06,1.05.37,2.07.71,2.46,1.85.45,1.33.24,2.86.17,4.23-.1,1.88-.19,3.76-.29,5.64-.08,1.63-.37,3.43.03,5.04.44,1.8,1.71,3.04,3.41,3.71,3.11,1.23,6.9,1.31,10.18.97,1.2-.13,2.23-.94,2.23-2.23,0-1.15-1.02-2.3-2.23-2.23-1.59.09-3.19.12-4.78.07-.72-.03-1.43-.07-2.15-.13-.42-.03-1.75-.4-2.14-.25-.27-.1-.27-.05,0,.16.23.3.26.26.1-.11-.02-.25-.13-.53-.18-.77-.17-.77-.32-1.54-.46-2.32-.26-1.51-.45-3.03-.56-4.56s-.16-2.99-.13-4.48c.02-1.37.26-2.85-.17-4.18-.39-1.21-1.3-2.14-2.42-2.72-.54-.28-1.88-.53-2.27-1.05l-1.23,3.03c5.56-2.07,6.55-8.27,5.05-13.4-.59-1.99-2.61-5.22-1.3-7.24.93-1.44,3-1.74,4.36-.8l.84-3.11-2.3.03.43,3.2c1.11-.33,2.21-.66,3.32-1,1.68-.5,1.44-3.27-.43-3.16-2.05.12-4.1.24-6.15.36l.42,3.08c2.02-.5,4.05-.84,6.13-1.01l-.41-3.01c-1.82.41-3.64.64-5.51.71l.75,2.79c1.87-1.15,3.67-1.82,5.9-1.79,1.56.02,1.51-2.26,0-2.39h0Z"/>
    <g>
      <path class="cls-3" d="M113.8,2.84l-.44-.04-1.28,2.19c1.32.45,2.52.67,3.62,1.62l1.53-2.62c-2.03-.32-4.01-.82-5.94-1.55l-.44,3.21c1.05-.05,1.75.42,2.19,1.36l2.29-2.29c-.66-.33-1.27-.78-1.56-1.49l-1.65,2.16c.29,0,.19-.12.44.2.18.23.27.53.36.8.31.93.27,1.91.26,2.89-.02,2.62-.17,5.24-.44,7.85h3.84c-.13-1.77-.03-3.5.41-5.21.28-1.08.77-3.51,1.9-3.99l-1,.27-.03-.05-.87-.51.21.17-.51-1.92c-.76,5.31-1.55,10.61-2.32,15.92l4.1.55c.43-4.24.82-8.49,1.23-12.73h-4.24c-.16,2.15-.32,4.3-.48,6.46-.14,1.9-.49,3.93.2,5.77,1.16,3.12,4.43,4.3,7.42,4.95l.57-4.22c-2.54-.3-5.11-.03-7.54.75-1.69.54-2.25,3.06-.52,3.97,2.85,1.5,5.95,1.92,9.1,1.26l-1.17-4.24c-4.28,1.54-8.16,3.67-9.24,8.45s.9,9.24-.13,13.77l1.57-1.57c-1.15.33-2.29.66-3.44.99l1.19,4.32c5.01-1.82,7.23-7.13,5.37-12.05-.99-2.61-1.75-5.05-2.2-7.81-.1-.64-.09-.3-.08-.31.12-.16.59-.31.74-.39.63-.3,1.27-.58,1.91-.87,1.34-.61,2.68-1.23,4.02-1.84l-2.72-3.52c-.39.3-1.31-.2-1.63-.45-.9-.7-1.15-2.01-1.24-3.08-.31-3.35.04-6.84.11-10.2.06-2.83.3-6.29-2.02-8.38-2.2-1.98-5.67-1.88-7.35.66-1.6,2.4,2.23,4.58,3.84,2.24-.29.41-.32.06.14.22.32.11.42.24.58.52.6,1.05.38,2.59.36,3.74-.06,3.38-.25,6.78-.18,10.16.06,2.85.71,5.85,3.08,7.67s5.21,1.87,7.5.07c.86-.68.8-2.16.18-2.94-.74-.93-1.85-1.06-2.89-.58-1.27.58-2.54,1.16-3.81,1.75-1.18.54-2.56.99-3.56,1.86-2.24,1.96-1.37,5.37-.74,7.89.32,1.28.75,2.52,1.24,3.74.45,1.1,1.01,2.26,1.01,3.47,0,1.74-1.18,3.5-2.83,4.1-2.67.97-1.62,5.13,1.19,4.32,1.15-.33,2.29-.66,3.44-.99.73-.21,1.39-.81,1.57-1.57.96-4.19-.35-8.26-.08-12.46.1-1.57.54-3.19,1.7-4.31,1.25-1.21,2.99-1.82,4.59-2.4,2.64-.96,1.63-4.84-1.17-4.24-1.96.42-3.96.15-5.74-.77l-.52,3.97c2.11-.7,4.17-.9,6.38-.65,2.4.27,2.92-3.72.57-4.22-1.76-.38-4.55-.81-4.7-3.04-.11-1.57.17-3.22.28-4.78.12-1.74.25-3.48.37-5.21.2-2.74-3.99-2.68-4.24,0-.39,4.24-.8,8.49-1.17,12.73-.1,1.12,1.03,2.09,2.09,2.09,1.25,0,1.94-.96,2.09-2.09.4-3.06.81-6.12,1.21-9.18.21-1.61.42-3.22.64-4.83s.57-3.15-1.17-3.9c-2.86-1.24-4.49,2.35-5.28,4.4-1,2.62-1.37,5.5-1.14,8.29.2,2.48,3.62,2.47,3.84,0,.31-3.34.6-6.94.07-10.28-.38-2.36-1.81-5.01-4.54-4.86-1.37.07-2.02,1.37-1.47,2.57.61,1.34,1.66,2.42,2.99,3.07,1.53.74,3.04-.75,2.29-2.29-.93-1.9-2.96-3.07-5.08-2.94-1.87.12-2.19,2.59-.44,3.21,2.08.75,4.2,1.22,6.39,1.48,1.31.15,2.14-1.86,1.11-2.68-1.64-1.31-3.69-2.3-5.84-1.93-1.24.22-1.26,2.33,0,2.53.97.15,1.86,0,2.49-.82.44-.57.07-1.6-.78-1.34h0Z"/>
      <path class="cls-3" d="M111.8,50.06c.26-.07.57,0,.84-.06s.52-.2.76-.32c.49-.24.92-.55,1.37-.85.9-.6,1.8-1.19,2.69-1.8.75-.51,1.13-1.42.75-2.29-.35-.8-1.28-1.35-2.16-1.06-2.2.72-4.29,1.73-6.19,3.06-1.56,1.08-1.06,3.63.99,3.66,1.4.02,2.8.04,4.21.07l-1.47-3.54c-.43.45-.74.66-1.31.83-1.1.31-1.78,1.5-1.48,2.61.33,1.2,1.47,1.67,2.61,1.48,4.06-.66,5.61-5.34,5.25-8.91-.11-1.13-.31-2.25-.5-3.37-.15-.9-.2-1.73-.3-2.67-.14-1.23-.44-2.35-1.33-3.26-.83-.85-2.22-1.27-3.36-.89-1.76.59-1.72,2.93,0,3.54-.21-.08.02.05.08.05-.08,0-.14-.12-.17-.18.08.12.16.23.23.35-.18-.29.05.1.08.22.11.38.09.27.12.67.03.35.05.71.1,1.06.18,1.58.6,3.23.73,4.75.03.37.05.75.05,1.12,0,.18,0,.35-.02.52,0,.04-.05.45-.02.23s-.05.19-.06.23c-.03.14-.07.27-.11.41-.05.17-.1.34-.17.5.08-.21.03-.06-.03.06-.13.24-.26.48-.42.71.12-.18.06-.06-.04.04-.09.1-.19.19-.28.29-.25.27.07-.02-.11.09-.11.07-.22.14-.34.2-.27.16.27-.07-.04.02-.16.05-.32.09-.49.12l1.13,4.09c1.2-.39,2.29-1.03,3.12-1.98,1.11-1.28.44-3.6-1.47-3.54-1.4.05-2.8.1-4.21.14l1.39,3.36c1.43-1.1,3.09-1.99,4.78-2.62l-1.41-3.35c-.95.7-1.88,1.44-2.81,2.18-.42.33-.85.66-1.23,1.04-.22.23-.45.47-.61.75-.13.24-.15.55-.28.78-.44.74.29,1.65,1.1,1.43h0Z"/>
    </g>
    <path class="cls-2" d="M48.24,134.94c5-5.1,4.42-14.11-.85-18.8-.57-1.27,1.82-3.24,2.4-4.52.05,0,.11.01.16.02.98,9.72,12.67,17.49,10.48,2l.14-.04c7.93,14.91,6.39-11.29,5.81-15.89,1.52,1.82,3.1,3.38,5.02,4.78.24.19.35.33.29.64-.06,3.17-2.63,7.09-1.2,9.91,2.62.71,4.98-2.46,6.24-4.44,1.71-2.71.47-6.19-1.94-8.04-.99-2.9.48-6.59.17-9.75,1.51,1.45,2.81,3.06,4.56,4.27.28,2.77-2.19,6.09-.42,9.07,3.21,4.75,8.99-6,5.86-8.86-.24-.69-1.76-1.36-1.29-2.06.81-.71,1.55-1.52,2.44-2.1,5.07-4.32,17.85-3.92,13.51,5.32,8.49-7.32-8.03-17.05-17.96-4.31-6.09-3.11-4.12-9.52-6.45-9.04-5.54,1.6-2,4.58-2.63,8.75-.07,2.06-.21,4.12-.29,6.18,0,.97-.99-.31-1.35-.46-2.05-1.68-2.75-4.19-3.11-6.71-.11-.56-.39-.86-.85-.8-1.35.36-3.67,1.18-3.59,2.87,1.02,6.55,1.18,13.37,1.02,19.98-.06,0-.11,0-.17.01-2.13-1.81-1.56-14.48-5.65-9.89-3-8.28-8.06-.4-8.82,4.35-1.86,2.16-3.09,5.88-5.43,7.16-5.78-2.07-14.1-1.18-17.45-7.25-3.59-11.57,8.09-24.65,16.86-31.01,24.65-13.5,10.65,27.54-6.73,22.82,5.22,6.52,15.04-1.68,19.2-6.21,10.18-11.73,3.9-30.85-13.25-21.7-11.97,6.94-22.54,20.59-22.52,34.85,1.32,10.51,14.68,9.35,22.52,11.31-2.63,3.82-5.35,7.47-6.39,12.04-1.61,8.37,6.15,12.22,11.66,5.54ZM81.32,96.69c.05-.13.17-.23.26-.34,2.21,2.05,1.29,5.28-.28,6.29-.98-1.78-.57-4.06.02-5.95ZM73.54,104.78c.03-.13.14-.24.21-.36.99,1.93.09,4.45-1.4,5.81-.05-.03-.09-.07-.14-.1.47-1.78.88-3.57,1.33-5.35ZM53.56,108.38c.11-1.98,0-4.44,1.72-5.78,2.58-.63,2.3,11.58,2.65,13.79-1.12,4.89-5.2-6.67-4.37-8.01ZM43.01,133.36c-6.06-2.4.02-11.79,2.38-15.38,4.24,4.23,3.54,13.2-2.38,15.38Z"/>
  </g>
</svg>