<?xml version="1.0" encoding="UTF-8"?>
<svg id="Layer_2" data-name="Layer 2" xmlns="http://www.w3.org/2000/svg" viewBox="0 0 184.27 149.06">
  <defs>
    <style>
      .cls-1 {
        fill: #006021;
        stroke-width: 0px;
      }
    </style>
  </defs>
  <g id="Layer_1-2" data-name="Layer 1">
    <g>
      <path class="cls-1" d="M21.17,23.21c.77-1.05.28-2.59-.82-3.2-1.4-.77-3.28-.2-4.7.23-3.21.96-6.19,2.65-8.74,4.81s-4.76,5.07-6.16,8.18c-.58,1.3-1.1,2.83-.44,4.2.79,1.64,2.64,1.72,4.24,1.66,4.12-.16,8.12-1.74,12.26-1.46,3.27.22,6.29,2.05,8.2,4.68,4.03,5.53,2.06,13.27-3.78,16.68-3.17,1.85-7.08,1.91-10.46.55-2.25-.91-7.54-4.33-5.65-7.38.95-1.54-1.09-2.75-2.32-1.79-2.99,2.34-.58,6.62,1.48,8.67,2.34,2.32,5.47,3.85,8.72,4.32,6.87,1.01,13.33-2.78,15.93-9.21,2.52-6.23.07-13.25-5.43-16.97-3.07-2.07-6.66-2.54-10.27-2.08-1.99.26-3.94.7-5.92,1.04-1.07.18-2.14.31-3.23.33-.8.02-1.62.16-1.48-.85.24-1.72,1.56-3.57,2.53-4.95,1.11-1.57,2.46-2.98,3.92-4.23s3.12-2.3,4.86-3.13c.91-.44,1.86-.79,2.83-1.1.38-.12,3.55-.94,3.02.19-.44.95.78,1.65,1.39.81h0Z"/>
      <path class="cls-1" d="M37.23,52.48c3.14-1.92,5.38-5.41,6.16-8.98.35-1.6.5-3.48-.5-4.9-1.18-1.69-3.3-1.75-4.99-.82s-2.92,2.69-3.76,4.4-1.39,3.65-1.56,5.62c-.16,1.84-.01,3.88.68,5.61.9,2.23,2.81,3.02,5.11,2.81,4.29-.38,8.79-2.31,11.52-5.73,1.03-1.29-.56-2.96-1.83-1.83-2.21,1.95-4.67,3.55-7.54,4.3-.66.17-1.34.31-2.01.39-.62.07-1.54.24-2.1-.15-.93-.65-1.05-2.57-1.11-3.59-.18-2.93.66-5.94,2.46-8.28.56-.73,2.09-2.43,3.13-1.56.81.68.55,2.26.38,3.15-.66,3.34-2.56,5.99-5.11,8.16-.78.66.23,1.94,1.09,1.41h0Z"/>
      <path class="cls-1" d="M53.42,35.26c.31.8.49,1.65.79,2.46s.64,1.67.97,2.5l.95,2.41c.16.4.32.8.47,1.21.09.25.17.49.3.72.09.15.24.3.31.46.24.57,1.08.69,1.56.41.59-.34.65-.99.41-1.56.13.3-.05-.38-.07-.44-.09-.23-.19-.41-.3-.63-.19-.39-.37-.78-.55-1.17l-1.11-2.35c-.37-.78-.74-1.56-1.12-2.34s-.88-1.49-1.25-2.26-1.64-.21-1.34.57h0Z"/>
      <path class="cls-1" d="M54.92,27.39c-.15,0-.31,0-.46.03l-.17.02c-.07.01-.06,0,.05,0-.03,0-.07,0-.1,0-.12.01-.25.03-.37.05-.34.06-.68.22-.98.38-.64.35-1.16.87-1.49,1.52-.2.39-.11.93.3,1.14.39.21.92.11,1.14-.3.07-.12.14-.24.22-.36.02-.03.1-.13,0-.02s0,0,.01-.01c.04-.05.09-.11.14-.16.09-.1.18-.2.27-.29.05-.05.1-.1.15-.14.03-.02.05-.04.08-.07.1-.09-.12.09-.05.03.22-.16.46-.29.7-.42.06-.03.12-.06.18-.09.08-.04-.02.02-.05.02.03,0,.09-.03.12-.04.06-.02.12-.03.18-.04.05,0,.3-.05.1-.02.17-.02.31-.05.44-.18.11-.11.19-.29.18-.44-.02-.34-.27-.62-.62-.62h0Z"/>
      <path class="cls-1" d="M67.95,18.93l-.02-.4h-.99c-.14,1.95.62,4.12,1.06,6.01.47,2.01.94,4.03,1.41,6.04.96,4.11,1.95,8.2,2.93,12.3.64,2.67,2.15,5.95,5.53,4.94,1.48-.44,2.71-1.71,3.34-3.08.77-1.68.81-3.57,1.57-5.23.57-1.24-1.14-2.3-1.86-1.09s-1.14,2.6-1.57,3.95c-.36,1.11-1.07,2.94-2.49,3.06-1.28.11-1.7-1.63-1.96-2.57-.46-1.64-.89-3.3-1.33-4.95-.88-3.27-1.76-6.54-2.66-9.81-.46-1.67-.92-3.35-1.38-5.02-.43-1.57-.78-3.43-1.67-4.81-.29-.45-1.09-.17-.9.38l.13.39c.15.44.89.4.86-.12h0Z"/>
      <path class="cls-1" d="M68.24,36.19c.56-.85,1.18-1.64,1.71-2.51.49-.8.98-1.61,1.47-2.41s.94-1.63,1.41-2.45c.52-.9,1.01-1.78,1.31-2.77.25-.83-.93-1.6-1.51-.88-1.23,1.5-2.03,3.39-2.86,5.14-.41.85-.8,1.71-1.2,2.57-.2.42-.4.85-.58,1.28-.21.51-.36,1.04-.58,1.55-.24.56.48,1.02.84.49h0Z"/>
      <path class="cls-1" d="M88.52,19.36c-2.36-1.2-5.17-.24-6.88,1.63-.98,1.07-1.65,2.34-2.22,3.67-.49,1.16-1.02,2.37-1.24,3.63-.2,1.13-.2,2.37.49,3.34.88,1.25,2.45,1.51,3.85,1.1,2.5-.73,5.31-2.61,6.44-5.01s.55-5.73-1.99-6.93c-.8-.38-1.87.06-1.84,1.06.12,4.56,4.4,8.65,9.02,8.01.59-.08.95-.8.87-1.33-.09-.61-.57-1.02-1.19-1.05-3.08-.16-6.04-2.38-6.24-5.63l-1.84,1.06c1.3.56,1.65,2.13,1.25,3.41-.56,1.78-2.38,2.91-3.94,3.73-.65.34-1.86,1.01-2.54.42-.47-.41-.4-1.27-.33-1.82.12-.92.46-1.83.76-2.7.34-1,.73-1.99,1.28-2.89,1.11-1.84,3.44-3.58,5.67-2.59.73.32,1.38-.72.64-1.09h0Z"/>
      <path class="cls-1" d="M96.16,21.93c.21-.75,1.28,1.19,1.38,1.39.39.76.77,1.53,1.15,2.3.8,1.6,1.65,3.17,2.49,4.76.47.88,1.98.72,2.19-.29.74-3.59,1.38-7.2,2.06-10.8.42-2.24.65-5.83,2.78-7.22,2.72-1.77,5.58,1.98,6.8,3.96,1.67,2.72,2.62,5.81,3.91,8.72.59,1.33,2.61.36,2.28-.96-.92-3.73-2.39-7.44-4.74-10.52-1.95-2.56-5.15-5.18-8.58-3.94-2.91,1.06-3.97,4.32-4.51,7.08-.84,4.33-1.62,8.69-2.33,13.05l2.19-.29c-1.5-2.58-2.9-5.32-4.64-7.76-.5-.69-1.2-1.31-2.1-1.28-.85.02-1.62.55-1.75,1.42s1.14,1.31,1.4.39h0Z"/>
      <path class="cls-1" d="M70.08,70.64c.49,2.26,1.21,4.47,2.12,6.6.44,1.03.93,2.03,1.47,3,.57,1.03,1.21,2.54,2.35,2.97.7.26,1.53-.42,1.49-1.14s-.4-1.1-.79-1.63c-.32-.44-.63-.88-.93-1.33-.61-.93-1.17-1.89-1.68-2.88-1-1.94-1.74-3.97-2.28-6.09-.29-1.15-2.01-.66-1.76.49h0Z"/>
      <path class="cls-1" d="M67.89,63.48s-.08-.05-.07-.05c0,0,.15.13.06.05-.02-.02-.03-.03-.05-.05-.05-.05-.05-.11.04.06-.02-.04-.05-.08-.07-.12-.04-.06-.03-.12.02.07,0-.02-.02-.04-.02-.07-.02-.05-.02-.1-.04-.15-.03-.11.02.18.01.09,0-.02,0-.05,0-.07,0-.05,0-.11,0-.16,0-.02,0-.05,0-.07-.02.25-.02.14,0,.08,0-.05.02-.09.04-.14,0-.03.02-.05.03-.08.04-.11-.08.16-.04.09.02-.05.05-.09.08-.14.01-.02.03-.04.04-.06.04-.07-.14.15-.06.08.04-.04.07-.07.11-.11.09-.09-.08.06-.08.06,0,0,.06-.04.07-.04.02-.01.04-.02.06-.03.07-.04-.21.07-.1.04.06-.01.11-.03.17-.04l-.21.03h.03c-.19-.08-.38-.16-.56-.24.08.07.15.14.23.22.09.1-.09-.14-.05-.07.01.02.03.05.05.07.03.04.06.09.08.14.04.07.09.24,0-.02.02.05.04.1.05.15.03.11.06.22.07.33l-.03-.23c.02.19.02.38,0,.57l.03-.23c-.02.16-.07.32-.13.48l.09-.21c-.06.14-.13.27-.23.4l.14-.18c-.06.07-.12.14-.19.21h1.29c-.29-.28-.57-.58-.82-.9l.15.19c-.18-.23-.34-.47-.48-.72s-.31-.49-.45-.74c-.2-.37-.69-.51-1.06-.35s-.61.59-.49,1c.09.3.18.6.32.88.11.23.26.45.41.66.33.47.7.91,1.15,1.27.18.15.39.28.65.27.24-.01.48-.09.65-.27.87-.93,1-2.48.23-3.52-.1-.14-.21-.28-.34-.4-.08-.07-.17-.14-.26-.2-.21-.15-.44-.18-.69-.13-.3.06-.57.22-.79.43-.39.37-.6.95-.59,1.49.02.62.32,1.28.9,1.56.32.15.75.1.93-.24s.08-.74-.24-.93h0Z"/>
      <path class="cls-1" d="M90.34,56.76c-3.11.34-6.92,1.63-7.63,5.11-.29,1.44-.02,3.02.9,4.19,1.12,1.43,2.85,1.65,4.54,1.27,4.16-.94,8.68-3.06,12.67-.35,1.45.99,2.6,2.62,2.45,4.44-.14,1.66-1.28,3.02-2.55,4.01-1.58,1.22-3.6,2.17-5.55,2.59-.97.21-2.28.31-2.97-.57-.44-.57-.54-1.28-.1-1.86.84-1.1-.87-2.14-1.79-1.38-1.42,1.17-1.29,3.19-.3,4.6,1.25,1.78,3.44,2.1,5.46,1.71,3.61-.71,7.92-3.1,9.5-6.56,1.72-3.76-.43-7.76-3.96-9.49-2.04-1-4.32-1.2-6.56-.93-1.16.14-2.3.38-3.42.69-1.28.35-2.54.94-3.85,1.16-2.24.38-3.26-2.05-2.52-3.9.89-2.25,3.71-3.04,5.85-3.4.74-.12.58-1.4-.18-1.32h0Z"/>
      <path class="cls-1" d="M55.87,122.33c.94-2.04,2.98-3.04,4.8-4.16,2.06-1.27,4.01-2.74,5.84-4.32,3.7-3.19,6.83-6.97,9.43-11.09l-3.14-.85c-.02.56.04,1.11.09,1.66.13,1.57,2.62,2.19,2.96.4.13-.69.27-1.37.32-2.06.11-1.7-2.34-2.24-3.14-.85-2.43,4.24-5.59,8.01-9.26,11.22-1.78,1.56-3.72,2.86-5.64,4.24-1.79,1.29-3.41,2.9-4.06,5.06-.31,1.04,1.31,1.78,1.78.75h0Z"/>
      <path class="cls-1" d="M65.33,108.6c-2.53,1.4-2.72,4.47-2.93,7.04-.29,3.6-.25,7.25-.06,10.85.39,7.21,1.6,14.38,3.53,21.34.41,1.46,2.35,1.64,3.14.41,2.91-4.56,6.45-8.66,10.56-12.18,3.24-2.77,7.81-6.39,6.85-11.22-.31-1.56-2.91-1.6-3.19,0-.37,2.09-1.03,3.69-2.49,5.26-1.54,1.66-3.36,3.04-5.02,4.58-3.76,3.47-7.01,7.47-9.67,11.83l3.14.41c-1.85-6.2-3.12-12.57-3.7-19.01-.29-3.14-.45-6.28-.45-9.43,0-1.58-.01-3.18.06-4.76.06-1.18.18-2.69,1.2-3.45.97-.72.14-2.27-.97-1.66h0Z"/>
      <path class="cls-1" d="M68.11,130.93c2.31-2.06,4.57-4.16,6.84-6.26,1.1-1.02,2.19-2.04,3.28-3.08l1.68-1.6c.49-.46.94-1.05,1.55-1.32l-.85.23-.07-.03-.73-.42-.14-.19-.22-.82c0-.48.29-.82.85-1.01h.77-.06c.21.11.42.23.63.35l-.06-.05c-.79-.77-1.93-.34-2.29.6-.47,1.25.88,2.22,2.01,1.92,1.32-.35,1.84-2.04.9-3.05-1.04-1.12-2.55-.65-3.52.26-.86.81-1.65,1.7-2.46,2.55-3.28,3.4-6.53,6.84-9.7,10.34-.98,1.08.51,2.56,1.59,1.59h0Z"/>
      <path class="cls-1" d="M85.33,107.4c-.15-.55-.3-1.09-.42-1.64l-1.66.7c1.51,2.55,3.18,5,4.58,7.63s2.67,5.43,4.03,8.13c2.67,5.29,5.86,10.33,10.92,13.62.9.59,2.44.05,2.63-1.07.87-5.17,1.17-10.46,1.07-15.7-.05-2.58-.2-5.17-.47-7.74-.13-1.29-.29-2.58-.48-3.86s-.33-2.53-1.54-3.3c-.67-.43-1.42-.08-1.85.48-.81,1.05-.43,2.37-.25,3.57.18,1.27.34,2.55.47,3.83.24,2.41.39,4.83.44,7.26.1,5.03-.3,9.99-.9,14.98l2.7-1.55c-4.99-2.92-7.9-8.06-10.5-13.03-1.34-2.57-2.62-5.19-4.1-7.69s-3.17-5.05-5.49-6.81c-.76-.58-1.66.51-1.24,1.24.28.49.53.99.78,1.49.37.73,1.51.22,1.3-.55h0Z"/>
      <path class="cls-1" d="M112.76,104.89c.12-.34.23-.6.43-.94.22-.39.33-.51.6-.8s.54-.55.82-.81c.13-.13.27-.25.42-.37.03-.02.3-.22.07-.06.08-.06.16-.12.24-.18.3-.21.62-.4.95-.57.09-.05.18-.09.27-.13.05-.02.09-.04.14-.06.09-.04.06-.03-.08.04.06-.09.46-.17.57-.2.35-.11.71-.19,1.07-.27.1-.02.2-.04.3-.06.08-.01.41-.04.03-.01.39-.03.69-.18,1.01-.39.7-.46.87-1.68,0-2.09-.37-.18-.7-.32-1.11-.31-.28,0-.59.07-.87.13-.5.1-.96.29-1.43.49-.86.37-1.63.89-2.34,1.5-1.39,1.19-2.29,2.87-2.7,4.65-.24,1.06,1.25,1.45,1.61.44h0Z"/>
      <path class="cls-1" d="M115.01,102.12c1.67,4.23,3.34,8.46,5.06,12.66.86,2.09,1.72,4.18,2.57,6.27.43,1.05.86,2.09,1.29,3.14.48,1.17.86,2.33,1.84,3.17.9.77,2.21.25,2.29-.95s-.41-2.23-.89-3.33-.96-2.22-1.44-3.33c-.9-2.07-1.79-4.15-2.69-6.22-1.78-4.13-3.38-8.55-5.86-12.32-.7-1.06-2.71-.41-2.18.92h0Z"/>
      <path class="cls-1" d="M119.47,131.49c2.33-1.8,4.77-3.49,7.19-5.17,1.18-.81,2.38-1.61,3.56-2.41,1.3-.88,2.7-1.69,3.67-2.96.71-.93-.46-2.09-1.42-1.85-1.46.36-2.71,1.38-3.9,2.24-1.27.92-2.49,1.88-3.71,2.86-2.34,1.88-4.54,3.88-6.75,5.93-.93.86.41,2.09,1.36,1.36h0Z"/>
      <path class="cls-1" d="M125.37,74.43c.27,4.13.99,8.23,1.73,12.3s1.61,8.41,2.6,12.58,2.03,8.12,3.2,12.13c.98,3.39,2.19,6.79,4.74,9.34.64.64,1.9.74,2.52,0,1.98-2.32,4.19-4.47,6.64-6.3,1.23-.92,2.52-1.77,3.84-2.54s2.87-1.3,3.92-2.4c.9-.96.32-2.85-1.14-2.76-1.71.1-3.2,1.1-4.64,1.96s-2.71,1.73-3.98,2.71c-2.63,2.01-5.02,4.27-7.14,6.81h2.52c-2.42-2.37-3.37-5.67-4.34-8.83-1.18-3.86-2.26-7.75-3.26-11.66s-1.95-7.83-2.79-11.77-1.51-7.91-2.44-11.82c-.26-1.08-2.04-.87-1.96.27h0Z"/>
      <path class="cls-1" d="M144.62,86.52c-1.63-1.58-.63-4.45-.19-6.33.66-2.81,1.27-5.64,1.83-8.47,1.09-5.54,1.94-11.13,2.6-16.74,1.34-11.32,1.85-22.74,1.53-34.14-.18-6.5-.64-12.99-1.36-19.45l-1.38,1.38c.18.01.35.04.52.09.29.13.5-.02.65-.42-1.23.03-1.47,1.78-.29,2.13,1.31.39,2.52-.76,2.5-2.08-.02-1.81-1.91-2.33-3.38-2.48-.68-.07-1.46.69-1.38,1.38,2.73,23.54,1.82,47.35-2.47,70.65-.59,3.18-1.38,6.33-1.94,9.52-.39,2.26-.37,4.64,1.41,6.3.89.83,2.21-.49,1.34-1.34h0Z"/>
      <path class="cls-1" d="M145.86,5.33c.34,1.08.58,1.98,1.07,3.02s1.01,2.08,1.53,3.11c1.07,2.14,2.14,4.28,3.22,6.41,2.14,4.19,4.26,8.38,6.39,12.57,4.23,8.31,8.44,16.62,12.63,24.94,2.41,4.79,4.8,9.58,7.23,14.36.84,1.65,3.28.2,2.48-1.45-.62-1.26-1.25-2.5-1.97-3.71s-2.86-.41-2.33.98,1.16,2.8,1.82,4.17l2.48-1.45c-8.3-16.68-16.87-33.23-25.49-49.75-1.18-2.27-2.36-4.53-3.57-6.78-.62-1.16-1.24-2.33-1.87-3.48-.32-.58-.64-1.15-.97-1.72-.39-.69-.89-1.14-1.37-1.77-.44-.58-1.54-.29-1.29.54h0Z"/>
      <path class="cls-1" d="M181.33,62.39c.67.09,1.27.2,1.9.44,1.01.4,1.5-1.29.45-1.65-2.08-.72-4.41-.9-6.56-1.44s-4.34-1.18-6.49-1.84c-4.26-1.32-8.49-2.75-12.73-4.1s-8.47-2.68-12.69-4.05c-2.04-.66-4.08-1.34-6.07-2.14-1.02-.41-2.02-.84-3-1.33-.1-.05-1.44-.64-.68.15.15.15,1.5.18,1.78.21,1.42.17,1.75-1.9.69-2.55-1.47-.9-3.53-1.1-4.77.29s-.81,3.17.64,4.09c1.55.98,3.48,1.61,5.19,2.25,1.94.72,3.91,1.34,5.89,1.95,8.2,2.52,16.4,5.06,24.65,7.42,2.24.64,4.49,1.25,6.77,1.75s4.84,1.22,7.16,1.03l-.23-1.68c-.64.13-1.25.1-1.9.07-.75-.04-.71,1.05,0,1.14h0Z"/>
      <path class="cls-1" d="M129.86,51.36c-1.04.01-2.06-.02-3.1-.07l.49,1.81c9.13-6.11,18.13-12.42,27.14-18.7,4.51-3.14,9.02-6.29,13.52-9.43,3.76-2.62,8.26-5.07,10.91-8.92,2.45-3.54,2.4-8.6-1.19-11.33-.79-.6-2.03.04-2.25.92-4.82,19.17-11.18,37.97-18.99,56.14-2.23,5.19-4.71,10.26-6.95,15.44-.73,1.7,1.63,3.21,2.55,1.49,4.69-8.79,8.44-18.21,12.05-27.49s6.9-18.84,9.79-28.45c1.62-5.4,3.12-10.85,4.51-16.32l-2.25.92c2.93,2.23.91,6.68-1.07,8.71-1.45,1.48-3.17,2.65-4.85,3.85-1.97,1.4-3.94,2.8-5.91,4.21-8.08,5.75-16.17,11.49-24.22,17.29-4.6,3.32-9.21,6.62-13.77,10-.9.67-.36,1.95.75,1.77.95-.15,1.89-.28,2.84-.37s.96-1.48,0-1.47h0Z"/>
    </g>
  </g>
</svg> 