<?xml version="1.0" encoding="UTF-8"?>
<svg id="Layer_2" data-name="Layer 2" xmlns="http://www.w3.org/2000/svg" viewBox="0 0 68.98 128.38">
  <defs>
    <style>
      .cls-1 {
        fill: #ff0000;
        stroke-width: 0px;
      }
    </style>
  </defs>
  <g id="Layer_1-2" data-name="Layer 1">
    <path class="cls-1" d="M27.31,45.93c-.62-6.07,1.39-12.2,5.27-16.89,1.9-2.29,4.18-4.21,6.79-5.64,2.77-1.52,6.93-3.19,9.97-1.61,2.82,1.47,4.4,5.05,5.12,7.98.8,3.26.65,6.71-.11,9.96-1.3,5.49-5.22,14.5-12.18,13.69-3.76-.44-6.54-3.42-7.94-6.75-.99-2.33-1.58-6.22.9-7.9,1.63-1.1.23-3.39-1.52-2.6-3.4,1.52-3.97,5.52-3.39,8.81.65,3.74,3.01,7.31,6.08,9.49,3.37,2.4,7.98,2.87,11.62.82s5.81-5.74,7.37-9.33c3.13-7.2,3.76-16.32-1.04-22.97-1.08-1.5-2.4-2.84-4.12-3.58-2.04-.88-4.3-.75-6.41-.22-3.56.89-6.84,2.77-9.56,5.21-5.96,5.33-9.36,13.56-8.3,21.55.12.9,1.55.94,1.45,0h0Z"/>
    <path class="cls-1" d="M32.96,6.1c.05.52.04,1.01.13,1.53.08.46.17.93.26,1.39.17.93.38,1.84.6,2.76.46,1.87.94,3.73,1.45,5.58.22.8.37,1.72.86,2.41.62.87,1.9,1.22,2.73.39.72-.72.51-1.93-.33-2.45-.73-.46-1.88-.21-2.04.75-.19,1.15,1.02,1.92,1.95,1.13l.06-.05-.84.35h.05c-.29-.12-.57-.24-.86-.36v-1.37c.21-.12.42-.24.63-.36l.39-.05.64.37c-.25-.2,0,.09-.11-.16-.12-.26-.19-.57-.28-.85-.16-.49-.32-.98-.47-1.46-.35-1.1-.69-2.2-1.02-3.31s-.6-2.14-.94-3.2c-.17-.53-.34-1.06-.5-1.59-.18-.59-.43-1.11-.65-1.68-.32-.83-1.8-.83-1.7.23h0Z"/>
    <path class="cls-1" d="M51.31,5c.24-1.25.73-2.45,1.72-3.29.84-.72-.28-2.2-1.2-1.55-2.16,1.53-3.68,3.98-4.67,6.4s-1.55,5.22-.98,7.86c.29,1.37,2.28.98,2.35-.32.12-2.27.27-4.51,1.03-6.67s2.07-3.92,3.47-5.72l-1.55-1.2c-.81,1.26-1.49,2.56-1.72,4.06-.15,1,1.35,1.46,1.55.43h0Z"/>
    <path class="cls-1" d="M67.88,7.82c-2.18.85-4.2,1.99-6.02,3.46-.88.7-1.7,1.47-2.46,2.3-.36.39-.73.79-1.07,1.19-.52.62-.71,1.3-.8,2.08-.09.84.97,1.28,1.61.92.58-.32,1.08-.71,1.45-1.27.29-.43.55-.83.81-1.15.66-.81,1.37-1.58,2.14-2.3,1.52-1.42,3.19-2.64,5.03-3.63.86-.46.27-1.98-.68-1.61h0Z"/>
    <path class="cls-1" d="M47.84,33.99c-.05-.22-.01.12-.02-.09,0-.05,0-.1,0-.14,0-.19-.05.11,0-.07.02-.06.03-.11.05-.17.04-.12-.09.15.01-.04.03-.05.06-.1.09-.15.02-.03.11-.16.02-.04.05-.07.11-.13.17-.19.04-.04.09-.08.13-.12-.12.11,0,0,.03-.02.12-.07.23-.14.35-.2.04-.02.15-.05,0,0,.07-.02.14-.05.21-.07.05-.01.1-.02.14-.04.17-.05-.15,0,.09-.01.06,0,.12,0,.18,0,.05,0,.28.04.04,0,.12.02.24.05.35.09-.04-.01-.17-.1-.03,0,.06.04.13.08.19.12-.16-.09-.08-.07-.03-.02.07.07.14.13.21.21.03.04.06.07.09.11-.17-.2-.02-.02,0,.03.04.07.19.41.09.14.04.12.08.23.11.35.01.05.02.1.03.14.02.12.02.1,0-.06,0,.05.01.1.01.15,0,.13,0,.25,0,.38,0,0,0,.14-.01.15l.02-.14s-.02.1-.03.15c-.02.12-.06.25-.1.37,0,.02-.07.26-.02.08.04-.16-.05.1-.07.14-.03.06-.14.29-.2.32l.08-.11s-.05.06-.07.09c-.04.04-.09.09-.13.14-.05.05-.11.1-.17.15-.12.11.22-.13-.02,0-.15.09-.3.18-.46.26-.25.13.16-.04,0,0-.07.02-.14.05-.21.07-.14.04-.28.07-.43.1-.29.06.26,0-.04,0-.06,0-.12,0-.18.01-.18,0-.36,0-.54,0h-.09c-.14-.02-.12-.02.05,0-.04,0-.14-.02-.18-.03-.15-.03-.29-.07-.44-.11-.09-.03-.17-.06-.26-.09-.21-.07.01.01.04.02-.17-.05-.33-.16-.48-.25-.08-.05-.16-.1-.24-.15-.25-.17.17.17-.04-.04-.07-.07-.14-.13-.2-.19l-.06-.07c-.09-.11-.08-.09.03.04-.05-.03-.09-.14-.12-.19-.16-.28.02.18-.04-.06-.02-.07-.04-.15-.06-.22-.02-.1-.01-.06.02.12,0-.06,0-.11,0-.17.09.06-.08.28,0,.1.01-.05.03-.11.05-.16-.08.18-.09.21-.02.09.13-.2-.05.07-.06.06,0,0,.23-.24.23-.24,0,0-.27.2-.07.07.12-.06.09-.05-.1.03.13-.05.26-.11.38-.16l-.08.04c-.18.08-.11.05.22-.09-.37.13-.05.03.04.02.83-.12,1.03-1.31.48-1.83-.51-.47-1.22-.71-1.89-.45-.59.23-1.1.62-1.41,1.19-.65,1.15-.36,2.42.44,3.4,1.22,1.5,3.55,2,5.37,1.53s3.17-2.04,3.2-3.96c.03-1.74-1.14-3.5-3-3.54s-3.74,1.74-3.1,3.62c.3.89,1.62.54,1.42-.39h0Z"/>
    <path class="cls-1" d="M3.11,39.67c-1.16-2.68-1.69-5.92-.7-8.74s3.51-3.84,6.24-2.75c4.62,1.84,7.71,7.03,8.99,11.6s1.42,10.24-.89,14.5c-1.05,1.95-2.83,3.7-5.21,3.49-2.73-.24-4.73-2.5-5.71-4.89-1.33-3.23-1.45-6.98-1.37-10.42.09-3.76.57-7.52.96-11.25.16-1.47-2.37-1.83-2.61-.35-.66,4.09-1.24,8.18-1.25,12.34,0,3.74.32,7.7,1.85,11.15,1.32,2.97,3.9,5.52,7.2,6.06,3.03.5,5.76-.92,7.55-3.33,3.54-4.78,3.55-11.92,2.05-17.43s-5.58-12.12-11.53-13.85c-3.36-.98-6.55.61-7.86,3.82-1.43,3.49-.66,7.56.91,10.86.44.93,1.76.12,1.36-.8h0Z"/>
    <path class="cls-1" d="M0,14.59c.19,1.86.43,3.72.67,5.58.12.95.25,1.9.38,2.84s.11,2.05.69,2.82c.53.69,1.52.62,1.83-.24.33-.92,0-1.97-.17-2.9s-.33-1.88-.5-2.83c-.33-1.85-.66-3.69-1.04-5.53-.22-1.04-1.98-.82-1.87.25H0Z"/>
    <path class="cls-1" d="M7.93,12.39c-.28,1.78-.48,3.56-.66,5.35l-.26,2.6c-.1.94-.23,1.85.02,2.78.22.8,1.54,1.11,1.91.25s.44-1.77.49-2.73l.14-2.7c.09-1.77.18-3.54.16-5.31,0-1-1.64-1.3-1.81-.25h0Z"/>
    <path class="cls-1" d="M18.15,12.63l-.18.82h-.46c-.23-.41-.34-.51-.33-.29-.02.09-.04.18-.07.27-.06.26-.12.52-.18.79-.1.45-.2.9-.29,1.36-.21,1.02-.39,2.05-.58,3.07s-.37,1.97-.56,2.96c-.21,1.13-.57,2.23-.09,3.33.29.66,1.33.73,1.78.23.62-.7.68-1.51.8-2.41.09-.73.19-1.45.28-2.18.19-1.49.4-2.98.58-4.47.09-.72.17-1.45.23-2.18.05-.6.07-1.33-.39-1.79-.9-.9-2.77.1-1.98,1.31.58.9,1.87.12,1.42-.83h0Z"/>
    <path class="cls-1" d="M12.11,44.97c.06.14,0-.02-.01-.04-.02-.05-.03-.1-.05-.15-.03-.09-.05-.19-.07-.29-.02-.08,0-.09,0,0,0-.05-.01-.11-.01-.16,0-.11,0-.21,0-.32,0-.02.02-.18,0-.07s.01-.07.02-.09c.02-.1.04-.19.07-.29.03-.09.05-.23.11-.31-.05.06-.05.11,0,0,.02-.05.05-.1.07-.14.05-.09.1-.17.15-.26,0-.01.08-.13.09-.13-.02,0-.12.14,0,.02.07-.07.13-.14.2-.21.04-.04.08-.07.12-.11.02-.02.04-.03.06-.05.05-.04.03-.02-.08.06.08-.02.17-.12.24-.17.08-.06.16-.11.25-.15.05-.03.1-.05.14-.07.17-.09-.21.07-.03.01.1-.04.2-.07.31-.1l-1.08-.44c.06.08.11.17.16.26.08.15,0,.04-.02-.05.01.05.04.09.05.14.03.09.06.19.07.29s0,.22,0-.07c0,.05,0,.1.01.15,0,.1,0,.2,0,.3,0,.05-.01.1-.01.15,0-.3.03-.18,0-.08-.04.2-.1.39-.16.58-.06.17.12-.24.03-.07-.02.05-.04.09-.07.14-.05.09-.1.18-.15.26-.02.03-.05.11-.09.12l.11-.14s-.04.05-.06.08c-.06.08-.13.15-.21.22-.04.03-.07.07-.11.1-.14.12.23-.16.07-.05-.08.05-.15.1-.23.14-.04.02-.09.04-.13.07-.1.06.3-.1.09-.04-.11.03-.21.06-.32.09l1.29.52c-.18-.42-.38-.84-.63-1.23-.29-.46-.85-.66-1.36-.44-.48.2-.79.76-.63,1.28s.4,1.04.65,1.54c.22.45.82.65,1.29.52,1.23-.33,2.12-1.33,2.51-2.52s.14-2.46-.64-3.41c-.2-.25-.64-.35-.93-.25-.55.19-1.1.48-1.48.93s-.67.95-.88,1.49c-.38,1-.33,2.17.16,3.12.16.32.61.41.91.24.34-.2.38-.58.24-.91h0Z"/>
    <path class="cls-1" d="M18.05,78.78c-.36.18-.4.38-.11.61.08.14.17.28.27.41.23.32.47.64.74.93.47.5,1.05.92,1.64,1.28,1.34.82,2.89,1.28,4.43,1.57,3.39.65,7.12.88,10.4-.37,6.49-2.46,7.73-9.45,11.51-14.47l-3.13-.41c2.15,5.79,4.33,11.58,6.65,17.31.81,2.01,3.62,1.27,3.26-.9-.39-2.38-2.54-3.65-4.53-4.6-1.72-.82-4.44-1.58-5.15-3.58-.49-1.4-2.65-.85-2.25.62,1.62,5.89,2.44,12,2.74,18.09l1.81-.75c-3.2-3.7-6.43-7.38-9.57-11.13-.63-.75-1.87-.12-1.87.77,0,4.84.05,9.67.1,14.5l2.37-.32c-.78-3.77-2.06-7.4-3.74-10.86-.34-.7-1.41-.79-1.91-.25-3.02,3.21-3.72,7.56-4.28,11.77h2.44c-.4-4.1-1.43-8.02-3.06-11.79-.35-.81-1.67-.74-2.05,0-2.02,3.96-3.48,8.15-4.3,12.52l2.33.32c-.02-4.62-.05-9.24-.06-13.86,0-1.19-1.64-1.64-2.24-.61-1.85,3.16-3.71,6.32-5.56,9.49l2.28.62c0-4.39-.12-8.82-.68-13.18-.19-1.47-2.48-1.56-2.38,0,.29,4.39.59,8.77.6,13.18,0,1.21,1.67,1.67,2.28.62,1.84-3.17,3.68-6.34,5.53-9.51l-2.24-.61c.03,4.62.06,9.24.09,13.86,0,1.29,2.08,1.67,2.33.32.77-4.17,2.11-8.18,4.06-11.95h-2.05c1.43,3.37,2.32,6.95,2.68,10.59.15,1.59,2.23,1.54,2.44,0,.47-3.52,1.04-7.36,3.56-10.05l-1.91-.25c1.59,3.27,2.74,6.71,3.52,10.27.29,1.33,2.4,1.03,2.37-.32-.09-4.84-.18-9.67-.32-14.5l-1.87.77c3.26,3.65,6.43,7.38,9.62,11.09.6.69,1.85.14,1.81-.75-.3-6.33-1.27-12.53-2.62-18.71l-2.25.62c.66,2.21,2.53,3.48,4.47,4.53,1.37.75,3.91,1.66,4.14,3.48l3.32-.45c-2.09-5.81-4.34-11.58-6.6-17.32-.56-1.42-2.24-1.66-3.13-.41-1.91,2.65-3.02,5.75-4.65,8.56s-4.03,4.9-7.47,5.39c-3.1.44-7.15.33-10-1.12-.77-.39-1.4-.91-1.96-1.57-.4-.46-.74-.91-1.32-1.15-1.32-.55-2.7.51-2.38,1.91.23,1.02,1.95.82,1.86-.25h0Z"/>
    <path class="cls-1" d="M22.07,127.52c.42-5.33.84-10.66,1.25-15.99h-2.09c.43,4.2,1.91,8.2,4.48,11.56.69.9,1.96.59,2.09-.57.46-4.29.93-8.58,1.86-12.79h-2.1c1.72,4.54,3.06,9.2,4.01,13.97.17.84,1.4,1.16,1.96.52,1.75-2.02,1.96-4.59,2.3-7.14.4-3.08.8-6.16,1.2-9.25l-2.36.32c.91,4.53,2.28,8.91,4.08,13.16.43,1.02,2.01.65,2.27-.3,1.18-4.33,2.1-8.71,2.79-13.14h-2.41c1.03,3.24,2.06,6.49,3.09,9.73.4,1.25,1.98,1.13,2.42,0,1.42-3.67,2.21-7.53,2.41-11.46l-2.33.63c1.26,1.95,1.01,4.43,1.14,6.64s.62,4.46,2.37,5.98c.74.64,2,.45,2.27-.6,1.2-4.75,1.68-9.66,1.5-14.56l-2.53.34c.55,1.67.99,3.37,1.32,5.1s.39,3.35.69,5.02c.46,2.57,2.75,4.97,5.46,3.59l-.78-1.86c-6.02,2.47-12.23,4.34-18.71,5.15-3.29.41-6.61.59-9.92.67-1.62.04-3.24.06-4.86.07-.89,0-1.78,0-2.68,0-.3,0-.63.04-.93-.01l-.31-.08c-.38-.22-.36-.01.05.62.5-1.93-2.47-2.75-2.98-.82-1.09,4.07,5.16,3.35,7.34,3.29,3.97-.12,7.94-.3,11.89-.76,7.58-.88,15.07-2.83,21.9-6.27,1.02-.52.31-2.22-.78-1.86-2.39.78-2.38-3.94-2.55-5.22-.34-2.49-.9-4.92-1.65-7.31-.42-1.35-2.57-1.16-2.53.34.12,4.68-.41,9.29-1.54,13.84l2.27-.6c-1.64-1.41-1.6-3.69-1.72-5.69-.13-2.19-.33-4.39-1.55-6.28-.68-1.06-2.27-.62-2.33.63-.19,3.72-.99,7.32-2.33,10.79h2.42c-1.04-3.24-2.07-6.49-3.1-9.73-.34-1.07-2.21-1.3-2.41,0-.69,4.43-1.63,8.81-2.78,13.15l2.27-.3c-1.74-4.03-3.04-8.24-3.91-12.54-.29-1.45-2.2-.91-2.36.32-.33,2.61-.66,5.22-.99,7.82-.28,2.21-.24,5.11-1.76,6.9l1.96.52c-1-4.75-2.4-9.4-4.17-13.92-.35-.91-1.86-1.16-2.1,0-.92,4.42-1.47,8.89-1.99,13.37l2.09-.57c-2.32-3.07-3.86-6.6-4.32-10.43-.16-1.31-2.01-1.38-2.09,0-.31,5.33-.63,10.66-.94,15.99-.07,1.15,1.69,1.13,1.78,0h0Z"/>
  </g>
</svg>