<?xml version="1.0" encoding="UTF-8"?>
<svg id="Layer_2" data-name="Layer 2" xmlns="http://www.w3.org/2000/svg" viewBox="0 0 216.46 167.39">
  <defs>
    <style>
      .cls-1, .cls-2 {
        stroke-width: 0px;
      }

      .cls-2 {
        fill: #275026;
      }
    </style>
  </defs>
  <g id="Layer_1-2" data-name="Layer 1">
    <g>
      <path class="cls-1" d="M95.21,81.42c5.38,1.04,10.8,1.77,16.23,2.5,5.34.72,10.68,1.67,16.07,2.02,1.05.07,1.27-1.59.25-1.83-5.25-1.21-10.66-1.77-16.01-2.46-5.45-.7-10.88-1.31-16.37-1.53-.73-.03-.91,1.14-.17,1.29h0Z"/>
      <path class="cls-1" d="M111.84,81.75c-1.2,3.03-1.8,6.34-2.29,9.55-.49,3.25-.67,6.46-.43,9.74.08,1.04,1.51,1.03,1.61,0,.28-3.15.56-6.31.95-9.45s1.17-6.27,1.69-9.42c.17-1.01-1.15-1.37-1.53-.42h0Z"/>
      <path class="cls-1" d="M132.59,49.99c.19,17.1,3.47,34.21,1.76,51.31-.12,1.19,1.79,1.42,2.07.28.67-2.69-.34-6.58,1.87-8.64,2.76-2.58,3.43,2.46,4.22,4.1,1.04,2.13,3.15,3.87,5.57,3.99,2.36.12,4.47-1.23,5.17-3.49.3-.96-1.06-1.46-1.57-.66-1.77,2.75-5.46,1.85-6.91-.67-1.13-1.96-1.04-4.65-3.27-5.87-2.03-1.12-4.32.13-5.53,1.85-1.86,2.63-.86,5.9-1.59,8.83l2.07.28c2.16-17.22-1.49-34.2-2.83-51.31-.05-.65-1.04-.67-1.03,0h0Z"/>
      <path class="cls-1" d="M151.32,92.15c-.1,1.22.09,2.46.4,3.64.29,1.12.74,2.28,1.5,3.17s2.09,1.27,3.24.91,1.98-1.19,2.69-2.11c.27-.35.34-.82,0-1.16s-.82-.29-1.16,0-.67.53-1.04.78c-.18.12-.36.24-.55.34-.09.05-.19.1-.29.14.15-.06-.15.04-.14.04-.1.03-.19.05-.29.07.2-.03-.08-.01-.12,0-.21.01.07.04-.12-.01-.07-.02-.13-.04-.2-.06.08.04.09.04.03.01-.09-.04-.17-.09-.25-.15-.06-.04-.05-.04.02.02-.05-.04-.1-.09-.14-.13-.07-.07-.14-.14-.2-.21-.15-.15.05.09-.08-.1-1.06-1.54-1.4-3.55-1.74-5.39-.07-.38-.51-.62-.86-.56-.4.06-.65.37-.68.77h0Z"/>
      <path class="cls-1" d="M159.88,90.83c-.49,2.41-.54,4.94-.73,7.39-.18,2.28-.35,4.57-.5,6.85-.25,3.94-.49,7.88-.69,11.82s-.32,7.85-.42,11.78c-.12,4.84-.28,9.68.34,14.48.14,1.07,1.94,1.62,2.12.29.64-4.75.6-9.52.67-14.31.05-3.94.16-7.88.27-11.82s.25-7.85.4-11.78c.09-2.27.16-4.53.23-6.8.08-2.53.33-5.15.09-7.67-.09-.94-1.56-1.32-1.78-.24h0Z"/>
      <path class="cls-1" d="M164.26,86.38c.43,3.87,1.21,7.72,1.86,11.57.42,2.53.47,6.48,3.46,7.37.65.19,1.38-.23,1.55-.88,1.07-4.05,2.11-8.1,3.25-12.13l-1.84.75c1.46.76,1.57,2.54,1.75,3.99s.43,2.89,1.31,4.13c.48.67,1.34.84,1.97.25,1.37-1.27,2.06-2.98,2.62-4.72s.99-3.85,2.57-5.02l-1.79-.73c1.43,5,5.18,10.79,11.23,9.79,2.5-.41,4.47-2.12,5.88-4.14,1.4-2.01,2.77-4.81,2.08-7.31s-3.27-3.7-5.71-2.68-4.34,3.49-5.27,5.9-.89,5.35.39,7.72c1.36,2.53,4.05,3.93,6.76,4.57,6.96,1.66,13.67-1.34,19.45-4.98,1.52-.96.14-3.35-1.42-2.42-4.56,2.72-9.65,5.13-15.1,4.69-2.38-.19-5.33-.99-6.77-3.07s-1.1-4.8.12-6.87c.61-1.05,1.46-2.12,2.51-2.77,1.45-.9,2.81-.24,2.66,1.56-.19,2.13-1.87,4.65-3.48,5.96-1.97,1.6-4.5,1.53-6.58.18-2.34-1.52-3.56-4.21-4.39-6.78-.3-.94-1.32-1.11-2.04-.54-3.17,2.51-2.44,7.38-5.49,9.88l1.97.25c-1.81-2.88-.29-7.21-3.97-9.01-.7-.35-1.62-.08-1.84.75-1.04,4.05-2.17,8.08-3.28,12.12l1.55-.88c-1-.28-1.12-1.91-1.29-2.76-.31-1.59-.63-3.18-.95-4.76-.62-3.07-1.15-6.19-1.94-9.22-.26-.97-1.93-.81-1.81.25h0Z"/>
    </g>
    <g>
      <path class="cls-1" d="M113.1,119.38c-.3.73-.38,1.6-.53,2.38s-.27,1.61-.4,2.42c-.25,1.65-.59,3.31-.46,4.98.08,1.02,1.41,1.2,1.76.24.57-1.58.69-3.27.89-4.93.1-.81.21-1.62.27-2.44s.22-1.65.12-2.44c-.12-.96-1.28-1.12-1.65-.22h0Z"/>
      <path class="cls-1" d="M129.29,121.64c.75-.91.05-1.87-.88-2.27-1.04-.45-2.44-.28-3.54-.18-2.34.2-4.75.96-5.96,3.12-.34.6,0,1.2.58,1.44,2.54,1.04,5.12,2,7.68,2.99,1.11.43,2.27.79,3.33,1.32.62.3,1.62.8,1.75,1.57.12.72-.65,1.11-1.22,1.29-.93.31-1.94.28-2.91.21-2.46-.16-4.55-1.15-6.8-2.07-.94-.38-1.74,1.06-.99,1.7,1.76,1.49,4.13,2.19,6.39,2.49,1.93.25,4.19.34,5.94-.69s2.27-3.13,1-4.74-3.59-2.19-5.45-2.9c-2.73-1.03-5.46-2.09-8.21-3.07l.58,1.44c.69-1.38,2.05-1.97,3.49-2.29.78-.17,1.57-.26,2.37-.31.35-.02.73-.08,1.07-.04.16.02.32.06.47.12.1.03.2.08.28.13.11.11.12.1.04,0-.34.58.5,1.28.96.74h0Z"/>
      <path class="cls-1" d="M113.77,115.12l.35-.27.08-.06.04-.03c.08-.06.16-.11.23-.18.11-.1.18-.25.26-.37l.09-.21c.04-.12.04-.24.02-.36,0-.08-.02-.16-.06-.23-.04-.11-.1-.21-.19-.29l-.18-.14-.21-.09c-.12-.04-.24-.04-.36-.02-.12,0-.23.04-.33.11l-.1.05-.04.02c-.05.03-.08.06-.14.1s-.09.06-.13.11l-.04.04-.07.09-.29.34c-.09.08-.15.17-.18.28-.05.1-.08.22-.08.34l.03.23c.03.11.08.21.16.3.04.07.09.12.16.16.08.08.18.13.3.16l.23.03c.16,0,.31-.04.44-.12h0Z"/>
    </g>
    <g>
      <path class="cls-1" d="M102.15,159.39c0-.35-.01-.12.22-.23.13-.06.27-.1.42-.14.28-.08.55-.13.84-.14.75-.01,1.5.11,2.25.12,1.41,0,2.88-.2,4.22-.65s2.51-1.1,3.44-2.1,1.97-2.6.59-3.63c-1.08-.8-2.88-.77-4.15-.61-1.42.18-2.82.7-4,1.51s-2.28,1.92-2.84,3.26c-.7,1.67.02,3.09,1.68,3.71,3.65,1.35,7.98.97,11.36-.93.85-.48.1-1.68-.75-1.29-2.63,1.19-5.64,1.64-8.48,1.05-.61-.13-1.26-.27-1.83-.52-.72-.33-.69-.92-.39-1.57.48-1.06,1.4-1.96,2.36-2.59s2.12-1.08,3.29-1.23c.58-.07,1.19-.08,1.77,0,.52.07,1.5.14,1.14.85-1.04,2.09-3.68,2.99-5.83,3.27-1.28.16-2.55.03-3.82.11-.53.04-1.11.12-1.55.46-.41.32-.44.79-.43,1.28,0,.32.49.32.5,0h0Z"/>
      <path class="cls-1" d="M119.32,153.85c-.78,1.88-1.1,3.84-.99,5.87.03.49.62.98,1.09.63,2.78-2.07,5.48-4.25,8.21-6.37l-1.31-.54c-.28,2.92,2.14,5.34,4.9,5.86,3.57.67,6.09-1.65,8.76-3.57.37-.26.32-.79-.12-.95-2.19-.76-6.42.11-6.67,2.98-.13,1.42,1.19,2.36,2.46,2.53,1.43.2,2.83-.38,3.93-1.27,2.85-2.31,2.97-6.23,3.36-9.59.52-4.42,1.03-8.84,1.55-13.26l-1.83,1.05c.48.33.98.6,1.51.84,1.02.47,2.12-.73,1.25-1.62-.48-.49-.98-.92-1.54-1.32-.82-.59-1.75.23-1.83,1.05-.27,2.8-.55,5.61-.83,8.41s-.41,5.53-.86,8.24c-.35,2.11-1.24,4.81-3.63,5.34-.35.08-1.39.18-1.57-.29-.17-.44.64-1.07.94-1.3.99-.76,2.25-1.03,3.47-.81l-.23-.86c-1.73,1.72-4.54,2.97-7.01,2.83-2.25-.14-4.57-1.91-4.49-4.3.03-.73-.83-.92-1.31-.54-2.67,2.1-5.38,4.16-8.01,6.31l1.24.51c-.21-1.91,0-3.75.64-5.57.25-.71-.83-.97-1.1-.3h0Z"/>
      <path class="cls-1" d="M146.25,135.19c-1.25,4-1.51,8.21-1.53,12.38,0,2.09.1,4.18.31,6.26.16,1.63.24,3.45,1.15,4.87,1.67,2.59,5.04,2.52,7.68,1.74,2.46-.72,5.83-2.47,4.86-5.61-.43-1.39-1.92-2.11-3.3-1.78-1.81.44-2.67,2.15-3.03,3.83-.1.48.14,1.11.68,1.2,3.42.58,7.43.58,10.66-.86,1.04-.46.25-1.9-.73-1.72-1.57.29-3.06.74-4.67.86s-3.18.06-4.75-.16l.68,1.2c.14-.76.32-1.65.92-2.19s1.71-.6,1.79.43c.11,1.44-1.68,2.1-2.76,2.47-2.24.76-5.78,1.38-6.61-1.58-.45-1.6-.5-3.37-.62-5.02-.13-1.78-.21-3.56-.22-5.34-.02-3.63.34-7.24.44-10.86.02-.56-.8-.65-.96-.13h0Z"/>
      <path class="cls-1" d="M166.36,149.27c-.78.47-1.43,1.09-1.94,1.85-.2.31-.48.69-.56,1.06-.1.46.23.87.53,1.18,1.12,1.14,2.79,1.12,4.24,1.46.63.15,1.34.43,1.78.93.47.55.22,1.06-.21,1.55-.58.64-1.25,1.18-2,1.62-.82.47-1.67.67-2.56.97l.94,1.62c.79-.7,1.59-1.39,2.33-2.14.49-.5-.13-1.24-.73-.94-.95.48-1.86,1.03-2.77,1.56-.77.45-.5,1.92.49,1.8,1.67-.2,3.3-1.15,4.55-2.25,1.13-.99,2.4-2.45,1.74-4.05-.53-1.27-1.97-2.01-3.27-2.25-1.19-.22-2.93-.14-3.72-1.25l.07.57c.32-.9.93-1.65,1.73-2.18.69-.46.07-1.55-.65-1.12h0Z"/>
      <path class="cls-1" d="M177.86,147.9c-1.69.1-3.2.73-4.48,1.83-.25.22-.35.64-.25.95.7,2.24,3.2,2.73,5.27,2.78,3.09.07,6.18.03,9.27.08l-.46-1.69c-3.72,2.83-8.17,4.45-12.83,4.83-1.34.11-1.38,2.16,0,2.12,5.13-.13,10.05-2.19,13.93-5.53.62-.53.1-1.54-.64-1.55-2.67-.04-5.35-.13-8.02-.18-1.3-.03-4.04.2-4.63-1.38l-.25.95c.85-.82,1.92-1.36,3.1-1.5,1.07-.12,1.12-1.78,0-1.72h0Z"/>
    </g>
    <g>
      <g>
        <path class="cls-2" d="M65.72,128.24c-5.68-8.27-7.86-19.04-9.11-28.83s-1.61-19.05-3.44-28.44-5.47-19.31-10.38-28.01c-5.03-8.93-12.62-16.17-17-25.45-.6-1.27-2.74-.37-2.28.96,1.58,4.56,4.7,8.29,7.73,11.96,3.34,4.06,6.46,8.24,9.15,12.76,5.45,9.16,9.23,19.25,11.19,29.72,1.83,9.77,2.23,19.74,3.72,29.57.7,4.64,1.64,9.26,3.13,13.71,1.54,4.58,3.91,8.46,6.7,12.39.25.35.84.02.59-.34h0Z"/>
        <path class="cls-2" d="M57.65,112.29c-.83-.16-1.68-.26-2.52-.37s-1.73-.17-2.57-.07l.2,1.48c.97-.17,1.93-.28,2.92-.21s1.98.4,2.95.24c.32-.05.34-.46.18-.66-.72-.86-2.08-1.04-3.13-1.11s-2.26-.02-3.32.3c-.92.28-.52,1.75.4,1.45.78-.26,1.55-.52,2.36-.67.42-.08.83-.15,1.25-.13s.82.05,1.23.1c.18.02.23-.29.04-.33h0Z"/>
        <path class="cls-2" d="M58.27,113.14c2.54-4.04,5.08-8.08,7.62-12.12l-1.04.27c.73.38-.2,1.9-.43,2.36-.6,1.17-1.24,2.33-1.92,3.46s-1.36,2.17-2.09,3.22-1.79,2.11-2.11,3.37c-.14.55.45.98.94.72,1.32-.7,2.2-2.37,3-3.58.86-1.3,1.65-2.64,2.39-4.01.67-1.24,1.48-2.56,1.87-3.93.3-1.05.24-2.38-.87-2.92-.37-.18-.82-.1-1.04.27-2.44,4.1-4.88,8.2-7.32,12.3-.39.66.62,1.24,1.02.6h0Z"/>
        <path class="cls-2" d="M54.74,98.58c-.28.75-1.04.89-1.75.99-.77.11-1.58.05-2.36,0-1.99-.15-3.97-.51-5.8-1.35l-.4,1.47c1.31.03,2.62.05,3.92.08.62.01,1.24.03,1.86.02.66,0,1.4.08,2.03-.17.43-.17.7-.91.15-1.15-.63-.27-1.29-.25-1.97-.28s-1.31-.03-1.96-.04c-1.34-.02-2.68-.03-4.03-.05-.74,0-1.14,1.14-.4,1.47,2.29,1.03,4.76,1.5,7.27,1.49,1.54,0,3.76-.51,3.8-2.44,0-.22-.29-.23-.36-.05h0Z"/>
        <path class="cls-2" d="M50.4,97.72c-2.29-1.83-4.46-3.81-6.48-5.92l-.36.47c.44.24.77.68,1.15,1.01s.73.67,1.05,1.05c.65.75,1.19,1.58,1.72,2.41.32.51,1.22.19,1.01-.43-.35-1.07-1.01-2.04-1.82-2.82-.41-.39-.85-.74-1.31-1.06s-1.01-.43-1.5-.68c-.29-.15-.62.22-.36.47,2.12,2.05,4.37,3.96,6.75,5.7.12.09.27-.11.16-.2h0Z"/>
        <path class="cls-2" d="M59.41,102.32c1.46-6.5,4.27-12.57,8.18-17.96l-1.39-.81c-1.85,4.17-3.64,8.37-5.45,12.55-.32.74.6,1.69,1.23.95,1.89-2.21,3.76-4.83,4.21-7.77.52-3.41,1.24-6.63,3.83-9.12l-.67-.18c.74,2.68.63,5.34-.19,7.98l.93-.53c-2.13-.89-4.59-1.23-6.87-.74-.66.14-1.4.46-1.6,1.17-.18.65.18,1.17.76,1.4.44.17.77-.47.45-.77-.44-.41,1.73-.64,1.73-.64.52-.02,1.04-.01,1.56.04,1.17.11,2.31.44,3.39.92.43.19.98.06,1.11-.45.72-2.86.53-5.84-.49-8.6-.1-.28-.44-.4-.67-.18-2.17,2.04-3.49,4.49-3.74,7.48-.16,1.89-.34,3.53-1.36,5.18-.89,1.44-2.28,2.52-3.49,3.69l1.23.95c1.83-4.17,3.69-8.34,5.48-12.53.4-.94-.78-1.68-1.39-.81-3.89,5.53-6.53,11.85-7.87,18.47-.14.7.93,1.01,1.09.3h0Z"/>
        <path class="cls-2" d="M63.88,86.97c.8-2.23.44-4.37-.52-6.48-.17-.38-.77-.26-.86.11-.57,2.23-.91,4.55-1.31,6.81s-.85,4.48-1.02,6.76c-.04.59.87.69,1.01.14.6-2.24.9-4.53,1.26-6.82s.78-4.5.97-6.76l-.88.24c1.12,1.66,1.15,3.93.5,5.77-.19.53.65.75.84.23h0Z"/>
        <path class="cls-2" d="M51.94,79.95c-2.88.64-5.94.29-8.58-1.03-.7-.35-1.69.41-1.17,1.17,2.02,2.93,5.59,5.21,9.21,5.06.45-.02.53-.64.11-.78-1.53-.51-3.08-1.14-4.44-2.02s-2.52-1.99-3.54-3.3l-1.03,1.34c3.09,1.33,6.51,1.61,9.76.7.73-.21.43-1.3-.31-1.14h0Z"/>
        <path class="cls-2" d="M51.93,79.43c-3.69.25-7.16-.83-10.17-2.95l-.54.92c2.69,1.62,5.17,3.56,7.51,5.65.32.29.76-.15.47-.47-2.16-2.41-4.69-4.41-7.44-6.1-.6-.37-1.09.53-.54.92,3.04,2.18,7,3.18,10.71,2.88.54-.04.55-.89,0-.85h0Z"/>
        <path class="cls-2" d="M53.38,78c.14-4.4,1.29-8.74,3.42-12.6l-.87-.51c-1.06,2.17-2.11,4.34-3.17,6.51-.31.64-.6,1.34-.39,2.07.18.62.65.95,1.29.83.52-.1.39-.91-.12-.91-.27,0-.06-.94,0-1.11.29-.78.73-1.54,1.08-2.29.72-1.53,1.45-3.07,2.17-4.6.27-.58-.56-1.09-.87-.51-2.18,4.05-3.41,8.51-3.55,13.11-.02.64.98.64,1,0h0Z"/>
        <path class="cls-2" d="M53.04,60.57c-2.03-1.29-4.51-1.06-6.81-1.05-2.77.02-5.55-.03-8.31.11l.25,1.85c1.3-.28,2.61-.46,3.95-.51,1.24-.05,2.51.14,3.74-.06.52-.08.53-.82.14-1.06-.84-.51-1.48-1.36-2.26-1.97-.72-.56-1.5-1.06-2.31-1.47-1.65-.83-3.5-1.38-5.35-1.45-.76-.03-.94.98-.37,1.35,1.05.69,2.08,1.42,3.22,1.95.55.26,1.21-.43.69-.9-.98-.88-2.09-1.57-3.18-2.31l-.37,1.35c1.74.09,3.41.37,5.02,1.08,1.41.62,3.48,1.66,4.11,3.14l.79-.79c-1.23-.56-2.7-.58-4.04-.58-1.44,0-2.87.14-4.29.38-1.06.18-.79,1.86.25,1.85,2.55-.01,5.11-.19,7.66-.31,2.14-.1,4.86-.63,6.83.43.7.38,1.3-.64.62-1.07h0Z"/>
        <path class="cls-2" d="M37.96,55.8l-1.36-1.15c-.11-.09-.27.06-.16.16l1.36,1.15c.11.09.27-.06.16-.16h0Z"/>
        <path class="cls-2" d="M34.34,52.54c4.29,1.86,7.96,4.76,10.9,8.39.33.41,1.05-.14.74-.57-2.82-3.86-6.94-6.72-11.52-8.09-.16-.05-.27.2-.11.27h0Z"/>
        <path class="cls-2" d="M47.84,50.52c1.01-3.56,1.94-7.15,2.99-10.7.14-.48-.62-.83-.84-.35-1.6,3.59-3.39,8.28-.68,11.78.22.28.7.22.93,0,.6-.58,1.18-1.19,1.81-1.73l-.98-.4c.1,1.12.47,2.01,1.18,2.87.29.35.96.16,1.05-.28.79-4.01,1.36-8.08,1.75-12.15.35-3.66-.19-8.23,2.14-11.33l-.8-.22c-.03,2.08-.63,4.03-1.27,5.99-.68,2.07-1.37,4.14-2.06,6.21-1.35,4.06-2.67,8.13-3.99,12.19-.24.72.91,1.04,1.14.31,1.34-4.23,2.67-8.46,3.98-12.7.64-2.07,1.28-4.14,1.92-6.21.59-1.9,1.11-3.8,1.13-5.8,0-.46-.56-.53-.8-.22-2.17,2.91-1.84,6.93-2.15,10.37-.4,4.46-1.16,8.86-2.21,13.22l1.05-.28c-.52-.58-.83-1.2-.93-1.99-.06-.48-.58-.77-.98-.4-.61.57-1.28,1.08-1.93,1.61l1.03.13c-2.14-3.34-.85-7.23.48-10.63l-.88-.24c-1.04,3.55-2.2,7.08-3.28,10.62-.23.75.96,1.08,1.17.32h0Z"/>
        <path class="cls-2" d="M50.1,55.7c1.51,0,1.51-2.34,0-2.34s-1.51,2.34,0,2.34h0Z"/>
        <path class="cls-2" d="M41.38,40.47c-3.95.36-7.9.68-11.85,1.06-.96.09-1.21,1.4-.23,1.72,1.45.47,3.45.5,4.47-.8.31-.4.03-.98-.5-.87-1.65.35-3.55.14-5.23.06s-3.34-.13-5.01-.27l.23,1.68c1.94-.45,3.77-.92,5.78-.95,1.95-.03,3.94.2,5.85.58.96.19,1.32-1.13.4-1.46-3.93-1.4-8.82-1.38-12.7.26-.77.33-.39,1.69.43,1.6,1.66-.18,3.34-.29,5.01-.41,1.67-.13,3.57-.4,5.23-.09l.14-1.02c-1.27.1-2.38.44-3.64,0v1.69c3.92-.55,7.84-1.17,11.76-1.73.59-.09.46-1.11-.14-1.05h0Z"/>
        <path class="cls-2" d="M37.22,35.46c.41-2.23.7-4.49.82-6.75.13-2.34-.11-4.61-.36-6.93-.03-.24-.36-.32-.44-.06-1,3.13-1.8,6.53-1.74,9.83,0,.47.77.62.86.12.09-.53.21-1.06.25-1.59.03-.39-.51-.4-.63-.09-.19.47-.31.96-.46,1.45l.86.12c.17-1.65.23-3.31.46-4.95s.48-3.19.84-4.76l-.44-.06c.1,2.21-.04,4.46-.17,6.67-.13,2.27-.37,4.52-.78,6.75-.11.61.83.88.94.26h0Z"/>
        <path class="cls-2" d="M37.62,20.34c-1.05,3.32-1.53,6.85-1.13,10.32.08.67,1.12.7,1.07,0-.23-3.4-.03-6.8.86-10.1.14-.52-.64-.73-.8-.22h0Z"/>
        <path class="cls-2" d="M29.55,28.26c-.92.05-1.82.08-2.74.08h-1.27c-.49,0-.99-.11-1.48-.1-.69.02-.91,1.12-.17,1.25,1.55.27,3.04.78,4.35,1.67.58.39,1.26.88,1.54,1.54s-.32.89-.87.96c-1.62.2-3.38-.05-4.95-.45-.81-.21-1.61-.47-2.38-.79-.29-.12-.6-.24-.85-.44-.09-.08-.24-.2-.28-.32.01.05-.08.03.07.02.88-.09,1.75-.08,2.62.1.93.19,1.78.63,2.7.83.6.13,1.09-.6.62-1.06-.8-.79-2-1.14-3.08-1.35s-2.33-.39-3.36-.03-1.46,1.45-.86,2.37,1.7,1.24,2.66,1.56c2.17.73,4.59,1.11,6.88.97.88-.05,1.84-.29,2.32-1.1.54-.92.09-1.99-.53-2.73-.73-.87-1.82-1.54-2.84-2.03-1.14-.54-2.32-.87-3.57-.97v1.28c.44-.06.84-.22,1.28-.29s.89-.15,1.34-.22c.95-.16,1.9-.27,2.86-.38.23-.02.24-.38,0-.37h0Z"/>
        <path class="cls-2" d="M30.6,22.06c-.13-1.8-.19-3.6-.19-5.4s-.06-3.72.25-5.51l-.78-.11c-.1,1.79-.05,3.59-.07,5.39s-.14,3.6-.04,5.39c.03.58.89.75,1.05.14.46-1.76.78-3.55.87-5.37.02-.42-.6-.4-.65,0-.21,1.74-.62,3.45-1.26,5.09l1.05.14c.1-1.78-.04-3.6-.07-5.39s0-3.6-.1-5.39c-.03-.5-.81-.51-.79,0,.06,1.83-.13,3.67-.12,5.51s.08,3.67.21,5.51c.03.4.66.4.63,0h0Z"/>
        <path class="cls-2" d="M31.22,13c-1.01,1.87-2.01,3.75-3.02,5.62-.08.15.14.28.22.13,1.02-1.87,2.04-3.73,3.05-5.6.09-.17-.16-.32-.25-.15h0Z"/>
        <path class="cls-2" d="M24.33,19.75c-.92-2.09-2.73-3.59-4.85-4.38-.86-.32-1.26,1.09-.38,1.39,2.29.78,4.43,1.9,6.39,3.31l.77-1.31c-2.95-1.47-5.84-3.04-8.63-4.78l.16,1.24c.51-.44,1.36-.44,1.88-.02.65.52,1.45-.27.91-.91-.97-1.18-2.82-1.16-3.91-.18-.38.35-.26.99.16,1.24,2.82,1.7,5.7,3.3,8.66,4.74.89.43,1.57-.75.77-1.31-2.08-1.46-4.37-2.59-6.78-3.38l-.38,1.39c1.86.51,3.32,1.92,4.09,3.67.15.33.62.4.91.24.34-.19.38-.58.24-.91h0Z"/>
        <path class="cls-2" d="M23.98,20.08c-.36-3.23-.53-6.47-.49-9.72.02-1.59.09-3.18.22-4.77.14-1.72.19-3.6.77-5.23l-.56-.08c-.07,3.18.09,6.34.21,9.52s.2,6.36.42,9.53c.07,1.02,1.61,1.04,1.61,0-.03-3.25-.26-6.48-.53-9.73-.26-3.16-.56-6.29-1.15-9.4-.06-.32-.58-.24-.56.08.08,1.63-.28,3.3-.42,4.93s-.23,3.3-.26,4.96c-.08,3.31.07,6.62.41,9.91.02.21.36.21.33,0h0Z"/>
        <path class="cls-2" d="M53.51,79.46c1.08-2.06,2.41-3.98,3.99-5.69s3.34-3.32,5.45-4.26l-.79-.79c-.77,1.14-1.4,2.39-2.15,3.55s-1.54,2.3-2.37,3.4c-1.67,2.22-3.58,4.27-5.6,6.18l1.25,1.25c2.4-2.53,4.44-5.49,6.46-8.32l-1.37-.8c-1.8,3.34-4.49,6.04-7.48,8.34-.75.57-.08,1.84.76,1.31,3.44-2.17,6.05-5.36,8.08-8.84.53-.91-.77-1.59-1.37-.8-2.06,2.68-4.17,5.28-6.34,7.87-.72.86.46,2.1,1.25,1.25,1.97-2.08,3.78-4.32,5.46-6.64.84-1.15,1.63-2.33,2.37-3.54s1.54-2.45,2.07-3.76c.24-.59-.58-.88-.96-.56-1.83,1.54-3.74,2.94-5.35,4.72s-2.92,3.69-4,5.78c-.21.4.4.75.61.35h0Z"/>
        <path class="cls-2" d="M53.21,80.11c.59-1.98-.4-3.97-1.74-5.39-.69-.73-1.48-1.36-2.24-2.02-.32-.28-.77-.61-.99-.92-.06-.09-.12-.23-.13-.3,0,.05,0-.15,0-.16.09.16-.23.4-.4.4l-.71-.41c.61,1.23,1.25,2.45,1.76,3.73s.95,2.62,1.46,3.92c.33.82,1.45.51,1.32-.36-.23-1.44-.7-2.8-1.24-4.15s-1.13-2.71-1.87-3.97c-.14-.24-.43-.43-.71-.41-1.13.09-1.41,1.18-1.01,2.1s1.5,1.59,2.28,2.21c1.6,1.28,3.66,3.12,3.05,5.42-.2.76.95,1.07,1.17.32h0Z"/>
        <path class="cls-2" d="M51.1,77.79c.33,0,.33-.52,0-.52s-.33.52,0,.52h0Z"/>
        <path class="cls-2" d="M49.77,60.83c1.99-5.73,4.78-11.13,8.47-15.96l-1.25.16c.72.76-.83,2.48-1.25,3.07-.84,1.18-1.67,2.36-2.51,3.54-1.7,2.41-3.43,4.8-5.11,7.22-.7,1.01.97,1.99,1.65.97,2.27-3.36,4.36-6.74,5.05-10.81.08-.45-.49-.72-.75-.32-1.24,1.9-3,3.55-4.66,5.08s-3.47,2.98-5.36,4.27c-.69.47,0,1.61.65,1.12,1.87-1.41,3.64-2.94,5.29-4.6s3.1-3.61,4.72-5.37l-.69-.4c-1.27,3.67-3.7,6.92-5.91,10.06l1.65.97c1.96-2.87,3.88-5.77,5.82-8.66.88-1.31,1.94-2.61,2.65-4.02.55-1.08.75-2.3-.14-3.24-.27-.28-.87-.33-1.12,0-3.82,4.93-6.63,10.61-7.97,16.72-.11.49.58.68.75.21h0Z"/>
        <path class="cls-2" d="M33.44,36.37l-2.16.17c-.35.03-.7.04-1.05.04-.17,0-.35,0-.52,0-.2,0-.39-.06-.58-.04-.37.03-.71.24-.81.62-.1.35.06.77.39.95,1.95,1.07,3.91,2.15,5.86,3.22l.45-1.66c-.32-.04-.81-.12-1.23-.23s-.86-.24-1.28-.4c-.31-.12-.73-.34-1.09-.53-.41-.22-.83-.4-1.24-.62-.68-.36-1.33.48-.82,1.06,1.41,1.56,3.61,2.3,5.66,2.5.89.09,1.2-1.26.45-1.66-1.97-1.05-3.94-2.09-5.91-3.14l-.42,1.57c.24-.02.43-.11.65-.16.15-.04.31-.05.47-.08.35-.06.69-.13,1.03-.16l2.16-.24c.32-.04.6-.25.6-.6,0-.31-.28-.62-.6-.6h0Z"/>
        <path class="cls-2" d="M27.53,28.54c-.05-.11-.07-.12-.06-.04-.02.02-.04.03-.07.02-.2-.02-.38-.02-.58-.07-.42-.1-.84-.23-1.25-.37-.78-.26-1.53-.57-2.26-.94-1.49-.74-2.94-1.67-4.15-2.83l-.56,1.36c1.59.21,3.18.41,4.75.77s3.13.84,4.66,1.35l.22-1.62c-2.35-.03-4.69-.1-7.04-.18-.68-.02-1.02,1.03-.36,1.33,1.58.72,3.16,1.44,4.77,2.08.64.25,1.07-.79.47-1.11-1.48-.79-3-1.49-4.52-2.2l-.36,1.33c2.35.11,4.69.23,7.04.4.4.03.76-.33.81-.71.05-.44-.2-.74-.59-.9-1.56-.64-3.17-1.11-4.82-1.46s-3.34-.63-5.03-.67c-.35,0-.68.25-.77.59-.1.37.08.68.37.9,1.94,1.49,4.02,2.69,6.36,3.46.57.19,1.15.35,1.73.48.52.12,1.1.24,1.61,0,.77-.37.94-1.79-.08-1.96-.64-.1-.94.86-.27,1h0Z"/>
        <path class="cls-2" d="M21.61,17.71c-1.31-.85-2.58-1.77-3.89-2.61s-2.64-1.67-3.92-2.56l-.63,1.08c1.37.76,2.74,1.47,4.01,2.39.6.43,1.18.9,1.74,1.39.6.53,1.17,1.16,1.91,1.49.5.22.93-.22.72-.72-.32-.75-.98-1.29-1.6-1.8-.64-.54-1.31-1.05-2-1.53-1.33-.92-2.77-1.8-4.29-2.37-.66-.25-1.12.83-.48,1.15,1.4.7,2.76,1.47,4.13,2.22s2.78,1.42,4.15,2.17c.19.1.35-.17.17-.29h0Z"/>
        <path class="cls-2" d="M21.79,18.07c.04-1.91-.15-3.83-.57-5.69-.21-.94-.48-1.86-.81-2.77s-.79-1.82-1.13-2.75l-.42.24c2.28,2.61,4.03,5.6,4.92,8.97.18.69,1.17.39,1.05-.29-.64-3.6-2.63-6.99-5.67-9.08-.21-.14-.48.14-.34.34,1.03,1.54,1.55,3.56,1.93,5.35s.54,3.76.47,5.67c-.01.37.56.37.57,0h0Z"/>
        <path class="cls-2" d="M52.61,97.99c-.63.67-1.48.25-2.14-.14-.92-.53-1.71-1.28-2.52-1.96-2.03-1.69-4.08-3.35-6.14-5-.38-.31-.91-.37-1.28,0-.33.32-.37.97,0,1.28,2.61,2.23,5.84,3.53,9.28,3.7.69.03,1.1-.78.77-1.35-1-1.72-2.22-3.3-3.64-4.7-.8-.79-1.99.42-1.23,1.23.99,1.05,2.22,1.81,3.33,2.72.93.77,1.73,1.63,1.96,2.86.16.86,0,1.94-.91,2.31-1.29.54-2.83-.43-3.85-1.13l-.42,1.01c.92.27,1.74.74,2.46,1.37.41.36.98-.2.6-.6-.79-.82-1.72-1.4-2.77-1.83-.51-.21-.93.57-.54.92,1.24,1.09,2.9,2.23,4.65,1.91,1.58-.29,2.57-1.7,2.61-3.25s-.66-2.97-1.71-4.03c-1.28-1.3-2.95-2.13-4.19-3.48l-1.23,1.23c1.3,1.31,2.4,2.78,3.32,4.37l.77-1.35c-2.93-.15-5.77-1.28-7.99-3.19l-1.28,1.28c2.45,1.98,4.9,3.95,7.39,5.89,1.28,1,4.17,2.43,5.18.3.14-.3-.23-.64-.48-.37h0Z"/>
        <path class="cls-2" d="M57.39,108.35c.8.13,1.25.5,1.55,1.24l.44-.77c-3.84,1.33-7.69,2.58-11.67,3.42-1.06.23-.73,1.72.24,1.8,2.99.23,6.03.44,9.03.46v-1.82c-3.47.3-7.04.17-10.5-.23-.85-.1-1.06,1.37-.2,1.51,2.46.39,5.08.73,7.57.43.89-.1.93-1.37,0-1.42-2.4-.14-4.77-.13-7.16-.49l-.2,1.51c3.5.39,6.98.51,10.5.52,1.19,0,1.15-1.71,0-1.82-2.99-.29-6.03-.39-9.03-.47l.24,1.8c3.97-1.06,7.93-2.32,11.67-4.05.29-.14.4-.59.22-.85-.55-.82-1.63-1.34-2.61-1.37-.35-.01-.44.56-.08.62h0Z"/>
        <path class="cls-2" d="M.13,24.75c.18,0,.18-.28,0-.28s-.18.28,0,.28H.13Z"/>
      </g>
      <g>
        <path class="cls-2" d="M54.8,118.77c5.22-7.7,10.27-15.53,12.74-24.6s3.02-18.25,4.82-27.31c3.51-17.62,9.71-34.86,20.41-49.44.39-.53-.49-1.21-.91-.7-11.25,13.51-17.35,30.13-20.95,47.16-1.94,9.17-2.63,18.57-4.65,27.71-2.15,9.74-7.21,18.25-12.33,26.68-.34.55.5,1.03.86.5h0Z"/>
        <g>
          <path class="cls-2" d="M59.53,109.27c-.21-.87-.37-1.81-.69-2.64s-.71-1.67-1.17-2.46c-.92-1.59-2.06-3.04-3.38-4.31-.83-.8-2.14.21-1.58,1.22.82,1.49,1.48,3.01,2.13,4.58.41.98,2.02.61,1.65-.45s-.63-2.05-1.06-3.04c-.41-.94-.94-1.82-1.53-2.66-1.26-1.79-2.8-3.3-4.39-4.79l-1.03,1.34c1.73,1.16,3.35,2.45,4.84,3.9.74.72,1.45,1.48,2.11,2.27.62.73,1.18,1.69,2.02,2.19.45.27.92-.17.83-.64-.2-1.01-1.07-1.91-1.71-2.69-.68-.83-1.41-1.62-2.17-2.38-1.54-1.54-3.24-2.92-5.06-4.12-.81-.53-1.74.68-1.03,1.34,1.46,1.35,2.91,2.73,4.18,4.26,1.17,1.41,2.46,3.35,2.33,5.26l1.68-.23c-.34-1.78-1.12-3.58-2.03-5.14l-1.58,1.22c1.23,1.13,2.35,2.39,3.26,3.79s1.84,2.91,2.38,4.48c.22.64,1.18.38,1.01-.28h0Z"/>
          <path class="cls-2" d="M63.36,98.49c3.91-.28,7.82-.79,11.71-1.27l-.17-1.26c-4.18,1.06-8.07,3.02-11.44,5.7-.46.37-.13,1.03.32,1.19,2.41.92,5.34,0,7.01-1.91.21-.24.01-.64-.32-.55-.98.25-2.02.33-3.01.48l.3.72c1.78-1.31,3.76-2.44,5.76-3.37.35-.16.1-.75-.26-.62-2.22.77-4.16,1.88-5.98,3.37-.33.27.03.73.38.66.95-.2,1.92-.49,2.89-.6l-.23-.56c-1.72,1.54-4.04,1.77-6.16,1l.32,1.19c3.15-2.58,6.83-4.44,10.77-5.47.68-.18.56-1.36-.17-1.26-3.95.52-7.91,1.01-11.82,1.74-.46.08-.36.85.11.82h0Z"/>
          <path class="cls-2" d="M64.61,96.06c-.87-.72-1.59-1.58-2.12-2.57s-.84-2.04-1.05-3.14l-1.03,1.03c.3.05.6.13.88.24,0,0,.24.1.11.04.08.03.15.07.23.11.12.06.25.13.36.2.14.09.28.18.42.27l.07.05s-.05-.04,0,0c.05.04.11.09.16.13.24.21.47.44.67.68.03.03.12.15.05.06.08.1.16.2.23.3-.07-.09.02.03.05.07.05.07.1.14.14.21.17.25.31.52.43.8.02.06,0,0,.03.09.03.08.06.16.09.23.05.14.1.29.14.43.08.3.2.59.27.9.12.47.84.47.96,0,.18-.75.15-1.47-.09-2.2s-.59-1.41-1.07-2.01c-.91-1.12-2.25-1.96-3.68-2.21-.66-.12-1.16.37-1.03,1.03.46,2.47,2.1,4.7,4.1,6.16.52.38,1.19-.48.69-.9h0Z"/>
          <path class="cls-2" d="M70.38,82.14c-1.27-1.21-2.41-2.63-3.39-4.08s-1.78-2.82-2.12-4.5l-1.66.7c.52.87,1.07,1.73,1.61,2.59.26.42.52.84.79,1.25.13.19.28.38.42.56.18.24.4.43.58.67l.6-1.04c.05,0,.4.39.4.42,0-.01.04-.09.02-.06,0,.02-.11.06-.11.07,0,.06.01-.01.03.07.02.1.16.23.2.32.07.15.11.3.17.45.22.57.57,1.19,1.22,1.28.47.07.68-.57.2-.73s-.48-1.06-.62-1.47c-.19-.53-.57-1.05-1.18-1.11-1.17-.13-1.82,1.84-.52,2.12.6.13,1.07-.47.78-1.02-.23-.44-.38-.91-.62-1.35s-.54-.9-.81-1.34c-.53-.87-1.05-1.74-1.6-2.59s-1.9-.32-1.66.7c.43,1.79,1.36,3.46,2.49,4.9.57.72,1.19,1.41,1.83,2.06s1.43,1.29,2.17,1.91c.53.44,1.29-.28.77-.77h0Z"/>
          <path class="cls-2" d="M71.47,82.3c2.81-4.13,6.99-7.87,11.79-9.48l-.21-.5c-2.49,1.08-4.86,2.4-7.17,3.8-1.14.69-2.26,1.41-3.36,2.16s-2.28,1.45-3.15,2.46c-.31.36.07.86.5.65,1.19-.57,2.21-1.48,3.29-2.25s2.19-1.53,3.31-2.25c2.24-1.45,4.55-2.76,6.86-4.1.31-.18.04-.62-.28-.48-2.44,1.15-4.76,2.36-6.92,4.01s-3.88,3.44-5.43,5.53c-.34.45.44.92.76.45h0Z"/>
          <path class="cls-2" d="M71.95,67.3c-.86-2.14-1.56-4.34-2.36-6.51s-1.69-4.3-2.46-6.48c-.25-.72-1.36-.63-1.37.18-.01,1.67.38,3.4,1.19,4.86.32.59,1.25.32,1.25-.34,0-.87.18-1.7.09-2.58s-.24-1.65-.52-2.44l-.91.39c.68,1.34,1.37,2.68,2.09,4s1.36,2.7,2.26,3.9c.23.31.82.15.67-.28-.49-1.41-1.26-2.72-1.95-4.04-.72-1.37-1.46-2.73-2.21-4.08-.27-.48-1.12-.15-.91.39.26.7.46,1.43.49,2.17.02.71.01,1.61-.34,2.24h1.16c-.57-1.36-.9-2.7-.96-4.18l-1.3.35c.96,2.05,1.81,4.15,2.74,6.22s2.02,4.2,2.91,6.35c.11.27.56.15.44-.12h0Z"/>
          <path class="cls-2" d="M78.08,54.62c-1.24,1.12-2.54,2.18-3.89,3.16s-2.69,1.94-4.1,2.77l.36.47c.76-.79,1.53-1.57,2.2-2.43.17-.22-.09-.5-.31-.31-.83.72-1.56,1.52-2.31,2.33-.23.24.06.65.36.47,1.46-.89,2.89-1.77,4.25-2.81s2.61-2.1,3.84-3.25c.26-.24-.13-.63-.39-.39h0Z"/>
          <path class="cls-2" d="M68.46,58.49c.57-.07.72-.17.46-.29-.03-.03-.07-.07-.1-.1-.07-.08-.14-.17-.18-.27-.18-.43-.2-1.01-.29-1.47-.2-1.04-.41-2.07-.61-3.11-.19-.97-.46-1.96-.57-2.94-.03-.28,0-.59.1-.85.03-.07.09-.15.12-.2-.05.09-.27,0-.05.08l-.5-.5c.79,2.68.56,5.69-.52,8.26-.21.51.61.83.88.37.9-1.53,1.44-3.19,1.54-4.97.05-.88-.03-1.77-.18-2.64-.13-.78-.22-1.94-1.22-1.99-1.54-.07-1.73,1.97-1.53,3.06.37,2.01.76,4.03,1.13,6.04.17.92.25,1.8,1.06,2.4.67.49,1.58.39,1.83-.48s-1.06-1.22-1.37-.38h0Z"/>
          <path class="cls-2" d="M83.35,49.12c-.37-2.27-.74-4.55-1.11-6.82-.18-1.09-.35-2.19-.53-3.28-.06-.34-.48-2.12.2-2.2l-.48-.27c.86,1.85.29,3.68-.63,5.38-.2.37.25.66.55.42,1.87-1.45,1.94-4.36,1.03-6.36-.07-.16-.3-.29-.48-.27-2.34.25-1.26,3.72-1.01,5.11.51,2.85,1.03,5.7,1.54,8.55.11.6,1,.34.91-.25h0Z"/>
          <path class="cls-2" d="M79.61,38.8c.11-1.17-.31-2.57-1.57-2.91s-2.61.35-3.3,1.34l1.13.48c.28-1.65.34-3.33.62-4.98s.63-3.3,1.07-4.93l-1.56.2c3.63,4.73,4.57,10.72,2.94,16.42-.16.55.7.94.94.4,2.6-5.81,1.39-12.94-2.55-17.85-.41-.51-1.28-.2-1.43.38-.42,1.65-.75,3.32-.97,5.01s-.45,3.49-.28,5.19c.07.71.94.81,1.21.16.76-1.84,3.55-.62,3.43,1.09-.01.2.29.2.31,0h0Z"/>
          <path class="cls-2" d="M78.69,42.89c2.46-1.92,5.07-3.63,7.66-5.36.33-.22.04-.7-.31-.53-2.83,1.4-5.46,3.18-7.97,5.09-.58.44.03,1.25.61.8h0Z"/>
          <path class="cls-2" d="M87.92,36.04c-1.6.71-3.2,1.43-4.8,2.14l-2.4,1.07c-.79.35-1.63.66-2.39,1.1-.48.28-.06.98.43.74.41-.21.83-.42,1.24-.63.3-.15.09-.63-.23-.54-.45.13-.89.26-1.34.39l.23.82c.8-.28,1.55-.71,2.31-1.08l2.45-1.18c1.6-.77,3.2-1.55,4.81-2.32.35-.17.04-.66-.3-.51h0Z"/>
          <path class="cls-2" d="M81.48,31.48c.95-1.61,1.87-3.25,2.91-4.81l-1.27-.34c-.05.52-.11,1.04-.16,1.55h1.37c-.24-1.98.42-4.02,1.58-5.62l-.76-.21c.18,2.07.04,4.14.35,6.2.06.4.65.27.67-.09.12-2.05-.2-4.07-.2-6.11,0-.33-.46-.56-.69-.29-1.5,1.75-2.18,3.83-2.3,6.11-.05.89,1.28.86,1.37,0,.05-.52.11-1.04.16-1.55.07-.67-.99-.94-1.27-.34-.81,1.69-1.76,3.31-2.67,4.94-.34.61.58,1.15.94.55h0Z"/>
          <path class="cls-2" d="M87.88,25.94c3.7-1.94,7.85-2.8,12.01-2.52.69.05.68-1.02,0-1.07-1.83-.14-3.67-.15-5.51-.02s-3.63.29-5.36.74c-.53.14-.42.96.13.95.44,0,.88-.08,1.32-.11.32-.02.44-.53.08-.6-.47-.09-.93-.21-1.4-.27l.13.95c1.78-.26,3.53-.58,5.33-.67s3.52-.06,5.28.09v-1.07c-4.34-.28-8.69.68-12.53,2.72-.58.31-.07,1.18.51.88h0Z"/>
          <path class="cls-2" d="M92.67,19.02c1.6-.33,2.6-1.69,3.22-3.12.75-1.73.98-4.04,2.64-5.2l-.63-.26c.42,1.83-1.08,3.41-2.21,4.65-1.19,1.31-2.44,2.58-3.76,3.76-2.63,2.35-5.51,4.41-8.6,6.12-.86.48-.09,1.79.77,1.32,3.48-1.9,6.72-4.22,9.58-6.98,1.41-1.36,2.74-2.81,3.92-4.38,1.04-1.38,1.92-3.14,1.09-4.83-.12-.24-.5-.28-.67-.09-1.16,1.28-1.62,2.85-2.15,4.46s-1.45,3.6-3.34,3.97c-.37.07-.22.65.16.57h0Z"/>
        </g>
      </g>
      <path class="cls-2" d="M28.37,76.51c9.3-.47,18.56-.63,27.85.13s18.61,2.31,27.71,4.56l.33-2.46c-17.88-.04-35.71-1.25-53.54-2.47l.72,2.64c1.66-.96,3.42-1.22,5.3-1.43,1.22-.14,1.62-1.86.3-2.25-2.42-.71-4.91-.02-7.04,1.23-1.26.74-.65,2.56.72,2.64,17.83,1.06,35.68,2.12,53.54,2.14,1.39,0,1.73-2.12.33-2.46-18.18-4.47-37.57-6.36-56.23-4.23-1.22.14-1.28,2.02,0,1.96h0Z"/>
      <path class="cls-2" d="M85.15,79.45c-.14,1.62.16,3.31.09,4.95s-.3,3.22-.64,4.8c-.68,3.22-1.89,6.27-3.55,9.11-1.61,2.77-3.65,5.27-6.05,7.4-2.48,2.2-5.42,3.85-8.31,5.45-1.07.6-.33,2.21.82,1.94,6.89-1.63,12.6-7.6,15.93-13.62,1.72-3.11,2.94-6.53,3.54-10.04.53-3.15.92-7.36-.38-10.38-.34-.79-1.4-.28-1.46.4h0Z"/>
      <path class="cls-2" d="M45.78,109.08c.64,1.11,1.62,1.99,2.47,2.94s1.65,1.83,2.35,2.85c1.08,1.57,2.07,3.45,2,5.41-.05,1.47-.81,2.79-1.85,3.79-.67.64-1.44,1.14-2.26,1.56-1.03.53-2.44.71-3.26,1.53-.53.53-.34,1.62.47,1.77,1.34.26,2.84-.61,3.99-1.26.97-.54,1.89-1.22,2.67-2.01,1.36-1.38,2.26-3.15,2.37-5.1.13-2.28-.92-4.48-2.23-6.28-.8-1.11-1.71-2.14-2.7-3.09-1.06-1.02-2.25-2.09-3.65-2.61-.28-.1-.51.25-.38.49h0Z"/>
      <path class="cls-2" d="M68.81,109.65c-3.92-1.82-6.69,3.23-7.35,6.35-.42,2-.24,4.11.38,6.05.35,1.09.84,2.14,1.41,3.12s1.28,2.37,2.32,2.82c.77.34,1.61-.22,1.42-1.09-.2-.94-1.02-1.7-1.53-2.5s-.92-1.58-1.25-2.43c-.6-1.54-.91-3.16-.78-4.81s.63-3.11,1.44-4.49c.36-.61.69-1.26,1.28-1.69.75-.55,1.63-.7,2.52-.8.24-.03.42-.39.14-.52h0Z"/>
      <path class="cls-2" d="M64.57,128.59c5.24,1.77,9.83,5.36,12.78,10.05,1.56,2.48,2.62,5.24,3.19,8.11.3,1.49.43,3,.43,4.52s-.34,3.02.12,4.49c.29.9,1.37.96,1.89.25.98-1.35.94-3.13.93-4.73-.01-1.69-.21-3.4-.54-5.06-.65-3.24-1.96-6.38-3.82-9.11-3.44-5.04-8.64-8.62-14.53-10.17-1.08-.28-1.5,1.3-.46,1.65h0Z"/>
      <path class="cls-2" d="M81.6,155.73c-9.77.15-19.5.86-29.28.7-4.84-.08-9.68-.27-14.51-.57-2.42-.15-4.83-.34-7.24-.55s-5.01-.66-7.51-.73l1.6,2.1c.15-.84.42-1.83,1.04-2.45.56-.57,0-1.69-.82-1.4-1.48.52-2.51,1.13-3.25,2.58-.45.89-.12,2.21.99,2.44,4.83.96,10,1.04,14.9,1.3,4.93.27,9.86.39,14.8.34,9.8-.08,19.83-.41,29.47-2.3.82-.16.63-1.46-.2-1.45h0Z"/>
      <path class="cls-2" d="M46.25,126.81c-5.88.53-11.63,4.49-15.38,8.86-1.98,2.3-3.58,4.88-4.74,7.68-1.31,3.16-2.47,7.14-1.92,10.57.14.87,1.55,1.04,1.92.25.77-1.62.87-3.33,1.19-5.08.27-1.47.64-2.92,1.14-4.32.96-2.64,2.4-5.15,4.18-7.32s3.82-4.03,6.12-5.55c2.41-1.6,5.01-2.56,7.69-3.6.73-.28.72-1.57-.2-1.49h0Z"/>
      <path class="cls-2" d="M31.51,77.47c-2.91-.66-3.06,6.95-3.09,8.53-.09,4.36.83,8.64,2.6,12.62,1.63,3.67,4.07,7,7.02,9.71,1.43,1.32,3,2.51,4.65,3.53s3.59,2.18,5.5,2.56c1.31.26,2.22-1.52.95-2.24-1.46-.83-3.08-1.35-4.55-2.19s-2.94-1.84-4.26-2.96c-2.71-2.3-4.97-5.07-6.64-8.21-1.8-3.4-2.87-7.21-3.2-11.04-.16-1.85-.15-3.71.05-5.56.1-.87.21-1.8.48-2.64.21-.65.72-1.11.73-1.8,0-.13-.1-.27-.23-.3h0Z"/>
      <path class="cls-2" d="M40.75,149.49c1.19.1,2.44-.02,3.62-.11s2.44-.12,3.64-.31l-.5-1.18c-1.12.65-2.43,1.06-3.69,1.34-.63.14-1.27.24-1.92.31s-1.33.03-1.98.23c-.52.16-.53.91,0,1.07.7.21,1.4.11,2.12.02s1.42-.22,2.12-.39c1.4-.34,2.68-.89,4-1.46.6-.26.28-1.23-.33-1.2-1.21.04-2.43.26-3.62.41s-2.42.26-3.56.59c-.4.11-.29.66.09.69h0Z"/>
      <path class="cls-2" d="M63.19,149.18c-2.7-.11-5.44-.62-7.94-1.66l-.2,1.48c1.94.2,3.88.57,5.75,1.14.71.21,1.2-.89.51-1.21-.98-.46-1.97-.85-3.03-1.07s-2.14-.36-3.23-.36c-.85,0-1.02,1.24-.2,1.48,2.73.8,5.49,1.3,8.34,1.29.7,0,.7-1.06,0-1.09h0Z"/>
      <path class="cls-2" d="M70.86,151.06c-.3-.73-.61-1.45-.89-2.18-.12-.31-.44-.56-.79-.45s-.52.44-.45.79c.17.78.55,1.5,1.06,2.11.26.31.58.56.91.77.14.09.29.18.44.25.24.12.51.14.78.15.24.02.5-.19.55-.42.06-.27-.05-.48-.26-.65.12.09.01.01,0,0-.03-.03-.06-.05-.09-.08-.09-.08-.18-.16-.28-.22-.14-.09-.28-.16-.41-.26-.03-.02-.07-.05-.1-.08l.08.06s-.04-.04-.07-.05c-.06-.05-.12-.1-.17-.15-.12-.11-.24-.22-.35-.34-.11-.11-.19-.25-.31-.35.13.12.04.05,0,0-.02-.03-.05-.07-.07-.1-.05-.07-.09-.14-.14-.21-.08-.13-.15-.27-.21-.41s.05.14,0,0c-.02-.04-.03-.08-.05-.12-.03-.08-.05-.16-.08-.24l-1.17.49c.34.71.65,1.43.98,2.14.12.27.49.35.74.24s.45-.42.34-.7h0Z"/>
      <path class="cls-2" d="M74.78,143.06l-.27-1.4-.13-.69c-.02-.11-.05-.22-.06-.33.01.12,0-.09,0-.09v-.2c-.03-.51-.6-.92-1.07-.61-.31.2-.57.46-.85.71-.23.2-.46.41-.69.61-.48.42-.91.88-1.34,1.35-.22.24-.26.59-.05.86.18.23.58.37.85.17.54-.4,1.07-.81,1.56-1.27.22-.21.45-.42.67-.63.24-.22.5-.44.7-.69l-1.18-.31c.09.23.15.46.2.7l.14.72.29,1.43c.07.33.47.55.78.44.35-.11.51-.43.44-.78h0Z"/>
      <path class="cls-2" d="M65.08,142.89c-.63-.98-1.42-1.87-2.33-2.59-.47-.37-.95-.71-1.47-1.01s-1.07-.63-1.65-.81-1.07.41-.96.96c.23,1.1.9,2.09,1.84,2.71.63.41,1.37-.54.81-1.04-.66-.59-1.02-1.21-1.14-2.08l-.96.96c.5.2.96.32,1.39.55.46.25.9.53,1.32.84.76.57,1.5,1.35,2.06,2.16.19.28.56.41.87.23.29-.17.42-.58.23-.87h0Z"/>
      <path class="cls-2" d="M57.85,153.72c-2.25-1.58-4.83-2.39-7.58-2.51-2.6-.12-5.53.23-7.74,1.68-.38.25-.14.85.31.74,2.44-.59,4.77-1.17,7.31-.99,2.46.17,4.97.89,7.18,1.96.59.29,1.05-.5.51-.88h0Z"/>
      <path class="cls-2" d="M46.42,151.17c2.13-.38,4.13-1.14,5.97-2.28.57-.35.07-1.19-.52-.89-1.81.91-3.81,1.53-5.82,1.82-.38.05-.58.53-.49.86.11.39.49.56.86.49h0Z"/>
      <path class="cls-2" d="M54.81,145.42c-.28-.04-.56-.08-.84-.12-.32-.04-.64-.05-.96-.07-.25-.02-.46.2-.49.43s.11.5.36.55c.31.06.63.13.95.16.28.03.56.06.85.08.12.01.29-.07.37-.15s.13-.18.14-.3,0-.24-.06-.34c-.07-.11-.18-.22-.31-.24h0Z"/>
      <path class="cls-2" d="M54.67,146.54c.8,0,.8-1.24,0-1.24s-.8,1.24,0,1.24h0Z"/>
      <path class="cls-2" d="M47.18,141.84c-.48.05-.96.09-1.45.14-.53.05-1.05.16-1.58.25-.34.06-.55.45-.5.77.05.35.34.59.69.61.47.02.94.05,1.42.02s.95-.05,1.42-.08c.45-.02.88-.38.86-.86-.02-.43-.38-.9-.86-.86h0Z"/>
      <path class="cls-2" d="M38.48,141.72s-.05-.02-.07-.02c-.1-.02-.22-.03-.33-.04-.01,0-.03,0-.04,0-.15,0-.3.02-.44.06-.28.09-.53.23-.73.44-.02.02-.03.04-.05.06-.07.09-.15.19-.22.29-.08.12-.13.27-.18.4-.09.23-.06.48,0,.72,0,.02.01.04.02.06.04.1.08.21.13.31.01.02.03.04.04.07.05.08.11.16.18.22.03.03.17.14.21.16,0,0,0,0,.01,0,.01,0,.02.01.03.02.08.04.17.08.25.11.02,0,.05.01.07.02.15.04.31.04.46,0,.15-.04.27-.12.38-.22.11-.11.18-.24.22-.38.04-.15.04-.31,0-.46,0,0,0-.01,0-.02l.03.23s0-.06,0-.09l-.03.25c.02-.11.04-.23.05-.34l-.04.26s.02-.08.03-.11l-.11.25s.05-.09.08-.13l-.17.22s0,0,.01-.01l.17-.23s.05-.09.06-.14c.02-.06.05-.11.07-.17l-.11.27c.03-.06.06-.12.1-.17l-.18.23s.08-.09.12-.12l-.23.18s.08-.06.13-.08l-.27.11s.08-.03.12-.03l-.3.04s.08,0,.12,0l-.3-.04s.07.02.11.03c.15.05.3.05.45.02.15,0,.29-.05.42-.13.13-.07.24-.17.32-.29.1-.11.17-.24.2-.39l.04-.3c0-.2-.05-.4-.15-.57l-.18-.23c-.14-.14-.31-.24-.5-.29h0Z"/>
      <path class="cls-2" d="M38,145.36l-.88.79c-.29.26-.57.54-.85.82-.18.18-.32.48-.31.74.01.24.08.45.23.64.13.17.33.33.55.38.27.06.57.04.81-.11.33-.2.67-.4.99-.62s.65-.44.97-.66c.19-.11.34-.26.45-.45l.13-.3c.06-.22.06-.44,0-.67-.04-.16-.11-.31-.22-.43-.09-.14-.21-.24-.35-.32-.14-.09-.3-.14-.47-.15-.17-.04-.33-.03-.5.02-.21.06-.4.17-.55.32h0Z"/>
      <path class="cls-2" d="M33.78,152.43c1.52,0,1.52-2.36,0-2.36s-1.52,2.36,0,2.36h0Z"/>
      <path class="cls-2" d="M33.78,152.22c1.89-.19,3.78-.37,5.67-.56.44-.04.87-.36.85-.85-.02-.44-.37-.87-.85-.85-1.89.1-3.78.2-5.67.3-.51.03-1,.43-.98.98.02.49.43,1.03.98.98h0Z"/>
      <path class="cls-2" d="M56.34,150.74c.14,0,.14-.22,0-.22s-.14.22,0,.22h0Z"/>
      <path class="cls-2" d="M67.69,150.54c2.77.26,5.54.48,8.31.7.51.04.64-.82.12-.91-2.74-.45-5.48-.91-8.22-1.32-1.11-.16-1.33,1.42-.21,1.52h0Z"/>
      <path class="cls-2" d="M80.36,151.38c-.37-.04-.74-.08-1.11-.12-.11-.01-.26.06-.33.14s-.12.17-.13.27,0,.21.06.3c.06.1.16.2.28.22.37.05.74.1,1.1.15.09.02.17.02.26,0l.12-.05c.13-.07.21-.21.23-.36.02-.13-.01-.25-.1-.36-.03-.05-.08-.1-.14-.13-.08-.04-.16-.07-.25-.07h0Z"/>
      <path class="cls-2" d="M80.36,151.32c-2.58-.09-5.1-.65-7.56-1.42-.64-.2-.85.74-.27.98,2.47,1.03,5.16,1.45,7.83,1.49.68.01.68-1.03,0-1.05h0Z"/>
      <path class="cls-2" d="M59.95,145.7c-.13-.49-.23-1-.39-1.48-.09-.27-.17-.57-.3-.83-.11-.22-.24-.44-.36-.66-.25-.46-.98-.25-.98.27,0,.24-.01.49,0,.73.01.3.09.61.15.91.09.5.24.99.37,1.49.1.4.57.68.96.55s.66-.54.55-.96h0Z"/>
      <path class="cls-2" d="M59.71,145.36c-.67-.61-1.11-1.17-1.52-1.99-.04-.09-.09-.18-.13-.27-.05-.11,0,0-.03-.07-.02-.05-.04-.09-.06-.14-.08-.2-.14-.4-.21-.6-.14-.43-.24-.87-.3-1.31-.04-.33-.45-.53-.74-.48-.31.05-.6.32-.58.66.05,1.04.3,2,.76,2.93.44.87,1.05,1.67,1.77,2.32.29.26.74.29,1.03,0,.27-.27.29-.77,0-1.03h0Z"/>
      <path class="cls-2" d="M55.64,141.91c-1.18.39-2.36.79-3.55,1.18-.35.12-.19.68.15.55,1.17-.44,2.34-.88,3.51-1.33.25-.1.15-.5-.11-.41h0Z"/>
      <path class="cls-2" d="M40.26,140.98s-.05.01-.08.02l.24-.03c-.06,0-.12,0-.18,0l.24.03c-.06,0-.12-.03-.18-.05l.22.09c-.07-.03-.13-.07-.19-.11l.19.15c-.06-.05-.12-.11-.17-.17l.15.19c-.08-.1-.16-.2-.24-.3l.15.19s-.07-.09-.09-.14c-.01-.02-.02-.05-.03-.07l-.14-.18c-.08-.09-.18-.15-.29-.19-.04-.02-.07-.04-.12-.05-.09-.02-.18-.03-.26-.03l.57.33s0-.02-.01-.03l.07.15s-.03-.09-.04-.14l.02.15s0-.05,0-.08c0-.19-.1-.36-.26-.45-.15-.09-.38-.1-.53,0s-.28.23-.38.4l.4-.31c-.16.05-.32.12-.43.24-.16.18-.26.39-.26.64,0,.09.02.22.05.32.04.13.09.26.15.38.12.25.34.43.57.59.05.03.1.06.16.09.12.05.25.12.39.15s.27.05.41.04c.11,0,.22-.02.32-.04.03,0,.06-.02.09-.03.22-.08.42-.21.54-.42.07-.1.1-.22.11-.34.03-.12.02-.24-.02-.36-.07-.22-.21-.43-.42-.54s-.46-.15-.7-.09h0Z"/>
      <path class="cls-2" d="M41.96,137.92l.07-.08-.38.16h.02c.13,0,.26-.03.37-.1.11-.07.2-.15.26-.26.03-.06.06-.13.08-.19,0,0,0-.02,0-.03l.03-.2s0-.07-.01-.11c0-.04,0-.08-.02-.12v-.05c-.02-.08-.06-.14-.09-.21-.06-.11-.15-.19-.25-.25-.11-.06-.23-.1-.36-.1-.13,0-.25.03-.36.1-.11.06-.19.15-.25.25-.02.02-.03.06-.04.09-.01.03-.03.07-.04.1-.02.03-.03.07-.04.1l-.03.2s0,.01,0,.02c0,.07.01.15.03.22.03.12.1.23.19.32.09.09.2.15.32.19h.03c-.11-.08-.22-.16-.32-.24l.05.1c.04.07.1.12.17.17.05.03.11.05.17.05.06.01.12.01.18,0,.08-.02.15-.06.2-.12h0Z"/>
      <path class="cls-2" d="M51.74,133.69c-1.19.65-2.37,1.31-3.56,1.96-1,.55-2.25,1.07-2.68,2.23-.22.61-.07,1.27.34,1.76.37.43.89.64,1.4.86,1.25.53,2.55.96,3.85,1.34.46.14.96-.16,1.09-.62s-.16-.95-.62-1.09c-1.06-.33-2.12-.69-3.15-1.1-.26-.1-.52-.2-.78-.31-.15-.06-.1-.03-.2-.09-.09-.05-.17-.09-.25-.14.11.07-.12-.08-.02,0-.05-.09-.06-.11-.03-.04-.02-.1-.03-.11-.01-.06.01.03,0,.06,0,.09.01-.06.03-.11.05-.16-.06.13.08-.1.08-.11-.05.07.12-.12.12-.12.07-.07.14-.14.22-.2.12-.09.35-.23.51-.33.49-.29.98-.56,1.48-.85.99-.56,1.97-1.12,2.96-1.69.88-.5.09-1.84-.79-1.35h0Z"/>
      <path class="cls-2" d="M58.25,139.01c-.89.08-1.8.13-2.69.26s-1.72.25-2.58.37c-.61.09-.46,1.1.14,1.07.85-.05,1.71-.09,2.56-.14s1.71-.18,2.56-.27c.35-.04.65-.27.65-.65,0-.32-.3-.68-.65-.65h0Z"/>
      <path class="cls-2" d="M41.2,144.26c-.62.49-1.23.98-1.85,1.47-.17.13-.28.45-.27.65s.07.39.2.56c.12.15.29.29.48.33.22.05.52.05.71-.09.62-.48,1.25-.96,1.87-1.44.14-.08.25-.2.34-.34l.09-.22c.09-.28,0-.59-.17-.82-.16-.2-.36-.32-.61-.35-.13-.03-.25-.02-.38.02-.16.04-.3.13-.42.24h0Z"/>
      <path class="cls-2" d="M34.34,151.99c.87,0,.87-1.35,0-1.35s-.87,1.35,0,1.35h0Z"/>
      <path class="cls-2" d="M21.07,153.74c-.39,2.29-.83,4.36-2.07,6.36-.25.4-.09.95.31,1.18,4.47,2.6,9.75,2.75,14.78,3.14,6.04.47,12.08.85,18.13,1.26,6.04.41,12.09.81,18.13,1.18,2.99.19,5.99.39,8.99.5,2.29.08,4.77-.09,6.57-1.69,1.54-1.36,2.22-3.5,1.3-5.41-.97-2.02-3.1-3.16-4.27-5.06-.49-.79-1.92-.29-1.57.66.58,1.57,1.8,2.53,2.92,3.7.56.58,1.2,1.28,1.33,2.11.19,1.27-.76,2.39-1.82,2.95-2.2,1.16-5.23.55-7.6.4-2.63-.17-5.26-.32-7.9-.47-10.63-.63-21.25-1.34-31.87-2.02-5.4-.34-11.37-.05-16.24-2.76l.31,1.18c1.3-2.17,2.12-4.69,1.77-7.23-.08-.6-1.09-.58-1.19,0h0Z"/>
      <path class="cls-2" d="M82.59,156.92c1.37-4.7,1.56-9.83,1.8-14.7s.22-10.15.14-15.23c-.17-10.17-.55-20.35-.12-30.52.12-2.74.33-5.47.57-8.2.22-2.5.44-5.29-.68-7.61-.46-.95-2.1-.51-2.01.54.19,2.31.36,4.48.18,6.8-.2,2.44-.4,4.87-.52,7.32-.23,4.99-.22,9.97-.09,14.96.26,9.88.74,19.76.6,29.65-.08,5.63-.82,11.23-.9,16.85,0,.6.87.71,1.03.14h0Z"/>
      <path class="cls-2" d="M26.95,78.03c-.82,4.95-1.07,10.01-1.44,15.01-.39,5.25-.81,10.5-1.29,15.74-.94,10.17-2.36,20.27-3.48,30.42-.58,5.23-1.18,11.35.57,16.43.3.88,1.87.82,1.74-.24-.28-2.37-.72-4.68-.78-7.08s.09-4.98.34-7.45c.5-4.89,1.29-9.76,1.88-14.64,1.24-10.16,2.07-20.35,2.76-30.55.39-5.81.91-11.68.69-17.5-.02-.53-.88-.71-.98-.13h0Z"/>
      <path class="cls-2" d="M26.58,76.6c-.02-.42-.16-.65-.39-1-.31-.47-.55-.94-.77-1.46-.42-.95-.78-1.95-1.03-2.97l-1.09,1.43c2.6.25,5.25.19,7.85.25s5.24.17,7.85.08c1.44-.05,1.41-2.1,0-2.21-2.61-.21-5.23-.23-7.85-.28-2.61-.05-5.25-.24-7.85-.1-.65.03-1.38.71-1.09,1.43.47,1.15,1,2.2,1.83,3.14.58.66,1.45,1.79,2.39,1.83.08,0,.15-.07.15-.15h0Z"/>
      <path class="cls-2" d="M85.22,78.51c2.22.81,4.56,1.24,6.91,1.41l-.75-1.81c-.23.28-.48.55-.74.8-.13.13-.26.25-.4.37-.08.07-.17.14-.25.21.1-.08-.07.05-.1.07-.29.21-.6.41-.92.59-.16.09-.32.18-.48.26-.08.04-.16.08-.25.12-.02.01-.28.13-.16.07-.5.21-.85.66-.7,1.23.13.48.72.9,1.23.7,1.62-.64,3.09-1.62,4.27-2.92.29-.32.39-.75.22-1.16s-.53-.6-.97-.65c-.98-.11-2.06-.28-3.13-.49s-2.17-.47-3.25-.75c-.51-.13-1.11.17-1.24.7-.13.57.17,1.04.7,1.24h0Z"/>
    </g>
  </g>
</svg>