<?xml version="1.0" encoding="UTF-8"?>
<svg id="Layer_2" data-name="Layer 2" xmlns="http://www.w3.org/2000/svg" viewBox="0 0 251.8 221.81">
  <defs>
    <style>
      .cls-1 {
        fill: #3c50a2;
        stroke-width: 0px;
      }
    </style>
  </defs>
  <g id="Layer_1-2" data-name="Layer 1">
    <g>
      <path class="cls-1" d="M13.7,59.34c2.1-3.76,3.99-7.62,5.78-11.54l-1.03-.28c-.24,6.14-.41,12.29.45,18.39.07.52.95.63,1.16.15,3.24-7.58,6-15.35,8.24-23.29l-1.01-.14c-2.08,18.37-3.78,36.74-4.51,55.22h1.54c.18-6.37-2.67-13.08-7.75-17.04-.93-.72-2.25.55-1.31,1.31,4.8,3.93,7.65,9.46,7.52,15.73-.02.99,1.51.99,1.54,0,.58-18.43,1.71-36.92,4-55.22.07-.59-.86-.68-1.01-.14-2.31,7.81-5.08,15.47-8.34,22.92l1.16.15c-.9-5.98-.73-12.03-.56-18.05.01-.52-.81-.8-1.03-.28-1.74,3.95-3.61,7.84-5.5,11.71-.22.45.43.84.67.39h0Z"/>
      <path class="cls-1" d="M32.13,47.53c.9.58,1.33-1,.53-1.46-1.63-.95-1.96,2.58-2.09,3.34-.36,2.14-.6,4.3-.7,6.47-.05,1.08-.06,2.15-.03,3.23.02.92.05,1.87.43,2.72.61,1.38,2.06,2.11,3.54,2.04,1.7-.08,3.07-1.1,3.95-2.51,1.97-3.15,1.94-7.63.83-11.06-.52-1.6-1.42-3.83-3.36-4.04-1.35-.15-3.64,1.62-2.15,2.91.28.24.86.2.93-.24.06-.37.13-.77.46-.98.48-.31.96-.08,1.33.28.78.77,1.13,2.01,1.41,3.04.66,2.46.65,5.13-.14,7.56-.57,1.75-2.08,3.94-4.23,3.23-1.11-.37-1.28-1.47-1.32-2.5-.06-1.32-.06-2.65-.01-3.97.05-1.53.16-3.07.35-4.59.1-.8.22-1.59.35-2.38.04-.22.49-1.77.37-1.84-.5-.3-.95.47-.46.78h0Z"/>
      <path class="cls-1" d="M40.12,43.3c.4-1.57,1.2-2.86,2.46-3.88l-.75-.1c3.75,6.46.91,14.43,4.07,21.1.25.53,1.13.39,1.25-.16,1.98-8.56,3.37-17.25,4.24-26h-1.42c-.07,8.23-.23,16.66,2.23,24.62.42,1.37.84,3.22,2.18,4,1.12.65,2.37.17,3.03-.87.98-1.53,1.14-3.7,1.49-5.45.42-2.13.75-4.26.89-6.44.05-.77-1.2-.95-1.35-.18-.67,3.4-1.05,6.94-2.04,10.27-.18.62-.57,1.71-1.4,1.09-.58-.43-.8-1.56-1.01-2.2-.52-1.58-.94-3.19-1.28-4.81-1.37-6.56-1.37-13.34-1.31-20.02,0-.93-1.33-.89-1.42,0-.86,8.62-2.27,17.17-4.15,25.63l1.25-.16c-3.16-6.55-.03-14.78-4.43-20.89-.18-.25-.51-.33-.75-.1-1.24,1.22-2.09,2.66-2.46,4.37-.1.44.56.63.68.19h0Z"/>
      <path class="cls-1" d="M43.59,65.6c-.64,2.09-.59,4.45-.75,6.63-.18,2.4-.36,4.8-.52,7.21-.32,4.72-.56,9.45-.78,14.17-.11,2.3-1.25,8.01,2.05,8.88,1.59.42,2.69-.88,3.42-2.09,1.07-1.77,2.03-3.62,2.89-5.5,1.94-4.25,3.51-8.71,3.88-13.39h-1.32c.02,2.26-.31,4.53-.3,6.8,0,1.13.04,2.27.11,3.4.05.81.03,1.76.38,2.51.6,1.29,2.09,1.69,3.38,1.24,1.48-.51,2.23-2,2.81-3.33.38-.85-.86-1.6-1.27-.74-.46.96-1,2.28-2.12,2.6-1.91.54-1.71-2.3-1.79-3.49-.19-2.83-.45-6.01.08-8.81.16-.83-1.01-1.17-1.27-.35-1.41,4.43-2.67,8.9-4.67,13.12-.51,1.07-1.05,2.12-1.62,3.16-.44.79-.86,1.87-1.51,2.5-1.49,1.42-1.18-3.74-1.16-4.25.19-5.06.44-10.11.69-15.17.12-2.49.25-4.97.39-7.46s.58-5.14.22-7.62c-.1-.66-1.05-.55-1.22,0h0Z"/>
      <path class="cls-1" d="M62.26,79.18c-.18-1.14-1.44-1.73-2.5-1.62-1.41.14-2.31,1.27-2.79,2.52-.24.62-.41,1.28-.54,1.92-.16.83-.15,1.71.43,2.38.85.98,2.36.81,3.41.29,1.34-.66,1.98-2.2,3.35-2.81.53-.23.15-1.13-.4-.94-1.12.39-1.89,1.26-2.77,2.01-.34.29-.7.52-1.07.64-.11.03-.23.06-.34.09-.09.02-.07.02-.19.02-.11,0-.22,0-.33,0-.12,0,.09.02-.03,0-.07-.01-.14-.03-.2-.05-.13-.04-.18-.07-.29-.17-.03-.03-.06-.07-.09-.1.07.09,0-.01,0-.03-.04-.09-.08-.18-.1-.28-.09-.54.14-1.17.28-1.69s.28-1.01.53-1.47c.22-.41.52-.75.86-.93.54-.28,1.6-.22,1.78.52.07.28.38.45.65.37.3-.08.42-.37.37-.65h0Z"/>
      <path class="cls-1" d="M70.24,74.73c-2.13,2.49-4.24,5.59-3.25,9.03.78,2.71,3.42,4.5,6.2,3.47,2.94-1.09,4.69-4.31,5.88-7.02s2.54-7.01-.29-9.37c-1.65-1.38-4.63-1.89-6.07.06-1.86,2.51.68,5.63,3.32,6.01,3.5.5,6.31-2.76,8.28-5.17,2.33-2.86,4.29-6,5.84-9.35,3.04-6.56,4.72-14.03,4.45-21.28-.22-5.96-2.18-13.03-7.8-16.1-2.35-1.28-5.85-1.69-7.8.52-1.15,1.3-1.32,3.09-1.44,4.75-.17,2.26-.17,4.53-.06,6.79.44,8.92,2.34,17.78,3.96,26.54,3.28,17.74,7,35.42,11.45,52.91.56,2.22,1.14,4.43,1.72,6.64.22.85,1.51.49,1.31-.36-3.37-14.48-6.6-29-9.51-43.58-1.44-7.21-2.82-14.43-4.12-21.66-1.33-7.41-2.81-14.88-2.96-22.43-.04-1.78-.02-3.56.12-5.33.11-1.47.38-3.07,1.84-3.77,2.56-1.23,5.63.55,7.42,2.33,3.89,3.88,4.73,10,4.54,15.25-.23,6.42-1.84,12.83-4.7,18.59-1.36,2.75-3,5.36-4.91,7.76-1.66,2.07-4.51,5.93-7.61,5.18-1.29-.31-3.25-2.19-1.75-3.46.82-.7,2.2-.32,3.01.19,3.27,2.08.52,7.43-.9,9.89-1.29,2.23-4.38,5.95-7.05,3.19s-.18-7.11,1.34-9.86c.15-.28-.23-.61-.45-.35h0Z"/>
      <path class="cls-1" d="M49.98,154.73c8.9-21.7,19.13-42.85,30.51-63.35,11.34-20.43,23.9-40.2,37.55-59.17,7.68-10.68,15.91-20.93,23.76-31.48.33-.44-.39-.99-.76-.59-7.94,8.64-15.07,18.07-22.01,27.52s-13.55,19.05-19.88,28.88c-12.77,19.84-24.36,40.44-34.63,61.69-5.73,11.85-11.05,23.89-15.98,36.1-.36.9,1.09,1.28,1.45.4h0Z"/>
      <path class="cls-1" d="M44.42,124.9c11.42-11.58,24.37-21.58,38.41-29.77,14.04-8.18,29.13-14.55,44.79-18.86,8.78-2.41,17.73-4.2,26.74-5.5.79-.11.61-1.48-.19-1.4-16.32,1.61-32.33,5.92-47.51,12.07-15.21,6.16-29.61,14.26-42.73,24.12-7.35,5.52-14.29,11.56-20.75,18.1-.79.8.44,2.04,1.24,1.24h0Z"/>
      <path class="cls-1" d="M59.09,92.49c1.38-1.72,2.21-3.89,2.69-6.02.24-1.07.39-2.17.44-3.27s.1-2.32-.19-3.39c-.14-.51-.91-.4-.92.12-.02,1.05.13,2.1.09,3.16s-.17,2.09-.39,3.11c-.45,2.09-1.3,3.99-2.19,5.92-.13.29.25.66.48.37h0Z"/>
      <path class="cls-1" d="M11.87,117.75c-.32-.76-1.13-1.1-1.93-.96-1.07.19-1.59,1.18-1.91,2.12-1,2.96-1.68,6.09-2.37,9.14-1.44,6.31-2.47,12.71-3.15,19.15s-1.24,12.89-.72,19.26c.23,2.87.69,5.85,1.83,8.52.92,2.13,3.07,3.1,4.75,1.11,2-2.37,3.44-5.37,4.51-8.25s1.83-6.3,1.65-9.5c-.04-.64-1.05-.86-1.18-.16-.89,4.7-1.93,9.19-4.3,13.41-.56,1-1.16,1.99-1.85,2.91-.39.52-.75,1.1-1.4.52-.45-.4-.63-1.17-.81-1.71-.8-2.36-1.22-4.83-1.4-7.31-.37-5.05-.04-10.19.35-15.23s1.09-10.5,2.01-15.7c.5-2.83,1.08-5.66,1.72-8.46.34-1.48.7-2.96,1.08-4.43.18-.7.36-1.39.55-2.09.04-.13.81-2.66,1.31-1.63.42.85,1.62.11,1.25-.73h0Z"/>
      <path class="cls-1" d="M15.35,149.57c-.24.36-.5.72-.73,1.09-.11.18-.21.37-.31.55-.1.2-.11.31-.14.53,0,.05-.01.1-.02.15-.02.15,0,.28.04.43.1.35.45.53.8.45.14-.03.27-.09.39-.18.04-.03.08-.06.12-.09.17-.13.26-.2.38-.38s.23-.36.34-.54c.22-.38.41-.78.61-1.16.11-.2.15-.43.09-.66-.05-.2-.21-.41-.39-.51-.43-.23-.9-.09-1.17.31h0Z"/>
      <path class="cls-1" d="M22.01,114.56c-.1-1.11-.29-2.46.41-3.41.95-1.28,2.03-.48,2.52.66.89,2.06,1.5,4.29,2.16,6.43,1.4,4.5,2.56,9.07,3.48,13.69,1.86,9.3,2.78,18.79,2.71,28.27-.04,5.4-.49,10.78-.73,16.17-.04.8,1.25.99,1.41.19,1.08-5.31,1.37-10.72,1.4-16.13s-.27-10.97-.89-16.41c-1.23-10.81-3.69-21.55-7.54-31.73-.66-1.74-1.76-4.02-4.05-3.38-2.5.7-2.65,3.53-2.42,5.65.1.97,1.62.99,1.53,0h0Z"/>
      <path class="cls-1" d="M41.61,154.55c-.75-.27-1.35.44-1.81.95-.64.71-1.25,1.46-1.83,2.22s-1.12,1.51-1.63,2.3-1.1,1.64-1.2,2.61c-.21,1.93,1.86,3.26,3.1,4.41,1.56,1.46,3.07,2.98,4.79,4.26.77.57,1.51-.61.97-1.25-1.24-1.45-2.69-2.71-4.09-4.01-.68-.63-1.36-1.26-2.04-1.9-.27-.25-.63-.52-.8-.85-.24-.49-.01-.97.21-1.42.76-1.49,1.76-2.91,2.77-4.24.24-.31,2.54-2.74,1.57-3.09h0Z"/>
      <path class="cls-1" d="M51.37,171.4c4.15-3.42,7.78-7.73,10.18-12.56.8-1.62,1.49-3.88.43-5.55-1.39-2.17-4.19-1.33-6-.28-3.98,2.3-7.15,6.72-6.88,11.47.25,4.42,3.36,8.74,7.86,9.53,5.85,1.02,10.8-3.56,14.53-7.43.89-.92-.51-2.32-1.4-1.4-2.81,2.92-6.16,6.25-10.34,6.91s-7.43-2.12-8.5-5.87.7-7.82,3.57-10.41c1.18-1.06,4.13-3.45,5.72-2,1.36,1.24.1,3.8-.57,5.06-2.38,4.46-5.61,8.4-9.48,11.65-.62.52.27,1.39.88.88h0Z"/>
      <path class="cls-1" d="M109.76,160.26c-1.47-5.91-3.84-11.34-6.43-16.82l-1.64.96c2,4.18,5.45,7.76,9.08,10.56.34.26,1.01.16,1.28-.16,2.79-3.36.63-8.48-.31-12.18-1.29-5.06-2.76-10.06-4.21-15.07l-1.93,1.13c2.57,3.28,5.29,6.45,7.99,9.62s5.4,6.34,8.39,9.25c.95.93,2.21-.43,1.43-1.43-2.59-3.28-5.4-6.35-8.13-9.52-2.72-3.16-5.35-6.38-8.05-9.56-.75-.88-2.29.06-1.93,1.13,1.43,4.33,2.67,8.73,3.85,13.14.59,2.2,1.17,4.41,1.7,6.63.4,1.68.93,3.88-.29,5.37l1.28-.16c-3.54-2.69-6.1-6.01-8.51-9.7-.66-1.02-2.3-.07-1.64.96,3.17,4.91,5.23,10.61,6.69,16.25.23.9,1.61.52,1.39-.38h0Z"/>
      <path class="cls-1" d="M125.3,106.81c2.29,2.51,3.49,5.68,4.56,8.85,1.26,3.74,2.49,7.5,3.74,11.25,2.5,7.56,4.94,15.15,7.45,22.71l1.88-1.1c-1.63-1.74-3.27-3.46-4.95-5.15-.47-.47-1.34.15-.94.73,1.35,1.95,2.73,3.87,4.13,5.79.7.96,2.48.44,2.06-.87-2.58-7.89-5.29-15.74-8-23.59-1.32-3.81-2.6-7.63-3.98-11.41-1.11-3.05-2.42-6.06-4.83-8.32-.74-.69-1.78.36-1.1,1.1h0Z"/>
      <path class="cls-1" d="M107.94,116.19c3.63,2.45,8.14,3.97,12.29,5.26s8.67,2.31,13.15,2.79c1.29.14,1.61-2.09.31-2.29-4.33-.65-8.64-1.47-12.86-2.68s-8.17-3.06-12.32-4.42c-.83-.27-1.23.9-.57,1.34h0Z"/>
      <path class="cls-1" d="M1.01,194.22c7.4-2.32,14.81-4.64,22.21-6.96l10.87-3.41c3.65-1.14,7.54-2.05,11.01-3.67.88-.41.22-1.62-.62-1.47-3.69.67-7.33,2.16-10.9,3.31s-7.39,2.38-11.08,3.56c-7.31,2.35-14.62,4.7-21.93,7.05-1,.32-.58,1.9.44,1.58h0Z"/>
      <path class="cls-1" d="M25.9,186.14c.42,12.02,3.15,24.14,8.12,35.11.15.33.62.58.97.56,1.38-.1,2.39-.86,2.78-2.21.29-1.01-1.18-1.64-1.7-.72-.25.45-.57.65-1.08.67l.97.56c-4.77-10.82-7.69-22.16-8.51-33.97-.07-.99-1.6-1.01-1.56,0h0Z"/>
      <path class="cls-1" d="M57.75,179.16c.12,5.32.3,10.64.55,15.96.12,2.66.26,5.32.4,7.97.07,1.33.14,2.66.22,3.99.08,1.25.07,2.53.53,3.71l1.57-.66c-.25-.36-.43-.59-.71-.91-.47-.52-1.21.04-1.1.64.04.32.12.63.24.93.25.77,1.45.86,1.66,0,.3-1.23.15-2.46.07-3.71-.09-1.33-.19-2.66-.27-3.99-.18-2.66-.34-5.31-.5-7.97-.31-5.32-.59-10.64-.86-15.96-.06-1.15-1.82-1.16-1.8,0h0Z"/>
      <path class="cls-1" d="M40.33,204.3c1.38-7.22,5.86-13.21,10.89-18.36s10.78-10.34,17.97-11.8c5.61-1.14,12.69.85,15.34,6.33,3.24,6.71-1.6,14.03-7.19,17.59-3.25,2.07-7.06,3.65-10.84,4.43-3,.62-7.02.75-8.95-2.1l.12.91c.55-1.54,2.54-1.5,3.82-1.09,1.53.5,2.96,1.45,4.34,2.25,3.07,1.77,6.09,3.62,9.05,5.58,5.84,3.87,11.31,8.24,16.95,12.39.9.66,1.93-.76,1.17-1.52-4.34-4.36-9.28-8.02-14.36-11.47-2.62-1.78-5.29-3.48-8.01-5.11-2.48-1.48-5.02-3.1-7.7-4.18-2.27-.91-5.13-.91-6.8,1.15-.7.87-1,1.73-.33,2.68.61.88,1.5,1.61,2.45,2.1,4.24,2.2,9.5.72,13.67-.88,5.04-1.93,9.98-4.79,13-9.41,2.73-4.19,3.69-9.75,1.38-14.34-2.03-4.03-6.33-6.49-10.66-7.2-5.04-.83-9.95.58-14.27,3.17-5.32,3.19-9.94,7.83-13.9,12.56s-7.13,9.97-8.21,16.01c-.13.72.96,1.03,1.1.3h0Z"/>
      <path class="cls-1" d="M88.6,194.49c1.37-3.6,5.49-5.34,9.15-4.88,4.14.52,7.07,4.05,8.1,7.91s.32,8.91-3.02,11.54-7.8,1.16-10.3-1.71c-3.49-4.01-2.26-10.22.3-14.35.69-1.12-1.03-2.11-1.75-1.03-2.98,4.48-4.22,10.82-1.09,15.57,2.55,3.88,7.88,6.18,12.3,4.18,4.77-2.16,6.41-8.15,5.69-12.96s-3.9-9.41-8.73-10.57c-4.73-1.14-10.25,1.2-11.9,5.95-.28.8.96,1.11,1.25.34h0Z"/>
      <path class="cls-1" d="M114.43,187.49c-.3,7.04,2.12,14.05,6.67,19.43,1.95,2.3,4.71,5.01,7.88,3.17,2.89-1.68,4.04-5.53,4.97-8.51,1.4-4.48,2.04-9.12,2.14-13.8h-2.22c.73,9.25,4,18.55,9.59,25.99.84,1.12,2.75.09,1.93-1.13-5.07-7.51-8.34-15.83-9.3-24.86-.15-1.39-2.23-1.46-2.22,0,.04,4.56-.7,9.1-2.09,13.45-.74,2.32-2.84,9.28-6.53,6.82-1.56-1.04-2.88-2.76-3.96-4.28s-1.99-3.13-2.73-4.82c-1.58-3.6-2.29-7.53-2.15-11.46.05-1.28-1.93-1.27-1.98,0h0Z"/>
      <path class="cls-1" d="M159.46,158.06c-7.04,2.87-10.31,10.44-12.04,17.35-2.05,8.14-2.36,17.35.11,25.44,1.07,3.49,2.92,6.8,6.02,8.86s6.78,2.42,10.29,1.91c6.77-.98,14.69-5.9,13.32-13.71-.67-3.85-3.46-7.17-6.92-8.87-4.01-1.97-8.55-2.14-12.89-1.44-1.16.19-.9,2.18.28,2.07,6.28-.56,14.3.29,16.79,7.17,2.5,6.92-4.78,11.36-10.68,12.32-2.99.49-6.19.14-8.79-1.5-2.76-1.74-4.31-4.79-5.22-7.83-2.09-7.03-2.06-14.9-.6-22.04s4.12-15.05,11.05-18.02c.97-.42.27-2.13-.73-1.73h0Z"/>
      <path class="cls-1" d="M150.44,162.26c3.37-3.3,8.61-4.77,13.24-4.88s8.41,1.96,10.18,6.26c3.19,7.77-.66,17.02-6.29,22.59-3.58,3.55-8.69,6.7-13.92,5.41-1.09-.27-1.89,1.36-.79,1.88,4.96,2.39,10.51-.73,14.35-3.89s6.89-7.59,8.54-12.38c2.84-8.28.96-20.39-9.53-21.52-3.09-.33-6.35.26-9.3,1.17s-5.44,2.21-7.52,4.31c-.67.67.36,1.7,1.04,1.04h0Z"/>
      <path class="cls-1" d="M194.6,138.24c-.23,20.1-1.8,40.14-5.29,59.94-.28,1.58,2.15,2.25,2.41.66,3.34-20,5.05-40.33,4.52-60.61-.03-1.05-1.63-1.06-1.64,0h0Z"/>
      <path class="cls-1" d="M196.87,195.15c6.54,1.32,13.35-.52,18.52-4.69,2.48-2,4.7-4.65,5.92-7.62.63-1.52.97-3.32.24-4.87s-2.28-2.31-3.87-2.67c-7.1-1.57-13.78,3.98-16.8,9.96-3.09,6.12-3.45,13.56-.73,19.88,1.54,3.6,4.27,7.42,8.68,6.9,4.69-.56,7.18-4.92,11.21-6.8,1.41-.66.18-2.66-1.21-2.06-3.07,1.31-5.14,4.07-8.1,5.55-1.47.73-3.18,1.1-4.68.23-1.27-.74-2.12-2.07-2.81-3.32-2.74-4.96-3.07-11.05-1.33-16.39s6.04-10.66,11.85-11.69c1.37-.24,2.88-.21,4.2.27,1.76.64,1.95,2.1,1.41,3.74-.84,2.57-2.76,4.89-4.74,6.67-4.6,4.16-11.13,6.19-17.25,5.05-1.22-.23-1.76,1.63-.52,1.88h0Z"/>
      <path class="cls-1" d="M235.21,162.58c-4.76,1.63-8.98,4.67-12.02,8.69-1.34,1.77-3.65,4.75-2.91,7.12s4.27,2.84,6.36,3.24c3.13.61,6.33.88,9.52.81,2.34-.05,4.71-.2,7.04.12,2.12.29,4.36,1.04,5.49,3,1.35,2.32.43,5-.92,7.09-3.24,5.02-10.16,9.1-16.2,7.47-1.56-.42-2.1,1.81-.65,2.37,5.41,2.09,11.32-.87,15.42-4.36,3.66-3.12,7.11-8.64,4.62-13.46-2.26-4.37-7.73-4.73-12.07-4.64-2.98.06-5.92.18-8.88-.16-1.63-.19-3.25-.48-4.84-.86-.63-.15-1.33-.28-1.92-.56-1.04-.48-1.02-1.25-.59-2.27,2.35-5.59,7.37-9.94,13.04-11.92,1.06-.37.61-2.05-.47-1.69h0Z"/>
    </g>
  </g>
</svg>