<?xml version="1.0" encoding="UTF-8"?>
<svg id="Layer_2" data-name="Layer 2" xmlns="http://www.w3.org/2000/svg" viewBox="0 0 193.63 91.41">
  <defs>
    <style>
      .cls-1, .cls-2 {
        stroke-width: 0px;
      }

      .cls-2 {
        fill: #8f365b;
      }
    </style>
  </defs>
  <g id="Layer_1-2" data-name="Layer 1">
    <path class="cls-1" d="M30.51,7.31c-2.39-.91-5.13-1.07-7.66-1.4-1.28-.17-2.58-.36-3.87-.45-.93-.06-1.81.05-2.46.79s-.81,1.92-1.06,2.87c-.34,1.32-.69,2.64-1.03,3.96-.42,1.63-1.98,4.88.61,5.4,2.38.47,4.99.47,7.41.53,2.6.05,5.2-.03,7.78-.23.79-.06,2.5-.57,2.99.21.57.91.65,2.63.75,3.67.06.58.09,1.16.1,1.74,0,.32.16,1.14-.11,1.4s-1.33.15-1.68.18c-.76.07-1.52.12-2.28.17-2.89.18-5.78.27-8.67.25-3.03-.02-6.1-.41-9.13-.32-1.36.04-1.8,2.22-.34,2.49,3.72.67,7.75.47,11.52.39,1.98-.04,3.96-.13,5.93-.27,1.73-.12,3.78-.03,5.44-.57,1.47-.49,1.75-1.9,1.75-3.27,0-1.84-.23-3.72-.67-5.51-.34-1.34-.91-2.68-2.39-3.03s-3.42.13-4.99.22c-2.15.13-4.3.17-6.45.13-1.11-.02-2.22-.06-3.34-.12-.52-.03-1.04-.06-1.55-.1-.49-.04-1.39.04-1.81-.24l.52.67c-.16-.57.37-1.73.52-2.3.22-.88.44-1.76.66-2.65s.44-1.76.66-2.65c.09-.35.12-.88.3-1.2.33-.55.62-.5,1.24-.45,1.82.16,3.64.34,5.46.55s3.78.57,5.67.47c.78-.04.88-1.05.18-1.32h0Z"/>
    <path class="cls-1" d="M37.6,7.71c3.76.12,7.57-.12,11.32-.24s7.56-.12,11.33-.24c1.32-.04,1.33-2.06,0-2.06-3.85-.01-7.71.18-11.56.36s-7.57.33-11.27.9c-.75.11-.53,1.25.17,1.27h0Z"/>
    <path class="cls-1" d="M46.35,8.27c-.74,1.13-.83,2.7-.84,4.01-.01,1.5.21,3,.4,4.48.38,2.89.8,5.76-.23,8.56-.52,1.43,1.72,2.01,2.27.62.22-.57.41-1.14.58-1.73.23-.8-.91-1.58-1.49-.87-.44.55-.85,1.1-1.24,1.69l2.15.91c1.07-2.75.69-5.82.2-8.66-.25-1.44-.54-2.88-.67-4.34s.08-2.92.01-4.38c-.03-.61-.8-.82-1.14-.31h0Z"/>
    <path class="cls-1" d="M63.98,5.1c-.41,1.31-.32,2.8-.35,4.16l-.08,4.32c-.05,2.88-.09,5.76-.14,8.64h2.36c-.07-.88-.19-1.75-.3-2.62-.15-1.12-1.6-1.12-1.75,0-.12.87-.23,1.74-.3,2.62-.13,1.5,2.38,1.54,2.36,0-.05-2.88-.09-5.76-.14-8.64l-.08-4.32c-.03-1.36.06-2.85-.35-4.16-.19-.6-1.03-.6-1.22,0h0Z"/>
    <path class="cls-1" d="M64.4,5.75c3.29-.68,6.67-1.03,10.03-.99.83,0,1.67.04,2.5.1.58.04,1.67-.07,2.18.26s.27,1.32.25,1.84c-.02.79-.06,1.59-.11,2.38s-.12,1.59-.2,2.38c-.04.42-.09.84-.14,1.26-.02.19-.02.86-.18,1-.27.24-1.59.02-2,0-.88-.02-1.75-.04-2.63-.06-1.75-.04-3.5-.09-5.25-.13-.88-.02-1.75-.04-2.63-.07s-1.74-.12-2.59.09c-1.06.27-1.02,1.82,0,2.11.74.21,1.5.16,2.26.16.88,0,1.75,0,2.63.01,1.64,0,3.28.02,4.92.03s3.28.06,4.92.03c1.28-.02,2.23-.63,2.48-1.94.28-1.49.35-3.06.44-4.57s.28-3.06.05-4.51c-.21-1.28-1.19-1.91-2.4-2.07-1.48-.2-3.01-.2-4.5-.16-3.52.07-7,.58-10.39,1.55-.84.24-.48,1.47.36,1.3h0Z"/>
    <path class="cls-1" d="M78.63,15c-.07.64.18,1.29.34,1.9s.32,1.17.49,1.75c.37,1.19.74,2.37,1.11,3.56l.55,1.73c.18.56.33,1.1.78,1.5.56.5,1.46.54,2,0,.52-.52.46-1.26.02-1.79-.56-.67-1.61-.09-1.63.67v.09c.04-.17.09-.33.13-.5l-.04.08.37-.37c.27-.08.54,0,.79.24.04.07.03.04-.02-.09-.03-.17-.13-.38-.19-.54l-.44-1.27c-.29-.84-.59-1.69-.89-2.53s-.59-1.69-.93-2.52-.57-1.79-1.18-2.43c-.48-.51-1.2-.07-1.27.52h0Z"/>
    <path class="cls-1" d="M89.58,19.07c.61-3.62.52-7.39.73-11.06.03-.45.05-.91.08-1.36,0-.09.05-.68.04-.68l-.28.27c-.4.26-.38.34.05.25.84.13,1.84-.08,2.69-.09,1.85-.02,3.71.02,5.56.14s3.66.21,5.43.57c.68.14,1.07.37,1.21,1.07.12.64.02,1.32-.03,1.96-.16,1.81-.36,3.62-.61,5.42-.12.87-.26,1.74-.4,2.61-.02.1-.06.57-.09.6-.23.2-1.03.06-1.3.06-2.02-.02-4.05-.11-6.06-.27-1.07-.08-2.13-.19-3.19-.32s-2.11-.36-3.18-.24c-.84.1-1.52,1.42-.5,1.85,1.98.84,4.4.8,6.53.94,2.24.16,4.49.23,6.74.21.8,0,1.64-.03,2.31-.53.79-.6.89-1.61,1.06-2.52.4-2.15.71-4.33.96-6.5.2-1.67.56-3.65-.41-5.16-1.11-1.71-3.45-1.69-5.26-1.89-2.23-.25-4.48-.39-6.72-.39-1.12,0-2.25.04-3.37.1-.87.05-2.16-.09-2.84.56-.74.7-.5,2.1-.51,3-.02,1.25-.03,2.5-.04,3.75-.01,2.55-.09,5.13.31,7.65.09.55,1.02.55,1.11,0h0Z"/>
    <path class="cls-1" d="M113.18,21.94c.39-5.36.8-10.72,1.09-16.09l-1.59.91c2.3,1.46,4.36,3.33,5.99,5.51.81,1.09,1.52,2.25,2.13,3.47.54,1.09.84,2.75,2.02,3.34s2.33-.07,2.63-1.27c.42-1.68.56-3.49.83-5.2.26-1.61.51-3.22.77-4.83.23-1.43.23-3.21.96-4.5.63-1.12-.76-2.01-1.67-1.29-1.03.82-1.05,2.3-1.24,3.5-.24,1.55-.48,3.1-.73,4.65s-.46,2.97-.7,4.46c-.12.74-.23,1.49-.35,2.23-.03.19-.06.39-.1.58l.55-.46c.04-.19-.34-.79-.42-.98-1.96-4.6-5.35-8.46-9.62-11.03-.7-.42-1.57.13-1.59.91-.12,5.36-.12,10.72-.14,16.09,0,.75,1.1.73,1.16,0h0Z"/>
    <path class="cls-1" d="M153.61,1.22c-3.46-1.52-7.77-1.45-11.4-.7-1.81.37-3.28.85-3.99,2.69s-1.21,3.89-1.59,5.88-.62,3.96-.74,5.95c-.09,1.5.06,3.35,1.62,4.06.87.4,1.78.16,2.66-.05,1.05-.25,2.1-.49,3.16-.74,2.1-.49,4.21-.98,6.31-1.47,1.19-.28,2.4-.5,3.57-.84.92-.26,1.74-.75,2.08-1.69.36-.99.13-2.15.03-3.17-.12-1.18-.27-2.35-.45-3.52-.1-.64-.95-1.06-1.53-.87-2.58.86-5.2,1.49-7.91.77-.78-.21-1.49.84-.83,1.42,1.32,1.15,2.73,1.5,4.47,1.36s3.32-.62,4.93-1.15l-1.53-.87c.23,1.55.49,3.15.5,4.72,0,.67-.41.6-1.01.74-.89.21-1.77.41-2.66.62-3.32.77-6.65,1.56-9.97,2.32-.59.13-.77.35-.93-.17-.19-.6-.07-1.34-.04-1.96.09-1.62.26-3.24.54-4.84s.67-3.18,1.09-4.75c.15-.54.23-1.39.68-1.79.49-.44,1.46-.56,2.08-.72,1.75-.43,3.52-.61,5.32-.63s3.49.3,5.25.5c.57.06.83-.87.3-1.11h0Z"/>
    <path class="cls-1" d="M1.6,38.34c1.9.25,3.92,0,5.83-.12l2.86-.19c.99-.06,2.01-.08,2.97-.33.27-.07.54-.31.59-.59.03-.16.05-.3,0-.45-.13-.39-.42-.58-.82-.62-.98-.1-1.99.04-2.97.12l-2.86.23c-1.9.15-3.92.21-5.76.73-.72.21-.49,1.13.16,1.21h0Z"/>
    <path class="cls-1" d="M6.72,38.61c-.31,2.46-.26,4.96-.4,7.43-.07,1.19-.14,2.38-.23,3.57s-.55,2.63.2,3.58c.28.36.84.25,1.13,0,.5-.44.51-1.04.55-1.66s.09-1.28.13-1.92c.08-1.24.13-2.47.15-3.71.05-2.48.11-5-.33-7.45-.13-.74-1.12-.45-1.2.16h0Z"/>
    <path class="cls-1" d="M1.4,54.33c.21.43.72.5,1.14.58.49.09,1.01.16,1.51.2,1.15.1,2.31.1,3.47.05s2.25-.19,3.36-.38,2.26-.45,3.11-1.18c.32-.28.17-.94-.27-1.01-1.08-.17-2.18.13-3.24.33s-2.04.35-3.07.48-2.08.2-3.13.23c-.52.01-1.04.02-1.57.05-.43.02-.98-.01-1.28.36-.07.09-.08.17-.04.27h0Z"/>
    <path class="cls-1" d="M19.96,54.56c-.31-2.76.53-5.5,1.21-8.14.34-1.33.65-2.68.79-4.05.07-.69.07-1.37.03-2.06-.02-.35-.22-1.25.12-1.49l-1.26-.33c1.53,2.77,2.99,5.57,4.5,8.34.76,1.39,1.52,2.77,2.27,4.16.5.91,1.15,2.94,2.47,2.84s1.32-1.85,1.52-2.8c.32-1.57.63-3.15.89-4.73.23-1.44.43-2.89.61-4.34.09-.8.18-1.6.25-2.4.03-.34.06-.69.09-1.03.02-.23.04-.46.05-.69.14-.44-.02-.5-.48-.17l-.58-.45.1.14-.1-.75.83-.46.67.67-.04-.11c-.45-1.12-2.25-.69-1.85.51.64,1.91,3.33.1,1.93-1.19-.57-.52-1.49-.4-1.97.17-.61.71-.47,1.97-.54,2.84-.18,2.26-.45,4.51-.79,6.75-.18,1.13-.37,2.26-.59,3.39-.1.51-.2,1.01-.31,1.52-.06.28-.13.56-.19.84l-.08.33c-.19.47-.07.47.37.02l.68.28c-.45-.38-.72-1.2-1-1.71-.34-.62-.67-1.23-1.01-1.85-.67-1.23-1.35-2.46-2.02-3.69-1.35-2.46-2.75-4.9-4.09-7.36-.22-.41-.87-.62-1.26-.33-1.18.84-1.09,2.07-1.03,3.38.07,1.66-.26,3.28-.65,4.88-.76,3.06-1.72,6.12-.64,9.22.19.56,1.18.52,1.1-.15h0Z"/>
    <path class="cls-1" d="M39.71,36.89c-.5.24-.55.76-.59,1.26-.05.68-.05,1.38-.08,2.06-.06,1.33-.14,2.65-.24,3.98-.21,2.7-.58,5.39-1.08,8.05h2.05c-.25-.61-.73-1.55-1.56-1.29s-.7,1.25-.49,1.86c.32.89,1.85,1.12,2.05,0,.53-2.95.88-5.92,1.04-8.91.08-1.48.09-2.94.04-4.42-.02-.53.06-3.17-1.13-2.59h0Z"/>
    <path class="cls-1" d="M40.91,37.79c1.45.18,2.98,0,4.45,0,.71,0,1.43,0,2.14.03.31.01.68-.02.99.04.42.08.41.13.49.56.56,2.76.72,5.66.68,8.47-.01.85.28,2.84-.64,3.3-.6.3-1.43.38-2.08.53s-1.28.29-1.93.42c-1.4.29-2.8.56-4.2.8-1.51.26-3.06.39-4.55.7-1.34.29-1.07,2.54.33,2.42,2.75-.22,5.54-.96,8.22-1.61,1.33-.32,2.65-.67,3.97-1.03,1.07-.29,2.06-.68,2.52-1.77s.37-2.33.37-3.45c0-1.41-.05-2.82-.18-4.22-.12-1.32-.29-2.65-.51-3.96-.17-1-.26-2.25-1.28-2.76-.61-.31-1.38-.26-2.04-.27-.77-.02-1.54-.02-2.31,0-1.51.04-3.17.03-4.62.48-.75.23-.53,1.2.17,1.29h0Z"/>
    <path class="cls-1" d="M53.57,36.96c1.94.1,3.88.04,5.82.08.94.02,1.88,0,2.82.03s2.14.34,2.87-.28c.29-.24.24-.73,0-.98-.38-.39-.84-.39-1.36-.4s-1.01-.01-1.52,0c-.98,0-1.95.03-2.92.13-1.95.2-3.89.5-5.75,1.14-.17.06-.14.3.04.31h0Z"/>
    <path class="cls-1" d="M54.98,36.35c-.6,1.14-.76,2.58-1.05,3.83-.32,1.39-.65,2.79-.96,4.18-.61,2.74-1.18,5.5-1.77,8.24-.14.64.28,1.18.93,1.22,3.7.24,7.43.19,11.12-.25,1.28-.15,1.31-2.17,0-2.03-3.7.4-7.4.55-11.12.36l.93,1.22c.55-2.76,1.13-5.51,1.66-8.27.26-1.36.51-2.72.76-4.07s.72-2.78.62-4.11c-.04-.55-.82-.87-1.12-.3h0Z"/>
    <path class="cls-1" d="M55.6,45.15c.63.06,1.31-.09,1.94-.15.67-.07,1.35-.12,2.02-.16s1.3-.07,1.95-.09c.75-.02,1.53.07,2.19-.35.57-.35.62-1.24,0-1.58-.39-.22-.77-.3-1.21-.28-.35.01-.7.05-1.05.09-.68.06-1.35.14-2.03.22-.71.09-1.42.19-2.12.31s-1.43.21-2.09.51c-.32.14-.45.59-.37.9.1.36.42.55.77.59h0Z"/>
    <path class="cls-1" d="M69.03,36.96c-.55.4-.73.82-.82,1.49-.15,1.18-.16,2.4-.19,3.59-.07,2.29-.09,4.58-.13,6.87s-.06,4.58-.08,6.87c0,1.14-.02,2.29-.02,3.43,0,1.21-.19,2.53.16,3.69.28.93,1.59.92,1.87,0,.31-1.01.19-2.15.19-3.2,0-.98,0-1.96,0-2.94,0-2.13,0-4.25-.01-6.37s-.02-4.25-.04-6.37c-.01-.98-.03-1.96-.06-2.94-.03-.88-.42-2.44.01-3.22.29-.52-.33-1.28-.88-.88h0Z"/>
    <path class="cls-1" d="M68.81,38.79c1.91.44,3.84.59,5.79.7.98.06,1.97.12,2.95.17.06,0,.61.05.62.02l-.2-.2c-.15-.25-.22-.29-.21-.12-.03.05-.02.25-.02.31-.03.53-.07,1.06-.11,1.59-.06.95-.13,1.89-.19,2.84-.05.73.05,1.73-.29,2.41-.29.56-1.07.83-1.63,1.04-.8.3-1.65.55-2.5.66-.98.13-1.94.07-2.92,0-1.03-.08-2.03.16-2.51,1.17-.33.7.23,1.77,1.11,1.45.66-.24,1.59-.07,2.34-.08,1.04,0,2.08-.15,3.1-.36s2.06-.57,3.02-1.02c.82-.38,1.61-.95,2.03-1.77.49-.97.47-2.1.52-3.16.06-1.13.11-2.27.17-3.4.05-.97.36-2.28-.42-3.04s-2.19-.52-3.17-.51c-2.51.02-5.01,0-7.49.44-.44.08-.42.78,0,.87h0Z"/>
    <path class="cls-1" d="M91.12,36.12c-1.92-.44-3.75-.52-5.71-.57-.49-.01-.97.36-1.09.83-.64,2.45-.86,5.08-1.11,7.6s-.4,5.23-.44,7.85c-.02,1.08-.26,2.5.9,3.08.57.28,1.28.19,1.89.18s1.24-.04,1.85-.07c1.29-.07,2.58-.18,3.86-.33s2.74-.23,3.99-.67,1.12-2.42-.32-2.39c-1.77.03-3.57.5-5.34.66s-3.55.37-5.28.25l.64.17.19.18.17.64c-.2-2.76.05-5.63.27-8.38s.73-5.64.95-8.46l-.83,1.09c1.68-.34,3.52-.35,5.22-.31.76.02.94-1.16.18-1.34h0Z"/>
    <path class="cls-1" d="M84.13,46.42c.57.08,1.13.16,1.7.16s1.16-.03,1.74-.08c.61-.05,1.21-.12,1.82-.22s1.44-.16,1.87-.68c.47-.56.3-1.35-.42-1.59-.64-.22-1.32.13-1.93.3-.52.15-1.05.3-1.57.43s-1.05.26-1.58.36-1.08.25-1.62.38c-.44.11-.49.86,0,.93h0Z"/>
    <path class="cls-1" d="M101.95,53.6c.18-2.34.31-4.68.39-7.03s0-4.69.13-7.03l-2.01.83c3.72,3.73,4.14,9.87,8.93,12.69.79.46,1.75.02,2.01-.82.85-2.69.82-5.67,1.04-8.46.11-1.47.23-2.95.34-4.42s.42-3,.26-4.42l-1.66,1.26.24.1c.49.21,1.25-.23,1.33-.75l.04-.26c.23-1.62-2.07-2.37-2.52-.7-.37,1.39-.32,2.97-.43,4.4s-.21,2.83-.32,4.24c-.21,2.74-.16,5.64-.96,8.29l2.01-.82c-2.16-1.23-3.27-3.51-4.34-5.66-1.13-2.28-2.28-4.71-4.31-6.33-.73-.58-2.06-.28-2.01.83.12,2.34.01,4.69.08,7.03s.17,4.69.33,7.03c.06.92,1.35.91,1.42,0h0Z"/>
    <path class="cls-1" d="M119.09,33.73c-.27,1.31-.16,2.72-.18,4.05s-.06,2.78-.14,4.17c-.16,2.78-.49,5.53-.76,8.3l2.18-.9c-.18-.16-.22-.03-.11-.2.52-.81-.5-1.76-1.29-1.29-1.17.68-1.38,2.36-.4,3.3.63.6,1.98.43,2.14-.56.44-2.79.6-5.66.63-8.48.01-1.39,0-2.78-.06-4.17s-.03-2.91-.46-4.21c-.23-.7-1.37-.82-1.54,0h0Z"/>
    <path class="cls-1" d="M119.74,35.77c2.53-.51,5.18-.25,7.59.69.13.05.59.19.68.32.06.08,0,.64,0,.78.02.7.04,1.41.06,2.11.04,1.46.08,2.93.12,4.39s.15,2.84.13,4.25c0,.4-.01.81-.33,1.1-.41.37-1.14.54-1.66.69-1.17.35-2.35.53-3.57.53-1.33,0-2.54-.32-3.84-.58-1.68-.34-2.25,1.91-.7,2.53,2.3.92,5.16.77,7.54.27,1.13-.24,2.39-.59,3.38-1.21,1.06-.68,1.56-1.7,1.65-2.94.09-1.31-.07-2.67-.12-3.98-.06-1.46-.13-2.93-.2-4.39-.06-1.31.06-2.79-.24-4.07s-1.47-1.7-2.58-2.05c-2.7-.85-5.64-.76-8.33.06-.97.3-.57,1.7.42,1.51h0Z"/>
    <path class="cls-1" d="M143.04,32.53c-2.43-.47-4.81-.48-7.23.04-.48.1-.74.57-.77,1.02-.2,2.4-.11,4.83-.12,7.23s-.03,4.83.04,7.23c.03,1.04.31,2.05,1.3,2.58s2.05.25,3.05.08c1.12-.19,2.23-.38,3.35-.57,1.19-.2,2.52-.26,3.57-.89.82-.49.74-1.93-.28-2.14s-2.04.03-3.07.2c-.96.16-1.91.32-2.87.49-.53.09-1.06.18-1.59.27-.18.03-.73.02-.88.11.19-.11.1.51.17,0,.03-.19-.01-.42-.02-.61l-.04-1.64c-.1-4.09-.03-8.26-.49-12.33l-.77,1.02c2.07-.86,4.31-1.27,6.54-1.09.56.05.69-.88.13-.98h0Z"/>
    <path class="cls-1" d="M135.26,43.54c1.59.02,3.18-.11,4.75-.36.74-.12,1.47-.27,2.2-.45.96-.24,2.31-.53,2.27-1.79-.03-.91-.88-1.41-1.72-1.26-.23.04-.4.11-.63.21-.09.04-.18.08-.27.12-.15.07-.18.08-.08.04-.69.29-1.4.55-2.11.77-1.43.45-2.91.79-4.41.97-.47.06-.88.36-.88.88,0,.48.4.87.88.88h0Z"/>
    <path class="cls-1" d="M152.81,49.94c.24-5.49.73-11.04,1.85-16.43l-2.59.34c1.39,2.7,3.35,5.22,5.09,7.72s3.59,5.01,5.45,7.47c.65.85,2.07,1.13,2.66,0,1.6-3.08,1.32-6.98,1.54-10.35.2-3.18.96-7.35-1.23-10.03-.67-.82-2.29-.17-2.17.9.15,1.42.48,2.77.51,4.2.03,1.57-.11,3.15-.21,4.72s-.2,3.23-.29,4.84c-.09,1.41-.14,2.87-.81,4.16h2.66c-1.91-2.5-3.77-5.04-5.6-7.61s-3.42-5.3-5.37-7.74c-.64-.79-2.21-.38-2.37.63-.91,5.73-1.36,11.39-.91,17.18.09,1.14,1.75,1.17,1.8,0h0Z"/>
    <path class="cls-1" d="M170.37,30.36c1.76.39,3.69.29,5.49.35s3.59.11,5.39.15c3.63.08,7.38.36,11,.09,1.82-.13,1.83-2.72,0-2.84-3.63-.24-7.36-.01-11-.04-1.8-.01-3.59-.03-5.39-.06s-3.7-.22-5.49.05c-1.18.18-1.1,2.06,0,2.3h0Z"/>
    <path class="cls-1" d="M181.04,29.25c-.12,2.16.17,4.3.39,6.45s.43,4.3.65,6.45l2.28-.94c-.21-.26-.43-.46-.68-.68-.81-.75-2,0-1.79,1.04.07.33.12.63.23.94.61,1.62,2.86.99,2.58-.71-.35-2.13-.71-4.26-1.06-6.39s-.62-4.27-1.3-6.32c-.24-.72-1.26-.58-1.3.18h0Z"/>
    <path class="cls-2" d="M29.95,73.1c-.02,1.93.12,3.88.2,5.81l.06,1.48c.01.32-.03.71.11,1,.3.64,1.37.53,1.95.6,3.78.45,7.59.82,11.4.45.28-.03.62-.24.58-.58-.23-2.06-.51-4.11-.85-6.15-.17-1.03-.36-2.07-.56-3.09-.15-.76-.2-1.74-.79-2.32-.5-.49-1.23-.59-1.9-.57-.99.02-1.99.16-2.97.27-2.07.23-4.12.54-6.17.92l.77,1.33c.11-.11.22-.22.33-.33.44-.47,0-1.42-.68-1.16-.14.05-.28.11-.42.17-.92.39-.61,1.76.42,1.53,1.73-.38,3.47-.7,5.22-.97.89-.14,1.79-.26,2.69-.37.52-.06,1.58-.33,1.92.22.19.31.21.8.29,1.15.09.43.18.87.27,1.3.18.87.34,1.74.49,2.61.32,1.82.57,3.64.78,5.47l.58-.58c-3.4.34-6.81.09-10.19-.28-.4-.04-.81-.09-1.21-.14-.2-.02-.4-.05-.6-.07-.18-.02-.54-.09-.32.21-.06-.08-.03-.64-.03-.74l-.03-.62-.06-1.24c-.08-1.77-.11-3.55-.28-5.31-.06-.63-.99-.66-1,0h0Z"/>
    <path class="cls-2" d="M49.17,82.45c-.21-1.67-.66-3.32-.94-4.98s-.51-3.46-.67-5.2l-1.16.48c3.06,3.07,6.31,5.95,9.68,8.67.35.29.92.31,1.17-.15.5-.93.25-1.92.01-2.9-.27-1.11-.6-2.21-.91-3.31s-.61-2.19-.83-3.31c-.1-.52-.19-1.05-.24-1.58-.05-.47-.18-1.14-.08-1.61l-.5.5.06-.02-.52-.07.06.03-.32-.56v.05c-.06.47.56.78.93.54l.04-.03c.27-.18.34-.43.3-.73-.03-.24-.19-.39-.38-.52-.22-.15-.5-.11-.72,0-.89.44-.48,2.08-.38,2.86.15,1.16.4,2.29.7,3.42s.64,2.2.95,3.3c.16.55.31,1.1.44,1.65.11.46.34,1.07.1,1.52l1.17-.15c-3.39-2.7-6.64-5.58-9.78-8.58-.38-.37-1.23-.14-1.16.48.2,1.73.45,3.46.78,5.17s.64,3.51,1.29,5.13c.17.42.96.43.89-.12h0Z"/>
    <path class="cls-2" d="M66.48,76.57c.83.78,1.24,1.85,1.52,2.93.31,1.19.58,2.38.95,3.55.79,2.49,1.86,4.9,3.18,7.15.27.46.54,1.03,1.1,1.18.5.13,1-.14,1.25-.57.3-.49.29-1.1.35-1.65.08-.72.19-1.45.31-2.17.23-1.37.53-2.74.88-4.08.17-.65.36-1.3.56-1.95.04-.11.3-.76.26-.8l-.3.07.09.1c.02.14.19.35.25.5,1.25,3.04,2.34,6.16,3.5,9.24.26.68,1.03.75,1.46.19,1.53-1.99,1.66-4.7,2.06-7.09.22-1.32.47-2.64.78-3.94.15-.63.32-1.26.52-1.87.1-.33.21-.65.33-.98.06-.18.13-.36.2-.54.02-.06.04-.12.07-.17.06-.12.03-.09-.09.08h-.83l.07.04-.37-.49v-.27c.24-.19.49-.39.75-.58h-.06c-.95-.08-.95,1.22-.21,1.52l.06.02c.23.09.61,0,.77-.2.41-.51.38-1.36-.36-1.55-.87-.23-1.24.6-1.48,1.25-.58,1.58-.99,3.21-1.31,4.86s-.55,3.29-.81,4.94c-.23,1.47-.53,2.94-1.44,4.16l1.46.19c-1.09-2.8-2.16-5.61-3.24-8.42-.36-.95-.82-2.64-2.16-2.51s-1.48,2.02-1.75,2.99c-.39,1.38-.71,2.78-.96,4.19-.12.69-.23,1.39-.32,2.09-.04.32-.08.63-.12.95-.02.2-.04.4-.06.59,0,.09-.11.45-.08.5l-.02.05c.44.05.57-.03.41-.22-.02-.14-.22-.36-.29-.48-.15-.26-.3-.52-.45-.78-.35-.62-.67-1.26-.98-1.9-.61-1.26-1.14-2.57-1.59-3.89s-.74-2.67-1.19-3.99c-.41-1.19-.97-2.28-2.07-2.96-.45-.28-.95.37-.56.73h0Z"/>
    <path class="cls-2" d="M97.86,75.87c-2.3-.54-4.68-.58-7.01-.25-1.01.14-2.07.35-2.66,1.26-.53.82-.46,1.83-.34,2.75.31,2.44.68,4.88,1.02,7.32.13.94.11,2.15.91,2.82.93.77,2.18.03,3.13-.32,1.23-.45,2.49-.87,3.69-1.39,1.02-.44,1.26-1.91.09-2.33-.66-.24-1.2.72-.68,1.18.23-.54.21-.72-.06-.52-.1.05-.21.1-.31.13-.23.09-.46.17-.68.26-.53.2-1.07.4-1.6.61s-1.06.41-1.59.62c-.23.09-.68.17-.86.33l-.14.04c.13.07.15.06.08-.05-.44-2.17-.73-4.39-1.07-6.58-.16-1.04-.44-2.12-.47-3.18-.02-.41,0-.87.35-1.16s.91-.36,1.34-.44c2.23-.43,4.51-.4,6.76-.17.53.05.64-.81.13-.93h0Z"/>
    <path class="cls-2" d="M88.67,83.1l-.04-.04.06.49c-.12.11-.13.12-.04.05.03,0,.07,0,.1,0,.13-.03.28-.03.42-.05.34-.04.67-.11,1.01-.16.66-.11,1.31-.23,1.96-.35s1.31-.24,1.96-.36c.33-.06.65-.12.98-.18.43-.08.71-.16.97-.54.23-.33.05-.8-.26-1-.44-.27-.88-.1-1.35,0-.39.09-.78.19-1.17.28-.78.19-1.56.38-2.34.57s-1.52.36-2.26.6c-.33.11-.63.25-.75.61-.09.28.02.55.28.68.39.2.8-.29.47-.61h0Z"/>
    <path class="cls-2" d="M103.76,74.17c.67,3.76-1.04,7.38-2.17,10.87-.2.63-.47,1.45.1,1.99.65.61,1.61.07,2.31-.16.93-.3,1.86-.61,2.79-.91.82-.27,1.97-.45,2.56-1.12.31-.35.23-1.01-.29-1.11-.85-.17-1.69.26-2.49.53s-1.54.54-2.31.8c-.42.15-.85.29-1.27.44-.08.03-.55.12-.58.2.31.48.49.6.53.35.02-.09.04-.18.07-.26.22-.78.49-1.56.74-2.33,1.02-3.08,1.96-6.34.97-9.55-.19-.62-1.07-.36-.96.26h0Z"/>
    <path class="cls-2" d="M120.74,71.67c-2.26.35-4.53.7-6.78,1.08-.99.17-2.05.25-3.01.53s-1.27,1.03-1.35,1.98c-.31,4.06.45,8.42,2.27,12.08l1.18-1.18c-.22-.12-.44-.23-.66-.34-.56-.3-1.26.32-.9.9.13.21.25.42.38.62.62.95,1.91.13,1.49-.87-1.44-3.38-2.26-6.85-2.19-10.54,0-.24-.1-.92.05-1.11s.99-.25,1.21-.3c.96-.2,1.92-.39,2.87-.59,1.92-.39,3.83-.8,5.74-1.19.71-.15.4-1.18-.29-1.07h0Z"/>
    <path class="cls-2" d="M110.75,82.04c2.07-1.26,4.36-1.97,6.63-2.76.75-.26.46-1.38-.33-1.2-2.44.57-4.64,1.89-6.72,3.24-.44.29-.04.99.42.72h0Z"/>
    <path class="cls-2" d="M122.88,85.18c.66-3.92,1.29-7.95,2.91-11.61.18-.4.37-.8.57-1.19.12-.23.24-.46.37-.68.01-.02.14-.21.14-.23l-.4-.1.05.08c-.04.14.22.54.28.69.08.2.16.39.25.59.2.45.41.9.63,1.35.85,1.72,1.83,3.37,2.92,4.94.61.87,1.26,1.72,1.95,2.54s1.39,1.75,2.27,2.37l.41-1.5c-.1-.02-.2-.04-.3-.07-.77-.19-1.17.82-.53,1.26.09.05.18.12.26.19.65.57,1.81-.17,1.27-.98-.59-.87-1.42-1.6-2.09-2.41s-1.33-1.66-1.94-2.53c-1.22-1.74-2.3-3.59-3.21-5.51-.36-.76-.65-2.05-1.52-2.38-1.03-.39-1.61.66-1.99,1.42-.98,1.97-1.65,4.07-2.14,6.21-.56,2.44-.86,4.92-1.16,7.4-.07.58.92.72,1.02.14h0Z"/>
    <path class="cls-2" d="M120.06,82.31c1.97-.84,3.96-1.66,6-2.32.99-.32,2-.62,3.01-.88s2.19-.31,2.96-1c.37-.33.15-.94-.28-1.06-.99-.29-2.15.24-3.11.53-1.07.32-2.13.68-3.17,1.09-2.04.8-4.02,1.7-5.89,2.83-.53.33-.07,1.05.48.82h0Z"/>
    <path class="cls-2" d="M132.82,70.66c.11-.31.24-.45.54-.57l-.78-.44c.62,2.21,1.63,4.35,2.55,6.46s1.88,4.28,2.93,6.35l1.38-1.06c-.51-.44-1.01-.86-1.56-1.25s-1.21.35-.88.88c.36.57.78,1.08,1.19,1.61.65.83,1.79-.23,1.38-1.06-1-2.06-2.04-4.1-3-6.18s-1.77-4.23-2.84-6.23c-.2-.38-.7-.39-1-.13-.38.34-.68.89-.78,1.39-.12.56.67.78.86.24h0Z"/>
    <path class="cls-2" d="M132.49,72.41c-.23-1.04,1.1-1.52,1.84-1.85.88-.39,1.78-.73,2.7-1.02,1.8-.57,3.66-.95,5.54-1.12.93-.09,1.87-.12,2.81-.1.43,0,.91-.02,1.34.07.03,0,.18.07.2.06.02,0,.05-.2-.01-.19-.09,0-.42.45-.5.52-1.34,1.26-3.17,2.13-4.79,2.97-1.96,1.01-3.97,1.92-5.98,2.83-.63.28-.47,1.37.2,1.5.76.14,1.4.08,2.11-.22.84-.36.24-1.71-.62-1.46-.35.1-.69.17-1.06.1l.2,1.5c2.25-1.03,4.51-2.05,6.68-3.23,1.07-.58,2.13-1.18,3.13-1.87.78-.54,1.91-1.3,2.17-2.26.63-2.38-3.8-1.83-4.98-1.74-2.39.18-4.74.68-6.99,1.51-1.2.44-2.45.94-3.53,1.63-.88.57-1.55,1.51-1.23,2.6.15.49.88.29.77-.21h0Z"/>
    <path class="cls-2" d="M137.61,75.61c4.19,1.38,8.42,2.64,12.58,4.12l.49-1.77c-.43-.12-.85-.19-1.29-.16-.76.04-.92.92-.36,1.35.36.27.74.44,1.17.58,1.12.38,1.62-1.42.49-1.77-4.21-1.29-8.45-2.57-12.76-3.48-.74-.16-1.03.89-.31,1.13h0Z"/>
    <path class="cls-2" d="M154.52,68.05c1.74-.75,3.52-1.46,5.31-2.09s3.61-1.13,5.43-1.69l-.44-1.61c-.6.24-1.17.54-1.73.87-.62.36-.17,1.17.45,1.08.57-.08,1.16-.17,1.72-.34,1.03-.3.6-1.88-.44-1.61-1.89.48-3.76,1.18-5.58,1.89s-3.61,1.5-5.36,2.39c-.75.38-.09,1.43.65,1.11h0Z"/>
    <path class="cls-2" d="M153.26,66.7c-.13.04-.26.06-.4.08-.27.05-.46.4-.37.66.58,1.61,1.12,3.16,1.34,4.87s.23,3.44.23,5.16c0,1.02,1.35,1.09,1.68.23.3-.79.42-1.61.38-2.45h-1.52c.02,1.31,1.75,1.17,2.67,1.15,1.29-.04,2.58-.3,3.83-.62s2.48-.68,3.71-1.06,2.69-.66,3.85-1.31l-.98-.98-.17.23c-.36.38,0,.99.51.87l.28-.03c.94.02.9-1.52,0-1.43-1.1.12-2.17.56-3.22.89s-2.01.62-3.01.91-1.99.59-3,.8c-.55.12-1.11.2-1.68.24-.32.02-1.3.16-1.5-.08l.22.53v-.13c.04-.84-1.36-1.06-1.48-.2-.1.75-.29,1.48-.54,2.2l1.68.23c-.05-1.87-.12-3.74-.43-5.58-.29-1.73-.82-3.6-1.96-4.97l-.11.84.25-.1c.59-.22.37-1.11-.26-.96h0Z"/>
    <path class="cls-2" d="M151.67,74.31c3.62-1.3,7.31-2.41,10.87-3.88.68-.28.43-1.38-.32-1.15-3.67,1.16-7.22,2.68-10.84,4-.63.23-.36,1.25.28,1.02h0Z"/>
    <path class="cls-2" d="M19.01,82.48c-3.9-1.29-7.72-2.77-11.14-5.1-1.46-1-2.87-2.2-3.81-3.72-.81-1.31-1.66-3.52-.57-4.92.96-1.23,2.97-.98,3.54.48.65,1.66-.8,2.7-2.07,3.42-1.52.85-2.88,1.72-3.83,3.23s-1.4,3.43-.97,5.14c.55,2.2,2.92,2.97,4.92,3.29,2.33.37,4.67.16,6.77-.94.67-.35.21-1.4-.51-1.21-2.1.57-4.33.88-6.48.43-.89-.19-2-.43-2.66-1.1s-.66-1.8-.51-2.69c.33-1.89,1.5-3.36,3.13-4.31,1.45-.84,3.1-1.6,3.71-3.3.56-1.57-.17-3.52-1.63-4.33s-3.54-.39-4.59.97c-1.2,1.56-.86,3.74-.12,5.43s2.04,3.13,3.48,4.29c1.79,1.43,3.83,2.54,5.9,3.5,2.27,1.06,4.69,1.99,7.15,2.52.71.15.99-.86.3-1.09h0Z"/>
  </g>
</svg>