<?xml version="1.0" encoding="UTF-8"?>
<svg id="Layer_2" data-name="Layer 2" xmlns="http://www.w3.org/2000/svg" viewBox="0 0 79.37 161.83">
  <defs>
    <style>
      .cls-1 {
        fill: #231f20;
        stroke-width: 0px;
      }
    </style>
  </defs>
  <g id="Layer_2-2" data-name="Layer 2">
    <path class="cls-1" d="M65.74,92.49c0-2.18.04-4.34-.19-6.51-.23-2.2-.6-4.38-.74-6.58-.25-4.07-.01-8.2-.87-12.21-.84-3.93-3.26-7.03-4.95-10.6-1.51-3.21-3.18-5.93-6.42-7.6-2.94-1.51-6.17-2.12-9.45-2.15-4.36-.04-8.72.17-13.05.66-4.27.49-8.27,1.44-12.31,2.92-3.33,1.22-6.33,2.42-7.85,5.88-.67,1.51-.94,3.13-1.17,4.76-.26,1.86-.61,3.72-.68,5.6-.16,4.32.07,8.67,0,13-.07,4.18.96,8.11,1.48,12.23.07.56.13,1.11.19,1.67-.1.11-.19.22-.26.35-.34.58-.03,1.13.44,1.36.1.9.2,1.81.36,2.71.18,1.01.35,2.03.53,3.05.2,1.15.19,2.31.33,3.47.12.96.29,1.93.5,2.87.16.71.53,1.45.47,2.18,0,.03.01.05.01.08-.21-.34-.41-.7-.59-1.06-.39-.79-.5-1.6-.8-2.41-.26-.69-.78-1.24-1.03-1.94-.28-.8-.17-1.72-.35-2.56-.07-.32-.38-.63-.7-.7-.09-.02-.18-.04-.28-.06-1.12-.23-1.66,1.26-.88,1.78.07.67.05,1.35.25,2.01.27.9.96,1.59,1.21,2.49.47,1.69,1.16,3.18,2.24,4.58,1.11,1.45,2.46,2.5,3.86,3.66,1.52,1.26,3.02,2.5,4.59,3.7,3.09,2.36,6.03,4.78,9.81,5.93,3.6,1.1,7.36.98,11.04.39,1.86-.3,3.79-.72,5.51-1.52,1.66-.77,3.03-2.07,4.44-3.21,2.96-2.4,5.32-5.39,8.06-8,.66-.63,1.11-1.39,1.58-2.16.56-.92,1.21-1.73,1.87-2.58,1.06-1.37,1.89-2.99,2.67-4.53.82-1.62,1.31-3.17,1.27-5-.05-1.99-.11-3.97-.11-5.96ZM10.23,64.43c.45-3.14.54-6.9,2.79-9.37,1.14-1.26,2.8-1.83,4.35-2.4,1.75-.64,3.5-1.28,5.29-1.8,3.96-1.15,8.11-1.54,12.21-1.81,3.66-.24,7.59-.59,11.24-.05,2.91.43,6.07,1.5,8.17,3.64,1.21,1.23,1.97,2.84,2.7,4.37.76,1.61,1.58,3.15,2.49,4.67,1.01,1.7,1.89,3.41,2.37,5.34.48,1.93.66,3.92.74,5.9.17,3.91.3,7.73.79,11.62.22,1.73.29,3.46.31,5.18-.95-.38-1.97-.61-2.96-.83-2.01-.46-4.01-.98-6.03-1.39-1.96-.4-3.98-.73-5.98-.81-2.07-.08-4.1.4-6.17.47-2.15.07-4.3,0-6.45,0-1.81,0-3.4.32-5.16.72-1.77.4-3.51.24-5.26.87-.92.33-1.84.71-2.8.93-1.01.23-2.07.11-3.08.36-1.11.28-2.17.79-3.28,1.09-1.05.29-2.1.53-3.14.85-.55.17-1.18.3-1.79.48-.15-1.52-.35-3.05-.62-4.55-.34-1.92-.86-3.8-.92-5.76-.07-1.92.04-3.85.04-5.78,0-3.93-.4-8.06.16-11.97ZM63.3,101.5c-.65,1.52-1.52,3.03-2.4,4.43-.45.71-1.01,1.32-1.51,1.99-.62.82-1.08,1.73-1.66,2.57-.46.66-1.06,1.12-1.65,1.66-.66.61-1.18,1.36-1.8,2.01-2.44,2.61-4.98,5.23-7.95,7.25-2.92,1.99-7.21,2.47-10.65,2.51-3.53.05-6.97-.85-9.97-2.74-3.23-2.03-6.21-4.58-9.12-7.03-1.35-1.13-2.75-2.13-3.83-3.55-.04-.05-.07-.11-.11-.17.57.2,1.37-.11,1.43-.9.1-1.37-.61-2.95-.84-4.3-.32-1.89-.37-3.8-.7-5.69-.29-1.69-.57-3.36-.75-5.06.49-.17,1.11-.25,1.45-.34,1.2-.34,2.39-.67,3.59-1,1.18-.32,2.32-.88,3.51-1.16,1.01-.24,2.06-.13,3.08-.36,1.18-.27,2.27-.79,3.42-1.15,1.13-.35,2.24-.3,3.4-.43.87-.1,1.71-.35,2.56-.55,1.1-.26,2.18-.31,3.3-.31,2.45-.01,4.93.13,7.37-.06,2.53-.2,4.87-.54,7.41-.22,2.44.3,4.82.88,7.21,1.45,1.82.43,3.98.64,5.62,1.63,0,1.5,0,2.99.05,4.5.06,1.76.26,3.38-.45,5.04Z"/>
    <path class="cls-1" d="M51.62,106.93c-.25-1.84-1.38-3.39-3.41-4.01-1.99-.61-4.79-.59-6.84-.33-3.64.47-7.26.69-10.87,1.36-1.76.32-3.45.79-5.19,1.21-1.42.34-3.2.36-4.45,1.09-.01,0-.02.02-.03.02-.29.09-.54.29-.62.66-.11.52-.63.88-.78,1.41-.11.36-.1.76-.08,1.13.06,1.17.53,2.22,1.24,3.2,1.31,1.79,3.03,3.48,5.16,4.53,2.61,1.29,5.38,1.34,8.3,1.34,1.42,0,2.85.04,4.24-.22,1.49-.28,2.94-.87,4.32-1.43,4.67-1.89,9.71-4.76,9.01-9.95ZM48.57,110.65c-1.03,1.66-3.04,2.68-4.87,3.54-2.11,1-4.51,2.11-6.92,2.31-2.35.19-5.21.27-7.51-.21-2.29-.48-4.14-1.73-5.61-3.31-.81-.86-1.74-1.89-1.97-3.02-.09-.41-.14-.89.05-1.27.1-.19.22-.36.33-.52.24-.07.43-.23.55-.44.73-.23,1.62-.29,2.33-.43,1.28-.26,2.52-.65,3.8-.94,2.56-.58,5.23-1.1,7.87-1.28,2.35-.16,4.72-.57,7.07-.55,1.5.01,3.58-.21,4.79.77,1.59,1.28,1.02,3.89.12,5.35Z"/>
    <path class="cls-1" d="M30.71,109.6c-.05-.17-.13-.32-.26-.44-.07-.05-.13-.1-.2-.16-.16-.09-.32-.14-.5-.14h-.33c-.14,0-.27.02-.39.09-.12.04-.23.11-.32.21-.1.09-.17.2-.21.32-.06.12-.09.25-.09.39.01.09.02.18.04.27.05.17.13.32.26.44.07.05.13.1.2.16.16.09.32.14.5.14h.33c.14,0,.27-.02.39-.09.12-.04.23-.11.32-.21.1-.09.17-.2.21-.32.06-.12.09-.25.09-.39l-.04-.27Z"/>
    <path class="cls-1" d="M33.37,112.94c-.05-.17-.13-.32-.26-.44-.07-.05-.13-.1-.2-.16-.16-.09-.32-.14-.5-.14h-.33c-.14,0-.27.02-.39.09-.12.04-.23.11-.32.21-.1.09-.17.2-.21.32-.06.12-.09.25-.09.39l.04.27c.05.17.13.32.26.44.07.05.13.1.2.16.16.09.32.14.5.14h.33c.14,0,.27-.02.39-.09.12-.04.23-.11.32-.21.1-.09.17-.2.21-.32.06-.12.09-.25.09-.39-.01-.09-.02-.18-.04-.27Z"/>
    <path class="cls-1" d="M41.27,108.7c-.05-.07-.1-.13-.16-.2-.12-.12-.27-.21-.44-.26-.09-.01-.18-.02-.27-.04-.18,0-.35.05-.5.14-.22.11-.44.22-.67.33-.12.06-.21.15-.28.26-.09.1-.15.21-.18.34-.04.13-.05.27-.02.4,0,.13.05.26.12.37.05.07.1.13.16.2.12.12.27.21.44.26.09.01.18.02.27.04.18,0,.35-.05.5-.14.22-.11.44-.22.67-.33.12-.06.21-.15.28-.26.09-.1.15-.21.18-.34.04-.13.05-.27.02-.4,0-.13-.05-.26-.12-.37Z"/>
    <path class="cls-1" d="M35.66,107.82c-.04-.12-.11-.23-.21-.32-.09-.1-.2-.17-.32-.21-.12-.06-.25-.09-.39-.09-.09.01-.18.02-.27.04-.17.05-.32.13-.44.26-.05.07-.1.13-.16.2-.09.16-.14.32-.14.5v.33c0,.14.02.27.09.39.04.12.11.23.21.32.09.1.2.17.32.21.12.06.25.09.39.09.09-.01.18-.02.27-.04.17-.05.32-.13.44-.26.05-.07.1-.13.16-.2.09-.16.14-.32.14-.5v-.33c0-.14-.02-.27-.09-.39Z"/>
    <path class="cls-1" d="M39.04,112.27c-.05-.17-.13-.32-.26-.44-.07-.05-.13-.1-.2-.16-.16-.09-.32-.14-.5-.14h-.33c-.14,0-.27.02-.39.09-.12.04-.23.11-.32.21-.1.09-.17.2-.21.32-.06.12-.09.25-.09.39.01.09.02.18.04.27.05.17.13.32.26.44.07.05.13.1.2.16.16.09.32.14.5.14h.33c.14,0,.27-.02.39-.09.12-.04.23-.11.32-.21.1-.09.17-.2.21-.32.06-.12.09-.25.09-.39l-.04-.27Z"/>
    <path class="cls-1" d="M79.13,80.07c-.26-2.96-.09-5.99-.07-8.96.04-5.59.31-11.21.12-16.8-.17-4.91-.71-10.22-2.9-14.69-2.15-4.39-6.88-5.41-11.38-5.42-5.44-.01-10.84.32-16.25.87-.41.04-.82.1-1.23.15,0-.04.02-.07.01-.11-.15-1.92-.08-3.91-.69-5.76-.29-.89-.74-1.84-1.48-2.45-.69-.57-1.52-.69-2.39-.7-.29,0-.59-.01-.88-.03.37-1.89.38-3.8.67-5.7.13-.87.09-1.68.05-2.56-.05-1.14.28-2.16.6-3.24.21-.7.34-1.42.45-2.13.83-.02,1.56.17,2.38.29.54.08,1.07-.13,1.23-.7.08-.29-.01-.64-.21-.9.64-.15,1.27-.37,1.84-.68,1.19-.66,1.32-2.13.04-2.79-.52-.26-1.11-.32-1.67-.38-.58-.06-1.14-.16-1.72-.25-.32-.05-.64-.09-.96-.13.09-.83.1-1.67.08-2.52-.03-1.17-.19-2.46-.96-3.39-.72-.87-2.16-1.54-3.18-.75-1.13.88-.86,2.84-1.08,4.07-.16.94-.4,1.87-.63,2.8-.53.12-1.05.26-1.55.45-.6.23-1.2.49-1.75.82-.53.31-1.4.77-1.64,1.37-1.5,0-2.99.02-4.49-.07-1.52-.1-3.01-.33-4.53-.32-1.3,0-2.59.02-3.88,0-1.15-.01-2.08.25-2.79,1.19-.2.26-.18.75,0,1.01,1.02,1.48,2.85,2.1,4.56,2.38,2.33.38,4.65-.17,6.98-.2,2.18-.03,4.33-.54,6.48-.89.51-.08,1.14-.17,1.75-.34-.06,1.63,0,3.28-.06,4.89-.1,2.55-.23,5.1-.24,7.66,0,1.29,2,1.29,2,0,0-2.4.12-4.79.22-7.18.08-1.87,0-3.78.09-5.65.28.05.57.1.86.13.28.03.57.05.85.06-.05.31-.11.62-.18.92-.27,1.05-.68,2.05-.82,3.13-.12.94.06,1.84.03,2.77-.03.93-.3,1.85-.36,2.78-.07,1.03-.11,2.01-.27,3.02-.26.22-.44.54-.38.96,0,.04.01.08.02.11-.82.14-1.64.33-2.46.49-1.68.32-3.27.94-4.23,2.44-.31.48-.38,1.03-.63,1.53-.25.5-.64.91-.88,1.41-.5,1.01-.86,2.24-.4,3.33.18.42.48.73.96.73.77,0,1.27-.56,1.26-1.32,0-.36-.17-.61-.4-.77.07-.65.46-1.29.82-1.82.31-.47.54-.9.71-1.44.15-.44.33-.8.67-1.12,1.16-1.09,3.07-1.08,4.53-1.41,1.01-.23,2.02-.11,3.04-.11.91,0,1.33.18,1.76,1.03.72,1.42.75,3.09.82,4.68-.28.36-.38.89,0,1.33.05.06.08.14.11.2-1.91.24-3.81.5-5.71.75-2.91.38-5.79.31-8.72.34-5.63.06-11.17,1.04-16.72,1.85-2.78.4-5.66,1.05-8.47,1.15-1.04.04-1.23,1.33-.57,1.81-.19.03-.37.1-.53.26-.08.16-.2.25-.35.27-1.06.11-1.23,1.5-.52,1.89-.07.31-.15.62-.25.92-.43,1.28-1.04,2.48-1.47,3.76-.82,2.42-1.41,5.02-1.43,7.58-.02,2.88-.02,5.72.25,8.58.13,1.29-.06,2.38-.21,3.64-.17,1.44-.04,2.93-.04,4.38,0,3.01.16,6.04-.26,9.03-.39,2.73-.35,5.41-.45,8.16-.09,2.7.03,5.23.53,7.89.54,2.83,1.07,5.67,1.59,8.51.47,2.59,1.07,5.12,2.11,7.55,1.05,2.45,1.01,5.31,1.51,7.9.27,1.38.79,2.67,1.31,3.98.5,1.25.94,2.53,1.57,3.72.56,1.06,1.3,2.02,1.84,3.09.58,1.16,1.1,2.24,1.93,3.25,1.72,2.1,3.78,3.88,5.62,5.87,1.7,1.84,3.15,3.74,5.26,5.14,3.38,2.24,7.31,3.45,11.32,3.64.21.73.19,1.52.17,2.26-.03.94-.1,1.87,0,2.8.19,1.74.76,3.46,1.99,4.74,1.31,1.36,3.51,2.3,5.24,1.19.78-.5,1.56-1.21,2.08-1.99.48-.73.61-1.59.63-2.44.02-1.21.06-2.47-.2-3.66-.29-1.28-.91-2.46-1.16-3.75.62-.14,1.24-.29,1.84-.47,2.48-.73,4.61-2.09,6.66-3.64,2.07-1.57,3.89-3.18,5.6-5.14,1.72-1.98,3.25-4.07,4.65-6.28,2.93-4.64,5.85-9.54,7.94-14.63.52-1.28.92-2.6,1.56-3.83.65-1.25,1.47-2.39,2.19-3.6,1.34-2.27,2.09-4.84,2.81-7.36.38-1.34.77-2.68,1.08-4.04.29-1.27.33-2.53.47-3.82.13-1.28.46-2.54.61-3.82.16-1.34.24-2.68.39-4.01.33-2.96.23-5.84-.03-8.79ZM44.33,8.97c.33.04.67.08.99.13.46.07.92.13,1.38.19-.69.17-1.38.24-2.11.25-.1,0-.24.02-.4.04.04-.2.08-.41.13-.61ZM29.43,11.87c-1.89.01-3.77.5-5.66.33-.85-.08-2.03-.28-2.91-.77.62-.02,1.38.12,1.72.11,1.27-.01,2.54-.1,3.8-.02,1.53.11,3.03.2,4.55.27-.5.05-1,.08-1.5.08ZM38.27,10.2c-.27,0-.52-.01-.81-.1-.13-.04-.26-.07-.39-.11.43-.22.88-.4,1.34-.56-.05.25-.1.51-.14.76ZM41.55,4.51c.1-.66-.07-1.88.27-2.45.04.01.06.02.11.04.07.05.14.09.2.14.26.22.37.56.46.87.32,1.14.24,2.58.14,3.76-.57-.01-1.14,0-1.7.04.2-.8.4-1.6.52-2.4ZM41.13,10.5c-.26-.03-.53-.06-.8-.11-.03,0-.07-.01-.1-.02.08-.47.17-.93.28-1.4.59-.07,1.19-.11,1.79-.11-.03.12-.06.23-.09.35-.65-.07-1.28.61-1.08,1.29ZM42.35,152.89c.31.93.39,1.81.39,2.78,0,.71.11,1.52-.12,2.21-.2.6-.75,1.06-1.23,1.46-.64.54-1.13.63-1.9.3-.61-.27-1.16-.69-1.57-1.22-.8-1.03-1.12-2.4-1.17-3.69-.06-1.47.15-2.94-.1-4.37.36-.01.72-.02,1.07-.05,1.23-.1,2.48-.24,3.72-.44,0,.05-.01.1,0,.15.19.99.59,1.91.91,2.86ZM77.29,87.65c-.21,2.68-.58,5.31-.98,7.96-.18,1.15-.15,2.32-.34,3.46-.23,1.37-.66,2.72-1.03,4.06-.69,2.5-1.36,5.15-2.64,7.41-1.24,2.18-2.6,4.14-3.48,6.5-.93,2.47-2.15,4.8-3.36,7.14-2.43,4.7-5.1,9.59-8.51,13.65-1.62,1.93-3.28,3.63-5.26,5.19-2,1.59-4.13,3.18-6.6,3.95-2.92.92-6.15,1.46-9.32,1.42-.23-.12-.48-.12-.72-.03-1.6-.06-3.18-.26-4.69-.65-2.41-.63-4.77-1.75-6.77-3.25-1.95-1.46-3.35-3.54-5.04-5.27-1.79-1.82-3.95-3.56-5.31-5.74-.62-.99-1-2.11-1.62-3.1-.73-1.14-1.42-2.26-1.93-3.53-1.01-2.53-1.91-4.94-2.25-7.66-.29-2.34-.7-4.63-1.6-6.81-1.03-2.48-1.48-5.2-1.94-7.82-.46-2.63-.99-5.24-1.48-7.86-.5-2.69-.4-5.26-.34-7.98.06-2.63.18-5.13.51-7.75.35-2.75.16-5.58.16-8.35,0-1.36-.12-2.76.02-4.11.13-1.28.37-2.41.25-3.7-.48-5.24-.64-10.58,1.01-15.64.35-1.08.86-2.09,1.26-3.15.37-.99.46-2.34,1.04-3.2.33-.48.11-1-.28-1.28h.03c.05,0,.09-.02.14-.03,2.48-.13,4.98-.68,7.43-1.02,2.76-.39,5.5-.86,8.25-1.27,2.69-.41,5.52-.52,8.24-.65,2.63-.13,5.25.07,7.88-.16,5.5-.49,10.95-1.66,16.48-1.79,1.23-.03,2.41-.12,3.63-.29,1.37-.19,2.77-.11,4.15-.11,2.43,0,4.95-.11,7.33.46,4.79,1.14,6.05,6.11,6.84,10.35.99,5.31.82,10.77.7,16.14-.12,5.38-.36,10.85-.07,16.22.15,2.79.44,5.47.21,8.28Z"/>
  </g>
</svg>