<?xml version="1.0" encoding="UTF-8"?>
<svg id="Layer_2" data-name="Layer 2" xmlns="http://www.w3.org/2000/svg" viewBox="0 0 93.71 202">
  <defs>
    <style>
      .cls-1 {
        fill: none;
      }

      .cls-1, .cls-2 {
        stroke-width: 0px;
      }
    </style>
  </defs>
  <g id="Layer_1-2" data-name="Layer 1">
    <g>
      <path class="cls-2" d="M81.35,77.85c-.06-2.49-.03-4.99-.1-7.48-.13-4.43-.47-9.18-2.68-13.13-2.58-4.61-7.31-6.5-12.32-7.23-7.07-1.03-14.26-.66-21.24.75-6.78,1.38-13.3,3.77-19.48,6.85-5.1,2.54-10.09,5.57-14.08,9.69-4.34,4.48-7.04,10.15-7.36,16.41-.45,8.72,1.41,17.42,2.67,25.99.19,1.27,2.11.73,1.93-.53-1.05-7.08-2.4-14.14-2.62-21.31-.17-5.72.7-11.01,4.01-15.79,2.92-4.23,7.13-7.44,11.5-10.05,4.97-2.96,10.32-5.39,15.82-7.18,6.38-2.08,13.04-3.33,19.76-3.43,3.37-.05,6.76.18,10.09.77,2.33.41,4.64,1.14,6.56,2.57,3.29,2.44,4.57,6.48,5.08,10.38.56,4.3.36,8.67.47,13,.19,7.39.1,15.08-3.75,21.66-1.61,2.74-3.73,5.09-5.84,7.45-1.02,1.14-2.04,2.29-3,3.49-.45.56-.88,1.12-1.3,1.7-.11.15-.3.51-.51.86-.78-.54-2.04.35-1.44,1.31-.1-.16-.15.62-.09.83.13.45.55.76,1.01.78,1.35.04,2.1-1.88,2.74-2.77,1.82-2.52,4.01-4.75,6.04-7.1,2.01-2.33,3.88-4.8,5.19-7.6,1.47-3.16,2.28-6.57,2.69-10.01.43-3.62.33-7.25.24-10.88Z"/>
      <path class="cls-2" d="M29.8,121.19c-7.68-2.54-15.05-6.5-21.57-11.26-1.04-.76-2.04.97-1.01,1.73,5.95,4.35,12.61,8,19.56,10.58.04.46.35.89.95.89.61,0,1.21,0,1.81.03,1.17.05,1.3-1.62.27-1.96Z"/>
      <path class="cls-2" d="M68.42,62.52c-.13-.04-.26-.07-.39-.11.37-.27.73-.57,1.05-.9.4-.42.35-.99,0-1.41-.56-.68-1.22-1.26-1.96-1.74.06-.38-.06-.78-.47-.96-2.62-1.12-5.61-1.57-8.58-1.69-1.31-.47-2.73-.75-4.09-.9-4.4-.48-9.12.16-13.26,1.69-.88.32-1.78.7-2.62,1.16-1.62.5-3.23,1.15-4.6,2.11-.47.33-.69,1.15-.24,1.57-.65.38-.53,1.51.18,1.75-.73,0-1.46.01-2.18,0-.76,0-1.11.79-.91,1.38-.29.1-.58.21-.88.31-.64-.27-1.33-.41-2.07-.4-.8,0-1.17.82-.87,1.45-.42.15-.84.3-1.26.45-.33-.4-.95-.51-1.46-.09-.36.3-.7.6-1.05.91-.54.15-1.08.3-1.62.46,4.11-2.5,8.08-5.18,11.68-8.41.98-.88-.43-2.19-1.41-1.41-9.04,7.15-20.02,11.76-30.72,15.83-1.18.45-.74,2.24.53,1.93,1.59-.39,3.16-.82,4.74-1.27-.45.28-.9.56-1.34.85-1.08.7-.13,2.35,1.01,1.73,4.23-2.32,8.65-4.24,13.13-5.98-1.72,1.09-3.33,2.29-4.78,3.63-.47-.53-1.42-.3-1.7.41-.31.79-.58,1.59-.85,2.39-.67.9-1.27,1.85-1.77,2.88-.06-.26-.11-.52-.17-.78-.02-.1-.07-.18-.11-.26v-.98c0-1.29-2-1.29-2,0v3.54c-.66,9.29-.01,18.62,0,27.93,0,1.29,2,1.29,2,0v-2.7c.21-.06.38-.2.5-.38,1.15,3.89,2.81,7.64,4.92,11.2.57.96,2.15.33,1.83-.77-.62-2.14-1.22-4.29-1.75-6.47.56,1.09,1.17,2.14,1.87,3.15.57.82,1.8.51,1.86-.5.08-1.34.06-2.67-.02-4.01.08-.14.14-.3.15-.51.11-4.79-1.21-9.45-1.36-14.23-.03-.91-.99-1.16-1.57-.79-.17-3.14-.43-6.28-.43-9.36,0-.73-.62-1.03-1.17-.93.2-.9.35-1.8.43-2.71,1.94-.98,3.69-2.36,5.21-3.87.76-.75,1.49-1.58,2.18-2.45.16,10.95,1.75,21.83,4.1,32.52.24,1.11,1.98.85,1.96-.27-.05-2.71-.13-5.41-.21-8.12.17-.16.28-.39.24-.69-.01-.09-.03-.18-.04-.27,0,0,0,0,0,0,0-.01,0-.03,0-.04-.08-.61-.18-1.23-.27-1.84-.04-1.52-.08-3.03-.11-4.55.67,2.45,1.32,4.9,1.91,7.36.17.71.91.85,1.44.57.48,3.2,1,6.4,1.65,9.58.22,1.09,2.11.86,1.96-.27-.11-.86-.21-1.73-.31-2.59.59.47,1.53.23,1.61-.72.78-8.91-1.68-17.56-3.61-26.23.01-.2.03-.4.05-.6,4.31,13.14,4.51,27.56,8.6,40.77.33,1.07,1.94.88,1.96-.27.15-8.34-.54-16.64-1.37-24.93.7,2.42,1.54,4.79,2.57,7.1,1.36,3.06,3.13,5.97,5.56,8.31.61.58,1.73.18,1.71-.71-.34-12.58-6.44-23.84-9.6-35.81.07.08.13.16.2.24.39.61.77,1.23,1.13,1.86,1.03,2.25,2.15,4.46,3.3,6.66,3.12,7.09,5.62,14.55,10.41,20.7.6.78,2.03-.07,1.67-.97-2.98-7.55-7.24-14.57-10.96-21.8-.17-.38-.35-.76-.52-1.13,4.55,4.46,9.56,8.4,14.37,12.57.84.73,2.15-.18,1.57-1.21-3.1-5.55-5.9-11.27-9.47-16.54-.39-.58-.8-1.15-1.21-1.73,1.46-.19,2.91-.45,4.32-.81.51-.13.71-.53.7-.93,1.24.31,2.48.61,3.72.9,1.25.29,1.76-1.55.53-1.93-1.48-.46-2.94-.99-4.4-1.54,1.33-.1,2.65-.25,3.95-.51.78-.15.88-1.04.48-1.57.5-.09,1.01-.19,1.5-.31.06-.02.13-.03.19-.05,1.61.03,3.22.04,4.82,0,1.11-.03,1.37-1.65.27-1.96ZM48.47,69.54c-1.08.04-2.17.05-3.25.02-.68-.02-1.38-.05-2.09-.09-.27-.71-.52-1.43-.77-2.15,1.27-.12,2.55-.19,3.84-.22.79.77,1.54,1.58,2.26,2.43ZM33.14,95.26c-.22-1.98-.44-3.95-.64-5.93-.03-.51-.06-1.02-.1-1.53.8,3.75,1.44,7.52,1.63,11.32-.35-1.27-.65-2.56-.89-3.86ZM30.69,68.8c-.33-.64-1.03-.59-1.48-.22-.34.11-.59.41-.55.9.04.42.08.84.11,1.26-.02.86,0,1.71.04,2.56-.21-.86-.42-1.73-.66-2.59-.31-1.15-1.86-.81-1.96.27-.17,1.8-.28,3.6-.37,5.4-.5-1.99-.96-3.99-1.38-6,.09-.19.18-.38.26-.57,1.43-.77,2.87-1.52,4.31-2.27,0,0,.01,0,.02,0,.43.13.89.21,1.36.24.44.47.83,1.03,1.17,1.62-.05.3-.11.59-.16.89-.24-.5-.46-1-.72-1.5ZM60.55,59.5c-.96.24-1.95.42-2.94.56-.14-.02-.27-.05-.41-.07-1.3-1.04-2.86-1.77-4.55-2.19.14,0,.29-.02.43-.03,1.36-.07,2.82-.12,4.29-.09.24.02.49.04.73.07.96.42,1.81.99,2.45,1.76ZM41.38,58.75c-.36.16-.71.32-1.04.5-.49.07-.98.15-1.47.24.11-.06.22-.12.33-.18.72-.22,1.44-.4,2.18-.56ZM38.75,91.82c.09-2.02.1-4.04.05-6.06.81,8.12,1.72,16.24,2.05,24.39-1.2-5.73-2.02-11.58-3.02-17.37.46-.08.9-.43.92-.97ZM36.36,70.17c.4.16.8.29,1.21.41.1,1.97.23,3.93.38,5.9-.35-2.13-.83-4.28-1.59-6.31ZM63.17,61.18c.09-.14.15-.28.17-.44.75-.27,1.47-.61,2.17-.98.51.28.98.61,1.42.99-.49.38-1.02.69-1.58.95-.72-.18-1.44-.36-2.17-.52ZM16.56,108.28c.03.4.04.79.06,1.19-.52-1.01-.98-2.04-1.4-3.1.1-.45.18-.9.26-1.35.31,1.1.67,2.19,1.08,3.26ZM11.46,90.13c.04-.07.08-.14.12-.21-.47,5.11-.94,10.23,0,15.22-.28-1-.52-2.01-.72-3.03.14-3.96.13-8.02.6-11.98ZM13.81,102.43c-.17-.54-.34-1.08-.51-1.62-.05-.16-.14-.28-.24-.39-.13-2.97.08-5.97.36-8.98.1,1.78.26,3.57.48,5.33.03.2.06.4.08.6.03,1.69-.01,3.38-.17,5.05ZM18.69,75.05c-.74.76-1.57,1.51-2.47,2.2,1.27-1.69,2.62-3.34,4.07-4.92.02-.01.04-.03.06-.04.36-.22.73-.43,1.09-.64-.8,1.23-1.75,2.37-2.75,3.39ZM27.64,83.26c.01-1.8.06-3.61.12-5.41.96,4.75,1.65,9.55,2.33,14.35-.8-2.98-1.63-5.96-2.45-8.94ZM33.02,72.76c.1.3.2.59.29.86.58,1.76,1.04,3.55,1.42,5.37-.54-1.8-1.15-3.57-1.85-5.32.04-.3.09-.61.14-.91ZM43.17,91.62c-1.37-5.42-2.15-10.97-2.71-16.53,2.97,10.16,7.77,19.89,8.78,30.45-3.12-4-4.84-9.08-6.07-13.92ZM52.22,74.56c2.38,3.6,4.42,7.39,6.47,11.18-3.32-2.8-6.65-5.58-9.77-8.61-1.62-1.56-3.19-3.19-4.65-4.9-.1-.24-.21-.48-.31-.72.32.01.63.03.94.04,1.69.05,3.41.03,5.13-.1.77,1.02,1.51,2.06,2.21,3.11ZM50.92,69.37c-.59-.75-1.21-1.48-1.85-2.18,1.88.57,3.77,1.11,5.66,1.62-1.26.26-2.53.44-3.81.57Z"/>
      <path class="cls-2" d="M87.83,77.9c-.35-2.12-1.37-4.15-2.44-5.99-1.43-2.47-3.15-4.78-4.99-6.95-.81-.95-1.67-1.91-2.57-2.84-1.14-2.42-2.35-4.79-3.89-6.92-.74-1.02-2.43-.1-1.73,1.01.37.58.7,1.17,1.01,1.77-1.85-1.41-3.84-2.61-5.97-3.42-2.17-.83-4.59-1.07-6.71.02-1.14.59-.13,2.32,1.01,1.73,2.12-1.09,4.62-.35,6.87.89-.68.07-1.3.78-.81,1.46.6.84,1.24,1.66,1.9,2.46-1.2-.91-2.37-1.85-3.49-2.87-.43-.39-1.3-.42-1.57.2-1.63,3.74-5.92,4.99-9.24,6.79-1.13.61-.12,2.34,1.01,1.73,3.31-1.8,7.33-3.14,9.39-6.45.59.51,1.19,1.03,1.8,1.51-.8-.17-1.25.86-.96,1.51.15.33.3.65.46.98-.83-.51-1.95.34-1.41,1.31,1.33,2.39,2.89,4.64,4.14,7.08.83,1.61,1.67,3.49,1.73,5.35-1.87-2.7-3.37-5.65-5.08-8.44-.59-.97-2.09-.34-1.83.77,1.05,4.43,2.47,8.79,3.64,13.2-1.78-4.57-3.57-9.14-6.13-13.36-.52-.85-1.84-.49-1.86.5-.24,10.41,6.79,19.01,8.8,28.85,0,.02,0,.04,0,.06-.65,1.89-1.12,3.84-1.4,5.8,0,.01,0,.02-.01.04,0,0,0,0,0,0-.01.09-.03.18-.04.26-.12.91.86,1.15,1.5.79.19.41.65.65,1.07.65,0,.17-.02.34-.02.5-.03.95,1.44,1.42,1.86.5,1.25-2.71,2.26-5.67,2.87-8.69.02,1.27,2,1.28,2-.01-.02-6.32-.03-12.64-.19-18.96.18-.02.35-.08.49-.18.46,2.02.99,4.03,1.63,6.01.33,1.02,2.07.91,1.96-.27-.35-4-.93-7.97-1.65-11.92.37.67.75,1.33,1.17,1.97.7,1.09,2.29.14,1.73-1.01-.58-1.18-1.08-2.39-1.54-3.61,1.53,2.68,3.34,5.15,5.82,7.14.8.64,1.84.04,1.67-.97ZM83.27,72.27c.38.62.75,1.26,1.09,1.92-1.24-1.58-2.28-3.3-3.22-5.1.75,1.03,1.47,2.09,2.13,3.18ZM69.34,92.08c0,.78,0,1.56,0,2.34-2.28-6.28-5.73-12.27-6.86-18.8,2.6,5.34,4.46,11.03,6.86,16.47ZM74.25,90.82c.12-.54.24-1.08.34-1.62.01.57.02,1.14.03,1.72-.12-.06-.25-.09-.37-.09ZM73.66,68.67c-.22.74-.43,1.49-.62,2.23-1.16-1.82-2.36-3.63-3.42-5.51,1.45.94,2.78,2.06,4.04,3.28ZM69.38,80.98c-.35-1.26-.72-2.53-1.08-3.79.35.57.71,1.14,1.08,1.7,0,.7,0,1.39,0,2.09ZM74.02,61.3c0,.39.02.78.02,1.17-1.39-1.56-2.86-3.04-4.35-4.51,1.12.73,2.14,1.52,2.96,2.18.46.37.92.76,1.37,1.16Z"/>
      <path class="cls-2" d="M93.7,188.19c-1.09-9.47-6.21-18.12-11.07-26.12-2.44-4.02-4.99-7.97-7.32-12.06-2.09-3.67-3.91-7.48-6.13-11.07.58-.16,1.04-.77.63-1.43-4.32-6.94-6.58-14.95-9.14-22.64-.18-.54-.37-1.07-.56-1.61,1.11,1.51,2.31,2.96,3.61,4.32.12.12.25.19.39.23,1.17,2.11,2.4,4.18,3.74,6.2.61.92,2.14.36,1.83-.77-2.29-8.32-5.93-16.18-9.32-24.09-2.94-6.84-5.3-13.94-8.52-20.65-1.68-3.5-3.63-6.88-6.19-9.82-.66-.76-1.97.04-1.67.97.69,2.17,1.46,4.31,2.29,6.43-.06.13-.09.26-.07.42.24,1.85.59,3.67.99,5.48-.31-.66-.63-1.32-.96-1.97-1.65-3.27-3.54-6.39-5.81-9.27-.8-1.01-2.2.41-1.41,1.41,7.17,9.11,10.27,20.53,15.19,30.92,1.42,3.64,2.84,7.27,4.09,10.97.24.7.47,1.39.7,2.09-2.56-5.69-5.12-11.39-8.13-16.86-1.87-3.39-3.92-6.68-6.27-9.76-.56-.74-1.87-.58-1.86.5,0,4.84,1.34,9.59,2.97,14.1.16.44.34.86.5,1.3-.74-.31-1.73.49-1.26,1.41,1.37,2.74,2.84,5.43,4.36,8.08.87,6.49,4.82,12.56,8.35,17.93.08.39.19.78.28,1.17-.68-.87-1.39-1.73-2.12-2.55-2.17-2.45-5.17-5.58-8.68-5.77-3.08-.17-5.9,2.17-6.76,5.03-1.09,3.61.05,7.75,1.26,11.18.18.51.37,1.01.56,1.52.3,2.31.79,4.61,1.37,6.86.99,3.81,2.08,7.84,4.03,11.29,2.8,4.95,6.24,9.61,9.81,14.02.84,1.04,1.7,2.09,2.59,3.13.6,2.48,2.31,4.67,4.1,6.47,1.24,1.25,2.62,2.4,4.09,3.4,2.59,2.63,5.53,5.01,8.94,6.38.59.24,1.2.42,1.82.58.27.18.53.38.8.55.04.03.1.06.14.09.87,1.07,1.74,2.15,2.59,3.23.62.79,1.97-.07,1.67-.97-.01-.04-.03-.09-.05-.13,0,0,.02,0,.02,0,1.48.69,3.09,1.23,4.65,1.14,1.66-.1,2.52-.97,2.91-2.19.33-.48.61-1.05.81-1.77.56-2.01.42-4.25,0-6.37.56.11,1.29-.32,1.21-.97ZM53.97,88.61c.19.48.39.96.58,1.44-2.13-4.56-4.23-9.14-6.07-13.81,2.21,3.94,3.88,8.24,5.5,12.38ZM51.83,91c-.55-1.62-1.07-3.26-1.55-4.9,3.17,7.74,6.07,15.61,9.55,23.2-1.34-2.1-2.53-4.28-3.63-6.53-1.52-3.9-3.03-7.8-4.38-11.77ZM44.75,135.47c.09,0,.16-.02.25,0,.32.02,1.13.27,1.55.47.15.07.28.16.43.24-.29.35-.41.83-.51,1.44-.32,1.93-.32,3.9-.15,5.85.03.36.08.71.12,1.06-.93-2.67-1.63-5.41-2.05-8.19.1-.31.22-.6.36-.86ZM57.82,144.46c-.51-.7-1.03-1.38-1.56-2.06-.04-.17-.07-.35-.11-.52.14.15.28.3.4.44.43.71.86,1.42,1.26,2.14ZM78.48,165.87s.03.06.04.09c-.7-1.04-1.41-2.07-2.14-3.1.14-.12.25-.27.32-.44.6,1.15,1.19,2.3,1.78,3.45ZM63.53,165.45c.12-.69.29-1.32.54-1.83,1.2,1.84,2.47,3.64,3.8,5.41,2.53,4.78,5.14,9.53,7.6,14.36.74,1.46,1.47,2.94,2.17,4.42-.25-.22-.5-.45-.74-.67-3.32-3.07-6.48-6.33-9.48-9.72-1-1.67-1.97-3.36-2.92-5.05.45.24.74.89.93,1.35.49,1.17,2.42.66,1.93-.53-.7-1.67-2.08-3.45-3.99-2.82l-.1-.18c-.09-1.59,0-3.2.27-4.73ZM62.82,161.7c-1.03,1.29-1.38,3.24-1.49,5.05-.68-1.22-1.35-2.45-2.01-3.69.15-.78.38-1.54.73-2.28.29-.62.66-1.25,1.08-1.85.56.94,1.12,1.86,1.69,2.77ZM73.52,168.99c-.07-.14-.14-.28-.21-.43.07.09.14.19.21.28.07.1.14.2.21.3.5.8,1.02,1.59,1.54,2.37.49,1.37.97,2.75,1.4,4.15-1.03-2.23-2.09-4.45-3.16-6.67ZM60.05,157.07c-.85,1.04-1.54,2.21-2.04,3.46-.97-1.92-1.91-3.86-2.76-5.84-.69-1.62-1.33-3.28-1.9-4.95.12-.24.26-.47.43-.69.46-.58,1.35-1.23,1.88-1.41,1.15,3.26,2.69,6.43,4.39,9.44ZM50.94,139.36c.29.29.57.58.85.88-.22.38-.41.77-.57,1.18-.11-.68-.2-1.37-.28-2.06ZM53.18,141.79c.36.42.72.86,1.07,1.29.06.08.11.16.17.24.19.82.41,1.64.65,2.46-.53.17-1.05.44-1.55.81-.34.25-.63.52-.9.8-.04-.14-.08-.29-.12-.43-.13-1.77-.02-3.61.69-5.17ZM80.64,184.66c-.02-.76-.09-1.53-.22-2.3.08.07.16.14.25.21.25,1.08.42,2.19.44,3.22-.15-.38-.31-.75-.46-1.12ZM82.62,177.96c-.74-1.89-1.53-3.75-2.36-5.6.76,1.25,1.5,2.51,2.22,3.78.71,1.25,1.42,2.54,2.12,3.84-.69-.64-1.35-1.31-1.98-2.02ZM49.35,149.49c-.9-3.82-1.63-8.05-.81-11.95.08-.02.16-.02.24-.03.22,3.4.85,6.72,1.77,9.97.08,1.05.22,2.1.42,3.15-.26,1.32-.18,2.74.09,4.15-.18-.34-.37-.68-.55-1.02-.43-1.41-.82-2.83-1.16-4.26ZM83.52,191.88s-.02.03-.02.04c-.32-.87-.65-1.73-.98-2.6.49-1.06.66-2.29.64-3.53.38,1.44.68,2.93.66,4.41,0,.56-.1,1.26-.3,1.67ZM85.28,183.1c.42.3.85.58,1.3.84.11.25.23.49.34.74-.4-.23-.81-.48-1.2-.73-.14-.29-.29-.57-.43-.85ZM71.76,154.67c-.08-.04-.15-.09-.23-.13-.76-1.18-1.5-2.38-2.21-3.59.81,1.24,1.62,2.49,2.45,3.72ZM66.25,150.97c-.14-.13-.28-.28-.42-.41-.35-.74-.68-1.48-1.01-2.23.49.87.97,1.76,1.44,2.64ZM85.14,193.08c.7-1.15.75-2.59.63-3.93.72,1.93,1.31,3.95,1.45,6.01-.84-.42-1.69-.98-2.49-1.54.14-.16.28-.34.4-.54ZM89.22,196.87c.02-.07.03-.14.03-.22.15-3.26-.79-6.53-2.11-9.64.31.17.61.34.93.49.68,1.8,1.24,3.63,1.61,5.49.18.9.29,1.82.24,2.74-.02.3-.03.43-.08.66-.19.2-.4.36-.63.48ZM61.22,144.81c-.44-.58-.88-1.16-1.34-1.72-.5-.61-1.03-1.25-1.6-1.9-.02-.03-.04-.06-.06-.09.75.36,1.46.82,2.14,1.34.28.79.57,1.58.86,2.37ZM50.25,135.55c-.21-.04-.43-.07-.64-.08-.86-.65-1.78-1.22-2.74-1.58.5-.07,1.08-.02,1.77.19,1.13.34,2.15,1.05,3.05,1.89-.47-.18-.95-.32-1.44-.41ZM57.85,170.08c.19.66.42,1.3.66,1.94-.77-1.34-1.51-2.69-2.22-4.07.51.72,1.04,1.42,1.56,2.13ZM85.74,196.83c-.48-.18-.95-.4-1.43-.62.1-.08.19-.18.26-.29.64.42,1.3.81,1.98,1.14-.18-.04-.35-.08-.53-.13-.09-.03-.19-.07-.28-.1ZM86.9,173.76c1.52,3.07,2.91,6.29,3.83,9.61-.62-1.66-1.31-3.3-2.02-4.92-1.41-3.2-2.98-6.42-4.75-9.52.02-.19-.03-.4-.17-.61-3.54-5.3-6.94-10.69-10.25-16.14-.09-.17-.18-.34-.28-.51-2.43-4.51-4.88-9-7.06-13.65-.02-.04-.04-.09-.06-.13,2.6,3.75,4.62,8.04,6.77,11.94,4.46,8.09,9.87,15.63,13.98,23.93ZM44.98,93.46c7.28,10.64,11.68,23.04,17.34,34.55.88,1.8,1.8,3.58,2.76,5.33-.64-.71-1.29-1.39-2-2.02-1-2.09-2.03-4.17-3.13-6.21-2.25-4.15-4.84-8.18-8.15-11.56-1.16-2.54-2.29-5.1-3.3-7.7-1.56-3.97-2.97-8.14-3.51-12.4ZM43.63,129.05c.8-.75,2.26-1.35,3.2-1.36,1.12,0,2.33.6,3.4,1.34,3.43,2.34,6.07,5.99,8.41,9.36.25.36.48.73.73,1.09,0,0,0,.02,0,.03-.07-.04-.13-.08-.2-.11-.9-.45-1.83-.76-2.8-.97-.62-.84-1.26-1.65-1.94-2.43-1.59-1.8-3.62-3.64-6.08-4.03-1.86-.29-3.69.27-4.86,1.68-.27.08-.55.17-.82.3-.28.14-.53.54-.5.86.04.38.1.77.15,1.15-.05.16-.08.33-.12.49-.46-2.6-.49-5.62,1.42-7.4ZM47.93,157.56c-.74-1.98-1.42-4.02-2.02-6.08.9,1.68,1.84,3.33,2.8,4.95.45.76.92,1.5,1.38,2.24,1.18,3.17,2.53,6.27,4.03,9.3-.26-.36-.53-.72-.78-1.09-2.05-2.96-4.26-6.21-5.42-9.33Z"/>
      <g>
        <path class="cls-1" d="M47.62,21.79c.09-.03.18-.06.28-.09-.07-.27-.14-.54-.22-.82-.1-.06-.2-.11-.29-.17.09.36.16.72.24,1.08Z"/>
        <path class="cls-1" d="M40.52,28.31c-.07.07-.15.13-.22.2.06.15.1.3.15.46.21.01.42.02.63.02-.19-.23-.38-.45-.57-.69Z"/>
        <path class="cls-1" d="M43.08,8.44c.1.02.2.03.3.06-.02-.07-.05-.13-.07-.19-.15,0-.31,0-.46,0,.08.04.16.09.23.13Z"/>
        <path class="cls-1" d="M48.84,31.51c-.08-.48-.19-.96-.33-1.43-.09.03-.19.05-.28.07-.04.62-.11,1.24-.19,1.85.11,0,.22,0,.33.01.13-.05.26-.1.39-.14.03-.12.05-.24.08-.36Z"/>
        <path class="cls-1" d="M38.03,10.86c.27-.1.54-.18.81-.24.36-.22.73-.42,1.11-.61-.19-.01-.38-.01-.57-.02-.5.16-.99.42-1.44.75.03.04.06.08.09.12Z"/>
        <path class="cls-1" d="M58.73,9.16c.25.12.5.23.75.35.78.13,1.55.31,2.3.52-.31-.41-.62-.82-.93-1.24-.93-.49-2.05-.63-3.12-.62.33.33.66.66,1,.98Z"/>
        <path class="cls-1" d="M48.41,35.78c-.35-.24-.7-.47-1.04-.72-.09.26-.19.52-.3.78.29.04.59.08.88.11.15-.05.3-.11.46-.16Z"/>
        <path class="cls-1" d="M37.23,26.62c.04.08.08.16.12.23.29.28.57.56.87.82.13-.23.34-.4.59-.49.16-.16.32-.31.48-.46-1.03-1.36-2.01-2.77-2.98-4.19-.25-.21-.49-.44-.72-.66.54,1.12,1.23,2.17,1.97,3.12.46.59.16,1.32-.32,1.62Z"/>
        <path class="cls-1" d="M58.64,4.6c-.17.18-.4.31-.68.33-1.71.11-3.37-.14-4.83-1-.02,0-.04,0-.06,0,.95.37.71,1.96-.38,1.91-.04,0-.08,0-.12,0-.13.18-.3.32-.5.4-.03.01-.07.02-.11.03.54.17,1.08.34,1.6.55,2.18-.61,4.64-.94,6.84-.31.37-.24.9-.29,1.29.06.17.15.32.31.48.46-.03-.04-.07-.08-.1-.12-.23-.29-.28-.6-.22-.89-1.04-.55-2.13-1.03-3.24-1.41Z"/>
        <path class="cls-1" d="M57.8,15.34c.63.33,1.25.63,1.85.88.08-.57.06-1.13-.07-1.64-.72-.71-1.5-1.36-2.34-1.95-.44-.24-.89-.46-1.35-.66-.34-.04-.69-.05-1.04-.03.53.91,1.16,1.77,1.86,2.56.38.26.74.54,1.09.84Z"/>
        <path class="cls-1" d="M55.27,38.78c-1.09.86-2.28,1.62-3.51,2.24-.12.12-.24.24-.37.35.13-.05.26-.09.39-.15,1.35-.6,2.52-1.44,3.49-2.45Z"/>
        <path class="cls-1" d="M52.2,30.31c-.39-.05-.79-.13-1.18-.21,0,.01,0,.02,0,.03.06.24.1.49.15.73.35-.17.69-.37,1.04-.56Z"/>
        <path class="cls-1" d="M52.27,25.5c-.52-.87-1.15-1.68-1.86-2.42-.05,0-.09.02-.14.03.14.65.27,1.33.38,2.03.54.13,1.08.25,1.62.36Z"/>
        <path class="cls-1" d="M21.59,25.47c-.07.43-.15.86-.2,1.29.39-.85.84-1.67,1.36-2.43-.41.36-.79.74-1.16,1.14Z"/>
        <path class="cls-1" d="M69.47,17.48c-.55-.61-1.13-1.23-1.7-1.87-.26-.19-.52-.38-.76-.59.09.41.15.82.17,1.26.78.66,1.53,1.35,2.24,2.07.44-.04.87-.1,1.29-.19-.09-.15-.19-.29-.28-.43-.33.11-.69.06-.97-.24Z"/>
        <path class="cls-1" d="M63.38,30.66c.07.21.14.41.2.62.5,1.86.46,3.62.03,5.23.19-.25.39-.5.57-.76.65-1.37,1.06-2.83,1.06-4.33,0-.84-.15-1.62-.42-2.34-.43.56-.91,1.09-1.44,1.59Z"/>
        <path class="cls-1" d="M64.96,23.21c0-.08,0-.15,0-.23-.26-.12-.52-.25-.78-.38-.07.28-.17.56-.28.83.2.21.4.42.6.63.19-.27.34-.55.47-.84Z"/>
        <path class="cls-1" d="M41.07,33.49c.17-.18.34-.37.49-.55-.22-.06-.43-.12-.64-.18-.09.07-.2.12-.3.16.06.11.12.23.18.34.09.08.18.16.28.23Z"/>
        <path class="cls-1" d="M46.13,31.33c.03-.24.04-.48.06-.73-.28.05-.57.08-.85.12.06.06.12.12.18.18.2.15.4.29.61.43Z"/>
        <path class="cls-1" d="M42.4,19.81c.39.17.78.36,1.16.56-.14-.25-.28-.5-.41-.76-.28-.03-.55-.06-.83-.08.03.09.06.19.09.28Z"/>
        <path class="cls-1" d="M33.25,34.8c.21,0,.42-.02.62-.03.09-.25.19-.49.29-.74-.19-.31-.37-.63-.53-.96-.44-.27-.88-.55-1.31-.84.02.06.03.12.05.19.23.8.53,1.6.88,2.38Z"/>
        <path class="cls-1" d="M31.5,27.29s-.02-.02-.02-.03c.04.66.1,1.32.2,1.97.29.24.57.49.87.72-.09-.37-.18-.74-.25-1.11-.31-.5-.57-1.02-.79-1.55Z"/>
        <path class="cls-1" d="M63.7,27.27c-.5.26-1.03.45-1.57.59.17.28.33.57.47.86.41-.45.78-.94,1.1-1.46Z"/>
        <path class="cls-1" d="M34.01,10.69c-.36.38-.7.79-.98,1.23-.03.24-.05.49-.05.74.3-.72.68-1.39,1.12-2-.03.01-.06.02-.09.03Z"/>
        <path class="cls-1" d="M71.09,20.13c.13.16.25.32.38.49.03-.2.07-.4.1-.6-.16.04-.31.08-.47.12Z"/>
        <path class="cls-1" d="M31.38,8.11c2.16-1.71,4.85-2.74,7.56-3.42-.87-.14-1.73-.29-2.59-.47-1.27.57-2.5,1.26-3.68,2.13-1.09.81-2.09,1.73-3.02,2.71.49-.23.99-.44,1.49-.64.05-.12.12-.23.23-.32Z"/>
        <path class="cls-1" d="M34.07,46.63c-.41-.87-.72-1.76-.94-2.66-.99-.35-1.94-.77-2.85-1.26-1.4,0-2.79-.11-4.12-.41.14.22.27.43.41.65.18.28.2.56.11.8,2.1,1.55,4.72,2.55,7.51,3.13-.04-.08-.09-.15-.13-.24Z"/>
        <path class="cls-1" d="M67.23,7.26c.37.32.36.85.12,1.24,1.23,1.24,2.36,2.59,3.45,3.96.44.55.21,1.34-.29,1.63.2.41.39.83.55,1.26.24.27.48.54.69.82-.08-1.58-.39-3.14-1-4.63-1.37-3.31-4.1-5.48-7.24-6.89,1.36.78,2.62,1.67,3.72,2.6Z"/>
        <path class="cls-1" d="M67.33,21.8c-.02-.07-.04-.15-.05-.23,0,.07,0,.14,0,.21.02,0,.03.01.05.02Z"/>
        <path class="cls-1" d="M36.98,47.3c3.12.34,6.29.24,9.04-.13.07-.03.14-.07.21-.1-3.72.04-7.42-.75-10.78-2.35.1.27.19.54.3.8.33.75.75,1.32,1.23,1.78Z"/>
        <path class="cls-1" d="M69.05,20.81c.17.59.3,1.19.4,1.8.42.15.84.29,1.26.42-.45-.8-1.04-1.54-1.67-2.22Z"/>
        <path class="cls-1" d="M70.37,25.01c-.23-.07-.45-.12-.68-.19.03.73.02,1.47-.05,2.22.26-.67.51-1.34.73-2.03Z"/>
        <path class="cls-1" d="M49.9,48.49c-5,2.25-10.47,4.09-15.99,3.11-.45-.08-.9-.19-1.34-.31,1.9.71,3.9,1.14,5.94,1.22,6.25.26,12.02-2.16,16.87-5.89-1.74.8-3.58,1.41-5.49,1.86Z"/>
        <path class="cls-1" d="M36.17,49.27c-2.4-.32-4.75-.9-6.96-1.84-.3-.13-.58-.27-.87-.42,2.62,1.91,5.61,2.78,8.73,2.81-.31-.16-.61-.34-.9-.55Z"/>
        <path class="cls-1" d="M67.7,24.12c-.24-.09-.49-.17-.73-.26-.08.78-.25,1.53-.51,2.25.25.26.49.51.74.77.61.63.17,1.45-.47,1.64.15.44.27.9.36,1.37.52-1.78.76-3.65.64-5.58,0-.06-.02-.12-.02-.19Z"/>
        <path class="cls-1" d="M37.03,40.01c1.22-.23,2.44-.51,3.65-.84-.32-.09-.64-.19-.95-.32-.02,0-.03-.02-.05-.03-1.37-.06-2.77-.18-4.17-.36.47.56.98,1.08,1.52,1.56Z"/>
        <path class="cls-1" d="M61.91,34.08c-.25.03-.52-.04-.74-.31-.25-.3-.49-.6-.74-.91-.03.02-.07.04-.1.06-.05.09-.1.18-.16.26-.18,1.09-.49,2.14-.92,3.14-.88,2.57-2.51,4.93-4.5,6.97.32-.14.64-.29.95-.45,2.55-1.33,4.91-3.4,5.83-6.2.28-.85.39-1.71.39-2.56Z"/>
        <path class="cls-1" d="M45.33,2.3c.19-.07.38-.12.58-.17-.39.02-.78.05-1.17.08.2.02.39.06.59.09Z"/>
        <path class="cls-1" d="M26.37,26.45c-.24.27-.47.56-.69.84-.16,2.45.42,4.82,1.51,6.97.1.04.2.08.3.12-.97-2.36-1.25-4.94-.71-7.36-.14-.19-.28-.39-.42-.58Z"/>
        <path class="cls-1" d="M46.64,40.84c.28-.26.54-.54.77-.85-.76,0-1.51-.06-2.26-.19-1.6.63-3.26,1.14-4.93,1.56,2.12.22,4.3.02,6.42-.52Z"/>
        <path class="cls-1" d="M23.64,18.5c-.16.37-.32.75-.46,1.14.15-.13.3-.27.45-.39-.01-.25,0-.5.01-.74Z"/>
        <path class="cls-1" d="M49.96,44.76c.59-.43,1.17-.89,1.74-1.37-1.97.73-4.08,1.06-6.2,1.09-.73.2-1.49.35-2.25.47,2.23.27,4.51.22,6.71-.18Z"/>
        <path class="cls-1" d="M29.01,26.54c.15.18.3.37.46.54-.03-.51-.05-1.02-.05-1.53-.16.32-.3.65-.41.99Z"/>
        <path class="cls-1" d="M24.96,38.18c-.65-.89-1.15-1.84-1.52-2.85-.46-.19-.9-.41-1.33-.65.69,1.71,1.53,3.37,2.45,4.97.77.37,1.6.64,2.48.8-.77-.69-1.47-1.45-2.08-2.28Z"/>
        <path class="cls-1" d="M27.91,13.56c-1.19,1.15-2.03,2.61-2.25,4.26.96-.58,1.98-1.08,3.02-1.52-.29-.91-.55-1.82-.77-2.74Z"/>
        <path class="cls-1" d="M31.08,34.8c-.54-1.39-.95-2.9-1.23-4.48-.46-.4-.91-.82-1.34-1.26-.1,1.93.38,3.9,1.34,5.68.41.03.82.05,1.23.06Z"/>
        <path class="cls-2" d="M72.99,23.15c.48-1.95.76-3.93.78-5.94.03-4.82-1.86-9.36-5.76-12.29C63.87,1.82,58.46.71,53.41.26c-5.03-.45-10.64-.47-15.48,1.13-.67.22-1.32.48-1.96.76-.24.03-.44.14-.6.29-3.91,1.88-7.19,4.85-9.73,8.4-.31.43-.6.87-.89,1.32-1.48,1.25-2.77,2.72-3.78,4.44-1.84,3.1-2.61,6.51-2.57,9.94-1.12,2.35-.58,4.33.78,5.9.2,3.05.87,6.05,2.14,8.88,1.79,4,5.03,7.4,9.03,9.18-.88.09-1.43,1.35-.46,1.81,10.94,5.28,23.31.21,31.22-8.07,3.4-3.56,6.22-7.77,8.45-12.15,1.07-2.09,2.02-4.3,2.76-6.57.67.03,1.17-.57,1.03-1.25-.08-.38-.2-.76-.34-1.12ZM64.17,35.74c-.18.26-.37.51-.57.76.43-1.61.47-3.36-.03-5.23-.06-.21-.13-.41-.2-.62.52-.5,1.01-1.03,1.44-1.59.27.72.42,1.5.42,2.34,0,1.5-.41,2.96-1.06,4.33ZM21.59,25.47c.37-.4.75-.78,1.16-1.14-.53.77-.98,1.58-1.36,2.43.06-.43.13-.86.2-1.29ZM70.72,18.15c-.42.09-.86.15-1.29.19-.72-.72-1.47-1.41-2.24-2.07-.02-.43-.08-.85-.17-1.26.24.21.5.4.76.59.57.64,1.16,1.26,1.7,1.87.27.3.64.35.97.24.1.14.2.28.28.43ZM64.17,22.6c.26.13.52.26.78.38,0,.08,0,.15,0,.23-.12.3-.28.58-.47.84-.2-.21-.4-.42-.6-.63.11-.27.2-.55.28-.83ZM63.7,27.27c-.32.52-.69,1.01-1.1,1.46-.15-.29-.31-.58-.47-.86.55-.14,1.07-.34,1.57-.59ZM31.68,29.23c-.1-.65-.16-1.31-.2-1.97,0,.01.02.02.02.03.22.53.49,1.05.79,1.55.07.38.16.74.25,1.11-.3-.23-.58-.48-.87-.72ZM33.63,33.07c.16.33.34.65.53.96-.1.24-.2.49-.29.74-.21,0-.42.03-.62.03-.35-.78-.64-1.58-.88-2.38-.02-.06-.03-.12-.05-.19.43.29.86.57,1.31.84ZM46.19,30.6c-.02.24-.03.49-.06.73-.21-.13-.41-.27-.61-.43-.06-.06-.12-.12-.18-.18.28-.04.57-.07.85-.12ZM43.56,20.37c-.38-.2-.76-.39-1.16-.56-.03-.09-.06-.19-.09-.28.28.02.56.05.83.08.14.25.27.51.41.76ZM40.92,32.76c.21.06.42.12.64.18-.15.18-.32.37-.49.55-.09-.08-.19-.15-.28-.23-.06-.11-.12-.23-.18-.34.11-.04.21-.09.3-.16ZM40.45,28.97c-.05-.15-.1-.31-.15-.46.07-.07.15-.13.22-.2.19.23.38.46.57.69-.21,0-.42-.01-.63-.02ZM39.94,10.01c-.38.19-.75.39-1.11.61-.27.06-.54.14-.81.24-.03-.04-.06-.08-.09-.12.46-.32.94-.59,1.44-.75.19,0,.38,0,.57.02ZM60.85,8.79c.3.42.61.83.93,1.24-.76-.21-1.52-.39-2.3-.52-.24-.13-.5-.24-.75-.35-.34-.33-.68-.66-1-.98,1.07-.01,2.19.13,3.12.62ZM43.38,8.5c-.1-.02-.2-.04-.3-.06-.08-.04-.16-.09-.23-.13.15,0,.31,0,.46,0,.03.06.05.13.07.19ZM47.89,21.69c-.09.03-.18.06-.28.09-.07-.36-.15-.72-.24-1.08.1.06.2.11.29.17.08.27.15.54.22.82ZM47.38,35.06c.34.25.69.48,1.04.72-.15.06-.3.11-.46.16-.29-.03-.59-.07-.88-.11.11-.25.21-.51.3-.78ZM48.37,32.02c-.11,0-.22,0-.33-.01.08-.61.15-1.23.19-1.85.09-.02.19-.05.28-.07.14.47.25.95.33,1.43-.03.12-.04.25-.08.36-.13.05-.26.1-.39.14ZM50.42,23.08c.71.74,1.33,1.55,1.86,2.42-.54-.11-1.08-.23-1.62-.36-.12-.7-.25-1.38-.38-2.03.05,0,.09-.02.14-.03ZM51.02,30.1c.39.08.79.15,1.18.21-.34.19-.68.39-1.04.56-.04-.25-.09-.49-.15-.73,0-.01,0-.02,0-.03ZM51.75,41.03c1.23-.63,2.42-1.38,3.51-2.24-.97,1.02-2.15,1.86-3.49,2.45-.13.06-.26.09-.39.15.13-.11.25-.24.37-.35ZM54.85,11.94c.35-.01.7,0,1.04.03.46.2.91.43,1.35.66.83.59,1.62,1.24,2.34,1.95.13.52.15,1.07.07,1.64-.6-.25-1.22-.55-1.85-.88-.35-.3-.71-.58-1.09-.84-.7-.8-1.33-1.65-1.86-2.56ZM62.1,6.9s.07.08.1.12c-.16-.15-.32-.31-.48-.46-.39-.34-.92-.3-1.29-.06-2.21-.62-4.67-.29-6.84.31-.53-.21-1.06-.38-1.6-.55.03-.01.07-.02.11-.03.21-.08.37-.22.5-.4.04,0,.08,0,.12,0,1.08.05,1.32-1.54.38-1.91.02,0,.04,0,.06,0,1.46.86,3.12,1.12,4.83,1,.28-.02.51-.15.68-.33,1.11.38,2.2.86,3.24,1.41-.06.28-.02.6.22.89ZM33.03,11.91c.28-.44.62-.84.98-1.23.03,0,.06-.02.09-.03-.45.61-.83,1.28-1.12,2,0-.25.02-.5.05-.74ZM37.55,25c-.74-.95-1.43-2-1.97-3.12.24.22.48.45.72.66.97,1.42,1.95,2.83,2.98,4.19-.16.15-.32.3-.48.46-.24.09-.45.26-.59.49-.29-.27-.58-.54-.87-.82-.04-.08-.08-.16-.12-.23.48-.3.78-1.03.32-1.62ZM39.68,38.82s.03.02.05.03c.31.13.63.24.95.32-1.21.34-2.43.62-3.65.84-.55-.47-1.06-.99-1.52-1.56,1.41.19,2.81.3,4.17.36ZM45.15,39.8c.75.12,1.51.19,2.26.19-.24.31-.5.59-.77.85-2.12.54-4.31.74-6.42.52,1.67-.41,3.33-.93,4.93-1.56ZM45.5,44.48c2.12-.02,4.23-.36,6.2-1.09-.57.48-1.15.94-1.74,1.37-2.21.4-4.48.45-6.71.18.76-.11,1.52-.26,2.25-.47ZM55.7,42.84c-.31.16-.63.31-.95.45,1.99-2.04,3.63-4.4,4.5-6.97.43-1,.74-2.06.92-3.14.06-.08.1-.17.16-.26.03-.02.07-.04.1-.06.25.3.49.61.74.91.22.27.49.35.74.31,0,.85-.11,1.71-.39,2.56-.92,2.8-3.28,4.87-5.83,6.2ZM45.33,2.3c-.2-.03-.39-.06-.59-.09.39-.03.77-.06,1.17-.08-.19.05-.39.11-.58.17ZM27.5,34.39c-.1-.04-.2-.08-.3-.12-1.09-2.15-1.67-4.52-1.51-6.97.22-.29.45-.57.69-.84.14.2.27.39.42.58-.55,2.42-.27,4.99.71,7.36ZM25.65,17.82c.22-1.65,1.07-3.11,2.25-4.26.22.92.48,1.83.77,2.74-1.04.45-2.06.94-3.02,1.52ZM29.85,30.32c.28,1.57.7,3.09,1.23,4.48-.41-.01-.82-.04-1.23-.06-.96-1.77-1.44-3.75-1.34-5.68.43.44.88.86,1.34,1.26ZM29.01,26.54c.12-.33.25-.67.41-.99,0,.51.02,1.02.05,1.53-.15-.18-.31-.36-.46-.54ZM22.11,34.69c.43.23.87.45,1.33.65.37,1,.87,1.96,1.52,2.85.61.83,1.31,1.59,2.08,2.28-.88-.17-1.71-.43-2.48-.8-.92-1.6-1.77-3.26-2.45-4.97ZM23.18,19.64c.15-.39.3-.77.46-1.14,0,.25-.02.5-.01.74-.16.12-.3.27-.45.39ZM26.69,43.74c.09-.24.08-.51-.11-.8-.14-.21-.28-.43-.41-.65,1.32.3,2.72.42,4.12.41.91.49,1.86.91,2.85,1.26.22.9.52,1.79.94,2.66.04.09.09.16.13.24-2.79-.58-5.41-1.58-7.51-3.13ZM46.23,47.08c-.07.03-.14.07-.21.1-2.76.37-5.93.47-9.04.13-.48-.46-.9-1.03-1.23-1.78-.12-.26-.21-.53-.3-.8,3.36,1.6,7.06,2.4,10.78,2.35ZM67.33,21.8s-.03-.01-.05-.02c0-.07,0-.14,0-.21.02.07.04.15.05.23ZM69.05,20.81c.62.68,1.22,1.42,1.67,2.22-.42-.13-.84-.28-1.26-.42-.1-.61-.24-1.21-.4-1.8ZM71.09,20.13c.16-.04.32-.08.47-.12-.03.2-.06.4-.1.6-.13-.16-.25-.33-.38-.49ZM70.75,11.54c.61,1.48.92,3.04,1,4.63-.22-.29-.45-.56-.69-.82-.16-.43-.34-.85-.55-1.26.5-.29.73-1.08.29-1.63-1.1-1.37-2.23-2.72-3.45-3.96.24-.39.25-.92-.12-1.24-1.1-.94-2.36-1.82-3.72-2.6,3.14,1.41,5.87,3.58,7.24,6.89ZM32.68,6.35c1.18-.88,2.41-1.57,3.68-2.13.86.18,1.72.33,2.59.47-2.71.69-5.4,1.71-7.56,3.42-.11.09-.18.2-.23.32-.5.2-1,.41-1.49.64.93-.98,1.93-1.9,3.02-2.71ZM28.34,47.01c.29.14.57.29.87.42,2.21.94,4.56,1.53,6.96,1.84.28.21.59.39.9.55-3.12-.03-6.11-.9-8.73-2.81ZM38.51,52.52c-2.04-.09-4.04-.51-5.94-1.22.44.12.88.23,1.34.31,5.52.97,11-.87,15.99-3.11,1.91-.45,3.75-1.06,5.49-1.86-4.86,3.73-10.63,6.15-16.87,5.89ZM67.08,29.89c-.09-.47-.21-.93-.36-1.37.64-.19,1.08-1,.47-1.64-.25-.26-.49-.51-.74-.77.26-.72.43-1.47.51-2.25.24.1.49.17.73.26,0,.06.02.12.02.19.12,1.94-.12,3.8-.64,5.58ZM69.69,24.82c.23.07.45.12.68.19-.22.68-.47,1.36-.73,2.03.07-.75.08-1.49.05-2.22Z"/>
      </g>
      <path class="cls-2" d="M76.73,167.6c-3.98-4.89-7.6-10.05-11.26-15.18.19.17.37.35.56.51,2.36,2.02,5.77,5.2,9.18,4.93.14-.01.29-.02.43-.05.49-.08.88-.76.7-1.23-1.55-3.89-3.82-7.33-6.27-10.66.01-.01,0-.01,0-.01-1.96-2.68-4.02-5.3-5.92-8.02,1.45,1.32,2.94,2.6,4.6,3.56.75.44,1.53.8,2.36,1.08.48.16.97.29,1.48.39.6.11,1.29-.27,1.26-.97-.09-2.04-1.15-3.97-2.23-5.65-.88-1.38-1.87-2.71-2.91-3.99h0c-.73-.92-1.49-1.81-2.26-2.68-.1-.11-.2-.22-.3-.33-.98-1.11-1.99-2.18-3.01-3.24-.18-4.67-.41-9.33-.18-14,.06-1.33.13-2.66.17-4,.07-2.04.06-4.09-.12-6.13-.1-1.13-.25-2.29-.52-3.42t0-.02c-.4-1.74-1.06-3.4-2.21-4.8-.09-.12-.22-.19-.35-.23,0-.99-.01-1.97-.04-2.93-.03-1.1-.09-2.19-.15-3.29.05.18.09.35.13.52.14.48.52.69.91.7.41,1.28.94,2.54,1.66,3.75-.01.01,0,.01,0,.01.05.1.11.19.17.29.36.58,1.41.72,1.73,0,.03-.07.06-.15.09-.22h0c1.62-3.9,1.17-8.36.56-12.43-.67-4.45-1.87-8.79-2.64-13.21-.21-1.22-1.83-.74-1.96.27-.18,1.41-.29,2.82-.37,4.23-.21-.81-.45-1.61-.75-2.39-.41-1.07-1.85-.88-1.96.26-.08.72-.11,1.43-.16,2.14-.31-.43-.64-.85-1.01-1.25-.43-.45-1.28-.36-1.57.2-1.31,2.49-2.11,5.14-2.71,7.85-.15.04-.29.12-.41.25-.99,1.02-1.68,2.25-2.17,3.59-.36-2.59-.9-5.15-1.71-7.64-.29-.88-1.7-1.01-1.93,0-.35,1.56-.52,3.12-.6,4.69-.1-.05-.18-.11-.28-.16-.58-.3-1.28-.05-1.47.6-1.2,4.09-.14,8.82.8,12.86.44,1.88.96,3.74,1.5,5.58-.14.22-.22.49-.15.8,0,.06.03.12.04.18-.26-.39-.54-.78-.85-1.14-.35-.4-1.05-.36-1.41,0-.45.45-.78.96-1.05,1.5-.51-1.84-1.31-3.67-2.76-4.9-.59-.51-1.4-.3-1.67.44-.69,1.92-1.22,3.85-1.62,5.8-.27.11-.51.32-.61.62-.14.41-.26.83-.39,1.24.06-2.33.07-4.66.02-7-.03-1.13-1.64-1.36-1.97-.27-.34,1.14-.6,2.28-.82,3.44-.23-.14-.5-.2-.75-.16-.45-.38-1.21-.3-1.5.25-2.47,4.56-3.43,9.68-3.79,14.84v.04c-.14,1.97-.19,3.94-.21,5.88-.43-.49-1.23-.24-1.54.23-.11.16-.2.33-.29.5-.86,1.7-.86,3.78-.72,5.61.07.89.17,1.77.31,2.65h0c.28,1.87.69,3.72,1.1,5.55.07.31.14.62.22.93h0c.16.7.32,1.39.48,2.08-.45.87-.87,1.77-1.27,2.67,0,.01,0,.02,0,.03-.1.23-.19.47-.29.7.12-.84.24-1.69.35-2.53h0c0-.1.02-.19.03-.27.12-.87-.96-1.2-1.58-.81h0c-.18.12-.32.3-.38.54-.92,3.8-1.79,7.61-2.63,11.43h0c-.55,2.44-1.08,4.87-1.62,7.3-.14.24-.3.48-.43.72.06-.56-.29-.95-.72-1.07-.45-.14-1,.04-1.21.66-.84,2.47-1.8,4.9-2.72,7.33-.01.01-.01.02-.02.03-.77,2.04-1.53,4.08-2.2,6.15-.3.92-.59,1.86-.85,2.81-1.16,1.72-2.22,3.5-3.12,5.37-1.19,2.49-2.11,5.22-2.16,8-.01.55.01,1.11.08,1.67.15,1.28.52,3.01,1.42,4.16.09.58.23,1.14.42,1.69-.12,1.99.16,3.97,1.29,5.59,2.46,3.53,7.69,3.53,11.29,2.08,5.83-2.35,10.46-7.65,13.72-12.95.19-.29.37-.59.54-.88.2-.34.19-.65.07-.89-.03-.05-.06-.1-.1-.15.16-.31.32-.63.47-.95h0c.4-.83.76-1.67,1.1-2.52.78-1.52,1.51-3.05,2.19-4.55.86-1.91,1.71-3.91,2.43-5.97t0-.02c1.29-3.63,2.19-7.43,2.15-11.2.01-.01.01-.02,0-.03,0-.72-.04-1.42-.12-2.13-.02-.2-.1-.36-.19-.5.8-2.58,1.45-5.23,1.84-7.9.06-.28.11-.57.16-.85h0c.24-1.42.33-2.85.2-4.26,0-.22,0-.43-.02-.65,0-.64-.04-1.29-.11-1.93-.04-.4-.25-.74-.57-.9.7-1.39,1.31-2.81,1.86-4.25.18.07.37.09.56.05.26-.03.51-.17.67-.38.54.56,1.78.28,1.73-.62,1.05,2.53,2.24,4.98,3.53,7.37-.78-.39-1.79.53-1.29,1.41,1.36,2.38,2.82,4.7,4.32,6.98-1.07-.87-2.26-1.51-3.6-1.65-.69-.08-1.08.69-.96,1.26,1.41,6.73,4.6,13.12,8.17,18.94,3.62,5.9,7.93,11.68,13.3,16.11.9.75,2.01-.16,1.57-1.21-.42-.98-.83-1.95-1.25-2.92.41-.13.74-.48.73-.9.58.42,1.21.67,1.89.57.69-.1.84-.96.59-1.47-.1-.22-.22-.44-.33-.66.28-.24.43-.6.28-.98-.27-.66-.55-1.32-.83-1.97.11.13.23.27.34.4.75.87,2.16-.25,1.57-1.21-.77-1.29-1.54-2.58-2.29-3.88.81.3,1.63-.47,1.22-1.41-.72-1.65-1.53-3.29-2.37-4.91.92.84,1.85,1.68,2.8,2.49.99.84,2.23-.42,1.42-1.42ZM44.91,81.22s.04.02.06.04c-.01,2.07.09,4.15.16,6.22-.37-2.1-.54-4.24-.22-6.26ZM64.41,130.35c.83.93,1.65,1.87,2.44,2.83.92,1.11,1.8,2.26,2.61,3.46.07.11.15.23.23.34,0,.01,0,.01,0,.02.73,1.08,1.51,2.3,1.91,3.57-.39-.14-.78-.3-1.15-.48-.85-.41-1.65-.92-2.43-1.49-1.66-1.21-3.19-2.71-4.72-4.13.02-1.8,0-3.59-.06-5.38.39.42.79.83,1.17,1.26ZM60.15,97.47c.69,1.89.86,4.04.96,5.93.15,3.18-.04,6.37-.19,9.56-.06,1.13-.08,2.26-.09,3.39-.63-6.3-1.33-12.6-.68-18.88ZM62.83,146.72c.71,1.11,2.22.14,1.73-1.01-.9-2.14-1.81-4.29-2.86-6.36.32.16.7.12,1-.08,3.85,5.42,8.37,10.42,11.12,16.49-.9-.27-1.79-.85-2.47-1.28-1.73-1.09-3.3-2.41-4.82-3.77-2.47-2.19-4.73-4.6-7.15-6.84v-.06c.06-.86,0-1.85-.12-2.89v-.1c1.14,2,2.34,3.96,3.57,5.9ZM68.49,173.04c-.94-1.56-1.85-3.12-2.76-4.7-.47-.81-.94-1.62-1.41-2.42.32.4.64.79.96,1.19,1.07,1.97,2.15,3.95,3.21,5.93ZM63.26,89.39c-.34-.78-.62-1.58-.85-2.4,0-.01-.01-.01,0-.02-.21-.71-.38-1.43-.52-2.16.04-3.11-.04-6.24,0-9.36h0c0-.38,0-.76.01-1.13.36,1.66.71,3.31.99,4.98.52,3.15,1.07,6.82.37,10.09ZM55.65,72.47c.54.76.99,1.58,1.36,2.44,0,.05,0,.11,0,.16-.62-.3-1.48-.05-1.43.83.17,2.8.35,5.6.51,8.4.03.47.06.95.09,1.43-.08-.36-.17-.71-.28-1.06-.52-1.91-1.25-3.75-2.31-5.4.49-2.33,1.11-4.62,2.07-6.8ZM51.47,90.06c.66-2.5,1.07-5.08,1.52-7.66.7,1.6,1.17,3.31,1.51,5.04.19.96.34,1.93.47,2.89t-.01.03c-.58,2.83-.82,5.65-.84,8.46-.49-1.28-1.09-2.52-1.82-3.7-.37-.6-1.06-.6-1.57-.2h-.01c-.11.1-.19.19-.3.28.01-1.21-.01-2.42-.09-3.63-.02-.27-.04-.54-.06-.83.5.12,1.05-.11,1.2-.68ZM47.29,115.4c-.26,1.15-.51,2.31-.76,3.47-.02-2.09.01-4.17.12-6.25.23.92.44,1.85.64,2.78ZM40.91,132.47c.03-.94.03-1.88.03-2.82.31.2.69.25.99.1-.35.9-.69,1.81-1.02,2.72ZM38.44,117.19c.18.35.34.71.47,1.08v.08c0,.16-.01.33-.01.5-.1.23-.2.46-.3.69-.01-.17-.03-.34-.04-.51-.04-.61-.07-1.22-.12-1.84ZM43.95,99.97c.19.3.37.61.53.93-.38,1.08-.58,2.24-.73,3.33-.1.73-.16,1.46-.21,2.19-.25-1.98-.55-4.59.41-6.45ZM39.1,96.86c.89,1.39,1.29,3.13,1.59,4.71.43,2.23.59,4.52.68,6.8-.52-.21-1.26.02-1.4.63-.43,1.86-.7,3.73-.86,5.61-.19-.21-.39-.41-.61-.59-.07-.06-.15-.11-.24-.15.2-3.7.08-7.41-.53-11.11.32-1.98.76-3.95,1.37-5.9ZM30.17,103.33c-.59,4.03-.87,8.08-.98,12.15-.47.48-.81,1.05-1.06,1.68.11-4.67.53-9.44,2.04-13.83ZM28.04,127.82c.15,1.07.31,2.13.45,3.2.04.33.1.66.15.99-.21.28-.41.57-.61.86-.03-1.69-.01-3.37.01-5.05ZM25.67,122.02c.14.21.28.41.41.62-.01.99-.02,1.99-.03,2.98v.09c-.01,1.14-.02,2.27-.03,3.41-.01-.06-.02-.11-.03-.17-.04-.21-.08-.42-.12-.64h0c-.34-1.94-.72-4.33-.2-6.29ZM33.88,126.91c0-.34.04-.68.05-1.02.05.32.1.63.14.95.01.34.02.68.04,1.02.01.28.02.57.03.85-.09-.09-.2-.18-.3-.27v-.05c.01-.49.02-.99.04-1.48ZM23.78,171.65c-.35,1.75-.58,3.5-.67,5.25-.27.43-.57.85-.88,1.26-.12-.81-.2-1.63-.23-2.45.08-.23.16-.45.24-.68.1-.22.22-.44.32-.67.43-.89.83-1.8,1.22-2.71ZM13.23,194.55c-.42-.65-.7-1.36-.88-2.11,0-.26.02-.51.03-.77,0,.01,0,.02.02.02.25.45.61.82,1.02,1.09.12.4.26.78.42,1.17-.19.21-.41.4-.61.6ZM15.06,191.32c-.17-.78-.25-1.59-.27-2.4.13.04.26.07.41.09.14.01.28.01.42.01-.05.76-.05,1.51.03,2.23-.2.06-.4.08-.59.07ZM16.88,196.64c.38-.3.74-.62,1.09-.96.36.25.76.46,1.22.63-.77.23-1.55.36-2.31.33ZM18.55,176.23c.49-1.74,1.1-3.45,1.77-5.12h.01c-.08.62-.15,1.26-.2,1.89l-.75,1.65c-.28.53-.55,1.06-.83,1.58ZM20.63,180.26c.03.14.05.27.09.4.06.23.21.42.4.54-.33.54-.67,1.07-1.04,1.59.15-.85.34-1.69.55-2.53ZM22.76,191.16c-.61.38-1.24.69-1.91.91.71-1.08,1.37-2.16,1.97-3.16.67-1.09,1.31-2.22,1.94-3.34t.01.02c-.06.94-.05,1.88.04,2.82-.62.96-1.3,1.9-2.05,2.75ZM26.78,184.96s-.01,0-.02-.02c.04-.38.08-.77.14-1.15,2.58-4.27,4.31-8.99,6.05-13.68.41-.76.8-1.51,1.18-2.28,0,.02-.01.03-.01.05-2.56,5.65-4.48,11.57-7.34,17.08ZM29.03,188.81c-.08.12-.17.24-.26.36-.01.02-.02.03-.03.04.63-1.15,1.23-2.32,1.78-3.51,1.8-2.75,3.24-5.76,4.43-8.79.2-.5.38-1,.57-1.51-.54,2-1.16,3.97-1.9,5.88-1.38,2.61-2.9,5.13-4.59,7.53ZM42.63,138.09c.25-1.21.53-2.42.78-3.64.08.28.18.55.27.81-.32.96-.67,1.9-1.05,2.83ZM48.48,133.76c-.3-.08-.62.01-.87.19-.13-1.09-.25-2.2-.36-3.31-.02-.19-.04-.39-.06-.59.39-1.67.72-3.37,1.02-5.07.03.34.06.69.09,1.03.01.1.01.21.02.31.19,2.6.42,5.22.96,7.77-.26-.14-.53-.25-.8-.33ZM51.4,111.54c-.29-1.59-.56-3.18-.76-4.77.02-.24.03-.48.04-.72.26.53.51,1.07.76,1.61-.06,1.3-.07,2.59-.04,3.88ZM53.17,106.7c-.73-1.64-1.55-3.25-2.51-4.76-.03-.87-.08-1.75-.14-2.62.14-.72.38-1.39.75-1.98,1.18,2.23,1.94,4.62,2.46,7.1.4,1.86.66,3.76.87,5.67-.45-1.13-.92-2.28-1.43-3.41ZM59.82,169.96c-.5-.81-.98-1.63-1.46-2.46.23.3.46.6.69.9,2.8,3.59,5.91,6.96,8.75,10.52.53,1.19,1.05,2.38,1.56,3.58-3.69-3.75-6.81-8.09-9.54-12.54ZM70.8,167.86c-1.08-1.94-2.13-3.89-3.16-5.84,1.24,1.98,2.39,4.02,3.44,6.09-.09-.08-.18-.17-.28-.25Z"/>
      <path class="cls-2" d="M79.25,89.99c-.17-.46-.62-.8-1.13-.71.7-3.87.93-7.9.4-11.77-.08-.58-.18-1.16-.31-1.73.13-4.14-.21-8.59-2.13-12.1-.27-.49-.9-.61-1.37-.36-.35.19-.67.42-.95.67-.26-.96-.59-1.89-1.09-2.72-.67-1.13-1.71-1.94-2.95-1.96-1.35-1.6-3.11-3.19-5.03-3.99-1.86-.94-3.97-1.52-5.72-1.91-1.29-.28-2.74-.55-4.23-.72-2.43-.37-4.89-.58-7.35-.67-5.44-.19-11.46-.13-16.62,1.79-1.92.71-3.9,1.78-4.63,3.81-.15.42.1.91.46,1.13.14.09.29.15.44.23-2.44,1.34-4.71,3.05-6.15,5.37-.15.24-.17.49-.12.7-2.72,1.16-5.29,2.6-7.54,4.47-.65.55-.13,1.77.71,1.71.4-.03.79-.07,1.19-.12-3.19,2.24-5.68,5.28-6.66,9.21,0,0,0,.01,0,.02-.46.17-.91.42-1.32.79-1.87,1.67-2.29,4.56-2.46,6.92-.24,3.21.09,6.47.61,9.64.45,2.71.97,5.68,2.29,8.13.29.55.85.59,1.28.35.08.19.16.38.25.57,1.15,2.48,3.13,5.3,6.04,5.76.69.11,1.19-.27,1.27-.96.02-.14,0-.28.01-.41,1.72,2.24,3.58,4.36,5.87,6.1.64.49,1.6-.24,1.49-.98.15.2.3.4.45.6.75,1,2.43.06,1.76-.95.32-.17.56-.5.56-.88.03.05.07.09.1.14.73,1.04,2.43.09,1.73-1.01-1.76-2.77-3.75-5.4-5.61-8.11-1.28-4.19-1.64-8.71-3.35-12.71-.15-2.97-.61-6.03-2.17-8.56-.55-.89-1.77-.45-1.86.5-.29,3.03-.34,6.08-.73,9.11-.27,2.11-.62,4.77-1.82,6.72-.83-3.73-.7-7.68-.42-11.46.29-3.93.84-7.84,1.31-11.75.81.5,1.88-.74,1.16-1.64-.47-.59-.78-.99-1.33-1.1.61-.65,1.26-1.26,1.96-1.8,2.64-2.07,5.81-3.47,9.11-4.29,1.04-.24,2.08-.45,3.13-.6,1.29-.17,2.58-.28,3.85-.29,1.29,0,1.29-1.98,0-2-1.16-.02-2.31.07-3.44.22-1.76.21-3.57.57-5.33,1.09-1.59.39-3.17.81-4.77,1.14,1.99-1.1,4.14-1.96,6.27-2.7,3.95-.27,7.91-2.07,11.55-3.29,1.21-.41.73-2.24-.53-1.93-3.78.94-7.8,1.87-11.63,3.21,1.56-1.72,3.7-3.02,5.85-4.03,1.96.39,4.08.28,5.97.02,2.97-.41,6.33-1.32,8.5-3.53.66-.67.12-1.61-.71-1.71-4.11-.46-8.56.89-12.32,2.43-.53.22-1.07.45-1.62.7-.32-.09-.64-.2-.95-.33.72-.9,2.03-1.45,3.02-1.8,2.25-.8,4.66-1.18,7.03-1.41,2.55-.25,5.14-.35,7.74-.31-.47.51-.27,1.48.46,1.65,3.7.86,7.87,1.81,11.74,1.23,0,.27.11.53.29.7,2.39,2.23,5.97,3.89,9.3,3.6.18,3.28.7,7.97,3.05,10.56-.02.44-.03.86-.04,1.26-.04,2.23.06,4.64.46,6.96-.15.74-.27,1.49-.35,2.22-.44,3.67-.29,7.55.72,11.12.11.37.44.63.8.71-1.03,1.97-1.55,4.28-1.66,6.49,0,.11.01.21.04.3-.36-.08-.76.03-1.04.45-2.78,4.15-6.39,8.16-7.45,13.19-.2.95.85,1.61,1.6,1.02.34.65,1.3.94,1.7.1,1.37-2.89,2.85-5.72,4.63-8.38,2.57-1.67,4.65-4.52,6.18-6.99,1.73-2.78,3.81-6.83,2.56-10.17ZM10.33,85.22c-.03.21-.07.42-.12.64-.16-1.16-.19-2.32-.06-3.48.49.68.29,2.14.18,2.84ZM10.31,91.62c-.09-.6-.19-1.2-.32-1.8.16-.02.31-.08.45-.18-.01.14-.03.28-.04.42-.04.52-.07,1.04-.09,1.56ZM7.24,84.86c.09-.3.41-1.02.83-1.66-.05,1.23.04,2.47.27,3.69-.37.04-.73.27-.88.7-1.07,2.99-.41,6.65.26,9.65.02.1.05.21.07.32-.1.11-.18.25-.21.42-.05.24-.07.48-.1.71-.44-2.24-.74-4.52-.85-6.8-.11-2.33-.1-4.77.6-7.02ZM10.83,105.76c-.07-.16-.14-.32-.21-.48.3.51.62,1.01.98,1.48.42.55,1.1.58,1.52.21.57,1.01,1.06,2.05,1.24,3.17-1.65-.88-2.77-2.74-3.52-4.38ZM19.22,105.08c.42.79.86,1.56,1.32,2.32-.1.18-.14.39-.12.59-.14.01-.27.07-.4.15-.37-.42-.75-.85-1.15-1.25.18-.16.31-.39.32-.71,0-.37.02-.74.02-1.11ZM16.31,96.81c.48,3.11.99,6.22.88,9.38,0,.12.03.21.06.31-.39.28-.6.78-.26,1.27.97,1.4,1.9,2.84,2.73,4.34-2.12-2.43-3.9-5.18-5.81-7.76-.15-.2-.34-.32-.54-.38-.01-.08-.02-.17-.04-.25,1.81-1.73,2.55-4.41,2.97-6.9ZM11.39,80.85c-.24-.23-.52-.4-.83-.51.06-.22.12-.44.2-.66.27-.75.62-1.46,1.03-2.14-.13,1.11-.26,2.21-.4,3.32ZM35.35,57.95c-.39.06-.8.1-1.21.14,1.91-.65,3.91-1.18,5.92-1.39-1.5.67-3.19,1.03-4.71,1.25ZM62.99,56.8c.31.14.63.28.93.44.88.47,1.82,1.07,2.49,1.86-1.87-.22-3.72-1.03-5.23-2.15.6-.23,1.21-.27,1.81-.16ZM72.97,84.55c.53.49,1.52.55,1.66-.36.41-2.75.44-5.6.37-8.41.23-.42.48-.83.77-1.22.16.34.29.7.4,1.07-.01,1.06-.05,2.13-.13,3.18-.2,2.65-.59,5.3-1.3,7.87-.35,1.29-.78,2.64-1.42,3.85-.34-1.97-.44-3.99-.35-5.99ZM74.84,94.17c-.08.23-.15.47-.23.7-.3.8-.65,1.69-1.12,2.5.29-1.14.73-2.24,1.35-3.2ZM74.83,65.73c.64,1.57.93,3.3,1.11,4.95.04.41.07.82.1,1.23-.15-.02-.3,0-.44.04-.04-1.68-.6-3.36-1.25-4.91-.03-.17-.04-.33-.07-.5,0-.02,0-.04-.01-.06.17-.27.35-.53.56-.75ZM51.93,54.67s.05,0,.07,0c1.44-.02,2.88.09,4.3.29.09.02.18.03.26.05-1.53.06-3.1-.09-4.64-.34ZM70.96,66.95c-.34-1.15-.55-2.33-.7-3.51.65,1.03,1.24,2.11,1.75,3.21-.22.57-.39,1.17-.52,1.79-.21-.49-.38-1-.53-1.49ZM74.8,99.42c-1.1,1.73-2.48,3.64-4.14,5.09.36-.76.74-1.51,1.09-2.28.13-.29.13-.56.06-.8.24.06.5.03.72-.1,3.05-1.9,4.3-6.15,5.07-9.5.21,2.63-1.51,5.56-2.8,7.59Z"/>
      <path class="cls-2" d="M61.25,61.26c-.47,2.13-.81,4.27-1.07,6.41-.14-.4-.29-.8-.46-1.19-.38-.9-1.54-.44-1.83.24-2.63,6.28-1.69,13.41-1.54,20.03.1,4.39.11,8.78.34,13.16-2.44-12.02-2.01-24.6-4.79-36.59-.22-.93-1.74-.98-1.93,0-.47,2.48-.68,4.99-.73,7.5-.49.05-.97.4-.96.97.07,11.8.85,23.62.26,35.41-3.85-11.66-4.67-24.13-8.21-35.9-.32-1.07-1.96-.88-1.96.27-.02,5.24.05,10.49.26,15.74-1.04-4.46-2.12-8.92-3.09-13.39-.26-1.18-1.86-.78-1.96.27-.92,9.08,2.22,17.93,2.73,26.92-1.09-3.31-2.28-6.6-3.43-9.91.53.02,1.08-.36,1.07-.98-.04-3.84-2.12-7.51-4.31-10.7-.54-2.78-1.13-5.55-1.82-8.3-.27-1.06-2.09-.88-1.96.27.23,2.11.6,4.18,1.04,6.24-.06.07-.12.15-.17.24-1.24-1.91-2.5-3.8-3.83-5.65-.76-1.05-2.25-.17-1.73,1.01,2.09,4.7,4.15,9.41,5.69,14.32,1.29,4.12,2.5,8.75,1.91,13.12-.85-.92-1.57-1.95-2.22-3.03-.86-6.43-2.23-12.78-4.79-18.73-.2-.47-.63-.57-1.03-.46-.02-.13-.05-.26-.07-.39-.23-1.28-2.11-.72-1.93.53.27,1.88.62,3.75,1.01,5.61.74,4.07,1.54,8.15,2.66,12.1.95,3.36,2.42,6.8,3.08,10.32.11,1.42.22,2.83.32,4.24.09,1.28,1.92,1.29,2,0,.09-1.53-.06-3.05-.35-4.56-.03-.35-.06-.71-.09-1.06,1.34,2.23,2.92,4.29,4.86,5.92.52.44,1.52.36,1.67-.44.95-4.98-.54-10.15-1.53-15.12,1.37,3.94,2.73,7.88,3.83,11.88.32,1.16,1.84.8,1.96-.27.89-7.69-1.21-15.22-2.24-22.81,1.28,5.41,2.56,10.83,3.63,16.28.52,5.16,1.23,10.29,2.24,15.38.22,1.09,2.06.86,1.96-.27-.44-5.16-1.24-10.25-2.23-15.32-.69-6.9-1-13.85-1.11-20.79,2.36,10.88,3.55,22.05,7.84,32.42.43,1.03,1.86.91,1.96-.27.36-4.21.49-8.43.52-12.65.11.77.23,1.53.34,2.3.27,4.99.66,9.97,1.63,14.91.22,1.11,2.01.85,1.96-.27-.18-4.96-.89-9.87-1.61-14.77-.22-4.18-.35-8.37-.67-12.54-.45-6.01-1.33-12.21-1.17-18.31,1.89,12.86,1.47,26.14,5.92,38.49.1.27.32.47.58.59.03.16.05.33.08.49.17.96,1.75.95,1.93,0,1.47-7.73,1.29-15.63,1.89-23.44.64-8.41,1.69-16.76,1.6-25.22-.01-1.1-1.71-1.39-1.96-.27ZM28.89,87.48c-.55-1.79-1.19-3.56-1.86-5.31.51.83,1.01,1.66,1.51,2.5.21,1.24.43,2.48.63,3.72-.09-.31-.18-.61-.27-.91ZM28.43,103.25c.09.08.16.16.25.23.55.46,1.47.34,1.67-.44.36-1.42.52-2.88.54-4.34.19,1,.38,2,.57,3.01.41,2.19.8,4.49.7,6.75-1.45-1.53-2.67-3.32-3.73-5.21Z"/>
    </g>
  </g>
</svg>