<?xml version="1.0" encoding="utf-8"?>
<!-- Generator: Adobe Illustrator 28.2.0, SVG Export Plug-In . SVG Version: 6.00 Build 0)  -->
<svg version="1.1" id="Layer_2_00000157302893829034632450000015033214146135905711_"
	 xmlns="http://www.w3.org/2000/svg" xmlns:xlink="http://www.w3.org/1999/xlink" x="0px" y="0px" viewBox="0 0 287.9 301.5"
	 style="enable-background:new 0 0 287.9 301.5;" xml:space="preserve">
<style type="text/css">
	.st0{fill:#231F20;}
</style>
<path class="st0" d="M164.8,25.5c-0.1-0.4-0.7-0.3-0.7,0.1c0.2,4.6,0.6,9.1,0.3,13.7c-0.3,4.8-0.9,9.5-1.9,14.2
	c-1.9,9.2-4.8,18.1-7.3,27.2c-1.4,5.1-2.8,10.2-3.7,15.5c-0.1,0.4,0.5,0.6,0.6,0.2c4.5-18.3,11.9-36.2,13.4-55.2
	C166,36,166.1,30.6,164.8,25.5L164.8,25.5z"/>
<path class="st0" d="M266.6,63.5c-17.8,12.3-36,24-54.7,34.8c-5.3,3.1-10.7,6.1-16,9.2c-0.4,0.3-0.1,0.9,0.4,0.7
	c9.7-4.9,19.2-10.3,28.5-15.9C234,86.7,243.1,81,252,75c5.1-3.4,10.2-7,15.2-10.6C267.7,64.1,267.2,63.1,266.6,63.5L266.6,63.5z"/>
<path class="st0" d="M300.2,166.3c-23.7-2.1-47.3-4.8-70.8-8.2c-6.6-1-13.2-2-19.8-3.1c-0.7-0.1-1.1,1-0.3,1.1
	c23.4,4.2,47,7.6,70.7,10c6.7,0.7,13.5,1.3,20.2,1.9C301.2,168,301.2,166.4,300.2,166.3L300.2,166.3z"/>
<path class="st0" d="M231.8,17.7c-17.8,20.4-33.6,42.6-47.7,65.8c-4,6.6-7.8,13.3-11.5,20.1c-0.3,0.6,0.6,1.1,0.9,0.5
	c13.3-23.5,28.2-46.1,44.6-67.5c4.7-6.1,9.5-12.2,14.3-18.2C232.8,17.9,232.2,17.3,231.8,17.7L231.8,17.7z"/>
<path class="st0" d="M229.8,248.9c-10.5-12.5-21.9-24.4-34.3-35.1c-3.6-3.1-7.2-6-10.8-9c-0.4-0.3-1,0.2-0.6,0.6
	c12.6,10.4,24.4,21.9,35.7,33.7c3.3,3.4,6.4,6.8,9.6,10.3C229.7,249.6,230.1,249.2,229.8,248.9L229.8,248.9z"/>
<path class="st0" d="M146.2,228.4c-0.1-0.6-1-0.4-0.9,0.2c2.8,16.9,4.7,34,8.3,50.7c0.1,0.6,1.2,0.5,1.1-0.1
	C152.8,262.2,149,245.3,146.2,228.4L146.2,228.4z"/>
<path class="st0" d="M104.5,231.8c-8.8,16-17.8,31.8-26.1,48c-0.3,0.5,0.5,1,0.8,0.5c9-15.8,17.4-32,26-48
	C105.5,231.7,104.8,231.3,104.5,231.8L104.5,231.8z"/>
<path class="st0" d="M103.1,117.8C84.6,108,66.1,98.2,47.4,89c-5.3-2.6-10.7-5.2-16.1-7.6c-0.7-0.3-1.4,0.7-0.7,1.1
	c18.4,9.9,37.3,18.9,56,28.3c5.3,2.7,10.6,5.3,15.9,8C103.1,119.1,103.7,118.1,103.1,117.8L103.1,117.8z"/>
<path class="st0" d="M84.1,182c-17.8,0.8-35.7,1.5-53.5,2.3c-5.1,0.2-10.1,0.5-15.2,0.8c-1,0.1-1,1.6,0,1.5
	c17.8-0.8,35.7-1.8,53.5-2.9c5.1-0.3,10.1-0.6,15.2-0.8C84.7,182.9,84.7,182,84.1,182z"/>
<path class="st0" d="M71,140.7c-15.8-4.7-31.5-9.4-47.4-13.8c-0.6-0.2-0.8,0.7-0.2,0.9c15.7,4.9,31.5,9.5,47.3,14.1
	C71.4,142.2,71.8,140.9,71,140.7L71,140.7z"/>
<path class="st0" d="M104.3,97.1c-1.1-1.6-2.7-2.9-4.1-4.3c-1.6-1.5-3.1-3.1-4.6-4.7c-3-3.1-6-6.2-8.9-9.4
	C81,72.4,75.5,65.9,70.2,59.1c-3.1-4-6.1-8-9.1-12.1c-0.2-0.3-0.8,0-0.6,0.3c9.8,14.3,20.8,27.7,32.8,40.1c1.7,1.8,3.5,3.5,5.3,5.3
	c1.7,1.6,3.3,3.5,5.3,4.7C104.2,97.5,104.4,97.3,104.3,97.1L104.3,97.1z"/>
<path class="st0" d="M259.6,190.1c-9.4-2.5-18.8-4.6-28.4-6.4c-4.8-0.9-9.6-1.6-14.4-2.3c-2.3-0.3-4.6-0.6-6.9-0.9
	c-2.4-0.3-4.8-0.8-7.2-0.6c-0.2,0-0.3,0.4-0.1,0.4c2.3,0.7,4.8,0.8,7.1,1.1c2.4,0.3,4.8,0.7,7.2,1.1c4.7,0.7,9.4,1.5,14.1,2.4
	c9.4,1.8,18.9,3.8,28.2,6.1C260,191.2,260.3,190.3,259.6,190.1L259.6,190.1z"/>
<path class="st0" d="M217.3,121.6c-2.4,1.8-4.9,3.5-7.4,5.3c-0.5,0.4,0,1.3,0.5,0.9c2.4-1.8,4.9-3.6,7.3-5.4
	C218.2,122,217.7,121.2,217.3,121.6z"/>
<path class="st0" d="M123.1,70.4c-3.6-6.4-7.1-12.9-10.7-19.3c-0.2-0.3-0.7,0-0.5,0.3c3.6,6.5,7.1,12.9,10.7,19.3
	C122.7,71.1,123.3,70.8,123.1,70.4L123.1,70.4z"/>
<path class="st0" d="M95.4,207.9c-6.9,0.6-13.8,2.6-20.3,4.8c-6.6,2.2-13,5-19.1,8.4c-0.4,0.2,0,0.8,0.4,0.6
	c6.2-3.2,12.6-5.9,19.2-8.2c6.5-2.2,13.2-3.6,19.9-5.1C95.8,208.3,95.7,207.8,95.4,207.9L95.4,207.9z"/>
<path class="st0" d="M123.4,241.2c-0.9,2.7-1.8,5.3-2.7,8c-0.1,0.1,0.2,0.2,0.2,0.1c0.9-2.7,1.8-5.3,2.7-8
	C123.6,241.2,123.4,241.1,123.4,241.2z"/>
<path class="st0" d="M185.7,238.5c-1.5-5.7-5.7-10.4-11.1-12.9c-0.7-0.3-1.3,0.7-0.6,1.1c5,2.4,8.9,6.9,10.7,12.1
	C184.9,239.4,185.9,239.2,185.7,238.5L185.7,238.5z"/>
<path class="st0" d="M212.3,192.9c-7.8-3.6-15.4-7.5-22.8-11.7c-0.2-0.1-0.3,0.2-0.2,0.3c7.3,4.6,14.8,8.5,22.7,11.9
	C212.4,193.6,212.7,193.1,212.3,192.9L212.3,192.9z"/>
</svg>
