<?xml version="1.0" encoding="utf-8"?>
<!-- Generator: Adobe Illustrator 28.2.0, SVG Export Plug-In . SVG Version: 6.00 Build 0)  -->
<svg version="1.1" id="Layer_2_00000022555339132150343750000000581853419917136565_"
	 xmlns="http://www.w3.org/2000/svg" xmlns:xlink="http://www.w3.org/1999/xlink" x="0px" y="0px" viewBox="0 0 67 171.1"
	 style="enable-background:new 0 0 67 171.1;" xml:space="preserve">
<style type="text/css">
	.st0{fill:#231F20;}
</style>
<g id="Layer_5">
	<path class="st0" d="M57.8,152.3c0.4-0.5,0.4-1.2-0.2-1.6c-6.8-4.2-15-4.5-22.5-6.8c-0.1-0.6-0.2-1.2-0.4-1.7
		c-0.1-0.5-0.2-1-0.3-1.5c1.3-1.8,2.9-3.5,4.4-5.1c0.2-0.2,0.3-0.6,0.2-0.9c2.4-0.6,4.8-1.2,7.2-2c1-0.4,0.9-2-0.3-2
		c-3,0-5.9,0-8.9,0.1c2-0.4,3.9-0.8,5.9-1.1c0.6-0.1,0.8-0.7,0.7-1.2c0.3-0.2,0.7-0.5,1-0.7c0.9-0.6,0.5-1.8-0.5-1.9
		c-7.6-0.7-15.2,0.5-22.6,1.9c-1.1,0.2-0.8,2,0.3,2c1.7,0,3.3,0,5,0c-0.2,0.1-0.4,0.1-0.6,0.2c-0.5,0.2-0.8,0.7-0.7,1.2
		c0,0,0,0,0,0.1c-4.2,2.3-7.7,6.1-9.3,10.6c-2.2,2.8-2.8,6.3-1.9,9.8c1.2,4.4,4.5,7.5,9,8.4c0.4,0.1,0.9,0.1,1.3,0.2
		c4.6,2,9.8,2.1,14.8,1.2c2.9-0.5,5.9-1.3,8.7-2.5c2.7,0.4,5.4,0.7,8.1,0.5c0.9-0.1,1.5-1.4,0.5-1.9c-1.1-0.5-2.2-1-3.4-1.5
		C55,155,56.5,153.7,57.8,152.3L57.8,152.3z M47.8,156.9c-0.5-0.1-1-0.2-1.5-0.3c-0.1-0.2-0.2-0.3-0.3-0.5c0.2,0,0.3,0,0.5,0
		c0.6,0.1,1.2,0.1,1.8,0.2c0.2,0.1,0.3,0.1,0.5,0.2C48.3,156.6,48,156.7,47.8,156.9L47.8,156.9z M34.5,133.7
		c-0.4,0.1-0.8,0.2-1.2,0.4c-0.4,0-0.7,0.1-1.1,0.1c-0.3-0.6-0.6-1.1-1-1.6c2.5,0,4.9,0,7.4,0C37.3,133,35.9,133.3,34.5,133.7z
		 M19.9,151.4c-0.7-0.1-1.3-0.1-2,0c-0.5-1.1-0.7-2.2-0.8-3.5c0,0,0,0,0-0.1c0.7-0.7,1.8-1.1,3-1.2c0.1,0.1,0.2,0.1,0.3,0.2
		c0.1,1.8,0.5,3.8,1.9,5.1c0.1,0.1,0.3,0.2,0.5,0.3C21.8,151.8,20.9,151.5,19.9,151.4z M22.6,148.4c1.1,0.8,2.2,1.5,3.4,2.1
		c-0.5,0.2-1.1,0.3-1.6,0.2C23.3,150.5,22.8,149.4,22.6,148.4L22.6,148.4z M27.4,141.8c0.3,0.7,0.5,1.3,0.7,2.1
		c-0.1,0-0.2-0.1-0.3-0.1c-0.1,0-0.2,0-0.3-0.1C27.3,143.1,27.3,142.4,27.4,141.8C27.3,141.8,27.3,141.7,27.4,141.8
		C27.3,141.7,27.3,141.7,27.4,141.8z M25.4,139.6c0,0.1,0,0.1-0.1,0.2c-0.2,0.3-0.3,0.6-0.4,0.9c-0.2-0.2-0.4-0.3-0.5-0.5
		C24.8,140.1,25.1,139.9,25.4,139.6L25.4,139.6L25.4,139.6z M24.6,144.4c0.2-0.1,0.4-0.1,0.5-0.2c0.2,0.6,0.6,1.1,0.9,1.7
		c0.4,1,0.9,1.9,1.6,2.5c-0.8-0.3-1.6-0.6-2.3-0.9c-0.7-0.4-1.4-0.9-1.9-1.5c0.1-0.5,0-1.2-0.6-1.2c0-0.2-0.1-0.3-0.1-0.5
		C23.3,144.5,23.9,144.6,24.6,144.4L24.6,144.4z M26.8,134c0.1,0.5,0.1,0.9,0.1,1.4h-0.1c-0.1,0-0.1,0-0.2,0c-0.5,0.1-1,0.2-1.4,0.4
		c-0.1-0.1-0.2-0.1-0.3-0.2c-0.5-0.2-1-0.1-1.4,0.4c-0.1,0.1-0.2,0.2-0.2,0.3l-0.1-0.1c0.8-1.3,2.1-2,3.5-2.4
		C26.7,133.9,26.8,133.9,26.8,134L26.8,134z M44.3,151.8c-0.2,0.2-0.3,0.5-0.3,0.8c-0.6-0.3-1.2-0.6-1.7-0.9c0.6,0,1.2,0,1.8,0
		C44.2,151.7,44.2,151.8,44.3,151.8z M31.4,144.6c0.3,0.1,0.6,0.2,1,0.4c-0.1,0.2-0.3,0.5-0.5,0.7c-0.4-0.2-0.9-0.5-1.3-0.7
		c-0.2-0.9-0.3-1.8-0.3-2.7c0.2,0.2,0.4,0.4,0.6,0.6c-0.1,0.2-0.1,0.3-0.2,0.5C30.5,144,31,144.4,31.4,144.6z M32.4,155
		c-0.1,0.1-0.2,0.2-0.3,0.4c-1.4-0.5-2.8-1.1-4.2-1.7C29.5,153.6,31.1,154,32.4,155z M47.3,153.9c-0.5-0.2-1.1-0.4-1.6-0.6
		c0.2-0.1,0.4-0.1,0.7-0.2c0.4,0.3,0.8,0.5,1.1,0.8C47.5,153.9,47.4,153.9,47.3,153.9L47.3,153.9z M28.6,138.5l-0.1-0.1
		c0.1-0.2,0.1-0.4,0.1-0.6c0.1-0.1,0.3-0.1,0.4-0.2c0.1,0,0.3,0.1,0.4,0.2C29.1,137.9,28.8,138.2,28.6,138.5z M29.9,134.7
		c-0.5-0.4-0.9-0.9-1.2-1.3c0.7,0.2,1.2,0.7,1.5,1.3C30.1,134.6,30,134.6,29.9,134.7L29.9,134.7z M17.5,144.5c0.3,0.1,0.7,0.1,1-0.2
		c0.7-0.7,1.5-1.2,2.3-1.9c-0.1,0.2-0.1,0.5-0.1,0.8c-0.1,0.5-0.1,0.9-0.2,1.4c-1.1,0-2.1,0.3-3.1,0.8
		C17.4,145,17.4,144.7,17.5,144.5L17.5,144.5z M23.4,154.4c0.2-0.1,0.3-0.2,0.5-0.3c0.1,0.1,0.2,0.2,0.4,0.2
		c1.7,0.7,3.4,1.4,5.2,2.2c-2.8,0-5.7-0.5-8.3-1.7C22,154.7,22.7,154.6,23.4,154.4z M49,152.5c0.5-0.1,1.1-0.2,1.6-0.3
		c0.3,0,0.6-0.1,0.9-0.2c0.1,0.1,0.1,0.2,0.2,0.3c-0.6,0.3-1.1,0.6-1.7,0.8C49.6,152.9,49.3,152.7,49,152.5L49,152.5z M51.3,150
		c-0.3,0.1-0.6,0.1-0.9,0.2c-1.1,0.2-2.2,0.4-3.2,0.6l0,0c0-0.6-0.5-1-1-1c-0.6,0-1.1,0-1.7-0.1c-2.2-1-4.6-1.6-7.2-1.2
		c-0.3,0-0.5,0.2-0.6,0.4c-0.4-0.4-0.9-0.7-1.4-1.1c0.1-0.3,0.1-0.7,0-1.1c0-0.3-0.1-0.5-0.1-0.8C40.5,147.5,46.2,148.2,51.3,150
		L51.3,150L51.3,150z M24.1,157.7c0.2,0,0.4,0.1,0.5,0.1c1.7,0.3,3.4,0.6,5.1,0.5c-1.5,0.1-3.1,0.1-4.5-0.1
		C24.8,158.1,24.4,157.9,24.1,157.7L24.1,157.7z M53.9,152.1c-0.1-0.2-0.2-0.3-0.3-0.5c0.3,0,0.7-0.1,1-0.1c0.2,0,0.3,0,0.4-0.1
		c0.2,0.1,0.3,0.2,0.5,0.3c-0.5,0.5-1.1,1-1.7,1.5C54.1,152.9,54.2,152.5,53.9,152.1L53.9,152.1z M32.8,137.8
		c0.2-0.3,0.3-0.6,0.2-0.9c0-0.2-0.1-0.3-0.1-0.5c0.3-0.1,0.6-0.2,1-0.3c0.6-0.1,1.2-0.1,1.9-0.2c-0.8,0.9-1.6,1.8-2.3,2.8
		C33.3,138.3,33.1,138,32.8,137.8z M38.6,159.5c0.2-0.1,0.4-0.3,0.5-0.5c0.1,0,0.2,0,0.4,0c0.3,0.1,0.6,0.1,0.9,0.2
		C39.7,159.3,39.1,159.4,38.6,159.5L38.6,159.5z"/>
</g>
</svg>
