<?xml version="1.0" encoding="UTF-8"?>
<svg id="Layer_2" data-name="Layer 2" xmlns="http://www.w3.org/2000/svg" viewBox="0 0 93.19 200.9">
  <defs>
    <style>
      .cls-1 {
        fill: none;
      }

      .cls-1, .cls-2, .cls-3 {
        stroke-width: 0px;
      }

      .cls-3 {
        fill: #231f20;
      }
    </style>
  </defs>
  <g id="Layer_1-2" data-name="Layer 1">
    <path class="cls-3" d="M67.16,114.57c0-2.18.04-4.34-.19-6.51-.23-2.2-.6-4.38-.74-6.58-.25-4.07-.01-8.2-.87-12.21-.84-3.93-3.26-7.03-4.95-10.6-1.51-3.21-3.18-5.93-6.42-7.6-2.94-1.51-6.17-2.12-9.45-2.15-4.36-.04-8.72.17-13.05.66-4.27.49-8.27,1.44-12.31,2.92-3.33,1.22-6.33,2.42-7.85,5.88-.67,1.51-.94,3.13-1.17,4.76-.26,1.86-.61,3.72-.68,5.6-.16,4.32.07,8.67,0,13-.07,4.18.96,8.11,1.48,12.23.07.56.13,1.11.19,1.67-.1.11-.19.22-.26.35-.34.58-.03,1.13.44,1.36.1.9.2,1.81.36,2.71.18,1.01.35,2.03.53,3.05.2,1.15.19,2.31.33,3.47.12.96.29,1.93.5,2.87.16.71.53,1.45.47,2.18,0,.03.01.05.01.08-.21-.34-.41-.7-.59-1.06-.39-.79-.5-1.6-.8-2.41-.26-.69-.78-1.24-1.03-1.94-.28-.8-.17-1.72-.35-2.56-.07-.32-.38-.63-.7-.7-.09-.02-.18-.04-.28-.06-1.12-.23-1.66,1.26-.88,1.78.07.67.05,1.35.25,2.01.27.9.96,1.59,1.21,2.49.47,1.69,1.16,3.18,2.24,4.58,1.11,1.45,2.46,2.5,3.86,3.66,1.52,1.26,3.02,2.5,4.59,3.7,3.09,2.36,6.03,4.78,9.81,5.93,3.6,1.1,7.36.98,11.04.39,1.86-.3,3.79-.72,5.51-1.52,1.66-.77,3.03-2.07,4.44-3.21,2.96-2.4,5.32-5.39,8.06-8,.66-.63,1.11-1.39,1.58-2.16.56-.92,1.21-1.73,1.87-2.58,1.06-1.37,1.89-2.99,2.67-4.53.82-1.62,1.31-3.17,1.27-5-.05-1.99-.11-3.97-.11-5.96ZM11.65,86.51c.45-3.14.54-6.9,2.79-9.37,1.14-1.26,2.8-1.83,4.35-2.4,1.75-.64,3.5-1.28,5.29-1.8,3.96-1.15,8.11-1.54,12.21-1.81,3.66-.24,7.59-.59,11.24-.05,2.91.43,6.07,1.5,8.17,3.64,1.21,1.23,1.97,2.84,2.7,4.37.76,1.61,1.58,3.15,2.49,4.67,1.01,1.7,1.89,3.41,2.37,5.34.48,1.93.66,3.92.74,5.9.17,3.91.3,7.73.79,11.62.22,1.73.29,3.46.31,5.18-.95-.38-1.97-.61-2.96-.83-2.01-.46-4.01-.98-6.03-1.39-1.96-.4-3.98-.73-5.98-.81-2.07-.08-4.1.4-6.17.47-2.15.07-4.3,0-6.45,0-1.81,0-3.4.32-5.16.72-1.77.4-3.51.24-5.26.87-.92.33-1.84.71-2.8.93-1.01.23-2.07.11-3.08.36-1.11.28-2.17.79-3.28,1.09-1.05.29-2.1.53-3.14.85-.55.17-1.18.3-1.79.48-.15-1.52-.35-3.05-.62-4.55-.34-1.92-.86-3.8-.92-5.76-.07-1.92.04-3.85.04-5.78,0-3.93-.4-8.06.16-11.97ZM64.72,123.58c-.65,1.52-1.52,3.03-2.4,4.43-.45.71-1.01,1.32-1.51,1.99-.62.82-1.08,1.73-1.66,2.57-.46.66-1.06,1.12-1.65,1.66-.66.61-1.18,1.36-1.8,2.01-2.44,2.61-4.98,5.23-7.95,7.25-2.92,1.99-7.21,2.47-10.65,2.51-3.53.05-6.97-.85-9.97-2.74-3.23-2.03-6.21-4.58-9.12-7.03-1.35-1.13-2.75-2.13-3.83-3.55-.04-.05-.07-.11-.11-.17.57.2,1.37-.11,1.43-.9.1-1.37-.61-2.95-.84-4.3-.32-1.89-.37-3.8-.7-5.69-.29-1.69-.57-3.36-.75-5.06.49-.17,1.11-.25,1.45-.34,1.2-.34,2.39-.67,3.59-1,1.18-.32,2.32-.88,3.51-1.16,1.01-.24,2.06-.13,3.08-.36,1.18-.27,2.27-.79,3.42-1.15,1.13-.35,2.24-.3,3.4-.43.87-.1,1.71-.35,2.56-.55,1.1-.26,2.18-.31,3.3-.31,2.45-.01,4.93.13,7.37-.06,2.53-.2,4.87-.54,7.41-.22,2.44.3,4.82.88,7.21,1.45,1.82.43,3.98.64,5.62,1.63,0,1.5,0,2.99.05,4.5.06,1.76.26,3.38-.45,5.04Z"/>
    <path class="cls-3" d="M80.55,102.15c-.26-2.96-.09-5.99-.07-8.96.04-5.59.31-11.21.12-16.8-.17-4.91-.71-10.22-2.9-14.69-2.15-4.39-6.88-5.41-11.38-5.42-5.44-.01-10.84.32-16.25.87-.41.04-.82.1-1.23.15,0-.04.02-.07.01-.11-.15-1.92-.08-3.91-.69-5.76-.29-.89-.74-1.84-1.48-2.45-.69-.57-1.52-.69-2.39-.7-.29,0-.59-.01-.88-.03.37-1.89.38-3.8.67-5.7.13-.87.09-1.68.05-2.56-.05-1.14.28-2.16.6-3.24.21-.7.34-1.42.45-2.13.83-.02,1.56.17,2.38.29.54.08,1.07-.13,1.23-.7.08-.29-.01-.64-.21-.9.64-.15,1.27-.37,1.84-.68,1.19-.66,1.32-2.13.04-2.79-.52-.26-1.11-.32-1.67-.38-.58-.06-1.14-.16-1.72-.25-.32-.05-.64-.09-.96-.13.09-.83.1-1.67.08-2.52-.03-1.17-.19-2.46-.96-3.39-.72-.87-2.16-1.54-3.18-.75-1.13.88-.86,2.84-1.08,4.07-.16.94-.4,1.87-.63,2.8-.53.12-1.05.26-1.55.45-.6.23-1.2.49-1.75.82-.53.31-1.4.77-1.64,1.37-1.5,0-2.99.02-4.49-.07-1.52-.1-3.01-.33-4.53-.32-1.3,0-2.59.02-3.88,0-1.15-.01-2.08.25-2.79,1.19-.2.26-.18.75,0,1.01,1.02,1.48,2.85,2.1,4.56,2.38,2.33.38,4.65-.17,6.98-.2,2.18-.03,4.33-.54,6.48-.89.51-.08,1.14-.17,1.75-.34-.06,1.63,0,3.28-.06,4.89-.1,2.55-.23,5.1-.24,7.66,0,1.29,2,1.29,2,0,0-2.4.12-4.79.22-7.18.08-1.87,0-3.78.09-5.65.28.05.57.1.86.13.28.03.57.05.85.06-.05.31-.11.62-.18.92-.27,1.05-.68,2.05-.82,3.13-.12.94.06,1.84.03,2.77-.03.93-.3,1.85-.36,2.78-.07,1.03-.11,2.01-.27,3.02-.26.22-.44.54-.38.96,0,.04.01.08.02.11-.82.14-1.64.33-2.46.49-1.68.32-3.27.94-4.23,2.44-.31.48-.38,1.03-.63,1.53-.25.5-.64.91-.88,1.41-.5,1.01-.86,2.24-.4,3.33.18.42.48.73.96.73.77,0,1.27-.56,1.26-1.32,0-.36-.17-.61-.4-.77.07-.65.46-1.29.82-1.82.31-.47.54-.9.71-1.44.15-.44.33-.8.67-1.12,1.16-1.09,3.07-1.08,4.53-1.41,1.01-.23,2.02-.11,3.04-.11.91,0,1.33.18,1.76,1.03.72,1.42.75,3.09.82,4.68-.28.36-.38.89,0,1.33.05.06.08.14.11.2-1.91.24-3.81.5-5.71.75-2.91.38-5.79.31-8.72.34-5.63.06-11.17,1.04-16.72,1.85-2.78.4-5.66,1.05-8.47,1.15-1.04.04-1.23,1.33-.57,1.81-.19.03-.37.1-.53.26-.08.16-.2.25-.35.27-1.06.11-1.23,1.5-.52,1.89-.07.31-.15.62-.25.92-.43,1.28-1.04,2.48-1.47,3.76-.82,2.42-1.41,5.02-1.43,7.58-.02,2.88-.02,5.72.25,8.58.13,1.29-.06,2.38-.21,3.64-.17,1.44-.04,2.93-.04,4.38,0,3.01.16,6.04-.26,9.03-.39,2.73-.35,5.41-.45,8.16-.09,2.7.03,5.23.53,7.89.54,2.83,1.07,5.67,1.59,8.51.47,2.59,1.07,5.12,2.11,7.55,1.05,2.45,1.01,5.31,1.51,7.9.27,1.38.79,2.67,1.31,3.98.5,1.25.94,2.53,1.57,3.72.56,1.06,1.3,2.02,1.84,3.09.58,1.16,1.1,2.24,1.93,3.25,1.72,2.1,3.78,3.88,5.62,5.87,1.7,1.84,3.15,3.74,5.26,5.14,3.38,2.24,7.31,3.45,11.32,3.64.21.73.19,1.52.17,2.26-.03.94-.1,1.87,0,2.8.19,1.74.76,3.46,1.99,4.74,1.31,1.36,3.51,2.3,5.24,1.19.78-.5,1.56-1.21,2.08-1.99.48-.73.61-1.59.63-2.44.02-1.21.06-2.47-.2-3.66-.29-1.28-.91-2.46-1.16-3.75.62-.14,1.24-.29,1.84-.47,2.48-.73,4.61-2.09,6.66-3.64,2.07-1.57,3.89-3.18,5.6-5.14,1.72-1.98,3.25-4.07,4.65-6.28,2.93-4.64,5.85-9.54,7.94-14.63.52-1.28.92-2.6,1.56-3.83.65-1.25,1.47-2.39,2.19-3.6,1.34-2.27,2.09-4.84,2.81-7.36.38-1.34.77-2.68,1.08-4.04.29-1.27.33-2.53.47-3.82.13-1.28.46-2.54.61-3.82.16-1.34.24-2.68.39-4.01.33-2.96.23-5.84-.03-8.79ZM45.75,31.04c.33.04.67.08.99.13.46.07.92.13,1.38.19-.69.17-1.38.24-2.11.25-.1,0-.24.02-.4.04.04-.2.08-.41.13-.61ZM30.85,33.95c-1.89.01-3.77.5-5.66.33-.85-.08-2.03-.28-2.91-.77.62-.02,1.38.12,1.72.11,1.27-.01,2.54-.1,3.8-.02,1.53.11,3.03.2,4.55.27-.5.05-1,.08-1.5.08ZM39.69,32.28c-.27,0-.52-.01-.81-.1-.13-.04-.26-.07-.39-.11.43-.22.88-.4,1.34-.56-.05.25-.1.51-.14.76ZM42.97,26.59c.1-.66-.07-1.88.27-2.45.04.01.06.02.11.04.07.05.14.09.2.14.26.22.37.56.46.87.32,1.14.24,2.58.14,3.76-.57-.01-1.14,0-1.7.04.2-.8.4-1.6.52-2.4ZM42.55,32.57c-.26-.03-.53-.06-.8-.11-.03,0-.07-.01-.1-.02.08-.47.17-.93.28-1.4.59-.07,1.19-.11,1.79-.11-.03.12-.06.23-.09.35-.65-.07-1.28.61-1.08,1.29ZM43.77,174.96c.31.93.39,1.81.39,2.78,0,.71.11,1.52-.12,2.21-.2.6-.75,1.06-1.23,1.46-.64.54-1.13.63-1.9.3-.61-.27-1.16-.69-1.57-1.22-.8-1.03-1.12-2.4-1.17-3.69-.06-1.47.15-2.94-.1-4.37.36-.01.72-.02,1.07-.05,1.23-.1,2.48-.24,3.72-.44,0,.05-.01.1,0,.15.19.99.59,1.91.91,2.86ZM78.71,109.73c-.21,2.68-.58,5.31-.98,7.96-.18,1.15-.15,2.32-.34,3.46-.23,1.37-.66,2.72-1.03,4.06-.69,2.5-1.36,5.15-2.64,7.41-1.24,2.18-2.6,4.14-3.48,6.5-.93,2.47-2.15,4.8-3.36,7.14-2.43,4.7-5.1,9.59-8.51,13.65-1.62,1.93-3.28,3.63-5.26,5.19-2,1.59-4.13,3.18-6.6,3.95-2.92.92-6.15,1.46-9.32,1.42-.23-.12-.48-.12-.72-.03-1.6-.06-3.18-.26-4.69-.65-2.41-.63-4.77-1.75-6.77-3.25-1.95-1.46-3.35-3.54-5.04-5.27-1.79-1.82-3.95-3.56-5.31-5.74-.62-.99-1-2.11-1.62-3.1-.73-1.14-1.42-2.26-1.93-3.53-1.01-2.53-1.91-4.94-2.25-7.66-.29-2.34-.7-4.63-1.6-6.81-1.03-2.48-1.48-5.2-1.94-7.82-.46-2.63-.99-5.24-1.48-7.86-.5-2.69-.4-5.26-.34-7.98.06-2.63.18-5.13.51-7.75.35-2.75.16-5.58.16-8.35,0-1.36-.12-2.76.02-4.11.13-1.28.37-2.41.25-3.7-.48-5.24-.64-10.58,1.01-15.64.35-1.08.86-2.09,1.26-3.15.37-.99.46-2.34,1.04-3.2.33-.48.11-1-.28-1.28h.03c.05,0,.09-.02.14-.03,2.48-.13,4.98-.68,7.43-1.02,2.76-.39,5.5-.86,8.25-1.27,2.69-.41,5.52-.52,8.24-.65,2.63-.13,5.25.07,7.88-.16,5.5-.49,10.95-1.66,16.48-1.79,1.23-.03,2.41-.12,3.63-.29,1.37-.19,2.77-.11,4.15-.11,2.43,0,4.95-.11,7.33.46,4.79,1.14,6.05,6.11,6.84,10.35.99,5.31.82,10.77.7,16.14-.12,5.38-.36,10.85-.07,16.22.15,2.79.44,5.47.21,8.28Z"/>
    <g>
      <path class="cls-2" d="M80.91,77.43c-.06-2.48-.03-4.96-.1-7.44-.13-4.41-.47-9.13-2.67-13.05-2.57-4.59-7.27-6.47-12.25-7.19-7.03-1.02-14.18-.66-21.13.75-6.74,1.37-13.23,3.75-19.38,6.81-5.07,2.52-10.04,5.54-14,9.63-4.31,4.45-7,10.09-7.32,16.32-.45,8.67,1.4,17.32,2.66,25.85.19,1.26,2.1.73,1.92-.53-1.04-7.04-2.39-14.06-2.6-21.19-.17-5.68.7-10.95,3.98-15.7,2.91-4.21,7.09-7.4,11.44-9.99,4.95-2.95,10.26-5.36,15.73-7.14,6.34-2.07,12.97-3.32,19.65-3.41,3.36-.05,6.73.18,10.03.76,2.32.41,4.61,1.13,6.53,2.55,3.27,2.43,4.55,6.45,5.05,10.33.56,4.28.36,8.62.47,12.93.19,7.35.1,15-3.73,21.54-1.6,2.72-3.71,5.06-5.81,7.41-1.02,1.14-2.03,2.28-2.98,3.47-.44.55-.88,1.12-1.29,1.69-.11.15-.3.51-.5.86-.77-.54-2.03.35-1.43,1.31-.1-.16-.15.61-.09.82.13.44.54.76,1.01.77,1.34.04,2.09-1.87,2.73-2.75,1.81-2.51,3.99-4.72,6-7.06,2-2.32,3.86-4.78,5.16-7.56,1.46-3.14,2.27-6.53,2.68-9.96.43-3.6.32-7.21.24-10.82Z"/>
      <path class="cls-2" d="M29.63,120.52c-7.64-2.52-14.97-6.46-21.46-11.2-1.03-.76-2.03.97-1,1.72,5.92,4.33,12.54,7.96,19.45,10.52.04.46.35.89.94.88.6,0,1.2,0,1.8.03,1.16.05,1.29-1.61.26-1.95Z"/>
      <path class="cls-2" d="M68.05,62.17c-.13-.04-.26-.07-.39-.1.37-.27.72-.57,1.05-.9.4-.41.34-.98,0-1.41-.56-.68-1.22-1.25-1.95-1.74.06-.38-.06-.78-.46-.95-2.61-1.11-5.58-1.56-8.53-1.68-1.31-.47-2.71-.74-4.07-.89-4.37-.47-9.07.16-13.19,1.68-.88.32-1.77.7-2.61,1.15-1.61.5-3.21,1.14-4.58,2.1-.47.33-.69,1.14-.24,1.56-.65.38-.52,1.5.18,1.74-.72,0-1.45.01-2.17,0-.75,0-1.1.78-.91,1.37-.29.1-.58.21-.87.31-.64-.26-1.32-.41-2.06-.4-.79,0-1.16.82-.87,1.45-.42.15-.84.3-1.25.45-.33-.4-.95-.51-1.45-.09-.35.29-.7.6-1.04.91-.54.15-1.08.3-1.61.46,4.08-2.49,8.04-5.15,11.61-8.36.97-.87-.43-2.18-1.41-1.41-8.99,7.11-19.91,11.7-30.55,15.74-1.18.45-.74,2.23.53,1.92,1.58-.39,3.15-.81,4.71-1.26-.45.28-.89.56-1.34.85-1.07.69-.13,2.34,1,1.72,4.21-2.31,8.6-4.21,13.06-5.95-1.71,1.08-3.31,2.27-4.76,3.61-.47-.52-1.41-.3-1.69.41-.31.79-.58,1.58-.84,2.38-.67.89-1.26,1.84-1.76,2.87-.06-.26-.1-.52-.16-.78-.02-.1-.07-.18-.11-.26v-.97c0-1.28-1.99-1.28-1.99,0v3.52c-.65,9.24-.01,18.52,0,27.78,0,1.28,1.99,1.28,1.99,0v-2.68c.2-.06.38-.2.5-.38,1.15,3.87,2.8,7.6,4.89,11.14.57.96,2.13.33,1.82-.77-.61-2.13-1.22-4.27-1.74-6.43.56,1.08,1.17,2.13,1.86,3.14.57.82,1.79.51,1.85-.5.08-1.33.06-2.66-.02-3.98.08-.14.14-.3.15-.51.11-4.77-1.21-9.4-1.36-14.15-.03-.9-.98-1.16-1.56-.79-.17-3.13-.42-6.25-.43-9.3,0-.73-.62-1.03-1.16-.93.2-.89.35-1.79.43-2.7,1.92-.97,3.67-2.35,5.18-3.85.76-.75,1.49-1.57,2.17-2.44.16,10.89,1.74,21.71,4.08,32.34.24,1.1,1.97.85,1.95-.26-.05-2.69-.12-5.38-.2-8.08.17-.16.28-.39.24-.69-.01-.09-.03-.18-.04-.26,0,0,0,0,0,0,0-.01,0-.02,0-.04-.08-.61-.18-1.22-.27-1.83-.04-1.51-.08-3.01-.11-4.52.66,2.43,1.31,4.87,1.9,7.32.17.7.91.85,1.43.56.48,3.19,1,6.37,1.64,9.52.22,1.08,2.1.86,1.95-.26-.11-.86-.2-1.72-.31-2.58.59.47,1.52.23,1.6-.72.78-8.86-1.67-17.46-3.59-26.09.01-.2.03-.39.05-.59,4.29,13.07,4.49,27.41,8.55,40.55.33,1.07,1.93.87,1.95-.26.15-8.3-.54-16.55-1.36-24.8.7,2.4,1.53,4.76,2.55,7.06,1.35,3.04,3.12,5.94,5.53,8.26.6.58,1.72.18,1.7-.7-.34-12.51-6.4-23.71-9.54-35.61.07.08.13.16.2.24.39.61.77,1.23,1.13,1.85,1.02,2.24,2.13,4.44,3.28,6.62,3.11,7.05,5.58,14.47,10.35,20.59.6.77,2.02-.07,1.66-.97-2.96-7.51-7.2-14.49-10.9-21.68-.17-.38-.34-.75-.52-1.13,4.53,4.44,9.51,8.35,14.29,12.5.83.72,2.13-.18,1.56-1.21-3.09-5.52-5.87-11.21-9.42-16.45-.39-.58-.79-1.15-1.2-1.72,1.45-.19,2.89-.45,4.3-.81.5-.13.7-.52.7-.92,1.23.31,2.47.61,3.7.9,1.25.29,1.75-1.54.53-1.92-1.47-.46-2.93-.98-4.38-1.53,1.32-.1,2.64-.25,3.93-.5.78-.15.87-1.03.48-1.56.5-.09,1-.19,1.5-.31.06-.02.12-.03.19-.05,1.6.03,3.2.04,4.8,0,1.11-.03,1.37-1.64.26-1.95ZM48.21,69.15c-1.08.04-2.16.05-3.23.02-.67-.02-1.37-.05-2.08-.09-.27-.71-.52-1.42-.76-2.14,1.26-.12,2.54-.19,3.82-.22.79.77,1.54,1.58,2.25,2.42ZM32.96,94.73c-.22-1.97-.44-3.93-.64-5.9-.03-.51-.06-1.02-.1-1.52.79,3.73,1.43,7.48,1.63,11.26-.34-1.26-.65-2.54-.89-3.83ZM30.52,68.42c-.33-.63-1.03-.59-1.47-.22-.34.11-.59.41-.55.9.03.42.07.84.11,1.25-.02.85,0,1.7.04,2.55-.21-.86-.42-1.72-.65-2.57-.31-1.14-1.85-.81-1.95.26-.17,1.79-.28,3.58-.36,5.37-.5-1.98-.95-3.97-1.37-5.96.09-.19.18-.38.26-.57,1.42-.76,2.85-1.51,4.28-2.26,0,0,.01,0,.02,0,.43.12.88.21,1.35.24.44.47.83,1.02,1.17,1.61-.05.3-.11.59-.15.89-.24-.5-.46-1-.71-1.49ZM60.21,59.18c-.96.24-1.94.41-2.92.55-.14-.02-.27-.05-.41-.07-1.29-1.04-2.84-1.76-4.52-2.18.14,0,.29-.02.43-.03,1.35-.07,2.8-.12,4.26-.09.24.02.49.04.73.07.96.42,1.8.98,2.44,1.75ZM41.15,58.43c-.36.16-.7.32-1.03.5-.49.07-.98.15-1.46.24.11-.06.22-.12.33-.18.71-.22,1.44-.4,2.17-.56ZM38.54,91.31c.08-2.01.1-4.02.05-6.03.81,8.08,1.71,16.15,2.04,24.26-1.2-5.7-2.01-11.51-3-17.27.46-.08.9-.43.92-.96ZM36.16,69.78c.39.15.8.29,1.21.41.1,1.96.23,3.91.38,5.86-.35-2.12-.83-4.26-1.59-6.27ZM62.83,60.84c.08-.14.15-.28.16-.44.75-.27,1.46-.61,2.16-.97.5.28.98.6,1.41.98-.49.37-1.02.69-1.58.95-.72-.18-1.44-.35-2.16-.52ZM16.47,107.68c.03.39.04.79.06,1.18-.51-1-.97-2.03-1.39-3.08.1-.45.18-.9.26-1.35.31,1.1.66,2.18,1.07,3.24ZM11.39,89.64c.04-.07.08-.14.12-.21-.46,5.08-.93,10.17,0,15.14-.27-1-.51-2-.72-3.02.14-3.94.13-7.98.6-11.91ZM13.74,101.87c-.17-.53-.34-1.07-.5-1.61-.05-.16-.14-.28-.24-.39-.13-2.95.08-5.94.36-8.93.1,1.77.25,3.55.48,5.3.03.2.05.4.08.6.03,1.68-.01,3.36-.17,5.02ZM18.59,74.64c-.74.75-1.56,1.51-2.45,2.19,1.26-1.68,2.61-3.32,4.05-4.89.02-.01.04-.03.06-.04.35-.22.72-.42,1.08-.64-.8,1.22-1.74,2.36-2.74,3.38ZM27.48,82.81c.01-1.79.06-3.59.12-5.38.95,4.72,1.64,9.49,2.32,14.27-.8-2.97-1.63-5.93-2.44-8.89ZM32.84,72.36c.1.3.2.59.29.86.57,1.75,1.03,3.53,1.41,5.34-.54-1.79-1.15-3.55-1.84-5.29.04-.3.09-.6.14-.9ZM42.94,91.12c-1.36-5.39-2.14-10.91-2.7-16.44,2.96,10.1,7.72,19.78,8.73,30.29-3.1-3.98-4.82-9.03-6.04-13.85ZM51.93,74.15c2.37,3.58,4.4,7.35,6.43,11.12-3.3-2.78-6.61-5.55-9.72-8.56-1.61-1.55-3.18-3.17-4.63-4.88-.1-.24-.21-.48-.31-.72.31.01.63.03.94.04,1.68.05,3.39.03,5.1-.1.77,1.01,1.5,2.05,2.2,3.09ZM50.64,68.99c-.59-.74-1.21-1.47-1.84-2.17,1.87.57,3.75,1.1,5.63,1.61-1.25.26-2.52.44-3.79.56Z"/>
      <path class="cls-2" d="M87.35,77.48c-.34-2.11-1.37-4.12-2.43-5.96-1.42-2.45-3.13-4.75-4.96-6.91-.81-.95-1.66-1.9-2.55-2.82-1.13-2.41-2.34-4.76-3.87-6.88-.73-1.02-2.41-.1-1.72,1,.36.57.69,1.16,1.01,1.76-1.84-1.4-3.81-2.59-5.93-3.4-2.16-.82-4.56-1.07-6.68.02-1.14.59-.13,2.3,1,1.72,2.11-1.08,4.6-.35,6.84.88-.67.07-1.29.77-.81,1.46.6.84,1.23,1.65,1.88,2.45-1.19-.91-2.36-1.84-3.47-2.85-.42-.38-1.29-.42-1.56.2-1.62,3.72-5.89,4.96-9.19,6.75-1.13.61-.12,2.33,1,1.72,3.29-1.79,7.29-3.13,9.34-6.41.59.51,1.18,1.02,1.79,1.5-.8-.17-1.24.85-.96,1.5.14.33.3.65.46.97-.83-.5-1.94.34-1.4,1.3,1.32,2.38,2.87,4.62,4.12,7.04.82,1.6,1.66,3.47,1.72,5.32-1.86-2.68-3.36-5.62-5.05-8.4-.59-.97-2.08-.33-1.82.77,1.05,4.41,2.46,8.74,3.62,13.12-1.77-4.55-3.55-9.09-6.09-13.28-.52-.85-1.83-.49-1.85.5-.24,10.36,6.75,18.9,8.75,28.69,0,.02,0,.04,0,.06-.65,1.88-1.12,3.82-1.39,5.77,0,.01,0,.02-.01.04,0,0,0,0,0,0-.01.09-.03.18-.04.26-.12.9.86,1.14,1.49.78.19.41.64.65,1.06.64,0,.17-.02.33-.02.5-.03.94,1.43,1.42,1.85.5,1.24-2.69,2.24-5.64,2.85-8.64.02,1.27,1.99,1.27,1.99-.01-.02-6.28-.03-12.57-.19-18.85.18-.02.35-.08.49-.18.45,2.01.98,4.01,1.62,5.98.33,1.01,2.06.91,1.95-.26-.35-3.98-.93-7.93-1.64-11.85.36.66.75,1.32,1.16,1.96.7,1.08,2.28.14,1.72-1-.58-1.17-1.08-2.37-1.53-3.59,1.52,2.66,3.32,5.12,5.78,7.11.79.64,1.83.04,1.66-.97ZM82.81,71.87c.38.62.75,1.26,1.09,1.91-1.24-1.57-2.27-3.28-3.2-5.07.75,1.03,1.46,2.08,2.12,3.16ZM68.96,91.58c0,.77,0,1.55,0,2.32-2.26-6.25-5.7-12.2-6.83-18.7,2.58,5.31,4.43,10.97,6.82,16.38ZM73.84,90.32c.12-.54.23-1.08.34-1.62.01.57.02,1.14.03,1.71-.12-.06-.24-.08-.37-.09ZM73.26,68.29c-.22.74-.43,1.48-.62,2.22-1.15-1.81-2.35-3.61-3.4-5.48,1.45.93,2.76,2.05,4.02,3.26ZM69,80.53c-.35-1.26-.71-2.51-1.07-3.77.35.57.71,1.13,1.08,1.69,0,.69,0,1.39,0,2.08ZM73.62,60.96c0,.39.01.77.02,1.16-1.38-1.55-2.84-3.02-4.32-4.48,1.12.72,2.13,1.51,2.94,2.17.46.37.91.76,1.36,1.15Z"/>
      <path class="cls-2" d="M93.19,187.15c-1.08-9.42-6.18-18.02-11.01-25.98-2.43-4-4.97-7.93-7.28-11.99-2.07-3.65-3.89-7.44-6.09-11.01.58-.16,1.04-.77.63-1.42-4.3-6.9-6.54-14.86-9.09-22.52-.18-.54-.37-1.07-.55-1.6,1.1,1.5,2.3,2.94,3.59,4.29.11.12.25.19.38.23,1.16,2.09,2.39,4.16,3.72,6.16.61.91,2.13.36,1.82-.77-2.28-8.27-5.89-16.09-9.27-23.95-2.92-6.8-5.27-13.86-8.47-20.54-1.67-3.48-3.61-6.85-6.15-9.77-.65-.75-1.96.04-1.66.97.69,2.16,1.46,4.28,2.27,6.39-.06.12-.09.26-.07.42.24,1.84.59,3.65.99,5.45-.31-.66-.63-1.31-.95-1.96-1.64-3.25-3.52-6.36-5.78-9.22-.79-1.01-2.19.41-1.41,1.41,7.13,9.06,10.21,20.42,15.11,30.75,1.41,3.62,2.83,7.23,4.07,10.91.23.69.46,1.39.69,2.08-2.55-5.66-5.09-11.33-8.08-16.77-1.86-3.37-3.9-6.65-6.24-9.71-.56-.73-1.85-.57-1.85.5,0,4.81,1.33,9.54,2.95,14.03.16.43.33.86.5,1.29-.74-.31-1.72.49-1.26,1.41,1.37,2.72,2.82,5.4,4.33,8.04.87,6.46,4.79,12.49,8.3,17.83.08.39.19.77.28,1.16-.68-.87-1.38-1.72-2.11-2.54-2.16-2.43-5.14-5.55-8.63-5.74-3.06-.16-5.87,2.16-6.73,5-1.08,3.59.05,7.71,1.25,11.12.18.51.37,1.01.56,1.51.29,2.3.78,4.58,1.37,6.82.98,3.79,2.07,7.8,4.01,11.23,2.78,4.93,6.2,9.55,9.75,13.95.83,1.03,1.69,2.07,2.58,3.11.6,2.46,2.3,4.64,4.07,6.43,1.24,1.24,2.6,2.39,4.07,3.38,2.57,2.61,5.5,4.98,8.89,6.35.59.24,1.2.42,1.81.57.27.18.52.38.79.55.04.03.09.06.14.09.87,1.07,1.73,2.14,2.57,3.22.62.79,1.96-.07,1.66-.97-.01-.04-.03-.09-.05-.13,0,0,.02,0,.02,0,1.47.68,3.07,1.23,4.63,1.14,1.65-.1,2.5-.97,2.89-2.18.33-.48.61-1.05.8-1.76.56-2,.42-4.23,0-6.33.56.11,1.28-.32,1.21-.97ZM53.68,88.13c.19.48.38.95.57,1.43-2.12-4.54-4.2-9.09-6.04-13.74,2.19,3.92,3.86,8.19,5.47,12.31ZM51.55,90.5c-.55-1.61-1.06-3.24-1.54-4.88,3.16,7.7,6.04,15.53,9.5,23.07-1.33-2.09-2.52-4.26-3.61-6.49-1.51-3.88-3.02-7.76-4.35-11.7ZM44.51,134.73c.08,0,.16-.02.25,0,.32.02,1.12.27,1.55.47.15.07.28.16.43.24-.29.35-.4.82-.5,1.43-.32,1.92-.32,3.88-.15,5.82.03.35.08.71.12,1.06-.92-2.65-1.62-5.38-2.04-8.15.1-.31.22-.59.36-.86ZM57.5,143.67c-.5-.69-1.02-1.37-1.55-2.05-.04-.17-.07-.34-.11-.52.14.15.28.3.4.43.43.7.85,1.41,1.26,2.13ZM78.05,164.96s.03.06.04.09c-.69-1.03-1.4-2.06-2.13-3.08.14-.12.25-.27.32-.44.6,1.14,1.19,2.28,1.77,3.43ZM63.18,164.54c.12-.68.29-1.31.53-1.82,1.2,1.83,2.46,3.62,3.78,5.38,2.52,4.76,5.11,9.48,7.55,14.28.74,1.45,1.46,2.92,2.16,4.4-.25-.22-.49-.44-.74-.67-3.3-3.05-6.44-6.29-9.43-9.67-1-1.66-1.96-3.34-2.91-5.02.44.24.73.88.92,1.34.48,1.16,2.41.65,1.92-.53-.69-1.66-2.06-3.43-3.96-2.8l-.1-.18c-.09-1.58,0-3.18.27-4.71ZM62.48,160.82c-1.02,1.28-1.37,3.22-1.48,5.02-.68-1.22-1.35-2.44-2-3.67.15-.78.38-1.54.72-2.26.29-.62.65-1.24,1.07-1.83.55.94,1.12,1.85,1.68,2.75ZM73.12,168.06c-.07-.14-.14-.28-.21-.42.07.09.14.18.21.27.07.1.14.2.21.29.5.79,1.01,1.58,1.53,2.36.49,1.36.96,2.74,1.39,4.13-1.03-2.22-2.08-4.43-3.14-6.63ZM59.72,156.21c-.85,1.04-1.53,2.2-2.03,3.44-.97-1.91-1.9-3.84-2.74-5.81-.69-1.61-1.32-3.26-1.89-4.92.12-.24.26-.47.43-.69.46-.58,1.35-1.22,1.87-1.41,1.14,3.25,2.68,6.39,4.36,9.39ZM50.66,138.6c.28.29.57.58.84.87-.22.38-.41.77-.56,1.17-.11-.68-.2-1.36-.28-2.05ZM52.89,141.01c.36.42.71.85,1.06,1.28.06.08.11.16.17.24.19.82.4,1.63.65,2.44-.52.17-1.04.43-1.55.81-.34.25-.63.52-.89.8-.04-.14-.08-.29-.12-.43-.13-1.76-.02-3.59.68-5.14ZM80.2,183.64c-.02-.76-.09-1.52-.22-2.29.08.07.16.14.25.2.25,1.08.42,2.18.43,3.2-.15-.37-.31-.75-.46-1.12ZM82.17,176.98c-.73-1.88-1.52-3.73-2.35-5.57.75,1.24,1.49,2.49,2.21,3.76.71,1.25,1.42,2.52,2.11,3.82-.69-.63-1.34-1.31-1.97-2.01ZM49.08,148.67c-.9-3.79-1.62-8-.81-11.89.08-.02.16-.02.24-.03.22,3.38.84,6.69,1.76,9.91.08,1.05.22,2.09.42,3.13-.26,1.31-.18,2.72.09,4.13-.18-.34-.37-.67-.55-1.01-.42-1.4-.82-2.82-1.15-4.24ZM83.06,190.83s-.02.03-.02.04c-.32-.86-.64-1.72-.98-2.58.49-1.05.66-2.28.64-3.51.38,1.43.67,2.91.65,4.38,0,.56-.1,1.25-.29,1.66ZM84.81,182.1c.42.3.85.57,1.29.83.11.25.22.49.33.74-.4-.23-.8-.47-1.19-.73-.14-.28-.29-.57-.43-.85ZM71.37,153.83c-.08-.04-.15-.09-.23-.13-.76-1.17-1.49-2.36-2.2-3.57.81,1.24,1.61,2.47,2.43,3.7ZM65.89,150.14c-.14-.13-.28-.27-.42-.41-.35-.74-.68-1.48-1.01-2.22.49.87.96,1.75,1.43,2.63ZM84.67,192.02c.69-1.14.74-2.57.62-3.91.72,1.92,1.31,3.93,1.45,5.97-.83-.42-1.68-.97-2.47-1.53.14-.16.28-.33.4-.54ZM88.73,195.79c.02-.07.03-.14.03-.22.15-3.24-.78-6.5-2.09-9.58.31.17.61.33.92.49.67,1.79,1.24,3.61,1.6,5.46.18.9.29,1.81.24,2.73-.02.3-.03.43-.08.65-.18.2-.4.35-.62.47ZM60.88,144.02c-.44-.57-.88-1.15-1.34-1.71-.5-.6-1.03-1.25-1.59-1.89-.02-.03-.04-.06-.06-.09.75.36,1.46.81,2.13,1.33.27.79.56,1.57.86,2.36ZM49.98,134.81c-.21-.04-.42-.07-.64-.08-.85-.65-1.77-1.21-2.72-1.57.5-.07,1.08-.02,1.76.19,1.13.34,2.13,1.04,3.04,1.88-.47-.18-.94-.32-1.43-.41ZM57.53,169.15c.19.65.42,1.3.66,1.93-.76-1.33-1.51-2.68-2.21-4.05.51.71,1.03,1.41,1.55,2.12ZM85.27,195.76c-.48-.18-.95-.4-1.42-.62.1-.08.19-.18.25-.29.63.42,1.29.81,1.97,1.13-.18-.04-.35-.08-.53-.12-.09-.03-.19-.07-.28-.1ZM86.42,172.81c1.51,3.05,2.89,6.25,3.81,9.56-.62-1.65-1.3-3.28-2.01-4.89-1.41-3.18-2.96-6.39-4.72-9.47.02-.19-.03-.39-.17-.61-3.52-5.27-6.9-10.64-10.2-16.05-.09-.17-.18-.34-.27-.51-2.42-4.49-4.85-8.95-7.02-13.57-.02-.04-.04-.08-.06-.13,2.59,3.73,4.6,7.99,6.73,11.87,4.44,8.05,9.81,15.55,13.91,23.8ZM44.73,92.95c7.24,10.59,11.62,22.91,17.25,34.37.88,1.79,1.79,3.56,2.74,5.3-.63-.7-1.29-1.38-1.99-2.01-.99-2.08-2.01-4.15-3.11-6.18-2.23-4.12-4.81-8.13-8.1-11.5-1.15-2.53-2.27-5.07-3.29-7.65-1.55-3.95-2.96-8.09-3.49-12.33ZM43.4,128.34c.8-.74,2.25-1.35,3.19-1.35,1.12,0,2.32.6,3.39,1.33,3.42,2.33,6.04,5.95,8.36,9.31.25.36.48.73.72,1.08,0,0,0,.02,0,.03-.07-.04-.13-.08-.2-.11-.89-.45-1.82-.76-2.78-.96-.62-.83-1.25-1.64-1.93-2.42-1.58-1.79-3.6-3.62-6.05-4-1.85-.29-3.67.26-4.83,1.67-.27.08-.54.17-.81.3-.28.14-.53.54-.49.86.04.38.1.76.15,1.14-.05.16-.08.33-.12.49-.45-2.59-.49-5.59,1.41-7.36ZM47.67,156.69c-.73-1.97-1.41-4-2.01-6.05.89,1.67,1.83,3.31,2.79,4.92.45.75.92,1.49,1.38,2.23,1.17,3.15,2.52,6.24,4.01,9.25-.26-.36-.52-.72-.78-1.08-2.04-2.95-4.24-6.18-5.39-9.28Z"/>
      <g>
        <path class="cls-1" d="M47.35,21.67c.09-.03.18-.06.28-.09-.07-.27-.14-.54-.22-.81-.1-.06-.2-.11-.29-.17.09.35.16.71.24,1.07Z"/>
        <path class="cls-1" d="M40.3,28.16c-.07.07-.15.13-.22.2.06.15.1.3.15.46.21.01.42.02.63.02-.19-.23-.38-.45-.57-.68Z"/>
        <path class="cls-1" d="M42.85,8.39c.1.02.2.03.3.06-.02-.06-.05-.13-.07-.19-.15,0-.3,0-.46,0,.08.04.15.09.23.13Z"/>
        <path class="cls-1" d="M48.57,31.34c-.08-.48-.19-.95-.33-1.42-.09.02-.19.05-.28.07-.04.62-.1,1.23-.19,1.84.11,0,.22,0,.33.01.13-.05.26-.1.39-.14.03-.12.05-.24.08-.36Z"/>
        <path class="cls-1" d="M37.82,10.8c.27-.1.54-.18.8-.24.36-.22.72-.42,1.1-.61-.19-.01-.37-.01-.56-.02-.5.16-.98.42-1.43.74.03.04.06.08.09.12Z"/>
        <path class="cls-1" d="M58.4,9.11c.25.12.5.23.74.35.77.13,1.54.31,2.29.52-.31-.41-.62-.82-.92-1.23-.93-.48-2.04-.63-3.11-.61.33.33.66.65,1,.98Z"/>
        <path class="cls-1" d="M48.15,35.59c-.35-.23-.7-.47-1.03-.72-.09.26-.19.52-.3.77.29.04.58.08.87.11.15-.05.3-.11.45-.16Z"/>
        <path class="cls-1" d="M37.02,26.47c.04.08.08.16.12.23.28.28.57.55.86.82.13-.23.34-.4.58-.48.16-.15.32-.31.48-.45-1.02-1.36-2-2.75-2.96-4.17-.25-.21-.48-.44-.72-.66.54,1.11,1.22,2.16,1.96,3.1.46.59.16,1.31-.32,1.61Z"/>
        <path class="cls-1" d="M58.32,4.58c-.17.18-.39.31-.68.33-1.7.11-3.35-.14-4.8-1-.02,0-.04,0-.06,0,.94.37.7,1.95-.37,1.9-.04,0-.08,0-.12,0-.13.17-.29.32-.5.4-.03.01-.07.02-.11.03.53.17,1.07.34,1.59.55,2.17-.6,4.61-.93,6.81-.31.37-.24.9-.28,1.29.06.17.15.32.31.48.46-.03-.04-.07-.08-.1-.12-.23-.29-.28-.6-.22-.88-1.03-.55-2.12-1.03-3.22-1.41Z"/>
        <path class="cls-1" d="M57.48,15.26c.62.33,1.25.63,1.84.88.08-.57.06-1.12-.07-1.63-.72-.71-1.49-1.35-2.32-1.94-.44-.24-.88-.46-1.34-.66-.34-.04-.69-.05-1.03-.03.53.91,1.15,1.76,1.85,2.55.38.26.74.54,1.08.84Z"/>
        <path class="cls-1" d="M54.96,38.57c-1.09.86-2.27,1.61-3.49,2.23-.12.12-.24.24-.37.35.13-.05.26-.09.39-.15,1.34-.59,2.51-1.43,3.48-2.44Z"/>
        <path class="cls-1" d="M51.91,30.14c-.39-.05-.78-.13-1.17-.21,0,.01,0,.02,0,.03.06.24.1.48.15.73.35-.17.69-.36,1.03-.56Z"/>
        <path class="cls-1" d="M51.99,25.36c-.52-.87-1.15-1.67-1.85-2.41-.05,0-.09.02-.14.03.13.64.26,1.32.38,2.02.53.13,1.07.25,1.61.36Z"/>
        <path class="cls-1" d="M21.47,25.33c-.07.43-.15.85-.2,1.28.38-.85.83-1.66,1.36-2.42-.41.36-.79.74-1.15,1.14Z"/>
        <path class="cls-1" d="M69.09,17.38c-.54-.61-1.12-1.23-1.69-1.86-.25-.19-.51-.38-.75-.59.09.41.15.82.17,1.25.77.66,1.52,1.34,2.23,2.06.44-.04.87-.1,1.29-.19-.09-.15-.19-.29-.28-.43-.32.11-.69.06-.96-.24Z"/>
        <path class="cls-1" d="M63.03,30.49c.07.2.14.4.2.61.49,1.85.46,3.6.03,5.2.19-.25.38-.5.57-.76.64-1.36,1.05-2.82,1.05-4.31,0-.84-.15-1.61-.41-2.32-.43.56-.91,1.09-1.43,1.58Z"/>
        <path class="cls-1" d="M64.6,23.09c0-.08,0-.15,0-.23-.26-.12-.52-.25-.78-.38-.07.28-.17.55-.27.82.2.21.4.41.6.62.19-.27.34-.54.46-.84Z"/>
        <path class="cls-1" d="M40.84,33.31c.17-.18.33-.36.49-.55-.21-.06-.43-.12-.64-.18-.09.07-.19.12-.3.16.06.11.12.22.18.34.09.08.18.15.27.23Z"/>
        <path class="cls-1" d="M45.88,31.16c.03-.24.04-.48.06-.72-.28.05-.56.08-.84.12.06.06.12.12.18.18.2.15.4.29.61.42Z"/>
        <path class="cls-1" d="M42.17,19.7c.39.17.78.35,1.15.55-.14-.25-.28-.5-.41-.75-.28-.03-.55-.06-.83-.08.03.09.06.19.09.28Z"/>
        <path class="cls-1" d="M33.07,34.61c.21,0,.41-.02.62-.03.09-.25.19-.49.29-.73-.19-.31-.37-.62-.53-.95-.44-.27-.88-.54-1.3-.83.02.06.03.12.05.18.23.8.52,1.59.87,2.36Z"/>
        <path class="cls-1" d="M31.33,27.14s-.02-.02-.02-.03c.04.66.1,1.31.2,1.96.29.24.57.49.86.72-.09-.36-.18-.73-.25-1.1-.31-.49-.57-1.01-.79-1.54Z"/>
        <path class="cls-1" d="M63.35,27.12c-.5.25-1.02.45-1.56.59.16.28.32.57.47.86.41-.45.77-.94,1.09-1.45Z"/>
        <path class="cls-1" d="M33.82,10.63c-.36.38-.69.78-.97,1.22-.03.24-.05.49-.05.74.29-.72.67-1.38,1.12-1.99-.03.01-.06.02-.09.03Z"/>
        <path class="cls-1" d="M70.7,20.02c.13.16.25.32.37.48.03-.2.07-.4.1-.6-.16.04-.31.08-.47.12Z"/>
        <path class="cls-1" d="M31.21,8.06c2.15-1.7,4.82-2.72,7.52-3.4-.86-.14-1.72-.29-2.57-.46-1.26.56-2.49,1.25-3.66,2.12-1.08.81-2.08,1.72-3,2.69.49-.22.98-.44,1.48-.63.05-.12.12-.23.23-.32Z"/>
        <path class="cls-1" d="M33.88,46.38c-.41-.87-.72-1.75-.93-2.65-.98-.34-1.93-.76-2.83-1.25-1.39,0-2.78-.11-4.1-.41.14.22.27.43.41.65.18.28.2.56.11.79,2.09,1.54,4.7,2.54,7.47,3.11-.04-.08-.09-.15-.13-.24Z"/>
        <path class="cls-1" d="M66.86,7.22c.37.32.36.85.12,1.23,1.22,1.24,2.34,2.57,3.43,3.94.43.54.2,1.33-.29,1.62.2.41.38.83.55,1.25.24.26.47.53.69.82-.08-1.57-.39-3.12-.99-4.6-1.36-3.29-4.08-5.45-7.2-6.85,1.35.78,2.6,1.66,3.7,2.59Z"/>
        <path class="cls-1" d="M66.96,21.68c-.02-.07-.03-.15-.05-.22,0,.07,0,.14,0,.2.02,0,.03.01.05.02Z"/>
        <path class="cls-1" d="M36.78,47.05c3.1.34,6.25.24,8.99-.12.07-.03.14-.07.2-.1-3.7.04-7.38-.75-10.72-2.34.1.27.19.53.3.8.33.74.75,1.31,1.22,1.77Z"/>
        <path class="cls-1" d="M68.67,20.7c.17.59.3,1.19.4,1.79.42.15.83.29,1.26.42-.45-.8-1.04-1.53-1.66-2.21Z"/>
        <path class="cls-1" d="M69.98,24.87c-.23-.07-.45-.12-.68-.19.03.73.02,1.46-.05,2.21.26-.67.5-1.34.72-2.02Z"/>
        <path class="cls-1" d="M49.63,48.23c-4.97,2.23-10.41,4.07-15.91,3.1-.45-.08-.89-.19-1.33-.31,1.89.71,3.88,1.13,5.91,1.21,6.22.26,11.95-2.15,16.78-5.86-1.73.8-3.56,1.41-5.46,1.85Z"/>
        <path class="cls-1" d="M35.97,49c-2.39-.31-4.72-.9-6.92-1.83-.3-.13-.58-.27-.87-.41,2.6,1.9,5.58,2.76,8.68,2.79-.31-.16-.61-.34-.89-.55Z"/>
        <path class="cls-1" d="M67.32,23.98c-.24-.09-.49-.16-.73-.26-.08.77-.25,1.52-.51,2.24.24.25.49.51.73.76.61.63.17,1.44-.47,1.63.15.44.27.89.36,1.37.52-1.77.75-3.63.63-5.55,0-.06-.02-.12-.02-.19Z"/>
        <path class="cls-1" d="M36.83,39.79c1.22-.23,2.43-.51,3.63-.84-.32-.09-.63-.19-.94-.32-.02,0-.03-.02-.05-.03-1.36-.06-2.75-.17-4.15-.36.46.56.97,1.08,1.52,1.55Z"/>
        <path class="cls-1" d="M61.58,33.89c-.25.03-.52-.04-.74-.31-.25-.3-.49-.6-.74-.9-.03.02-.07.04-.1.06-.05.09-.1.18-.16.26-.18,1.08-.49,2.13-.91,3.13-.87,2.56-2.5,4.9-4.48,6.93.32-.14.63-.29.94-.45,2.53-1.32,4.88-3.38,5.8-6.17.28-.84.39-1.7.39-2.54Z"/>
        <path class="cls-1" d="M45.09,2.29c.19-.06.38-.12.57-.17-.39.02-.77.05-1.16.08.2.02.39.06.59.09Z"/>
        <path class="cls-1" d="M26.23,26.3c-.24.27-.46.55-.69.84-.16,2.44.42,4.79,1.5,6.94.1.04.2.08.3.12-.97-2.35-1.25-4.91-.7-7.32-.14-.19-.28-.38-.41-.58Z"/>
        <path class="cls-1" d="M46.38,40.62c.28-.26.53-.54.77-.85-.75,0-1.51-.06-2.25-.19-1.6.63-3.24,1.14-4.91,1.55,2.1.22,4.28.02,6.39-.51Z"/>
        <path class="cls-1" d="M23.51,18.4c-.16.37-.31.75-.46,1.13.15-.13.29-.27.45-.39-.01-.25,0-.49.01-.74Z"/>
        <path class="cls-1" d="M49.68,44.52c.59-.43,1.17-.88,1.73-1.37-1.96.72-4.06,1.06-6.17,1.08-.73.2-1.48.35-2.24.46,2.22.27,4.48.22,6.67-.18Z"/>
        <path class="cls-1" d="M28.85,26.39c.15.18.3.36.46.54-.03-.51-.05-1.01-.05-1.52-.16.32-.29.65-.41.98Z"/>
        <path class="cls-1" d="M24.83,37.97c-.65-.88-1.15-1.83-1.52-2.83-.45-.19-.89-.41-1.32-.64.68,1.7,1.53,3.35,2.44,4.94.77.37,1.6.63,2.47.8-.77-.68-1.46-1.44-2.07-2.27Z"/>
        <path class="cls-1" d="M27.75,13.49c-1.18,1.14-2.02,2.6-2.24,4.24.96-.58,1.97-1.07,3.01-1.52-.29-.9-.55-1.81-.77-2.72Z"/>
        <path class="cls-1" d="M30.91,34.6c-.53-1.38-.94-2.89-1.22-4.45-.46-.4-.91-.82-1.33-1.25-.1,1.92.38,3.88,1.34,5.65.41.03.81.05,1.22.06Z"/>
        <path class="cls-2" d="M72.59,23.02c.47-1.94.76-3.91.77-5.9.03-4.79-1.85-9.31-5.73-12.22C63.52,1.81,58.14.71,53.12.26c-5-.45-10.58-.47-15.4,1.12-.67.22-1.31.47-1.95.76-.24.03-.44.14-.6.29-3.89,1.87-7.15,4.82-9.68,8.35-.31.43-.6.87-.89,1.31-1.47,1.25-2.75,2.71-3.76,4.41-1.83,3.09-2.6,6.47-2.55,9.89-1.12,2.33-.58,4.31.77,5.87.19,3.03.87,6.02,2.13,8.83,1.78,3.97,5,7.36,8.98,9.13-.87.09-1.42,1.34-.46,1.8,10.88,5.25,23.18.21,31.05-8.02,3.38-3.54,6.19-7.73,8.4-12.09,1.06-2.08,2.01-4.28,2.75-6.54.67.03,1.16-.57,1.02-1.25-.08-.38-.2-.75-.34-1.11ZM63.82,35.55c-.18.26-.37.51-.57.76.43-1.6.46-3.35-.03-5.2-.06-.21-.13-.41-.2-.61.52-.49,1-1.02,1.43-1.58.26.71.41,1.49.41,2.32,0,1.49-.41,2.95-1.05,4.31ZM21.47,25.33c.36-.4.74-.78,1.15-1.14-.52.76-.97,1.57-1.36,2.42.06-.43.13-.86.2-1.28ZM70.34,18.05c-.42.09-.85.15-1.29.19-.71-.72-1.46-1.4-2.23-2.06-.02-.43-.08-.84-.17-1.25.24.21.5.39.75.59.57.64,1.15,1.25,1.69,1.86.27.3.64.35.96.24.09.14.2.28.28.43ZM63.82,22.48c.26.13.52.26.78.38,0,.08,0,.15,0,.23-.12.29-.28.57-.46.84-.2-.21-.4-.41-.6-.62.11-.27.2-.54.27-.82ZM63.35,27.12c-.32.51-.68,1-1.09,1.45-.15-.29-.3-.58-.47-.86.54-.14,1.07-.34,1.56-.59ZM31.5,29.07c-.1-.65-.16-1.3-.2-1.96,0,.01.02.02.02.03.22.53.48,1.05.79,1.54.07.37.16.74.25,1.1-.3-.23-.58-.47-.86-.72ZM33.45,32.89c.16.33.34.65.53.95-.1.24-.2.49-.29.73-.21,0-.41.03-.62.03-.35-.77-.64-1.57-.87-2.36-.02-.06-.03-.12-.05-.18.43.29.86.57,1.3.83ZM45.94,30.44c-.02.24-.03.48-.06.72-.21-.13-.41-.27-.61-.42-.06-.06-.12-.12-.18-.18.28-.04.56-.07.84-.12ZM43.32,20.26c-.38-.2-.76-.39-1.15-.55-.03-.09-.06-.19-.09-.28.28.02.55.05.83.08.14.25.27.5.41.75ZM40.69,32.58c.21.06.42.12.64.18-.15.18-.31.37-.49.55-.09-.08-.18-.15-.27-.23-.06-.11-.12-.22-.18-.34.11-.04.21-.09.3-.16ZM40.23,28.82c-.05-.15-.1-.31-.15-.46.07-.07.14-.13.22-.2.19.23.38.45.57.68-.21,0-.42-.01-.63-.02ZM39.72,9.95c-.38.19-.74.39-1.1.61-.27.06-.53.14-.8.24-.03-.04-.06-.08-.09-.12.45-.32.94-.58,1.43-.74.19,0,.37,0,.56.02ZM60.51,8.75c.3.42.61.82.92,1.23-.75-.21-1.52-.39-2.29-.52-.24-.13-.49-.23-.74-.35-.34-.32-.67-.65-1-.98,1.06-.01,2.18.13,3.11.61ZM43.14,8.45c-.1-.02-.2-.04-.3-.06-.08-.04-.15-.09-.23-.13.15,0,.3,0,.46,0,.03.06.05.13.07.19ZM47.63,21.58c-.09.03-.18.06-.28.09-.07-.36-.15-.72-.24-1.07.1.06.2.11.29.17.08.27.15.54.22.81ZM47.12,34.87c.34.25.68.48,1.03.72-.15.06-.3.11-.45.16-.29-.03-.58-.06-.87-.11.11-.25.21-.51.3-.77ZM48.1,31.85c-.11,0-.22,0-.33-.01.08-.61.15-1.22.19-1.84.09-.02.19-.05.28-.07.14.47.25.94.33,1.42-.03.12-.04.24-.08.36-.13.05-.26.1-.39.14ZM50.14,22.96c.7.73,1.33,1.54,1.85,2.41-.54-.11-1.07-.23-1.61-.36-.12-.7-.25-1.38-.38-2.02.05,0,.09-.02.14-.03ZM50.74,29.94c.39.08.78.15,1.17.21-.34.19-.68.38-1.03.56-.04-.24-.09-.49-.15-.73,0-.01,0-.02,0-.03ZM51.47,40.8c1.22-.62,2.41-1.37,3.49-2.23-.97,1.01-2.14,1.85-3.48,2.44-.13.06-.26.09-.39.15.13-.11.25-.23.37-.35ZM54.55,11.87c.35-.01.7,0,1.03.03.46.2.9.43,1.34.66.83.59,1.61,1.23,2.32,1.94.13.51.15,1.06.07,1.63-.59-.25-1.22-.55-1.84-.88-.35-.3-.71-.58-1.08-.84-.7-.79-1.32-1.64-1.85-2.55ZM61.76,6.87s.07.08.1.12c-.16-.15-.31-.31-.48-.46-.39-.34-.92-.3-1.29-.06-2.19-.62-4.64-.29-6.81.31-.52-.21-1.06-.38-1.59-.55.03-.01.07-.02.11-.03.2-.08.37-.22.5-.4.04,0,.08,0,.12,0,1.08.04,1.32-1.53.37-1.9.02,0,.04,0,.06,0,1.45.86,3.1,1.11,4.8,1,.28-.02.51-.15.68-.33,1.11.38,2.19.86,3.22,1.41-.06.28-.02.59.22.88ZM32.85,11.85c.28-.44.61-.84.97-1.22.03,0,.06-.02.09-.03-.45.61-.82,1.27-1.12,1.99,0-.25.02-.5.05-.74ZM37.34,24.86c-.74-.94-1.42-1.99-1.96-3.1.24.22.47.44.72.66.96,1.41,1.94,2.81,2.96,4.17-.16.15-.32.3-.48.45-.24.09-.45.26-.58.48-.29-.26-.58-.54-.86-.82-.04-.08-.08-.16-.12-.23.48-.3.78-1.03.32-1.61ZM39.46,38.6s.03.02.05.03c.31.13.63.23.94.32-1.2.33-2.42.61-3.63.84-.55-.47-1.05-.99-1.52-1.55,1.4.19,2.79.3,4.15.36ZM44.9,39.59c.75.12,1.5.19,2.25.19-.24.31-.5.59-.77.85-2.11.54-4.28.73-6.39.51,1.66-.41,3.31-.92,4.91-1.55ZM45.25,44.23c2.11-.02,4.2-.36,6.17-1.08-.56.48-1.14.94-1.73,1.37-2.19.4-4.45.45-6.67.18.76-.11,1.51-.26,2.24-.46ZM55.39,42.6c-.31.16-.63.31-.94.45,1.98-2.03,3.61-4.37,4.48-6.93.43-1,.74-2.05.91-3.13.06-.08.1-.17.16-.26.03-.02.07-.04.1-.06.25.3.49.6.74.9.22.27.49.34.74.31,0,.85-.11,1.7-.39,2.54-.92,2.79-3.26,4.85-5.8,6.17ZM45.09,2.29c-.2-.03-.39-.06-.59-.09.39-.03.77-.06,1.16-.08-.19.05-.38.11-.57.17ZM27.34,34.2c-.1-.04-.2-.08-.3-.12-1.08-2.14-1.66-4.5-1.5-6.94.22-.28.45-.56.69-.84.14.2.27.39.41.58-.55,2.41-.27,4.97.7,7.32ZM25.51,17.73c.22-1.64,1.06-3.1,2.24-4.24.22.91.47,1.82.77,2.72-1.04.44-2.05.94-3.01,1.52ZM29.69,30.15c.28,1.56.69,3.07,1.22,4.45-.41-.01-.81-.04-1.22-.06-.95-1.76-1.44-3.73-1.34-5.65.42.44.87.85,1.33,1.25ZM28.85,26.39c.12-.33.25-.66.41-.98,0,.51.02,1.02.05,1.52-.15-.18-.31-.36-.46-.54ZM21.99,34.5c.43.23.87.45,1.32.64.37,1,.87,1.95,1.52,2.83.61.83,1.31,1.58,2.07,2.27-.87-.17-1.7-.43-2.47-.8-.91-1.59-1.76-3.24-2.44-4.94ZM23.05,19.53c.15-.38.3-.76.46-1.13,0,.25-.02.49-.01.74-.16.12-.3.26-.45.39ZM26.55,43.5c.09-.23.07-.51-.11-.79-.14-.21-.27-.43-.41-.65,1.32.3,2.71.42,4.1.41.9.49,1.85.91,2.83,1.25.21.9.52,1.78.93,2.65.04.09.09.15.13.24-2.77-.57-5.38-1.57-7.47-3.11ZM45.98,46.82c-.07.03-.14.07-.2.1-2.74.37-5.89.47-8.99.12-.47-.46-.89-1.03-1.22-1.77-.12-.26-.21-.53-.3-.8,3.34,1.59,7.02,2.38,10.72,2.34ZM66.96,21.68s-.03-.01-.05-.02c0-.07,0-.14,0-.2.02.07.04.15.05.22ZM68.67,20.7c.62.68,1.21,1.41,1.66,2.21-.42-.13-.84-.28-1.26-.42-.1-.61-.23-1.2-.4-1.79ZM70.7,20.02c.16-.03.31-.08.47-.12-.03.2-.06.4-.1.6-.12-.16-.24-.33-.37-.48ZM70.37,11.48c.61,1.48.91,3.03.99,4.6-.21-.29-.45-.55-.69-.82-.16-.43-.34-.84-.55-1.25.5-.28.73-1.07.29-1.62-1.09-1.37-2.21-2.7-3.43-3.94.24-.38.25-.92-.12-1.23-1.09-.93-2.35-1.81-3.7-2.59,3.12,1.4,5.84,3.56,7.2,6.85ZM32.5,6.32c1.17-.87,2.39-1.56,3.66-2.12.85.17,1.71.33,2.57.46-2.7.68-5.37,1.7-7.52,3.4-.11.09-.18.2-.23.32-.5.2-.99.41-1.48.63.92-.98,1.92-1.89,3-2.69ZM28.18,46.75c.29.14.57.29.87.41,2.2.93,4.54,1.52,6.92,1.83.28.21.58.39.89.55-3.1-.03-6.08-.89-8.68-2.79ZM38.3,52.23c-2.03-.08-4.02-.51-5.91-1.21.44.12.88.23,1.33.31,5.49.97,10.94-.86,15.91-3.1,1.9-.45,3.73-1.06,5.46-1.85-4.83,3.71-10.57,6.12-16.78,5.86ZM66.71,29.72c-.09-.47-.21-.93-.36-1.37.64-.19,1.08-1,.47-1.63-.24-.25-.49-.51-.73-.76.26-.72.43-1.47.51-2.24.24.1.49.17.73.26,0,.06.02.12.02.19.12,1.92-.12,3.78-.63,5.55ZM69.3,24.69c.23.07.45.12.68.19-.22.68-.47,1.35-.72,2.02.07-.74.08-1.48.05-2.21Z"/>
      </g>
      <path class="cls-2" d="M76.31,166.68c-3.96-4.86-7.56-9.99-11.2-15.1.19.17.37.35.56.51,2.35,2.01,5.74,5.17,9.13,4.9.14,0,.29-.02.43-.05.49-.08.88-.76.7-1.22-1.54-3.87-3.8-7.29-6.24-10.6,0,0,0,0,0,0-1.95-2.67-4-5.27-5.89-7.98,1.44,1.31,2.92,2.59,4.57,3.54.75.44,1.52.8,2.35,1.07.48.16.96.29,1.47.39.6.11,1.28-.27,1.25-.96-.09-2.03-1.14-3.95-2.22-5.62-.88-1.37-1.86-2.7-2.89-3.97h0c-.73-.91-1.48-1.8-2.25-2.67-.1-.11-.2-.22-.3-.33-.97-1.1-1.98-2.17-2.99-3.22-.18-4.64-.41-9.28-.18-13.92.06-1.32.13-2.65.17-3.98.07-2.03.06-4.07-.12-6.1-.1-1.12-.25-2.28-.52-3.4t0-.02c-.4-1.73-1.05-3.38-2.2-4.77-.09-.12-.22-.19-.35-.23,0-.98,0-1.96-.04-2.91-.03-1.09-.09-2.18-.15-3.27.05.18.09.35.13.52.14.48.52.69.9.7.41,1.27.93,2.53,1.65,3.73,0,0,0,0,0,0,.05.1.11.19.17.29.36.58,1.4.72,1.72,0,.03-.07.06-.15.09-.22h0c1.61-3.88,1.16-8.31.56-12.36-.67-4.43-1.86-8.74-2.63-13.14-.21-1.21-1.82-.74-1.95.27-.18,1.4-.29,2.8-.37,4.21-.21-.81-.45-1.6-.75-2.38-.41-1.06-1.84-.88-1.95.26-.08.72-.11,1.42-.16,2.13-.31-.43-.64-.85-1-1.24-.43-.45-1.27-.36-1.56.2-1.3,2.48-2.1,5.11-2.7,7.81-.15.04-.29.12-.41.25-.98,1.01-1.67,2.24-2.16,3.57-.36-2.58-.9-5.12-1.7-7.6-.29-.88-1.69-1-1.92,0-.35,1.55-.52,3.1-.6,4.66-.1-.05-.18-.11-.28-.16-.58-.3-1.27-.05-1.46.6-1.19,4.07-.14,8.77.8,12.79.44,1.87.95,3.72,1.49,5.55-.14.22-.22.49-.15.8,0,.06.03.12.04.18-.26-.39-.54-.78-.85-1.13-.35-.4-1.04-.36-1.4,0-.45.45-.78.95-1.04,1.49-.51-1.83-1.3-3.65-2.74-4.87-.59-.51-1.39-.3-1.66.44-.69,1.91-1.21,3.83-1.61,5.77-.27.11-.51.32-.61.62-.14.41-.26.83-.39,1.23.06-2.32.07-4.63.02-6.96-.03-1.12-1.63-1.35-1.96-.27-.34,1.13-.6,2.27-.82,3.42-.23-.14-.5-.2-.75-.16-.45-.38-1.2-.3-1.49.25-2.46,4.53-3.41,9.63-3.77,14.76v.04c-.14,1.96-.19,3.92-.21,5.85-.43-.49-1.22-.24-1.53.23-.11.16-.2.33-.29.5-.86,1.69-.86,3.76-.72,5.58.07.89.17,1.76.31,2.64h0c.28,1.86.69,3.7,1.09,5.52.07.31.14.62.22.92h0c.16.7.32,1.38.48,2.07-.45.87-.87,1.76-1.26,2.66,0,0,0,.02,0,.03-.1.23-.19.47-.29.7.12-.84.24-1.68.35-2.52h0c0-.1.02-.19.03-.27.12-.87-.95-1.19-1.57-.81h0c-.18.12-.32.3-.38.54-.91,3.78-1.78,7.57-2.62,11.37h0c-.55,2.43-1.07,4.84-1.61,7.26-.14.24-.3.48-.43.72.06-.56-.29-.94-.72-1.06-.45-.14-.99.04-1.2.66-.84,2.46-1.79,4.87-2.71,7.29,0,0,0,.02-.02.03-.77,2.03-1.52,4.06-2.19,6.12-.3.91-.59,1.85-.85,2.79-1.15,1.71-2.21,3.48-3.1,5.34-1.18,2.48-2.1,5.19-2.15,7.96,0,.55,0,1.1.08,1.66.15,1.27.52,2.99,1.41,4.14.09.58.23,1.13.42,1.68-.12,1.98.16,3.95,1.28,5.56,2.45,3.51,7.65,3.51,11.23,2.07,5.8-2.34,10.4-7.61,13.64-12.88.19-.29.37-.59.54-.88.2-.34.19-.65.07-.89-.03-.05-.06-.1-.1-.15.16-.31.32-.63.47-.94h0c.4-.83.76-1.66,1.09-2.51.78-1.51,1.5-3.03,2.18-4.53.86-1.9,1.7-3.89,2.42-5.94t0-.02c1.28-3.61,2.18-7.39,2.14-11.14,0,0,0-.02,0-.03,0-.72-.04-1.41-.12-2.12-.02-.2-.1-.36-.19-.5.8-2.57,1.44-5.2,1.83-7.86.06-.28.11-.57.16-.85h0c.24-1.41.33-2.83.2-4.24,0-.22,0-.43-.02-.65,0-.64-.04-1.28-.11-1.92-.04-.4-.25-.74-.57-.9.7-1.38,1.3-2.79,1.85-4.23.18.07.37.09.56.05.26-.03.51-.17.67-.38.54.56,1.77.28,1.72-.62,1.04,2.52,2.23,4.95,3.51,7.33-.78-.39-1.78.53-1.28,1.4,1.35,2.37,2.8,4.67,4.3,6.94-1.06-.87-2.25-1.5-3.58-1.64-.69-.08-1.07.69-.95,1.25,1.4,6.69,4.57,13.05,8.13,18.84,3.6,5.87,7.89,11.62,13.23,16.02.9.75,2-.16,1.56-1.2-.42-.97-.83-1.94-1.24-2.9.41-.13.74-.48.73-.9.58.42,1.2.67,1.88.57.69-.1.84-.95.59-1.46-.1-.22-.22-.44-.33-.66.28-.24.43-.6.28-.97-.27-.66-.55-1.31-.83-1.96.11.13.23.27.34.4.75.87,2.15-.25,1.56-1.2-.77-1.28-1.53-2.57-2.28-3.86.81.3,1.62-.47,1.21-1.4-.72-1.64-1.52-3.27-2.36-4.88.91.84,1.84,1.67,2.78,2.48.98.84,2.22-.42,1.41-1.41ZM44.67,80.78s.04.02.06.04c0,2.06.09,4.13.16,6.19-.37-2.09-.54-4.22-.22-6.23ZM64.06,129.64c.83.92,1.64,1.86,2.43,2.81.91,1.1,1.79,2.25,2.6,3.44.07.11.15.23.23.34,0,0,0,0,0,.02.73,1.07,1.5,2.29,1.9,3.55-.39-.14-.78-.3-1.14-.48-.85-.41-1.64-.91-2.42-1.48-1.65-1.2-3.17-2.7-4.69-4.11.02-1.79,0-3.57-.06-5.35.39.42.79.83,1.16,1.25ZM59.82,96.94c.69,1.88.86,4.02.95,5.9.15,3.16-.04,6.34-.19,9.51-.06,1.12-.08,2.25-.09,3.37-.63-6.27-1.32-12.53-.68-18.78ZM62.49,145.92c.71,1.1,2.21.14,1.72-1-.9-2.13-1.8-4.27-2.84-6.33.32.16.7.12.99-.08,3.83,5.39,8.32,10.36,11.06,16.4-.9-.27-1.78-.85-2.46-1.27-1.72-1.08-3.28-2.4-4.79-3.75-2.46-2.18-4.7-4.57-7.11-6.8v-.06c.06-.86,0-1.84-.12-2.87v-.1c1.13,1.99,2.33,3.94,3.55,5.87ZM68.12,172.09c-.93-1.55-1.84-3.1-2.74-4.67-.47-.81-.93-1.61-1.4-2.41.32.4.64.79.95,1.18,1.06,1.96,2.14,3.93,3.19,5.9ZM62.91,88.9c-.34-.78-.62-1.57-.85-2.39,0,0,0,0,0-.02-.21-.71-.38-1.42-.52-2.15.04-3.09-.04-6.21,0-9.31h0c0-.38,0-.76,0-1.12.36,1.65.71,3.29.98,4.95.52,3.13,1.06,6.78.37,10.03ZM55.35,72.07c.54.76.98,1.57,1.35,2.43,0,.05,0,.11,0,.16-.62-.3-1.47-.05-1.42.83.17,2.78.35,5.57.51,8.35.03.47.06.94.09,1.42-.08-.36-.17-.71-.28-1.05-.52-1.9-1.24-3.73-2.3-5.37.49-2.32,1.1-4.59,2.06-6.76ZM51.19,89.57c.66-2.49,1.06-5.05,1.51-7.62.7,1.59,1.16,3.29,1.5,5.01.19.95.34,1.92.47,2.87t0,.03c-.58,2.81-.82,5.62-.84,8.41-.49-1.27-1.08-2.51-1.81-3.68-.37-.6-1.05-.6-1.56-.2h0c-.11.1-.19.19-.3.28,0-1.2,0-2.41-.09-3.61-.02-.27-.04-.54-.06-.83.5.12,1.04-.11,1.19-.68ZM47.03,114.77c-.26,1.14-.51,2.3-.76,3.45-.02-2.08,0-4.15.12-6.22.23.91.44,1.84.64,2.76ZM40.69,131.75c.03-.93.03-1.87.03-2.8.31.2.69.25.98.1-.35.9-.69,1.8-1.01,2.71ZM38.23,116.55c.18.35.34.71.47,1.07v.08c0,.16,0,.33,0,.5-.1.23-.2.46-.3.69,0-.17-.03-.34-.04-.51-.04-.61-.07-1.21-.12-1.83ZM43.71,99.42c.19.3.37.61.53.92-.38,1.07-.58,2.23-.73,3.31-.1.73-.16,1.45-.21,2.18-.25-1.97-.55-4.56.41-6.41ZM38.89,96.33c.89,1.38,1.28,3.11,1.58,4.68.43,2.22.59,4.5.68,6.76-.52-.21-1.25.02-1.39.63-.43,1.85-.7,3.71-.86,5.58-.19-.21-.39-.41-.61-.59-.07-.06-.15-.11-.24-.15.2-3.68.08-7.37-.53-11.05.32-1.97.76-3.93,1.36-5.87ZM30.01,102.77c-.59,4.01-.87,8.04-.97,12.08-.47.48-.81,1.04-1.05,1.67.11-4.64.53-9.39,2.03-13.75ZM27.89,127.12c.15,1.06.31,2.12.45,3.18.04.33.1.66.15.98-.21.28-.41.57-.61.86-.03-1.68,0-3.35,0-5.02ZM25.53,121.35c.14.21.28.41.41.62,0,.98-.02,1.98-.03,2.96v.09c0,1.13-.02,2.26-.03,3.39,0-.06-.02-.11-.03-.17-.04-.21-.08-.42-.12-.64h0c-.34-1.93-.72-4.31-.2-6.26ZM33.7,126.22c0-.34.04-.68.05-1.01.05.32.1.63.14.94,0,.34.02.68.04,1.01,0,.28.02.57.03.85-.09-.09-.2-.18-.3-.27v-.05c0-.49.02-.98.04-1.47ZM23.65,170.71c-.35,1.74-.58,3.48-.67,5.22-.27.43-.57.85-.88,1.25-.12-.81-.2-1.62-.23-2.44.08-.23.16-.45.24-.68.1-.22.22-.44.32-.67.43-.89.83-1.79,1.21-2.7ZM13.16,193.48c-.42-.65-.7-1.35-.88-2.1,0-.26.02-.51.03-.77,0,0,0,.02.02.02.25.45.61.82,1.01,1.08.12.4.26.78.42,1.16-.19.21-.41.4-.61.6ZM14.98,190.27c-.17-.78-.25-1.58-.27-2.39.13.04.26.07.41.09.14,0,.28,0,.42,0-.05.76-.05,1.5.03,2.22-.2.06-.4.08-.59.07ZM16.79,195.56c.38-.3.74-.62,1.08-.95.36.25.76.46,1.21.63-.77.23-1.54.36-2.3.33ZM18.45,175.27c.49-1.73,1.09-3.43,1.76-5.09h0c-.08.62-.15,1.25-.2,1.88l-.75,1.64c-.28.53-.55,1.05-.83,1.57ZM20.52,179.27c.03.14.05.27.09.4.06.23.21.42.4.54-.33.54-.67,1.06-1.03,1.58.15-.85.34-1.68.55-2.52ZM22.64,190.11c-.61.38-1.23.69-1.9.91.71-1.07,1.36-2.15,1.96-3.14.67-1.08,1.3-2.21,1.93-3.32t0,.02c-.06.93-.05,1.87.04,2.8-.62.95-1.29,1.89-2.04,2.73ZM26.63,183.95s0,0-.02-.02c.04-.38.08-.77.14-1.14,2.57-4.25,4.29-8.94,6.02-13.6.41-.76.8-1.5,1.17-2.27,0,.02,0,.03,0,.05-2.55,5.62-4.46,11.51-7.3,16.99ZM28.87,187.78c-.08.12-.17.24-.26.36,0,.02-.02.03-.03.04.63-1.14,1.22-2.31,1.77-3.49,1.79-2.73,3.22-5.73,4.41-8.74.2-.5.38-.99.57-1.5-.54,1.99-1.15,3.95-1.89,5.85-1.37,2.6-2.88,5.1-4.56,7.49ZM42.4,137.33c.25-1.2.53-2.41.78-3.62.08.28.18.55.27.81-.32.95-.67,1.89-1.04,2.81ZM48.22,133.03c-.3-.08-.62,0-.87.19-.13-1.08-.25-2.19-.36-3.29-.02-.19-.04-.39-.06-.59.39-1.66.72-3.35,1.01-5.04.03.34.06.69.09,1.02,0,.1,0,.21.02.31.19,2.59.42,5.19.95,7.73-.26-.14-.53-.25-.8-.33ZM51.12,110.93c-.29-1.58-.56-3.16-.76-4.74.02-.24.03-.48.04-.72.26.53.51,1.06.76,1.6-.06,1.29-.07,2.58-.04,3.86ZM52.88,106.12c-.73-1.63-1.54-3.23-2.5-4.73-.03-.87-.08-1.74-.14-2.61.14-.72.38-1.38.75-1.97,1.17,2.22,1.93,4.59,2.45,7.06.4,1.85.66,3.74.87,5.64-.45-1.12-.91-2.27-1.42-3.39ZM59.49,169.03c-.5-.81-.97-1.62-1.45-2.45.23.3.46.6.69.9,2.78,3.57,5.88,6.92,8.7,10.46.53,1.18,1.04,2.37,1.55,3.56-3.67-3.73-6.77-8.05-9.49-12.47ZM70.41,166.94c-1.07-1.93-2.12-3.87-3.14-5.81,1.23,1.97,2.38,4,3.42,6.06-.09-.08-.18-.17-.28-.25Z"/>
      <path class="cls-2" d="M78.82,89.5c-.17-.46-.61-.8-1.12-.7.69-3.85.93-7.86.39-11.71-.08-.58-.18-1.15-.31-1.72.13-4.11-.21-8.54-2.12-12.03-.26-.48-.9-.6-1.36-.36-.35.19-.66.42-.95.67-.25-.95-.59-1.88-1.08-2.71-.67-1.12-1.7-1.93-2.93-1.94-1.34-1.6-3.09-3.17-5-3.97-1.85-.94-3.95-1.51-5.69-1.9-1.28-.28-2.72-.55-4.21-.71-2.42-.37-4.87-.58-7.31-.66-5.41-.19-11.4-.13-16.53,1.78-1.91.71-3.88,1.77-4.61,3.79-.15.42.1.9.46,1.12.14.09.29.15.44.23-2.43,1.33-4.69,3.04-6.12,5.34-.15.24-.17.48-.12.7-2.71,1.15-5.26,2.58-7.5,4.45-.65.54-.13,1.76.7,1.7.39-.03.79-.07,1.18-.12-3.18,2.23-5.65,5.25-6.62,9.16,0,0,0,.01,0,.02-.45.17-.9.42-1.31.79-1.86,1.66-2.28,4.54-2.45,6.88-.24,3.19.09,6.43.61,9.58.45,2.69.97,5.65,2.28,8.08.29.54.84.58,1.28.35.08.19.16.38.25.56,1.14,2.47,3.12,5.27,6.01,5.73.69.11,1.18-.27,1.26-.96.02-.14,0-.27.01-.41,1.71,2.23,3.56,4.34,5.84,6.07.64.48,1.59-.24,1.48-.97.15.2.3.4.45.6.74.99,2.42.06,1.75-.95.32-.17.55-.5.55-.87.03.05.07.09.1.14.73,1.03,2.42.09,1.72-1-1.75-2.75-3.73-5.37-5.58-8.07-1.27-4.16-1.63-8.67-3.33-12.64-.15-2.95-.61-5.99-2.15-8.52-.55-.89-1.76-.45-1.85.5-.29,3.02-.34,6.05-.72,9.06-.27,2.1-.61,4.74-1.81,6.69-.82-3.71-.7-7.64-.42-11.4.29-3.91.84-7.79,1.31-11.69.8.5,1.87-.74,1.15-1.63-.47-.59-.78-.98-1.32-1.09.6-.65,1.26-1.25,1.95-1.79,2.63-2.06,5.78-3.45,9.06-4.27,1.03-.24,2.07-.44,3.11-.6,1.28-.17,2.56-.27,3.83-.28,1.28,0,1.28-1.97,0-1.99-1.16-.02-2.29.07-3.42.22-1.75.21-3.55.57-5.3,1.08-1.58.39-3.15.8-4.74,1.13,1.98-1.1,4.12-1.95,6.23-2.69,3.93-.27,7.87-2.06,11.49-3.28,1.21-.41.72-2.23-.53-1.92-3.76.93-7.75,1.86-11.57,3.19,1.56-1.71,3.68-3,5.82-4,1.95.39,4.06.28,5.93.02,2.96-.41,6.3-1.31,8.45-3.51.65-.67.12-1.61-.7-1.7-4.09-.46-8.51.89-12.26,2.42-.53.22-1.07.45-1.61.69-.32-.09-.64-.2-.94-.33.71-.9,2.02-1.44,3-1.79,2.24-.8,4.63-1.17,6.99-1.41,2.54-.25,5.12-.35,7.69-.3-.47.5-.27,1.47.46,1.64,3.68.86,7.83,1.8,11.68,1.22,0,.26.11.53.29.69,2.38,2.22,5.94,3.87,9.25,3.59.18,3.26.7,7.93,3.03,10.5-.02.43-.03.86-.04,1.25-.04,2.22.06,4.61.46,6.92-.14.74-.26,1.48-.35,2.21-.44,3.65-.29,7.51.72,11.06.11.37.44.63.8.71-1.02,1.96-1.54,4.26-1.65,6.45,0,.11.01.21.04.3-.35-.08-.75.03-1.03.45-2.76,4.13-6.36,8.12-7.4,13.12-.2.95.85,1.6,1.59,1.01.34.65,1.29.93,1.69.1,1.37-2.87,2.83-5.69,4.61-8.34,2.56-1.66,4.62-4.49,6.15-6.95,1.72-2.76,3.79-6.79,2.54-10.12ZM10.28,84.75c-.03.21-.07.42-.12.64-.16-1.15-.19-2.31-.06-3.46.49.68.29,2.13.18,2.82ZM10.25,91.12c-.09-.6-.19-1.2-.32-1.79.16-.02.31-.08.45-.18-.01.14-.03.28-.04.42-.04.52-.07,1.03-.09,1.56ZM7.2,84.39c.09-.3.41-1.02.83-1.65-.05,1.23.04,2.46.26,3.67-.37.04-.72.27-.88.69-1.07,2.97-.41,6.61.26,9.6.02.1.05.21.07.31-.1.11-.17.24-.21.41-.05.23-.07.47-.09.71-.44-2.23-.74-4.49-.84-6.77-.11-2.31-.1-4.74.59-6.98ZM10.77,105.18c-.07-.15-.14-.32-.21-.48.3.51.62,1.01.98,1.47.42.55,1.1.58,1.51.21.56,1,1.05,2.04,1.23,3.15-1.64-.87-2.76-2.73-3.51-4.35ZM19.11,104.5c.42.78.86,1.55,1.31,2.31-.1.18-.14.39-.12.59-.14.01-.27.07-.4.15-.37-.42-.75-.84-1.14-1.25.18-.16.31-.39.32-.7,0-.37.02-.74.02-1.11ZM16.22,96.28c.48,3.09.99,6.18.88,9.33,0,.12.03.21.06.31-.39.28-.6.78-.26,1.26.96,1.39,1.89,2.83,2.72,4.31-2.11-2.42-3.88-5.15-5.78-7.72-.15-.2-.34-.31-.54-.38-.01-.08-.02-.17-.04-.25,1.8-1.72,2.54-4.38,2.96-6.86ZM11.32,80.4c-.24-.23-.52-.39-.82-.51.06-.22.12-.44.2-.66.27-.75.62-1.45,1.02-2.13-.13,1.1-.26,2.2-.4,3.3ZM35.15,57.63c-.39.05-.79.1-1.2.14,1.9-.65,3.89-1.17,5.89-1.38-1.49.66-3.17,1.02-4.69,1.24ZM62.64,56.49c.31.14.63.28.93.44.88.47,1.81,1.06,2.47,1.85-1.86-.22-3.7-1.02-5.2-2.13.59-.23,1.2-.27,1.8-.16ZM72.57,84.08c.53.48,1.52.55,1.65-.35.41-2.73.44-5.57.37-8.36.23-.42.48-.83.77-1.21.16.34.29.69.4,1.07-.01,1.06-.05,2.11-.13,3.17-.2,2.64-.59,5.27-1.29,7.83-.35,1.28-.78,2.62-1.41,3.83-.34-1.96-.44-3.97-.34-5.96ZM74.43,93.66c-.08.23-.15.47-.23.7-.3.8-.65,1.68-1.11,2.49.29-1.13.73-2.22,1.34-3.18ZM74.42,65.37c.63,1.56.92,3.28,1.1,4.93.04.41.07.82.1,1.22-.15-.02-.3,0-.44.04-.04-1.67-.6-3.34-1.24-4.89-.03-.17-.04-.33-.07-.5,0-.02,0-.04-.01-.06.16-.27.35-.52.56-.74ZM51.65,54.38s.05,0,.07,0c1.43-.02,2.86.09,4.28.29.09.02.18.03.26.05-1.53.06-3.08-.09-4.62-.34ZM70.57,66.59c-.34-1.14-.55-2.31-.7-3.49.65,1.03,1.23,2.1,1.74,3.2-.22.57-.39,1.17-.52,1.78-.21-.49-.38-.99-.52-1.48ZM74.39,98.87c-1.09,1.72-2.47,3.62-4.12,5.06.36-.76.74-1.5,1.09-2.27.13-.29.13-.56.06-.79.24.06.49.03.71-.1,3.03-1.89,4.28-6.11,5.05-9.45.21,2.61-1.5,5.53-2.79,7.55Z"/>
      <path class="cls-2" d="M60.92,60.92c-.47,2.11-.81,4.24-1.07,6.38-.14-.4-.29-.79-.45-1.19-.38-.89-1.53-.44-1.82.24-2.62,6.25-1.68,13.34-1.53,19.92.1,4.36.11,8.73.34,13.09-2.43-11.96-2-24.47-4.76-36.39-.21-.93-1.73-.97-1.92,0-.47,2.47-.68,4.96-.73,7.46-.48.05-.96.4-.96.96.07,11.73.85,23.49.25,35.21-3.83-11.6-4.65-23.99-8.16-35.7-.32-1.06-1.95-.88-1.95.26-.02,5.21.05,10.43.26,15.65-1.04-4.44-2.1-8.87-3.08-13.31-.26-1.17-1.85-.78-1.95.26-.92,9.03,2.21,17.83,2.72,26.77-1.09-3.3-2.27-6.57-3.41-9.85.53.02,1.07-.35,1.06-.98-.04-3.82-2.11-7.47-4.29-10.64-.53-2.76-1.13-5.52-1.81-8.25-.26-1.06-2.08-.87-1.95.26.23,2.1.59,4.16,1.03,6.2-.06.07-.12.15-.17.23-1.23-1.9-2.48-3.78-3.81-5.62-.75-1.05-2.24-.17-1.72,1,2.07,4.67,4.13,9.36,5.66,14.25,1.28,4.1,2.49,8.7,1.9,13.05-.84-.92-1.57-1.94-2.21-3.02-.85-6.4-2.22-12.71-4.76-18.63-.2-.47-.63-.57-1.02-.46-.02-.13-.05-.26-.07-.39-.23-1.27-2.1-.71-1.92.53.27,1.87.61,3.73,1,5.57.73,4.05,1.53,8.11,2.64,12.04.95,3.34,2.41,6.77,3.06,10.26.11,1.41.22,2.82.31,4.21.09,1.27,1.91,1.29,1.99,0,.09-1.52-.06-3.03-.34-4.53-.03-.35-.06-.7-.09-1.06,1.33,2.22,2.9,4.27,4.83,5.89.52.44,1.51.36,1.66-.44.95-4.95-.54-10.09-1.52-15.04,1.36,3.91,2.71,7.83,3.81,11.82.32,1.15,1.83.79,1.95-.26.89-7.65-1.21-15.13-2.22-22.68,1.27,5.38,2.55,10.77,3.61,16.19.51,5.13,1.22,10.24,2.23,15.3.22,1.09,2.05.86,1.95-.26-.44-5.13-1.24-10.2-2.22-15.24-.69-6.86-.99-13.77-1.1-20.67,2.35,10.82,3.53,21.93,7.8,32.24.43,1.03,1.85.9,1.95-.26.36-4.19.49-8.39.52-12.58.11.76.22,1.52.34,2.29.27,4.97.66,9.92,1.62,14.83.22,1.1,1.99.85,1.95-.26-.18-4.94-.88-9.82-1.6-14.69-.22-4.16-.35-8.32-.66-12.47-.45-5.98-1.33-12.14-1.17-18.21,1.88,12.79,1.46,26,5.88,38.28.1.27.32.47.58.59.03.16.05.33.08.49.17.95,1.74.94,1.92,0,1.46-7.69,1.28-15.54,1.88-23.31.64-8.36,1.68-16.67,1.59-25.08-.01-1.09-1.7-1.39-1.95-.26ZM28.73,87c-.55-1.78-1.18-3.54-1.85-5.28.51.82,1,1.65,1.5,2.48.21,1.23.42,2.47.62,3.7-.09-.3-.18-.6-.27-.9ZM28.28,102.68c.09.07.16.16.25.23.55.46,1.46.34,1.66-.44.36-1.41.52-2.86.53-4.32.19,1,.38,1.99.57,2.99.41,2.18.8,4.47.69,6.71-1.44-1.52-2.66-3.3-3.71-5.18Z"/>
    </g>
  </g>
</svg>