<?xml version="1.0" encoding="UTF-8"?>
<svg id="Layer_2" data-name="Layer 2" xmlns="http://www.w3.org/2000/svg" viewBox="0 0 147.25 122.97">
  <defs>
    <style>
      .cls-1 {
        fill: #FF3131;
        stroke-width: 0px;
      }
    </style>
  </defs>
  <g id="Layer_1-2" data-name="Layer 1">
    <path class="cls-1" d="M145.99,16.2c-3.93,1-7.65,2.79-11.2,4.91-1.11.51-2.21,1.05-3.28,1.61,2.21-1.58,4.41-3.16,6.6-4.78,1.02-.76.03-2.49-1.01-1.73-3.26,2.39-6.55,4.74-9.84,7.09-16.87,11.9-34.32,22.98-51.08,35.05-17.22,12.41-34.97,24.23-51.24,37.89-2.94,2.47-5.82,5.01-8.63,7.63-.35-.03-.72-.11-1.11-.23-1.19-.36-1.71,1.42-.63,1.87-5.13,4.91-9.98,10.11-14.32,15.72-.76.99.5,2.38,1.41,1.41,4.69-4.94,9.63-9.63,14.73-14.12-.18.38-.36.76-.51,1.15-.29.74.55,1.4,1.23,1.23,4.15-1.06,7.75-3.58,11.07-6.18,3.58-2.8,6.97-5.82,10.58-8.58,8.75-6.68,17.47-13.41,26.24-20.06,7.62-5.78,15.31-11.45,23.05-17.05-6.65,6.31-13.53,12.36-20.73,18.07-9.81,7.78-20.03,15.04-30.35,22.14-4.99,3.43-9.96,6.85-15.2,9.91-4.42,2.58-9.41,5.29-12.37,9.61-.73,1.07,1.01,2.07,1.73,1.01,2.6-3.82,7.12-6.25,11.01-8.53,4.51-2.65,8.84-5.49,13.16-8.44,10.03-6.86,19.98-13.85,29.59-21.28,9.43-7.28,18.46-15.03,26.98-23.35,2.32-2.26,4.62-4.55,6.92-6.83,1.26-.89,2.51-1.79,3.77-2.67,3.89-2.31,7.76-4.63,11.6-7.02,9.33-5.8,18.48-11.98,26.91-19.04,2.06-1.44,4.06-2.98,5.89-4.73.74-.71-.03-1.91-.97-1.67ZM139.51,21.26c-1.87,1.29-3.8,2.51-5.72,3.72-4.44,2.82-8.78,5.79-13.13,8.74-4.19,2.84-8.36,5.71-12.53,8.6.7-.65,1.41-1.29,2.11-1.93,3.76-2.44,7.49-4.94,11.13-7.57,4.15-3.02,8.31-6.05,12.66-8.77.91-.57,1.83-1.13,2.76-1.67.89-.39,1.8-.76,2.71-1.11ZM109.09,38.81c-1.61,1.03-3.23,2.04-4.85,3.06,1.79-1.25,3.59-2.5,5.38-3.75.37-.26.74-.51,1.11-.77-.55.48-1.09.97-1.64,1.46ZM28.81,95.58c-.11.08-.21.16-.32.24,2.77-2.27,5.58-4.48,8.42-6.66-2.68,2.17-5.36,4.33-8.1,6.42ZM96.14,49.43c1.68-1.09,3.38-2.18,5.07-3.26-.85.83-1.71,1.66-2.55,2.49-3.99,2.36-7.97,4.71-11.93,7.09-.99.59-1.96,1.21-2.93,1.81,4.1-2.73,8.21-5.45,12.35-8.14ZM41.43,91.6c-4.13,3.16-8.17,6.37-12.16,9.69-3.18,2.64-6.61,5.41-10.51,6.96,1.63-2.79,4.15-5.07,6.6-7.11,3.1-2.58,6.29-5.04,9.42-7.59,7.1-5.39,14.38-10.55,21.71-15.6,8.17-5.64,16.39-11.21,24.8-16.48-13.41,9.87-26.63,20-39.85,30.13Z"/>
    <path class="cls-1" d="M136.79,97.78c-1.73-3.28-4.56-5.89-7.42-8.18-3.24-2.61-6.71-4.93-10.14-7.28-.42-.29-.84-.59-1.26-.89.79.44,1.58.89,2.38,1.32,1,.54,2-.73,1.21-1.57-11.52-12.3-24.65-22.94-37.74-33.5-6.24-5.03-12.45-10.09-18.52-15.33-5.91-5.09-11.81-10.2-18.01-14.94-6.48-4.95-13.32-9.47-20.73-12.88-1.9-1.47-3.82-2.92-5.77-4.34-1.05-.76-2.02.96-1.01,1.73,1.28.97,2.53,1.97,3.79,2.97.04.17.1.34.25.51,2.48,2.85,5.16,5.49,7.96,8-2.32-1.71-4.62-3.42-6.95-5.1-3.23-2.34-6.88-4.97-10.91-5.62-.9-.15-1.78.93-.97,1.67.58.54,1.18,1.05,1.76,1.57-.56-.29-1.13-.59-1.7-.88-.85-.43-2.31-1.51-3.32-1.31-.76.15-.93,1.17-.44,1.67.31.32.8.52,1.18.73.18.1.35.12.51.12.51.25,1.03.5,1.54.76,1.87.94,3.71,1.93,5.53,2.95,1.39.77,2.78,1.57,4.15,2.37,10.33,8.45,21.35,16.03,32.11,23.92,8.24,6.04,16.31,12.31,24.45,18.48,4.73,4.1,9.39,8.27,13.8,12.71,5.37,5.41,10.51,11.28,14.21,17.98-13.59-7.33-26.02-16.61-38.12-26.16-6.49-5.12-12.91-10.32-19.43-15.39-5.32-4.13-10.72-8.16-16.07-12.25-8.29-7.44-16.72-14.75-25.46-21.66-.98-.78-2.35.48-1.41,1.41,7.87,7.9,16.56,14.85,25.4,21.61,7.28,6.53,14.47,13.17,21.69,19.77,15.21,13.9,30.65,27.62,47.48,39.55,4.14,2.94,8.32,5.9,12.62,8.61,3.92,2.47,8.42,4.82,13.19,4.57.65-.03,1.14-.61.96-1.27-.44-1.65-1.46-2.66-3.04-3.26-1.21-.45-1.73,1.48-.53,1.93.37.14.66.33.9.56-3.65-.31-7.06-2.14-10.13-4.05-3.77-2.34-7.41-4.95-11.05-7.48-8.33-5.8-16.33-12.06-24.11-18.58-10.09-8.46-19.81-17.33-29.51-26.23,11.55,9.05,22.84,18.45,34.8,26.95,7.57,5.38,15.4,10.38,23.67,14.61.92.47,1.79-.46,1.37-1.37-2.08-4.41-4.81-8.46-7.86-12.26,1.65,1.39,3.3,2.78,4.97,4.15,8.97,7.32,18.32,14.19,28.37,19.95.89.51,1.83-.5,1.37-1.37ZM101.53,66.25c1.2.87,2.44,1.78,3.61,2.75-10.94-6.67-21.07-14.6-30.79-22.93-2.47-2.11-4.9-4.26-7.33-6.42,8.6,6.46,16.99,13.18,25.48,19.8,2.98,2.32,5.98,4.59,9.03,6.81ZM115.23,77.53c-2.66-1.57-5.29-3.21-7.89-4.88.8.46,1.59.92,2.4,1.36.53.29,1.14.03,1.39-.42,1.38,1.3,2.75,2.61,4.09,3.94ZM62.13,32.25c6.04,5.21,12.23,10.24,18.42,15.27-.86-.68-1.72-1.36-2.59-2.04-5.93-4.63-11.9-9.21-18.05-13.55-2.24-1.58-4.49-3.14-6.73-4.71-4.24-3.82-8.49-7.63-12.81-11.36-1.76-1.52-3.53-3.02-5.32-4.51,9.71,5.95,18.47,13.48,27.08,20.9ZM31.97,16c-2.9-1.86-5.82-3.66-8.79-5.4-1.71-1.4-3.39-2.83-5.06-4.29,1.74.93,3.38,2.07,4.93,3.17,3,2.13,5.96,4.34,8.92,6.52ZM97.33,68.35c.74.51,1.47,1.02,2.22,1.53,5.09,4.05,10.21,8.07,15.46,11.89,3.64,2.66,7.46,5.07,11.07,7.77,2.16,1.62,4.4,3.38,6.26,5.43-12.52-7.69-23.93-16.98-35.01-26.62Z"/>
  </g>
</svg>