<?xml version="1.0" encoding="UTF-8"?>
<svg id="Layer_2" data-name="Layer 2" xmlns="http://www.w3.org/2000/svg" viewBox="0 0 185.96 132.38">
  <defs>
    <style>
      .cls-1 {
        fill: #3c50a2;
        stroke-width: 0px;
      }
    </style>
  </defs>
  <g id="Layer_1-2" data-name="Layer 1">
    <path class="cls-1" d="M2.52,39.91c.07-.12.16-.17.29-.17l.38,2.95c5.33-6.1,10.02-12.78,14.88-19.25s9.67-13,14.61-19.43l-4.87-2.06c-1.59,9.05-2.45,18.28-3.25,27.43-.8,9.09-1.35,18.21-1.65,27.34-.1,2.9,4.12,4.05,5.5,1.49,1.98-3.67,2.24-7.77-.04-11.35-1.45-2.27-4.64-.76-4.2,1.77.36,2.06.14,4.72-.86,6.6l5.5,1.49c.23-9.04.69-18.07,1.41-27.09s1.91-17.97,2.83-26.97c.12-1.15-.91-2.28-1.96-2.57-1.21-.33-2.32.25-3.01,1.23-4.62,6.54-9.37,12.98-14.06,19.47C9.35,27.25,4.44,33.62.25,40.42c-.5.82-.22,2.13.67,2.57,1.64.8,3.57.27,4.05-1.65.37-1.47-1.36-2.37-2.45-1.43h0Z"/>
    <path class="cls-1" d="M9.59,33.09c2.66-.44,5.33-.75,8.01-1.08,1.33-.16,2.66-.29,4-.38.72-.05,1.44-.08,2.16-.11,1.02-.05,1.88-.23,2.8-.69s1.31-1.56,1.19-2.48c-.14-1.02-.83-1.72-1.78-2.07-1.6-.58-3.44-.11-5.08.12-1.38.19-2.75.42-4.11.69-2.79.55-5.51,1.46-8.15,2.5-2.16.86-1.35,3.86.96,3.48h0Z"/>
    <path class="cls-1" d="M34.35,55.89c4.11-5.72,7.55-11.8,10.49-18.2s5.38-13.15,7.98-19.76l-5.08-1.4c-1.61,7.48-2.33,15.15-2.44,22.79-.03,1.84,1.87,3.33,3.66,2.79,3.21-.98,5.17-3.53,6.89-6.26,1.97-3.13,3.9-6.28,5.84-9.43,3.93-6.36,7.86-12.72,11.8-19.08l-5.4-2.28c-2.19,7.64-4.37,15.27-6.56,22.91-1.09,3.82-2.19,7.64-3.28,11.46-.52,1.83-1.05,3.66-1.57,5.49-.27.95-.55,1.91-.82,2.86l-.2.72c-.2.58-.19.63.03.16.24-.38.23-.42-.03-.12.16-.13.33-.25.51-.33h1.52l-.15-.04,1.26.73-.11-.12.73,1.25-.07-.2c-.43-1.32-1.67-2.22-3.07-2.01-1.28.19-2.55,1.34-2.43,2.75.23,2.77,2.9,4.08,5.3,2.7,2.13-1.23,2.45-3.89,3.07-6.04,1.27-4.46,2.54-8.91,3.81-13.37,2.59-9.07,5.18-18.14,7.77-27.21.93-3.26-3.66-5.11-5.4-2.28-3.67,5.94-7.33,11.89-11,17.83-1.81,2.94-3.63,5.87-5.44,8.81-1.13,1.84-2.47,4.89-4.52,5.53l3.66,2.79c.03-7.17.69-14.3,1.74-21.39.21-1.4-.35-2.83-1.84-3.24s-2.8.48-3.24,1.84c-2.09,6.56-4.39,13.07-6.95,19.45s-5.5,12.57-9.28,18.25c-1.18,1.78,1.62,3.35,2.83,1.66h0Z"/>
    <path class="cls-1" d="M73.3,55.01c3.13-6.16,5.61-12.64,8.6-18.87,1.48-3.08,3.03-6.13,4.69-9.12s3.3-6.05,5.4-8.71l-4.66-1.93c-.84,6.36-1.13,12.82-1.34,19.23s-.2,12.84.02,19.26c.04,1.3.89,2.49,2.17,2.85,1.15.32,2.83-.18,3.33-1.36.99-2.29,1.11-5.1-1.07-6.79-1.95-1.52-4.54-.14-4.09,2.38.05.29.1,1.33.06,1.43l5.5,1.49c-.26-6.42-.31-12.84-.16-19.26.16-6.42.68-12.81,1.04-19.23.15-2.72-3.82-3.7-5.09-1.38-1.68,3.06-3.55,6.01-5.19,9.1s-3.23,6.38-4.7,9.64c-2.91,6.45-5.8,13.07-7.91,19.83-.62,1.99,2.44,3.33,3.41,1.44h0Z"/>
    <path class="cls-1" d="M77.44,42.59c1.65-.59,3.38-1.07,5.1-1.39.21-.04.43-.08.64-.11.12-.02.25-.04.37-.06-.44.06-.43.06.02,0,.18-.02.35-.05.53-.07-.39.05-.44.06-.14.02.22-.02.43-.05.65-.07.52-.05,1.04-.06,1.56-.13s1.07-.21,1.6-.31c1.02-.19,1.86-1.37,1.82-2.38-.02-.44-.13-.86-.34-1.25-.25-.47-.93-1.06-1.48-1.14-.63-.09-1.31-.25-1.96-.24-.59,0-1.25.15-1.82.23-.92.14-1.83.33-2.72.58-1.94.55-3.78,1.34-5.5,2.38-.92.56-1.3,1.7-.88,2.69.39.92,1.53,1.61,2.54,1.25h0Z"/>
    <path class="cls-1" d="M94.99,62.63c5.1-12.66,9.56-25.56,14.59-38.24l-5.67-.77c1.48,11.9-1.99,23.78-.1,35.68.18,1.12,1.42,1.99,2.46,2.12,1.27.15,2.2-.42,2.94-1.41,2.47-3.28,3.72-7.31,5.13-11.11,1.56-4.2,3.13-8.41,4.69-12.61,3.13-8.4,6.36-16.78,9.37-25.23.98-2.75-3.05-5.1-4.96-2.89-.88,1.02-1.71,2.03-2.42,3.18s-.35,2.72.7,3.51c1.16.87,2.48.66,3.57-.21.87-.7,1.59-1.45,2.34-2.28l-4.96-2.89c-3.17,8.21-6.13,16.51-9.19,24.76-1.5,4.05-3,8.1-4.51,12.15-1.36,3.66-2.51,7.48-4.88,10.64l5.4.71c-.91-5.65-.36-11.45.1-17.11.48-5.95.84-11.82-.04-17.76-.18-1.23-1.63-2.12-2.78-2.12-1.34,0-2.34.92-2.78,2.12-4.72,12.75-9.37,25.57-12.66,38.77-.6,2.41,2.75,3.2,3.64,1h0Z"/>
    <path class="cls-1" d="M131.8,22.5c-1.54,2.67-2.33,6.02-3.27,8.94l-2.88,8.99c-1.92,5.99-3.77,12.01-5.64,18.01l5.65,1.56c.26-1.66.32-3.29.2-4.96-.14-1.91-2.5-2.6-3.58-.97-.92,1.38-1.68,2.82-2.26,4.37s.62,3.21,2.05,3.6c1.55.43,3.15-.52,3.6-2.05,1.78-6.03,3.6-12.05,5.34-18.09l2.54-8.82c.88-3.05,2.08-6.31,2.3-9.49.15-2.2-3.01-2.88-4.04-1.09h0Z"/>
    <path class="cls-1" d="M131.15,31.15c1.23-4.44,7.35-5.83,11.3-6.35,2.63-.34,5.12-.28,6.96,1.84,1.54,1.78,2.33,3.88,2.8,6.14.91,4.45-.33,9.45-2.83,13.44s-6.91,7.24-11.5,9.01c-2.81,1.08-5.81,1.85-8.77,2.22-1.57.2-3.15.3-4.73.33-.59.01-1.34-.17-1.89-.1-.51.07-.1-.15-.14-.07.21.1.29.3.23.6-.04-.37-.03-.42.02-.16.45-1.33-.41-2.86-1.65-3.36-1.38-.56-2.72-.03-3.56,1.17-1.3,1.85-.76,4.39.74,5.96s3.75,1.94,5.85,1.92c3.54-.02,7.14-.45,10.59-1.27,6.67-1.59,13.35-4.97,17.75-10.35,4.14-5.07,6.6-11.79,5.88-18.39-.77-7.06-5.2-14.88-13.25-14.49-3.7.18-7.78,1.44-11,3.28-2.96,1.69-5.38,4.31-6.13,7.71-.48,2.16,2.73,3.07,3.32.92h0Z"/>
    <path class="cls-1" d="M155.45,66.57c2.41-3.21,4.51-6.69,6.85-9.97s4.91-6.61,7.4-9.87c5.08-6.65,10.23-13.24,15.38-19.84l-4.52-3.48c-3.16,7.06-4.26,14.7-5.44,22.29-1.26,8.16-2.7,16.31-3.76,24.5l5.04-2.09c-.22-.22-.55-.42-.65-.71-.9-2.76-4.78-2.19-4.97.67-.1,1.58.39,3.04,1.45,4.21,1.41,1.56,4.55.86,4.93-1.3,1.4-7.87,2.41-15.83,3.61-23.73,1.11-7.36,2.2-14.7,5.04-21.63.54-1.31-.47-2.91-1.66-3.39-1.42-.57-2.72-.01-3.59,1.18-5.07,6.93-10.2,13.82-15.24,20.77-2.4,3.32-4.71,6.71-6.89,10.17s-4.45,7.14-5.9,10.99c-.69,1.83,1.92,2.55,2.91,1.23h0Z"/>
    <path class="cls-1" d="M165.66,52.25c.77.13,1.54.29,2.31.4.97.14,1.95.16,2.93.21,1.61.08,3.23.13,4.84.18l-1.45-5.37c-.55.38-1.14.8-1.57,1.32-.55.66-.84,1.42-.6,2.28.2.74.85,1.49,1.64,1.64.66.12,1.32.18,1.99.13.78-.06,1.47-.28,2.04-.84.5-.5.88-1.32.84-2.04-.07-1.53-1.27-2.92-2.88-2.88s-3.23.07-4.84.15c-.98.05-1.96.07-2.93.21-.78.11-1.54.27-2.31.41-.9.16-1.64,1.22-1.6,2.1s.64,1.94,1.6,2.1h0Z"/>
    <path class="cls-1" d="M11.79,101.09c-.06-6.09,5.87-10.31,11.27-11.42,1.32-.27,2.7-.38,4.05-.36,1.28.02,1.84.65,2.49,1.66,1.57,2.48,2.56,5.34,2.66,8.28.19,5.35-2.44,10.18-7.19,12.56-1.73.86-4.53,1.64-6.49.52-1.09-.63-1.75-1.81-2.34-2.88-.8-1.45-1.41-2.95-1.83-4.55-.77-2.91-.77-6.23.58-8.79.68-1.29,1.44-2.32,2.64-3.25.26-.21.99-.62,1.45-.88.7-.4,1.32-.88,2.06-1.23,2.28-1.09,1.04-4.5-1.23-4.54-1.98-.04-3.69.4-5.33,1.55s-3,2.59-4.09,4.27c-2.21,3.38-2.88,7.53-2.36,11.49.55,4.21,2.23,8.66,5.04,11.89s7.42,3.89,11.51,2.81c7.6-2.01,12.74-9.07,13.41-16.71.37-4.14-.67-8.41-2.59-12.08-.93-1.78-2.13-3.52-3.82-4.66-1.82-1.23-4.14-1.37-6.26-1.14-4.67.49-9.32,2.22-12.63,5.67-3.09,3.22-4.47,7.36-4.07,11.79.17,1.93,3.09,2.01,3.07,0h0Z"/>
    <path class="cls-1" d="M43.62,88.79c-1.24,1.86-1.48,4.5-1.94,6.65s-.88,4.22-1.29,6.34c-.85,4.4-1.69,8.8-2.55,13.2l5.6,1.54c.39-2.65.51-5.14.24-7.8-.25-2.41-3.35-2.9-4.21-.57-.93,2.5-1.45,4.95-1.73,7.6-.35,3.22,5.2,4.01,5.7.77.7-4.52,1.43-9.04,2.15-13.57.35-2.22.69-4.45.99-6.68s.97-4.79.42-7.05c-.4-1.63-2.54-1.71-3.38-.44h0Z"/>
    <path class="cls-1" d="M45.94,95.86c1.72-3.06,4.51-5.98,7.96-7.05,2.78-.86,5.15,1.63,5.3,4.29.18,3.12-2.22,6.11-4.69,7.74-1.15.76-2.63,1.41-3.73,1.54-.33.04-.67.05-1,.04-.43,0-.15.03-.67-.09-.61-.13-.79-.25-1.31-.77-1.01-1.03-2.72-1.11-3.83-.23-1.03.82-1.64,2.59-.75,3.77,2.19,2.9,4.28,5.86,6.26,8.91s3.62,6.31,5.62,9.33c.87,1.31,2.58,1.87,3.99,1.05,1.49-.87,1.69-2.55,1.05-3.99-1.48-3.35-3.66-6.51-5.67-9.57s-4.32-6.26-6.66-9.26l-4.13,4.13c6.17,6.15,16.16.06,19.44-6.24,1.89-3.63,2.16-8.03-.28-11.48s-6.67-4.88-10.59-3.08-7.2,5.53-8.89,9.46c-.74,1.72,1.62,3.24,2.59,1.51h0Z"/>
    <path class="cls-1" d="M77.74,87.21c-.67,1.27-.99,2.8-1.36,4.19s-.69,2.73-1.04,4.09c-.73,2.89-1.39,5.8-2.06,8.71-1.3,5.72-2.4,11.55-3.94,17.21l5.18-.68c-.35-.58-.64-1.04-.62-1.71.02-1.2-.94-2.25-2.11-2.39-1.3-.15-2.2.59-2.67,1.75-.69,1.68-.57,3.73.52,5.22.68.93,1.61,1.53,2.82,1.35,1-.15,2.2-.93,2.35-2.03.84-5.82,2.16-11.62,3.25-17.4.54-2.86,1.08-5.72,1.55-8.59.23-1.4.46-2.79.68-4.19.23-1.49.64-3.19.53-4.69s-2.26-2.39-3.08-.83h0Z"/>
    <path class="cls-1" d="M74.37,112.22c7.46-6.53,15.01-12.92,22.8-19.06l-4.56-3.52c-.48.88-.98,1.55-1.71,2.24-1.73,1.66.08,4.39,2.26,3.88,1.88-.44,3.37-1.65,4.46-3.19.73-1.04.4-2.66-.45-3.52s-2.51-1.23-3.52-.45c-8.01,6.16-15.62,13-22.4,20.5-1.91,2.12.98,4.98,3.12,3.12h0Z"/>
    <path class="cls-1" d="M72.4,103.77c.13.91.75,1.72,1.28,2.44.59.8,1.21,1.58,1.84,2.35,1.15,1.4,2.37,2.76,3.6,4.1l3.57,3.92,1.79,1.96.89.98c.56.61,1.15.98,1.92,1.28,1.99.77,4.03-1.53,3.43-3.43-.38-1.19-1.22-1.94-2.06-2.81l-1.84-1.9-3.79-3.91c-1.22-1.27-2.47-2.53-3.75-3.74-.65-.6-1.3-1.2-1.98-1.76-.8-.66-1.66-1.44-2.71-1.66-1.43-.3-2.39.83-2.19,2.19h0Z"/>
    <path class="cls-1" d="M92.32,129.59c7.42-11.43,14.4-23.09,22.33-34.19l-5.41-1.47c.87,9.39,1.84,18.77,2.77,28.15l4.46-2.56c-.89-.51-1.75-.8-2.78-.79-1.49.01-2.91,1.57-2.36,3.1.34.96.76,1.68,1.55,2.34.92.78,2.08,1.12,3.24.61.99-.44,1.94-1.54,1.82-2.71-.95-9.38-1.87-18.77-2.9-28.15-.31-2.83-3.73-3.99-5.41-1.47-7.51,11.28-14.79,22.98-20.21,35.43-.84,1.94,1.69,3.54,2.89,1.69h0Z"/>
    <path class="cls-1" d="M98.44,116.81c1.08-.13,2.17-.22,3.25-.35,1.3-.16,2.57-.41,3.86-.67,1.1-.22,2.19-.48,3.28-.73l1.63-.38c.08-.02.68-.24.75-.18-.5.04-.58.06-.27.04-.78-.04-1.38-.39-1.8-1.05l-.39-1.44c.06-1.11.65-1.97,1.64-2.27h1.34-.04c.49.37.99.75,1.48,1.13l.21.5c-.13-.93-1.36-1.85-2.29-1.75s-1.71.41-2.2,1.25c-.45.77-.48,1.86.01,2.62.88,1.37,2.59,1.81,4.04,1.07,1.83-.93,1.93-3.6.51-4.93-1.17-1.1-2.72-1.06-4.16-.66-1.91.53-3.82,1.04-5.71,1.63s-3.95,1.45-5.7,2.16c-.95.38-1.61,1.16-1.46,2.24.12.91.99,1.89,2,1.77h0Z"/>
    <path class="cls-1" d="M126.96,95.17c-.49,2.27-.61,4.6-1.13,6.87s-1.14,4.53-1.72,6.79c-1.22,4.76-2.43,9.51-3.64,14.27-.52,2.06,1.4,4.23,3.55,3.55,2.56-.8,3.53-3.41,2.37-5.77-.69-1.41-2.69-1.79-3.98-1.04-1.42.83-1.76,2.57-1.04,3.98l-.14-1.66,1.04-1.04.22-.03,3.55,3.55c1.08-4.97,2.16-9.93,3.23-14.9.51-2.36,1.03-4.71,1.37-7.1s.69-5.08-.14-7.46c-.55-1.59-3.14-1.9-3.55,0h0Z"/>
    <path class="cls-1" d="M128.32,101.57c.65-2.31,2.29-4.47,4.61-5.3,2.11-.75,4.52-.13,6,1.57s1.08,4.13-.21,5.86c-1.7,2.27-4.69,3.1-7.34,3.56l2.06,4.89c2.51-1.88,5.76-1.18,7.79,1.15,1.9,2.17,3.48,6.66,1.89,9.36-.76,1.3-2.4,2.06-3.77,2.57-1.88.69-3.85,1.12-5.86,1.19-1.74.06-3.65,0-5.28-.71-.22-.1-1.03-.63-1.19-.79-.24-.27-.28-.3-.12-.1-.17-.31-.2-.34-.1-.08-.08-.35-.11-.37-.07-.08.07-1.13-.57-.66-1.92,1.43l-1.49-.4.16.08-1.06-1.06.11.18c1.91,3.29,7.01.32,5.1-2.98-1.71-2.95-5.92-1.68-6.66,1.35-.61,2.5.72,4.98,2.65,6.49,3.92,3.06,9.71,3.03,14.35,2.02s10.17-3.71,11.22-8.98c.95-4.76-.8-10.33-4.25-13.74-4.02-3.97-10.26-4.62-14.75-1.1-.92.72-.97,2.31-.42,3.24.63,1.07,1.85,1.46,3.02,1.23,4.18-.83,8.36-2.79,10.61-6.58s1.95-8.3-1.15-11.33c-2.78-2.72-6.96-3.55-10.53-1.99-3.34,1.45-5.75,4.66-6.41,8.21-.36,1.95,2.45,2.79,3.01.83h0Z"/>
    <path class="cls-1" d="M155.95,102.76c1.27.03,2.56.21,3.83.28s2.45.12,3.68.14c2.48.05,5.04.22,7.52.04,1.22-.09,2.48-.82,2.77-2.11s-.18-2.6-1.32-3.24c-1.24-.69-2.73-.64-3.93.14-.85.55-1.67,1.52-1.57,2.6.06.61.43,1.39,1.14,1.49.23.03.47.09.71.1.24,0,.22,0-.04-.03.2.07.22.07.04,0-.17-.07-.17-.06.02.04-.27-.22-.34-.27-.2-.13.13-.05.76.61.94.74l1.45-5.35c-2.49-.04-5.04.28-7.52.48-1.23.1-2.46.22-3.68.36s-2.56.4-3.83.5c-1.06.08-1.97.85-1.97,1.97s.9,1.95,1.97,1.97h0Z"/>
    <path class="cls-1" d="M161.08,100.66c-.13.5-.39.96-.51,1.47s-.21,1.02-.3,1.54c-.16.91-.33,1.81-.52,2.71-.42,1.93-.9,3.85-1.48,5.74-.55,1.78-1.17,3.56-1.91,5.27-.92,2.12-2.63,4.31-1.46,6.64.51,1.01,1.76,1.34,2.78,1.13,2.49-.51,3.23-3.91,3.97-5.97.69-1.92,1.3-3.87,1.8-5.85s.92-4.17,1.21-6.3.81-4.52-.1-6.47l.27.98-.04-.39c-.21-1.99-3.1-2.68-3.68-.5h0Z"/>
    <path class="cls-1" d="M152.16,125.68c4.2.42,8.47.48,12.68.23l-.77-5.7c-.79.14-1.57.28-2.36.42-1.48.27-2.44,2.14-2,3.52.22.69.65,1.36,1.31,1.71.73.38,1.4.4,2.2.29s1.59-.23,2.38-.34c.64-.09,1.44-.78,1.74-1.33.31-.59.43-1.19.34-1.85-.18-1.36-1.4-2.59-2.85-2.52-4.43.23-8.88.78-13.21,1.7-.96.2-1.53,1.25-1.41,2.16.14,1.03.94,1.61,1.93,1.71h0Z"/>
  </g>
</svg>