<?xml version="1.0" encoding="UTF-8"?>
<svg id="Layer_2" data-name="Layer 2" xmlns="http://www.w3.org/2000/svg" viewBox="0 0 111.31 86.7">
  <defs>
    <style>
      .cls-1 {
        fill: #231f20;
        stroke-width: 0px;
      }
    </style>
  </defs>
  <g id="Layer_1-2" data-name="Layer 1">
    <g>
      <path class="cls-1" d="M17.48,25.28c2.44-2.3,4.82-4.65,7.13-7.07,1.13-1.18,2.25-2.37,3.34-3.59.7-.79,1.46-1.99.6-2.93-.11-.12-.35-.16-.49-.06-2.36,1.68-4.1,3.98-5.57,6.45-1.64,2.75-3.07,5.63-4.53,8.48-3.02,5.89-5.97,11.81-9.34,17.51-.95,1.6-1.92,3.17-2.94,4.72-.83,1.26-1.74,2.83-3.36,3.1l.57.23c-.97-2.23-.2-4.73.08-7.02.12-1.01.26-2.24-.07-3.23-.2-.59-.86-1.23-1.44-.7-.19.18,0,.57.27.46,3.62-1.51,7.21-3,10.73-4.74s7.02-3.67,10.4-5.73c.36-.22.04-.78-.34-.57-3.38,1.9-6.81,3.74-10.28,5.48s-7.05,3.53-10.67,5.03l.27.46c.38-.33.57,1.16.57,1.32.02.47,0,.94-.05,1.41-.1.99-.32,1.96-.5,2.93-.33,1.76-.6,3.58.09,5.29.11.28.32.4.62.35,1.31-.18,2.25-1.12,3.01-2.13.94-1.26,1.76-2.63,2.58-3.97,1.76-2.87,3.4-5.8,4.97-8.78,3.1-5.85,5.96-11.83,9.09-17.67,1.6-2.98,3.41-6,6.22-7.99l-.49-.06c.46.5-.18,1.3-.52,1.69-.47.54-.97,1.06-1.46,1.58-.98,1.05-1.96,2.1-2.95,3.14-1.99,2.07-4,4.12-6.05,6.13-.31.31.16.78.48.48h0Z"/>
      <path class="cls-1" d="M25.05,29.47c2.62-7.51,7.09-14.37,12.88-19.83,1.66-1.57,3.43-3.02,5.3-4.33l-.7-.54c-.83,3.08-2.57,5.77-4.4,8.35-1.92,2.71-3.83,5.41-5.62,8.21-3.63,5.67-6.91,11.58-9.79,17.67-.79,1.67-1.62,3.34-2.26,5.07-.58,1.57-.84,3.28-.05,4.82.21.4.7.37,1,.13,2.99-2.33,5.8-4.88,8.38-7.65s4.84-5.73,7.02-8.81c.29-.41-.26-.84-.64-.64-2.81,1.43-4.75,4.12-5.34,7.2-.09.48.37.87.83.64,2.16-1.13,4.07-2.71,5.69-4.53l-.91-.38c0,1.2.92,2.15,2.05,2.45,1.3.34,2.64-.3,3.66-1.06,2.23-1.65,3.86-3.94,4.91-6.49.09-.21-.06-.5-.25-.6-1.41-.8-2.79.7-2.8,2.09,0,1.87,2.14,2.57,3.69,2.41,1.08-.11,2.06-.53,3.09-.87.61-.2,2.81-.93,2.6.33-.16.93-.86,1.89-1.4,2.64-.57.79-1.24,1.52-1.96,2.17-1.7,1.52-3.75,2.58-5.97,3.1l.74.96c3.26-5.34,8.2-9.32,12.15-14.1s6.89-9.96,9.01-15.62c1.2-3.21,2.08-6.53,2.7-9.9.11-.61-.64-.94-1-.42-6.43,9.34-10.95,20.18-13.17,31.29-.3,1.51-.65,3.21.09,4.66.61,1.18,1.82,1.82,3.13,1.6.63-.11.36-1.07-.27-.96-1.4.24-2.05-1.56-2.05-2.63,0-1.32.39-2.67.67-3.95.55-2.52,1.22-5.01,2-7.46,1.57-4.97,3.59-9.79,6.03-14.4,1.38-2.61,2.89-5.13,4.5-7.6l-1-.42c-.94,5.96-3.05,11.73-6.01,16.98-1.48,2.64-3.19,5.15-5.1,7.49s-4.12,4.53-6.25,6.72c-2.42,2.49-4.77,5.07-6.57,8.05-.3.5.2,1.09.74.96,3.7-.89,6.99-3.24,9.04-6.45.75-1.17,2.2-3.75.17-4.52s-4.05.94-5.99,1.12c-.8.08-2.15-.02-2.43-.96-.17-.56.37-1.81,1.09-1.42l-.25-.6c-.76,1.97-2.02,3.74-3.59,5.14-.77.69-1.68,1.41-2.72,1.61-.93.18-2.17-.27-2.2-1.36-.01-.43-.6-.75-.91-.38-1.53,1.81-3.4,3.22-5.5,4.31l.83.64c.4-2.85,2.2-5.34,4.73-6.69l-.64-.64c-2.07,3.05-4.53,5.91-7.09,8.56s-5.33,5.13-8.28,7.37l.87.23c-.71-1.42-.17-3.06.39-4.43.6-1.49,1.3-2.95,1.98-4.4,1.4-2.98,2.89-5.92,4.47-8.81,3.13-5.72,6.65-11.17,10.37-16.51,1.96-2.8,3.86-5.72,4.72-9.07.1-.37-.35-.79-.7-.54-6.66,4.77-12.15,11.09-15.81,18.43-1.02,2.05-1.9,4.17-2.64,6.34-.16.47.58.67.75.21h0Z"/>
      <path class="cls-1" d="M66.49,33.03c.26-.89.43-2.28-.51-2.85-1.25-.76-2.66.83-3.43,1.64-2.02,2.14-3.37,4.89-3.8,7.81-.08.55.41,1.01.94.73,3.48-1.84,6.02-4.66,7.96-8.05.41-.72-.64-1.31-1.09-.64-.97,1.44-.82,3.97,1.02,4.65,1.15.42,2.34-.14,3.15-.96.9-.9,1.36-2.15,2.35-2.99.62-.53-.27-1.4-.89-.89-.67.55-1.13,1.27-1.62,1.97s-1.18,1.63-2.14,1.67c-1.45.05-1.32-1.99-.78-2.81l-1.09-.64c-1.52,3.26-4.37,5.9-7.51,7.57l.94.73c.31-2.18,1.11-4.24,2.38-6.04.62-.87,1.35-1.66,2.15-2.36.39-.34.96-.77,1.19-.07.14.42.08.9-.01,1.32-.11.5.63.71.78.21h0Z"/>
      <path class="cls-1" d="M80.33,12.06c-7.23,2.21-15.07,4.56-22.53,2.01-1.87-.64-3.66-1.59-5.18-2.85-.56-.47-1.37.32-.81.81,5.97,5.21,14.44,4.87,21.67,3.04,2.39-.61,4.75-1.38,7.09-2.15.55-.18.32-1.04-.24-.87h0Z"/>
      <path class="cls-1" d="M41.59,56.24c1.72-1.21,4.08-3,3.58-5.42-.2-.94-.82-1.89-1.72-2.29-1-.45-1.96-.02-2.68.72-.95.99-1.78,2.13-2.61,3.23s-1.7,2.31-2.51,3.5c-1.65,2.44-3.16,4.97-4.52,7.58-2.66,5.09-4.77,10.47-6.27,16.02-.51,1.89-1.22,4.51.22,6.19.7.82,1.86,1.09,2.88.77,1.28-.4,2.25-1.44,3.11-2.42,4.55-5.16,8.58-10.77,12.02-16.73l-.8-.47c-1.48,2.83-2.46,5.85-2.89,9.02-.05.37.33.84.72.56,3.94-2.83,7.21-6.46,9.66-10.65.31-.53-.5-1-.82-.48-.97,1.58-1.45,3.38-1.39,5.24.01.35.42.65.74.43,4.36-2.99,8.35-6.47,11.98-10.3l-.78-.6c-1.69,2.39-3.39,4.77-5.08,7.16-.32.46.29.97.73.73,3.83-2.13,7.01-5.28,9.18-9.08l-.98-.41c-.69,1.78-1.4,3.56-2.1,5.34-.22.56.55.84.92.53,2.26-1.89,4.35-3.96,6.28-6.19l-.91-.24c.22,1.19.01,2.36-.58,3.41-.3.53.42,1.11.86.66,1.99-2.03,3.98-4.06,5.97-6.09l-.95-.39c.1,1.23.19,2.46.28,3.69.04.56.74.77,1.05.28,2.76-4.22,6.94-7.42,11.73-8.97l-.45-1.06c-1.71.94-3.53,1.77-5.16,2.83-.56.36-1.12.86-1.24,1.54-.11.58.15,1.19.65,1.51,1.15.73,2.61-.03,3.62-.63,1.31-.77,2.51-1.73,3.59-2.79,4.74-4.66,7.05-11.03,9.53-17.04,1.52-3.68,3.2-7.32,5.63-10.5l-1.11-.47c-2.63,7.97-8.71,14.27-11.3,22.26-.7,2.17-1.08,4.44-1.05,6.72,0,.41.38.66.76.58,3.27-.71,6.13-2.72,8.09-5.4.31-.43-.3-1.01-.73-.73-1.32.89-.63,2.83.67,3.37,1.84.77,3.83-1.19,4.89-2.46s2.04-3.42.43-4.76c-1.48-1.23-3.78-.51-5.4,0-2.45.78-4.75,1.98-6.81,3.52-.62.46-.01,1.51.61,1.05,1.66-1.24,3.45-2.26,5.38-3.01.93-.37,1.89-.69,2.87-.92.77-.18,1.77-.33,2.48.1,1.85,1.13-.58,3.6-1.51,4.43-.61.54-1.62,1.38-2.51,1.05-.43-.16-1.12-1.06-.56-1.45l-.73-.73c-1.8,2.51-4.5,4.13-7.5,4.78l.76.58c-.14-8.41,5.68-15.29,9.49-22.3,1.11-2.04,2.1-4.15,2.83-6.35.24-.71-.73-.97-1.11-.47-3.85,5.02-5.74,11.11-8.27,16.82-2.26,5.08-5.28,10.27-10.21,13.16-.54.32-1.13.68-1.78.65-.92-.04-.32-.78.14-1.09.76-.51,1.61-.91,2.41-1.35.91-.5,1.82-1.01,2.73-1.51.57-.31.19-1.27-.45-1.06-5.09,1.65-9.5,5.03-12.4,9.52l1.05.28c-.1-1.23-.2-2.46-.29-3.69-.04-.46-.59-.76-.95-.39-1.98,2.03-3.97,4.07-5.95,6.1l.86.66c.73-1.31.96-2.78.69-4.25-.07-.39-.65-.54-.91-.24-1.93,2.22-4.03,4.28-6.28,6.18l.92.53c.69-1.78,1.38-3.57,2.07-5.35.22-.57-.68-.93-.98-.41-2.09,3.64-5.13,6.65-8.79,8.7l.73.73c1.68-2.4,3.34-4.8,5.01-7.2.32-.46-.4-1.01-.78-.6-3.54,3.81-7.51,7.18-11.78,10.15l.74.43c-.06-1.69.35-3.31,1.23-4.76l-.82-.48c-2.33,4.05-5.53,7.56-9.33,10.28l.74.42c.38-3.02,1.31-5.98,2.73-8.68.28-.53-.5-.99-.8-.47-2.72,4.7-5.8,9.19-9.24,13.39-.84,1.03-1.7,2.04-2.58,3.04-.8.91-1.72,2.01-2.95,2.3-2.46.58-2.47-2.71-2.17-4.24.48-2.43,1.27-4.83,2.08-7.17s1.8-4.85,2.89-7.19c2.12-4.6,4.68-8.99,7.64-13.1.84-1.17,1.72-2.32,2.62-3.44.44-.55.93-1.28,1.65-1.49.6-.18,1.19.09,1.61.52,2.31,2.31-.69,4.92-2.51,6.23-.27.2-.01.66.27.46h0Z"/>
      <path class="cls-1" d="M106.17,38.6c-.64-1.81-.07-3.93,1.44-5.14.39-.31.94-.67,1.46-.66.71.02.93.77,1.08,1.34.32,1.18.23,2.42-.02,3.6-.94,4.57-3.34,8.81-6.09,12.52-.3.4.38.93.7.54,2.81-3.39,4.88-7.5,6.03-11.75.53-1.94.89-4.37-.15-6.21s-3.22-.56-4.2.62c-1.21,1.47-1.63,3.54-.96,5.33.16.44.87.25.71-.2h0Z"/>
      <path class="cls-1" d="M102.4,56.93c-.04-.34-.03-.67.04-1s.2-.62.38-.84c.05-.07.11-.13.18-.19.03-.03.06-.05.09-.08-.06.05.04-.03.05-.03.07-.04.13-.08.21-.12.02-.01.05-.02.07-.03-.07.03.07-.02.09-.03.08-.02.15-.04.23-.06.12-.03-.08,0,.04,0,.04,0,.08,0,.12,0,.07,0,.13,0,.19,0,.12,0-.09-.02.03,0,.05.01.1.02.15.04.04.01.07.02.11.04-.1-.04,0,0,.03.01.03.02.07.04.1.06.02.01.12.09.03.01.05.04.09.08.13.12l.02.02s.03.03-.02-.02c.01,0,.06.09.07.11,0,0,.04.08.04.08,0,0-.04-.11,0,0,.02.06.03.12.05.18.02.09,0-.03,0-.04,0,.01,0,.08,0,.1,0,.05-.03.18,0,.22-.03-.05.02-.1,0,0,0,.03-.01.06-.02.09s-.02.06-.03.09c-.03.11.05-.1,0,0-.02.05-.05.09-.08.13-.05.08-.04,0,0,0-.02,0-.07.07-.08.09-.07.06-.04,0,0,0-.02,0-.06.04-.08.05-.08.04-.06,0,.01,0-.01,0-.05.02-.06.02-.01,0-.08.01-.09.02.03-.04.12,0,.01,0-.03,0-.06,0-.09,0,.09.01.1.01.05,0-.02,0-.04-.01-.06-.02-.09-.03-.02-.04.01,0-.01-.02-.09-.05-.11-.06,0,0-.04-.03-.05-.04.06.05.07.06.03.02-.02-.01-.03-.03-.05-.04-.02-.02-.04-.05-.07-.07-.06-.06.06.1-.01-.02-.02-.03-.03-.05-.05-.08-.01-.02-.02-.04-.03-.06-.02-.05-.02-.04.02.04,0-.03-.03-.15-.05-.18.04.07,0,.11,0,.02,0-.04,0-.08,0-.12.01.11-.01.1,0,.03,0-.03.03-.08.03-.11l-.03.07s.02-.04.03-.05c.03-.07-.08.08.02-.02.17-.18.19-.46.04-.66-.14-.18-.45-.28-.65-.13s-.37.34-.45.59c-.07.21-.06.43-.02.64.08.41.35.76.67,1,.7.52,1.69.18,2.03-.6s.16-1.71-.56-2.19c-.76-.51-1.82-.31-2.49.25-.81.67-.98,1.83-.81,2.81.06.34.65.27.61-.08h0Z"/>
    </g>
  </g>
</svg>