<?xml version="1.0" encoding="UTF-8"?>
<svg id="Layer_2" data-name="Layer 2" xmlns="http://www.w3.org/2000/svg" viewBox="0 0 199.21 222.25">
  <defs>
    <style>
      .cls-1 {
        stroke-width: 0px;
         fill: #3c50a2;
      }
    </style>
  </defs>
  <g id="Layer_1-2" data-name="Layer 1">
    <path class="cls-1" d="M25.5,31.04c-1.39-1.68-1.59-3.99-2.51-5.92-.8-1.66-2.18-3-3.8-3.85-3.46-1.81-7.61-1.66-11.12-.1-3.69,1.63-6.76,4.88-7.71,8.86s.08,8.53,3.09,11.45c5.93,5.76,15.71,3.7,21.43,9.77,2.72,2.89,4.24,7.01,3.77,10.98s-3.08,7.5-6.52,9.47c-4.04,2.32-8.81,2.05-12.63-.59-1.81-1.25-3.29-3.02-4.2-5.02-.44-.98-.77-2.08-.86-3.15-.05-.5.06-2.65,1.18-2.06.97.51,2.29-.57,1.6-1.6-1.22-1.83-3.71-1.64-5,.04-1.42,1.85-.95,4.61-.25,6.66,1.4,4.13,4.64,7.49,8.63,9.18,8.35,3.53,18.17-1.83,20.45-10.47,1.09-4.13.27-8.64-1.92-12.28s-5.74-6.19-9.87-7.51-8.72-1.6-12.45-3.91c-3.96-2.45-5.46-7.47-3.78-11.78,1.83-4.7,7.11-7.78,12.09-7.21,2.32.27,4.7,1.35,5.98,3.38,1.35,2.15,1.47,4.82,3.39,6.64.67.63,1.57-.31.99-.99h0Z"/>
    <path class="cls-1" d="M35.24,46.4c1.09,6.52,2.53,12.99,3.85,19.46.31,1.51,2.56.86,2.29-.63-.67-3.71-.87-7.48-.55-11.24.15-1.81.44-3.61.84-5.39.32-1.39.65-3.22,1.89-4.1,1.06-.75,2.46-.38,3.44.35,1.28.95,1.81,2.56,2.03,4.07.52,3.45-.3,6.94.75,10.34.46,1.49,2.94,1.3,2.82-.38-.27-3.95-.5-8,.1-11.93.3-1.94.79-3.9,1.64-5.67.77-1.6,1.95-3.7,3.57-4.58,3.53-1.92,4.58,6.38,4.82,8.14.34,2.47.49,4.97.47,7.47s-.42,5.12-.4,7.67c.02,1.63,2.38,1.96,2.84.38.63-2.2.68-4.58.72-6.86s-.07-4.65-.32-6.97c-.41-3.77-.82-8.15-3.39-11.15-.99-1.16-2.41-1.97-3.96-1.94-1.92.04-3.44,1.38-4.6,2.78-2.35,2.84-3.65,6.32-4.2,9.94-.64,4.22-.46,8.47-.15,12.71l2.82-.38c-1.29-4.14.24-8.63-1.47-12.7-1.3-3.08-4.95-5.58-8.3-3.99-3.57,1.7-3.97,6.9-4.38,10.33-.54,4.58-.28,9.22.69,13.73l2.29-.63c-1.55-6.41-2.99-12.86-4.75-19.21-.25-.91-1.54-.51-1.39.38h0Z"/>
    <path class="cls-1" d="M87.19.25c-17.87,20.25-32.67,43.07-48,65.24-4.52,6.53-8.99,13.11-13.6,19.58l1.82,1.06c11.74-17.74,23.46-35.49,35.17-53.25,3.29-5,6.59-9.99,9.89-14.98.23-.35.18-.81,0-1.16-1.69-3.25-5.95-1.16-7.99.5-3.6,2.93-7.09,6-10.51,9.14-6.82,6.29-13.3,12.97-19.35,20.01-3.4,3.95-6.66,8.01-9.81,12.17l2.44,1.42c9.5-13.72,18.94-27.63,26.12-42.74,2.02-4.26,3.81-8.61,5.43-13.04.43-1.16-1.26-2.09-2.06-1.2-12.74,14-23.93,29.39-33.25,45.86-2.63,4.64-5.1,9.37-7.43,14.16-.69,1.41.96,2.73,2.17,1.67,8.16-7.16,15.15-15.54,20.79-24.81.85-1.4-1.32-2.65-2.19-1.28-5.65,8.99-12.6,17.11-20.56,24.14l2.17,1.67c8.12-16.84,18.09-32.81,29.71-47.46,3.32-4.18,6.77-8.25,10.34-12.21l-2.06-1.2c-5.64,15.53-14.45,29.75-23.65,43.38-2.63,3.89-5.3,7.76-7.95,11.63-1.04,1.52,1.37,2.84,2.44,1.42,10.04-13.38,21.48-25.72,34.04-36.75,1.74-1.53,3.47-3.1,5.3-4.52.82-.64,3.16-2.22,3.9-.82v-1.16c-11.65,17.79-23.42,35.51-35.07,53.31-3.28,5-6.55,10.01-9.83,15.01-.75,1.14,1.07,2.19,1.82,1.06,7.69-11.57,15.68-22.96,23.53-34.42s15.06-22.07,23.1-32.73c4.55-6.04,9.28-11.94,14.26-17.63.66-.75-.44-1.86-1.1-1.1h0Z"/>
    <path class="cls-1" d="M32.03,110.41c-1.16,1.04.97,2.53,1.9,1.41,1.6-1.92-1.94-3.79-3.27-4.32-4.62-1.81-10.11.02-13.46,3.47-3.7,3.81-5.36,9.5-5.33,14.73.03,4.58,1.59,9.74,5.86,12.08,5.46,3.01,11.49.15,16.72-1.89,2.74-1.07,5.82-2.13,8.79-1.48,2.21.49,4.03,1.92,5.28,3.79,5.7,8.59,1.69,21.95-7.02,26.89-4.99,2.83-11.21,3.05-15.98-.34-2.08-1.48-3.84-3.66-4.69-6.08-.4-1.13-.79-2.46-.58-3.67.07-.41.5-1.95,1.12-1.83,1.8.36,3.2-2.25,1.33-3.16-2.57-1.24-4.75.32-5.74,2.74-.92,2.23-.6,4.7.2,6.93,1.72,4.81,5.61,8.58,10.38,10.35s10.56,1.03,15.14-1.37c4.88-2.55,8.4-7.07,10.27-12.19,3.05-8.33,1.94-21.92-8.1-25.02-6.04-1.86-11.59,1.88-17.14,3.6-2.56.79-5.48,1.34-8.02.18-2.06-.95-3.39-2.9-4.06-5.01-1.65-5.17-.51-11.64,2.57-16.07,1.66-2.39,4.04-4.13,6.89-4.78,1.3-.3,2.66-.34,3.98-.11.72.12,1.44.33,2.1.65.21.1.43.21.63.34.22.14,1.33.65,1.17.87.42-.57-.46-1.16-.94-.73h0Z"/>
    <path class="cls-1" d="M54.77,128.91c1.48,4.63,2.92,9.28,3.88,14.06s1.52,9.68,1.68,14.57l3.06-.41c-1.77-4.29-2.73-8.84-2.72-13.49.01-4.4.75-9.31,2.79-13.26.71-1.37,2.04-3.47,3.79-3.52,1.91-.06,3.01,2.81,3.65,4.22,1.9,4.19,2.43,8.83,1.84,13.36l3.48-.47c-1.89-7.92-3.95-18.01,2.02-24.82.52-.59,1.2-1.46,1.94-1.77.82-.35,1.51.53,1.99,1.12,1.22,1.51,1.88,3.39,2.32,5.25,1.04,4.38,1.16,9.08,1.16,13.57,0,5.5-.52,10.99-1.54,16.39-.45,2.38,3.21,3.4,3.65,1.01,1.04-5.66,1.6-11.4,1.59-17.16-.01-5.23-.15-10.89-1.67-15.93-1.15-3.83-4.99-10.41-9.77-7-3.8,2.71-5.98,7.46-6.76,11.94-1.06,6.17.22,12.35,1.65,18.35.51,2.11,3.25,1.36,3.48-.47.55-4.26.07-8.68-1.41-12.71-1.25-3.41-3.41-8.47-7.79-8.25-3.98.19-6.33,4.33-7.53,7.63-1.5,4.13-2.21,8.58-2.14,12.97.08,4.93,1.14,9.75,3.12,14.26.62,1.43,2.98.69,2.9-.79-.55-9.99-2.63-20.29-7.09-29.3-.43-.88-1.88-.27-1.59.67h0Z"/>
    <path class="cls-1" d="M95.35,133.64c-.09.23-.16.47-.23.71l.33-.43c-.71.35-.81,1.07-.87,1.79-.07.9-.1,1.8-.14,2.7-.09,1.8-.13,3.6-.19,5.41s-.14,3.6-.16,5.41c-.02,1.66-.5,3.89.85,5.13.51.47,1.24.47,1.76,0,1.36-1.24.87-3.45.85-5.13-.02-1.8-.1-3.6-.16-5.41s-.1-3.61-.19-5.41c-.05-.9-.07-1.8-.14-2.7-.06-.72-.16-1.43-.87-1.79l.33.43c-.07-.24-.14-.48-.23-.71-.16-.47-.79-.47-.95,0h0Z"/>
    <path class="cls-1" d="M93.93,128.8c-.31-2.03.46-4.24,2.1-5.5h-1.26c.12.09.13.09.03.02.06.05.12.11.17.17-.15-.17.1.18.13.24-.12-.23.05.2.07.25.03.16.03.16.01,0,0,.08.01.16.01.24,0,.08-.08.54,0,.24-.02.06-.17.53-.04.24-.03.06-.29.46-.09.22-.05.06-.41.36-.15.18l2.12.86c-.14-.34-.25-.7-.34-1.06-.01-.06-.08-.61-.06-.29-.02-.18-.03-.37-.03-.56,0-.72.03-.98.32-1.79.03-.09.06-.18.1-.26-.06.15-.06.14.02-.02.09-.17.17-.33.26-.49.07-.12.15-.24.22-.35.05-.08.11-.15.16-.23-.1.13-.09.12.02-.01.26-.27.51-.53.78-.79.14-.11.14-.12.02-.02.08-.06.15-.11.23-.16.23-.17.38-.33.57-.54.41-.44.52-1.11.21-1.65s-.93-.72-1.54-.62c-.96.15-1.85.87-2.45,1.61-.67.81-1.16,1.69-1.5,2.68-.63,1.86-.52,3.94.36,5.69.45.9,1.6.85,2.27.29,1.89-1.59,1.59-5.07-.63-6.22-.48-.25-1.12-.22-1.51.19-1.92,2.08-2.76,5.1-2.07,7.86.24.98,1.62.54,1.48-.41h0Z"/>
    <path class="cls-1" d="M108.95,103.45c-10.33,10.05-20.66,20.09-30.9,30.22-9.31,9.22-18.57,18.53-26.92,28.65-4.69,5.69-9.09,11.63-13.02,17.88-1.13,1.79,1.62,3.33,2.8,1.64,15.23-21.84,28.63-45.01,40.16-69.01,1.43-2.97,3.23-6.02,4.06-9.22.72-2.76.5-5.74-2.06-7.45-.55-.36-1.55-.28-1.98.26-15.23,18.81-28.28,39.23-40.74,59.94-3.52,5.85-7,11.73-10.48,17.61l2.8,1.64c4.95-10.99,9.89-21.98,14.84-32.97,2.45-5.44,4.93-10.88,7.3-16.35s4.63-10.61,6.41-16.08c.7-2.16.74-4.67-1.11-6.28-1.41-1.22-3.38-1.27-5.12-.87-4.4,1-7.69,4.79-10.81,7.79-7.43,7.16-14.2,14.98-20.26,23.33-6.86,9.44-12.75,19.56-17.58,30.17-.84,1.84,1.83,3.47,2.75,1.61,8.04-16.12,16.61-31.96,25.72-47.49,2.6-4.44,5.25-8.85,7.94-13.24l-2.97-.8c-1.14,8.64-2.28,17.27-3.42,25.91-1.05,7.92-2.28,15.86-2.42,23.86-.14,7.59.78,15.41,4.02,22.35,2.63,5.64,7.08,10.53,12.4,13.75,5.89,3.56,13.1,4.88,19.65,2.44,1.85-.69,1.05-3.68-.82-2.98-11.34,4.23-23.22-4.25-28.16-14.18-3.23-6.48-4.01-14.01-3.91-21.16.11-7.5,1.22-14.94,2.2-22.36,1.22-9.21,2.43-18.42,3.65-27.64.22-1.66-2.22-2.03-2.97-.8-9.41,15.35-18.3,31.02-26.65,46.98-2.38,4.56-4.72,9.14-7.02,13.75l2.75,1.61c8.04-17.64,19-33.89,32.41-47.9,3.27-3.41,6.63-6.91,10.3-9.9,1.88-1.53,7.88-4.09,6.46.79-1.52,5.21-3.88,10.3-6.03,15.28s-4.44,10-6.69,14.98c-5.23,11.59-10.45,23.18-15.68,34.76-.84,1.87,1.72,3.48,2.8,1.64,12.18-20.55,24.37-41.14,38.31-60.56,3.99-5.55,8.12-11,12.42-16.32l-1.98.26c1.68,1.12.53,4.17-.07,5.6-1.18,2.8-2.59,5.54-3.91,8.27-2.77,5.71-5.65,11.38-8.63,16.98-5.9,11.07-12.2,21.93-18.91,32.53-3.81,6.02-7.76,11.95-11.79,17.82l2.8,1.64c14-22.62,33.89-40.87,52.51-59.59,5.7-5.74,11.33-11.55,17-17.32.95-.96-.51-2.42-1.48-1.48h0Z"/>
    <path class="cls-1" d="M114.58,45.61c.41-1.32.94-2.49,1.62-3.68.64-1.11-.91-2.4-1.82-1.4-3.22,3.55-5.5,8.27-7.16,12.72s-2.83,9.38-3.04,14.18c-.08,1.82.33,4.04,2.06,5.02,2.17,1.24,4.3-.37,5.62-2.04,3.05-3.87,5.03-8.52,8.38-12.15,2.75-2.98,6.66-5.29,10.79-3.91,4.59,1.53,4.41,7.06,3.82,11-.66,4.42-2.31,8.64-4.78,12.37s-5.73,7.23-9.72,8.96c-4.99,2.17-9.39-1.4-10.61-6.24-.58-2.3-.78-5.14-.04-7.43.2-.62.59-1.56,1.33-1.67.39-.06,1.29.39,1.23.69-.32,1.58,1.75,2.56,2.64,1.11,1.28-2.08-.16-4.38-2.27-5.14-2.24-.81-4.41.3-5.62,2.25s-1.37,4.63-1.28,6.92c.1,2.79.72,5.65,2.17,8.07,2.62,4.36,7.7,6.74,12.65,5.07s8.91-5.79,11.83-9.89c2.92-4.12,4.93-8.98,5.72-13.97s.92-10.83-3.53-14.03c-3.89-2.8-9.3-2.13-13.12.42-4.62,3.08-7.21,8.07-10.1,12.63-.8,1.25-1.66,2.97-2.86,3.89-1,.77-1.11-.45-1.15-1.29-.16-2.91.54-6.06,1.21-8.87.74-3.08,1.75-6.12,3.06-9s3.03-5.51,4.6-8.25l-2.16-.58c-.09,1.36-.31,2.62-.7,3.92-.24.79.99,1.13,1.24.34h0Z"/>
    <path class="cls-1" d="M105.68,179.36c.88-3.11.69-6.6-1.71-9.01-2.23-2.24-5.73-2.68-8.27-.71s-3.85,5.85-4.43,9.03c-.64,3.53-.43,7.23,1.31,10.43,1.59,2.93,4.36,5.14,7.67,5.72s7.35-.51,10.12,1.51c2.56,1.86,3.4,5.79,4.19,8.67.92,3.36,1.47,7.17-1.18,9.91-1.25,1.29-2.8,2.24-4.38,3.07s-3.67,2.06-5.42,1.3c-2.31-1-3.38-4.59-1.66-6.52,1.06-1.2-.67-2.96-1.77-1.77-3.8,4.14-.42,11.44,5.19,11.25,1.91-.07,3.72-.81,5.44-1.59,1.57-.71,3.07-1.54,4.37-2.67,2.76-2.4,3.94-5.88,3.6-9.49s-1.44-7.29-2.94-10.54-4.1-5.52-7.71-6.02c-3.38-.47-7.26.52-10.26-1.47s-4.13-5.58-4.07-8.97c.04-2.25.55-4.52,1.36-6.62.63-1.64,1.69-3.49,3.49-4.01s3.92.61,4.95,2.11c1.24,1.8,1.43,4.17,1.17,6.28-.07.54.79.63.94.13h0Z"/>
    <path class="cls-1" d="M119.33,186.09c-.77.16-.71-1.17-.04-1.38.53-.17,1.18.15,1.56.5.97.88,1.16,2.51,1.36,3.74.53,3.23.9,6.47,1.44,9.69,1.06,6.33,2.41,12.61,3.69,18.9l3.4-.94c-1.22-4.01-3.03-7.8-4.06-11.87s-1.13-8.64-.06-12.85c.41-1.6.9-3.42,2.25-4.5s1.85.32,2.13,1.54c.97,4.13,1.65,8.34,2.47,12.5.97,4.92,1.98,9.82,2.97,14.74.4,2.01,3.58,1.53,3.54-.48-.04-2.51-1.53-4.72-3.62-6.03-1.06-.66-2.17.83-1.32,1.71,1.21,1.24,1.44,2.66,1.33,4.33l3.54-.48c-1.02-5.07-2.02-10.15-3.07-15.22-.51-2.49-1.03-4.99-1.54-7.48-.44-2.12-.62-4.57-1.7-6.49-.91-1.61-2.7-2.63-4.56-2.17s-3,2.07-3.69,3.69c-.87,2.02-1.05,4.38-1.12,6.56-.08,2.4.08,4.77.35,7.16.6,5.44,1.15,11.04,2.76,16.29.67,2.18,3.86,1.28,3.4-.94-.95-4.56-1.92-9.13-2.91-13.68s-2.33-9.18-3.49-13.78c-.43-1.7-.67-3.62-1.88-4.99-.92-1.04-2.45-1.6-3.8-1.13-2.56.9-1.63,5.1,1.04,4.42.88-.23.51-1.54-.37-1.36h0Z"/>
    <path class="cls-1" d="M136.29,207.96c-.48-4.71-.5-9.6.31-14.28.34-1.96.55-4.13,1.57-5.88.45-.78,1.58-2.2,2.35-.96.84,1.35.51,3.61.57,5.11.08,2.43.24,4.86.47,7.28s.52,4.69.87,7.02c.32,2.1.4,4.78,1.53,6.64,1.2,1.96,4.41,2.74,5.78.49,1.19-1.95-.42-4.75-2.78-4.08-1.31.37-1.75,2.42-.4,3.07-.67-.32.67-1.08.6-1.52-.07-.41-.27-.86-.36-1.28-.23-1.11-.42-2.23-.61-3.35-.37-2.24-.68-4.48-.91-6.74s-.41-4.53-.51-6.8c-.08-1.82,0-3.68-.36-5.48-.62-3.21-3.95-5.73-6.96-3.45s-3.24,6.48-3.43,9.82c-.28,4.91.03,9.74,1.13,14.55.14.62,1.2.5,1.14-.15h0Z"/>
    <path class="cls-1" d="M153.09,190.93c.45,2.97.94,5.93,1.33,8.91.19,1.46.35,2.92.48,4.38.11,1.31-.08,3.12.83,4.15.37.42,1.04.25,1.31-.17.42-.64.34-1.31.27-2.04s-.15-1.51-.25-2.26c-.19-1.49-.42-2.98-.68-4.46-.53-3.01-1.25-5.91-2.27-8.79-.23-.66-1.13-.39-1.02.28h0Z"/>
    <path class="cls-1" d="M150.82,187.35c-.1-.78-.3-1.82.23-2.5.26-.34.72-.46,1.06-.2l-.52-.68c.05.15.2.47.21.49l1.26-1.65c-.31,0-.02-.01.09.06.01,0-.34-.18-.23-.11.07.05-.39-.39-.27-.24-.23-.31-.29-.58-.29-.9,0,.06.03-.27.04-.29.09-.25.27-.53.42-.72.34-.43.81-.83,1.25-1.17,1.05-.81,2.12-1.53,2.96-2.58.97-1.22,1.58-2.89.84-4.37-.55-1.12-2.04-.65-2.41.32-.22.58-.35,1.1-.73,1.6-.43.55-.97,1.03-1.5,1.44-1.27,1-2.63,1.91-3.47,3.34s-.85,3.06-.09,4.5c.31.59.82,1.2,1.42,1.52.37.2.85.33,1.27.34s.6-.04,1.06-.17c.74-.22,1.29-1.21.78-1.92-.88-1.23-2.64-1.36-3.83-.33s-.96,2.94-.67,4.37c.12.63,1.22.5,1.14-.15h0Z"/>
    <path class="cls-1" d="M165.56,160.26c-.39-.87.39-1.72,1.17-1.99.92-.32,1.79.39,2.31,1.08,1.41,1.87.98,4.43.72,6.59-.63,5.38-1.25,10.76-1.83,16.15-.29,2.65-.58,5.3-.87,7.95-.27,2.51-.69,5.06-.73,7.59-.07,4.19,1.99,9.13,6.75,9.52,4.28.35,6.97-3.72,8.75-7,.58-1.08,1.17-2.16,1.75-3.24s1.11-2.1,1-3.31c-.19-2.07-2.22-3.31-4.18-3.1-4.04.42-5.7,6.17-5.85,9.56-.17,3.94,2.46,7.64,6.67,7.53,5.01-.13,8.01-4.32,9.59-8.59s2.51-8.96,7.29-10.67c1.7-.61,1.36-2.92-.42-3.08-3.72-.35-6.66,3.1-8.13,6.14-1.64,3.4-1.97,7.97-4.73,10.72-1.85,1.85-5.76,2.84-6.48-.58-.32-1.5.07-3.09.57-4.51.36-1.01,1.06-2.9,2.15-2.81-.49-.04.19-.38-.2-.1-.07.05-.21.45-.26.55-.24.48-.51.95-.77,1.42-.53.98-1.05,1.97-1.59,2.94-.8,1.43-1.72,3.02-3.12,3.95-1.29.86-2.7.61-3.72-.53-1.29-1.42-1.44-3.4-1.37-5.23.16-4.7.89-9.43,1.36-14.1s.95-9.61,1.4-14.41c.38-4.08,1.56-10.39-3.18-12.51-1.53-.68-3.55-.64-4.8.6-1.17,1.15-1.61,2.95-.82,4.41.57,1.05,2.03.13,1.57-.91h0Z"/>
  </g>
</svg>