<?xml version="1.0" encoding="UTF-8"?>
<svg id="Layer_2" data-name="Layer 2" xmlns="http://www.w3.org/2000/svg" viewBox="0 0 243.38 175.88">
  <defs>
    <style>
      .cls-1 {
        stroke-width: 0px;
      }
    </style>
  </defs>
  <g id="Layer_1-2" data-name="Layer 1">
    <path class="cls-1" d="M69.25,139.65c-1.01-3.34-4.93-4.91-8.18-4.36-3.99.68-7.28,3.92-9.39,7.19s-3.47,7.65-1.53,11.31c1.72,3.24,5.49,4.46,8.96,4.29,4.26-.21,7.87-2.36,11.64-4.14s7.66-2.86,11.3-.66c1.45.88,2.52,2.28,2.51,4.03-.02,2.15-1.39,4.23-2.6,5.93-2.28,3.2-5.42,5.74-8.92,7.49-3.93,1.96-8.39,2.87-12.77,2.48-2.11-.19-4.25-.7-6.12-1.71-1.98-1.08-3.24-2.64-4.28-4.61-.48-.92-2.15-.54-2.04.55.4,3.91,4.12,6.3,7.57,7.44,3.65,1.22,7.7,1.23,11.46.55,7.66-1.37,14.81-6.22,18.59-13.06,1.9-3.44,2.34-7.54-.92-10.31-2.72-2.31-6.56-2.91-9.97-2.09-4.48,1.08-8.18,4.07-12.59,5.29-3.28.91-7.84.88-9.77-2.46-2.45-4.25,1.2-9.69,4.19-12.6,1.68-1.64,3.83-3,6.25-3.04,2.24-.04,4.28,1.02,5.35,3.02.37.68,1.48.22,1.26-.53h0Z"/>
    <path class="cls-1" d="M93.69,148.37c-1.13-1.93-.13-4.46,1.45-5.82,1.88-1.61,4.53-1.1,6.21.55,1.84,1.79,2.3,4.47,1.12,6.76-1.11,2.15-3.68,4.29-6.25,4.04-1.58-.15-2.38-2.02-2.9-3.31-.69-1.71-.93-3.49-.99-5.32-.06-1.71-2.52-1.69-2.64,0-.15,2.16.35,4.36,1.2,6.34.73,1.71,1.75,3.58,3.53,4.36,3.49,1.54,7.74-1.3,9.56-4.18,1.93-3.04,1.75-6.84-.6-9.59-2.1-2.46-5.87-3.57-8.68-1.62-2.64,1.83-3.81,5.54-1.92,8.31.38.55,1.25.06.9-.53h0Z"/>
    <path class="cls-1" d="M104.78,117c3.41,7.84,6.73,15.57,8.82,23.89.36,1.45.7,3.08,1.93,4.07,1.34,1.08,2.78.56,4.14-.18,3.57-1.96,7.27-4.27,10.23-7.09,1.06-1.01-.39-3.02-1.61-2.09-2.87,2.21-5.59,4.49-8.71,6.36-.49.29-1.64,1.25-2.23,1.21s-.89-.91-1.06-1.39c-.6-1.72-.96-3.53-1.49-5.27-2.13-6.98-4.82-14.07-8.72-20.27-.53-.85-1.69-.11-1.31.76h0Z"/>
    <path class="cls-1" d="M131.83,133.31c1.23-1.57,2.25-3.25,3.01-5.1.63-1.52,1.35-3.33.97-5-.16-.73-.59-1.41-1.28-1.75-.95-.47-1.99-.17-2.8.43-1.29.95-2.18,2.31-2.75,3.79-1.05,2.75-.75,6.16.98,8.57s4.63,3.62,7.59,3.26c1.61-.2,3.16-.76,4.46-1.74s2.58-2.47,2.64-4.22c.04-1.09-1.41-1.36-1.95-.53-.59.91-1,1.75-1.8,2.47-.72.64-1.63,1.1-2.58,1.37-1.82.51-3.95.33-5.45-.98-1.64-1.44-2.27-3.68-2.06-5.8.11-1.03.44-2.04.99-2.92.28-.46.62-.87,1.02-1.24.26-.24.73-.65.93-.37.25.35.13,1.04.06,1.43-.16.86-.42,1.71-.71,2.54-.59,1.73-1.46,3.36-2.51,4.85-.5.72.68,1.65,1.23.95h0Z"/>
    <path class="cls-1" d="M170.22,119.4c-.77-2.68-1.87-5.29-2.85-7.9-.47-1.26-.98-2.51-1.42-3.78-.36-1.03-.86-2.48.03-3.39,1.08-1.11,3.2-.68,4.23.24,1.73,1.55,2.02,4.3,2.29,6.46l2.4-.32c-.77-3.66-.95-7.44-.43-11.15.21-1.53.4-3.47,1.15-4.85.87-1.59,2.68-.8,3.6.33,1.01,1.24,1.59,2.95,2.16,4.42.64,1.63,1.21,3.29,1.7,4.97,1.04,3.55,1.51,7.13,2.11,10.76.24,1.46,2.64,1.12,2.58-.35-.19-4.47-1.42-9.07-2.87-13.28-.72-2.07-1.52-4.13-2.5-6.09-.78-1.58-1.86-3.09-3.54-3.79-1.53-.63-3.39-.51-4.61.7-1.34,1.33-1.67,3.53-1.98,5.3-.81,4.54-.71,9.18.28,13.68.29,1.32,2.58,1.05,2.4-.32-.38-2.85-.83-6.07-3.06-8.13-1.69-1.57-4.5-2.06-6.56-.91-2.83,1.58-2.06,4.67-1.01,7.15,1.52,3.59,2.91,7.31,4.72,10.77.35.66,1.4.21,1.2-.51h0Z"/>
    <path class="cls-1" d="M202.56,93.82c-.14-2.91-3.18-4.69-5.89-4.16-3.29.64-5.14,4.03-5.33,7.13-.12,1.96.36,3.95,1.03,5.79.59,1.63,1.32,3.27,2.54,4.52s2.87,1.98,4.58,1.82c1.79-.17,3.13-1.31,3.86-2.91,1.77-3.92,1.74-8.71.44-12.75-.34-1.05-1.82-1.32-2.39-.31-1.18,2.05-1.53,4.45-1.04,6.77.44,2.13,1.84,4.85,4.23,5.18,2.21.3,4.25-1.57,4.74-3.64.62-2.61-.84-5.19-2.59-7.02-.86-.9-2.05.24-1.61,1.24.64,1.46,1.9,3.21,1.69,4.88-.11.87-1.06,2.29-2.11,1.87-1.14-.45-1.72-2.45-1.88-3.53-.23-1.53.07-3.09.83-4.43l-2.39-.31c.89,2.76,1.1,5.71.47,8.55-.24,1.09-.52,2.54-1.36,3.35s-2.05.55-2.91,0c-1-.63-1.62-1.73-2.11-2.78-.58-1.25-1.03-2.59-1.31-3.94-.47-2.3-.14-5.08,1.81-6.65,1.81-1.46,4.98-.98,5.64,1.48.16.58,1.11.48,1.07-.15h0Z"/>
    <path class="cls-1" d="M208.25,66.2c-.55,4.49-.64,9.15-.38,13.66.25,4.27.95,8.71,2.7,12.65,1.36,3.05,4.01,6.08,7.69,5.55,3.28-.47,5.31-3.7,5.99-6.7.74-3.27.26-8.86-3.75-9.73-1.03-.22-2.07,1.14-1.12,1.93,2.69,2.26,2.98,6.16,1.45,9.22-.64,1.28-1.69,2.54-3.22,2.66-1.75.14-3.1-1.3-3.95-2.66-2.25-3.6-2.93-8.31-3.33-12.46-.45-4.71-.12-9.4-.25-14.11-.03-1.2-1.67-1.13-1.81,0h0Z"/>
    <path class="cls-1" d="M200.53,87.51c2.29-1.82,4.63-3.58,6.91-5.42l3.36-2.71c1.16-.94,2.34-1.81,3.09-3.12.37-.64-.26-1.63-1.03-1.34-1.43.54-2.5,1.52-3.63,2.53s-2.21,1.96-3.31,2.95c-2.21,1.96-4.34,4-6.53,5.98-.78.71.35,1.77,1.14,1.14h0Z"/>
    <path class="cls-1" d="M229.09,86.93c2.04-1.82,3.7-4.07,4.98-6.49,1.12-2.12,2.32-4.62,2.3-7.07s-1.77-4.58-4.37-4.39c-2.82.2-4.48,2.48-5.42,4.92-1.92,4.98-2.68,11.43,1.42,15.57,3.67,3.7,9.26,2.65,12.47-1.08,1.99-2.31,2.88-5.16,2.91-8.18.02-1.71-.23-3.43-.6-5.1-.18-.81-.39-1.63-.65-2.42-.29-.88-.68-1.57-1.18-2.34s-1.97-.55-1.89.51c.09,1.21.28,2.27.59,3.44s.59,2.3.75,3.48c.29,2.12.26,4.45-.58,6.45-1.25,2.98-4.77,5.88-8.14,4.48-4.09-1.69-4.39-6.95-3.57-10.63.43-1.9.94-4.61,2.55-5.91.57-.46,1.42-.79,2.15-.55.8.27,1.03,1.11,1.05,1.87.05,2.13-1.02,4.39-1.94,6.25-1.11,2.23-2.51,4.28-4.02,6.26-.55.71.58,1.46,1.19.92h0Z"/>
    <path class="cls-1" d="M39.78,37.11c3.32-6.53,9.24-12.75,17.12-12.45,1.8.07,3.59.54,5.17,1.42s2.86,2.03,4.74,1.99,3.75-.93,5.49-1.51c2.12-.7,4.23-1.41,6.35-2.13l-.86-2.03c-1.88.86-3.76,1.73-5.64,2.59-1.43.66-3.67,1.23-4.6,2.61-.99,1.48.16,2.47.98,3.63.95,1.34.45,3.24-.5,4.43-2.12,2.67-6.35,3.85-9.55,4.52-3.39.71-6.99.76-10.31-.34-1.79-.59-3.73-1.57-4.98-3.02-.95-1.11-1.53-3.92.67-4.1,1.35-.11,1.3-1.89,0-2.06-1.72-.23-3.2,1-3.77,2.57-.64,1.78-.02,3.62,1.14,5.03,2.54,3.09,6.96,4.44,10.81,4.71,4.22.3,8.51-.67,12.38-2.29,3.45-1.45,7.21-4.02,6.82-8.27-.09-.97-.43-1.9-1.03-2.67-.13-.16-.84-.77-.83-.89.02-.31,1.26-.72,1.49-.83,2.67-1.24,5.34-2.47,8.02-3.71,1.14-.53.33-2.44-.86-2.03-2.19.75-4.38,1.5-6.56,2.26-1.98.69-4.38,2.05-6.43,1-1.63-.83-2.99-1.84-4.8-2.3s-3.58-.52-5.36-.3c-7.67.98-12.77,7.11-15.78,13.77-.2.43.43.82.65.38h0Z"/>
    <path class="cls-1" d="M48.14,29.01c-3.35,1.97-2.98,6.97-.29,9.32,3.4,2.97,8.7,2.74,12.67,1.16,4.29-1.71,7.68-5.49,8.05-10.22.18-2.28-.49-4.66-2.5-5.95-1.88-1.21-4.29-1.22-6.44-1.25-1.56-.02-3.13-.02-4.69,0-1.19.02-2.55.07-3.43,1-1.57,1.66.74,4.88,2.45,3.06.74-.79-.19-1.79-1.09-1.41-.44.19.39-.07.32-.04l-.02-.06c-.03-.1-.04-.08-.03.08.26-.11.45-.26.75-.31.96-.19,2.03-.13,3.01-.16,1.78-.06,3.59-.18,5.38-.04,1.46.11,3.08.51,3.86,1.88.85,1.49.66,3.49.18,5.07-1,3.26-3.72,5.69-6.88,6.81-2.94,1.05-6.68,1.39-9.51-.19-2.64-1.47-4.21-5.8-1.27-7.86.54-.37.06-1.23-.52-.89h0Z"/>
    <path class="cls-1" d="M59.88,27.9c.75-.25,1.54.13,1.97.76.55.8.7,1.87.81,2.81.05.42.08.89-.17,1.24-.14.2-.39.38-.63.48-.69.3-1.45.25-2.13.03-1.45-.45-2.62-1.73-2.93-3.17-.06-.29-.09-.69-.04-1.07.03-.21.17-.63.24-.77.29-.55.68-.91,1.22-1.21.07-.04.15-.08.23-.12.05-.02.1-.05.15-.07-.08.03-.07.03.03,0,.16-.06.32-.11.49-.15.34-.08.53-.09,1-.07.26,0-.16-.04.09,0,.08.02.16.03.24.05s.16.04.23.07c.05.02.1.04.15.06-.09-.04-.09-.04,0,0,.16.1.33.18.49.29-.18-.12.14.12.2.15.13.07.28.11.41.16.55.22,1.08-.42.93-.93-.3-1-1.42-1.48-2.38-1.61s-1.89.05-2.77.44c-1.9.85-2.95,2.78-2.64,4.83.32,2.15,2.09,3.98,4.13,4.62s5.08-.2,4.94-2.83c-.04-.73-.21-1.48-.4-2.19s-.45-1.34-.89-1.89c-.77-.99-2.23-1.59-3.38-.88-.48.3-.18,1.13.4.94h0Z"/>
    <path class="cls-1" d="M53.91,25.36c-.35,3.7-1.09,7.34-2.21,10.88l1.22.16c.03-3.66-.02-7.32.2-10.97.05-.87-1.4-1.09-1.54-.21-.71,4.43-1.49,8.81-2.66,13.15l1.76.24c.11-4.53-.28-9.04-.94-13.52-.14-.92-1.38-.68-1.64,0-1.35,3.48-2.25,7.1-2.43,10.84l1.79-.24c-.52-1.44-1.04-2.88-1.51-4.33-.2-.63-1.22-.9-1.54-.2-.92,1.98-.02,4.4,1.93,5.38,2.25,1.14,4.24-.5,6.08-1.65.84-.53,1.77-1.03,2.7-.41s1.58,1.69,2.77,2,2.5-.18,3.36-1.06c.97-.99,1.35-2.34,1.74-3.64.24-.81-1.05-1.4-1.4-.59-.68,1.54-1.35,3.09-2.03,4.63l1.16-.3c-2.01-1.29-4.09-2.48-6.09-3.79-.46-.3-1.19-.02-1.3.53-.29,1.45-.21,2.85.36,4.22l1.17-1.17c-2.05-.32-3.31-2.34-3.01-4.36.12-.82-1.1-1.57-1.5-.63-.62,1.47-.46,2.97.38,4.33.8,1.29,2.11,2.27,3.62,2.49.86.13,1.41-.6,1.07-1.4-.4-.94-.54-2.01-.39-3.02l-1.3.53c2.07,1.19,4.07,2.51,6.13,3.72.51.3,1.04,0,1.24-.5.63-1.56,1.26-3.13,1.89-4.69l-1.48-.41c-.58,1.82-2.09,4.64-4.19,2.7-1.32-1.22-2.65-2.1-4.49-1.41-1.57.59-2.81,2.07-4.47,2.4-1.57.31-3.17-1.54-2.5-3.06l-1.54-.2c.5,1.44.93,2.91,1.37,4.37.31,1.03,1.7.76,1.79-.24.34-3.54,1.01-7.05,2.24-10.39h-1.64c.7,4.32.89,8.7.78,13.07-.03,1.01,1.51,1.22,1.76.24,1.14-4.38,2.08-8.9,2.47-13.42h-1.57c.2,3.65.13,7.31.13,10.97,0,.71,1.01.83,1.22.16,1.12-3.65,1.84-7.4,2.17-11.21.06-.74-1.09-.73-1.16,0h0Z"/>
    <path class="cls-1" d="M20.24,44.1c-.94-.92,3.29-3.22,3.91-3.52,1.75-.84,3.73-1.37,5.67-1.39,1.67-.02,4.12.63,4.25,2.69s-2.13,2.98-3.74,3.3c-1.95.39-4.02.43-6,.47-.98.02-1.96.02-2.94,0-.92-.02-2.04.07-2.85-.46-.68-.45-1.1-1.23-1.77-1.71-.61-.44-1.33-.72-2.07-.85-1.51-.26-3.01.13-4.19,1.11-.99.82.35,2.59,1.39,1.8.54-.41,1-.84,1.48-1.32.58-.57,0-1.78-.84-1.45-.62.24-1.21.46-1.8.79l1.16,1.98c1.59-1.06,3.1-.79,4.37.58s2.79,1.7,4.67,1.74c2.11.05,4.23-.01,6.33-.18,1.88-.15,3.84-.29,5.58-1.09,3.01-1.39,4.45-5.17,1.84-7.69s-6.95-1.72-9.99-.45c-1.85.78-3.8,1.9-5.13,3.44-.73.85-1.35,2.51-.02,3.11.56.25,1.19-.41.69-.9h0Z"/>
    <path class="cls-1" d="M21.55,40.7c-1.52.67-1.88,2.57-1.39,4.02.68,2.03,2.74,2.96,4.77,2.97.64,0,1.28-.08,1.91-.21s1.23-.4,1.81-.68c.27-.13.36-.5.25-.75-.13-.29-.4-.39-.71-.35-.46.07-.93.1-1.39.18-.42.08-.85.13-1.27.17-.85.06-1.74.02-2.54-.32-.16-.07-.31-.15-.46-.24-.07-.04-.13-.08-.19-.13.08.06-.09-.08-.11-.1-.28-.26-.37-.39-.56-.7-.31-.49-.49-1.06-.52-1.63-.03-.65.18-1.27.73-1.66.34-.24.05-.72-.32-.55h0Z"/>
    <path class="cls-1" d="M27.71,44.21c-.24.12-.51.17-.77.23-.22.05-.5.05-.76.04-.07,0-.14,0-.21-.01s0,0,0,0c-.04,0-.08-.01-.12-.02-.13-.03-.27-.06-.4-.1-.02,0-.23-.09-.13-.04-.05-.02-.11-.05-.16-.07-.13-.07-.25-.14-.37-.23-.08-.06.07.06,0,0-.02-.02-.04-.04-.07-.06-.05-.04-.1-.09-.15-.14s-.09-.1-.14-.15c.09.1-.04-.06-.06-.1-.04-.06-.07-.12-.1-.18-.03-.05-.09-.2-.04-.07-.05-.14-.09-.27-.12-.42-.01-.07-.02-.13-.04-.2-.02-.14,0,.14,0-.06,0-.15-.01-.29,0-.44,0-.03,0-.06,0-.09,0-.11-.03.13,0,.03.02-.07.02-.14.04-.2.03-.13.07-.26.12-.39s0,0-.01.02c.02-.04.03-.07.05-.11.04-.08.08-.16.12-.23.04-.07.08-.13.12-.2.02-.02.03-.05.05-.07.08-.12-.06.06,0,0,.11-.11.21-.23.33-.33.02-.02.04-.04.07-.06-.13.1-.01.01.02,0,.08-.05.15-.09.23-.13.35-.18.45-.66.26-.99-.21-.37-.64-.43-.99-.26-1.46.67-2.15,2.38-1.87,3.91s1.82,2.54,3.32,2.55c.41,0,.8-.08,1.17-.23s.67-.4.94-.73c.2-.25-.04-.59-.34-.44h0Z"/>
    <path class="cls-1" d="M21.13,51.3c-2.95.89-5.64,2.62-7.68,4.93-.26.29-.22.73.12.94,2.29,1.4,5.92.28,6.76-2.34.16-.5-.56-.78-.83-.35-1.11,1.79-3.4,2.65-5.33,1.65l.21.82c1.76-2.29,4.22-3.97,6.96-4.85.51-.16.3-.97-.22-.81h0Z"/>
    <path class="cls-1" d="M21.21,52.58c1.28,0,1.28-1.98,0-1.98s-1.28,1.98,0,1.98h0Z"/>
    <path class="cls-1" d="M26.82,44.65c1.2-.08,2.56-.19,3.44-1.1.73-.76,1.11-2.09.32-2.95-.6-.66-1.77-.78-2.47-.21-.41.34-.53.85-.47,1.37.03.27.12.56.11.83,0,.21-.05.27-.2.34-.09.04-.29.05-.43.02-.21-.05-.36-.14-.49-.31-.35-.47-.32-1.18-.24-1.73l-.94.12c.91,1.29,2.77,1.88,4.19,1.07.65-.38,1.14-1,1.38-1.71.11-.34.17-.71.16-1.07,0-.38.04-.75-.06-1.12-.03-.11-.12-.21-.24-.24-1.05-.22-1.38,1.2-.88,1.89.32.45.85.68,1.19,1.11.13.16.17.31.08.5-.04.08-.09.12-.14.18-.01.02-.05.03-.06.03.02,0,.08.02.04-.01-.38-.36-.96.22-.57.57.43.39.99.24,1.32-.2s.35-1.01.04-1.46c-.33-.48-.92-.71-1.24-1.19-.12-.18-.22-.8.13-.77l-.33-.25c.11.27.26.57.22.86s-.13.59-.27.85c-.25.49-.65.93-1.16,1.15-.98.42-2.28.16-2.91-.73-.22-.31-.87-.36-.94.12-.15,1.08-.18,2.4.83,3.1.75.52,1.98.45,2.45-.41.29-.54.12-1.09.06-1.65-.01-.12-.01-.23.02-.34,0,.02.06-.12.03-.09.07-.1.16-.16.3-.18.22-.04.54,0,.74.19.29.27.26.75.13,1.09-.46,1.25-2.01,1.46-3.16,1.61-.44.06-.46.73,0,.7h0Z"/>
    <path class="cls-1" d="M64.78,59.92c.16-2.03-.11-4.08.05-6.13.16-1.94.56-3.87,1.18-5.71.57-1.69,1.42-3.41,3.02-4.33,1.44-.83,3.21-.96,4.77-.45,3.65,1.2,4.92,5.15,4.6,8.64-.18,1.95-.68,3.91-1.2,5.8s-1.2,3.64-2.32,5.22l1.07-.43c-3.98-.77-7.96-1.83-11.97-2.37-1.31-.18-1.94,1.72-.56,2.05,3.94.96,8.04,1.42,12.04,2.14.45.08.81-.06,1.07-.43,1.99-2.89,2.84-6.62,3.47-10.02s.5-6.83-1.7-9.61c-1.92-2.43-4.95-3.65-8.01-3.04-3.27.65-5.11,3.36-6.08,6.34-.65,2-1.03,4.11-1.18,6.21s-.17,4.4.6,6.28c.25.6,1.1.53,1.15-.16h0Z"/>
    <path class="cls-1" d="M39.52,67.66c1.41-2.11,3.62-3.82,6.05-4.58.6-.19,1.23-.36,1.86-.43.24-.03.17.03.16-.08-.02-.18-.05-.07-.07-.04-.05.07-.06.24-.1.31-.07.17-.17.33-.26.49-.62,1.1-1.47,2.07-2.47,2.84-.57.44-1.2.81-1.84,1.11-.7.33-1.4.52-2.01,1.01-.36.29-.15.94.27,1.03.9.19,1.68-.12,2.48-.49.71-.32,1.38-.73,2-1.2,1.31-.99,2.42-2.23,3.19-3.68.37-.7.7-1.61.23-2.35-.56-.88-1.61-.71-2.49-.55-1.59.3-3.12.97-4.44,1.89-1.54,1.06-2.75,2.43-3.59,4.1-.35.69.61,1.25,1.04.61h0Z"/>
    <path class="cls-1" d="M76.95,33.77c3.16,2,6.26-2.16,9.33-2.35,2-.13,4.05.23,6.04.36.38.02,1.22-.08,1.54.11.59.36-.04.6-.46.82-.89.45-1.83.78-2.8.99-1.86.4-3.77.08-5.64.43-1.73.33-3.14,1.38-4.72,2.09-1.76.79-3.88,1.17-5.79.8-.83-.16-1.75-.73-.96-1.59.67-.72,1.97-.54,2.86-.53s.91-1.13.19-1.41c-1.5-.58-3.29-.56-4.43.73-.96,1.08-.98,2.74.16,3.68,1.24,1.02,3.3.95,4.79.78,1.93-.22,3.61-.92,5.27-1.89.82-.48,1.65-1,2.58-1.24,1.14-.3,2.33-.22,3.49-.27,1.83-.09,3.61-.51,5.26-1.3,1-.48,2.81-1.54,1.58-2.79-.39-.4-.98-.56-1.52-.65-1.14-.18-2.31-.24-3.46-.33-2.2-.18-4.49-.54-6.58.38s-3.81,2.78-6.3,2.08c-.69-.19-1.06.76-.48,1.13h0Z"/>
    <path class="cls-1" d="M59.77,14.61c.48.08.64-.09,1.1-.26.68-.24,1.36-.19,2.06-.04,1.31.28,2.61.86,3.84,1.39,2.44,1.05,4.79,2.31,7,3.77s4.3,3.14,6.21,4.99,3.49,4.15,5.37,6.12c.48.51,1.23-.14.93-.72-1.29-2.56-3.66-4.87-5.72-6.83s-4.53-3.89-7.06-5.48-5.22-2.91-8.02-3.93c-1.21-.44-2.49-.91-3.8-.84-.83.04-2.29.39-2.17,1.47.02.14.1.32.26.35h0Z"/>
    <path class="cls-1" d="M88.47,35.91c.46,7.73-.41,15.29-1.55,22.92-.5,3.34-1.05,6.81-2.83,9.73-1.53,2.51-3.91,4.32-6.53,5.59-5.32,2.57-11.57,3.19-17.39,3.43-6.61.27-13.27-.24-19.75-1.54s-12.57-3.26-18.45-5.98c-3.05-1.41-6.02-3.01-8.88-4.78-2.7-1.68-5.56-3.44-7.7-5.83-4.36-4.89-3.23-12.25.1-17.36,3.57-5.48,9.33-9.23,14.73-12.72,6.54-4.23,13.39-7.95,20.5-11.13,3.6-1.61,7.27-3.07,10.98-4.39,1.83-.65,3.68-1.27,5.54-1.85,1.58-.5,3.95-1.46,5.44-.27,1.11.89,2.7-.68,1.58-1.58-2.71-2.18-6.17-.78-9.11.17-3.63,1.18-7.22,2.49-10.75,3.93-6.95,2.84-13.7,6.16-20.19,9.93C13.41,30.42-2.83,40.08.42,55.01c1.49,6.84,8.29,10.73,13.92,13.95,6.17,3.54,12.83,6.26,19.69,8.12,6.86,1.86,13.99,2.9,21.1,2.95,6.52.05,13.51-.38,19.7-2.58s10.77-6.12,12.49-12.44c.99-3.64,1.3-7.5,1.74-11.24.48-4.09.85-8.2.79-12.33-.03-1.91-.2-3.78-.51-5.67-.08-.49-.89-.37-.86.12h0Z"/>
    <path class="cls-1" d="M53.01,10.74c-2.94-1.43-5.92-2.77-8.92-4.07-.93-.4-1.89-.66-2.8-.06-1.01.66-1.47,2.04-1.99,3.06-.73,1.43-1.46,2.86-2.19,4.29-.59,1.16-1.38,3.92-3.08,2.96-1.29-.73-2.34-2.24-3.34-3.32-1.15-1.24-2.3-2.48-3.42-3.75-.49-.55-1.48-.26-1.64.43-.69,2.87-.99,5.92-1.86,8.74-.12.37-.3,1.09-.73,1.21-.56.16-1.26-.66-1.68-1-1.2-.98-2.4-1.95-3.59-2.93-.84-.68-2-.05-1.8,1.05.53,2.76,1.05,5.52,1.58,8.28l1.81-1.05c-3.85-3.62-7.55-7.4-11.09-11.33-.83-.92-2.44.29-1.73,1.33,2.73,4.01,5.21,8.18,7.44,12.49l1.75-1.35c-2.55-3.22-4.75-6.7-6.63-10.35l-1.27,1.66c6,2.3,11.66,5.38,16.89,9.1.56.4,1.58.01,1.69-.69.7-4.39-1.93-7.89-3.71-11.66-.2-.42-.37-.82-.47-1.28-.09-.39.03-.15-.02-.17-.08.16-.02.25.17.28.13.07.26.15.4.22,1.05.59,2.08,1.22,3.09,1.89,2.13,1.4,4.13,2.96,6.04,4.66.64.57,1.65.35,1.91-.5.62-2.06.18-4.19-.24-6.24-.39-1.9-1.14-4.4.24-6.08h-1.44c2.01,1.58,4.03,3.14,6.06,4.7,1.46,1.12,3.4,3.11,5.34,1.79,1.45-.98,1.52-3.04,1.51-4.6-.02-2.57-.34-5.11-.81-7.63l-1.55,1.2c4.64,2.1,8.47,5.17,12.08,8.73.71.7,2.06-.24,1.44-1.11-3.16-4.36-7.77-7.49-12.7-9.55-.8-.33-1.45.61-1.3,1.3.41,1.87.64,3.77.72,5.68.03.82.43,3.72-.57,4.22-.63.31-1.68-.78-2.13-1.13-.76-.58-1.52-1.16-2.27-1.75-1.51-1.16-3.04-2.31-4.57-3.45-.32-.24-.98-.16-1.24.16-3.18,4.07.6,8.73-.75,13.16l1.91-.5c-2.21-1.98-4.56-3.8-7.06-5.41-1.46-.94-4.88-3.77-6.27-1.31-1.08,1.9.73,4.44,1.6,6.05,1.27,2.35,2.83,4.94,2.39,7.72l1.69-.69c-5.41-3.83-11.26-6.93-17.45-9.29-.99-.38-1.69.86-1.27,1.66,1.98,3.83,4.33,7.41,7,10.79.82,1.03,2.31-.28,1.75-1.35-2.23-4.31-4.72-8.47-7.46-12.47l-1.73,1.33c3.55,3.92,7.26,7.69,11.12,11.3.82.77,2.01,0,1.81-1.05-.53-2.76-1.07-5.51-1.6-8.27l-1.8,1.05c1.6,1.29,3.15,2.71,4.83,3.9,1.12.79,2.54.98,3.58-.05s1.27-2.72,1.56-4.13c.45-2.24.93-4.47,1.31-6.72l-1.64.43c1.2,1.19,2.37,2.41,3.54,3.64,1.04,1.09,2.01,2.34,3.22,3.24.92.69,2.09,1.15,3.21.67s1.7-1.79,2.24-2.86c.73-1.43,1.45-2.87,2.18-4.3.49-.98,1.31-3.77,2.65-3.6.76.1,1.62.65,2.33.95.75.32,1.51.63,2.27.94,1.66.68,3.33,1.35,5.01,1.97.67.25,1.13-.84.49-1.16h0Z"/>
    <path class="cls-1" d="M33.79,38.4c1.47-1.45-.67-3.66-2.03-4.26-2.1-.92-4.67-.47-6.8.17-4.2,1.26-7.82,4.1-10.07,7.86-.59.98.75,1.97,1.56,1.2,4.41-4.19,9.47-8.93,15.89-9.23l-.27-1.97c-4.54,1.87-9.26,3.92-12.04,8.18-.67,1.02.79,2.04,1.64,1.26,1.77-1.64,3.58-3.29,5.77-4.36,2.38-1.16,5.07-.84,7.52-1.69,1.21-.42.73-2.19-.53-1.93-2.75.57-5.49.51-8.07,1.78-2.33,1.15-4.28,2.96-6.17,4.73l1.64,1.26c2.43-3.78,6.78-5.64,10.78-7.29.96-.4.97-2.04-.27-1.97-7.01.34-12.47,5.23-17.29,9.84l1.56,1.2c1.76-2.95,4.48-5.29,7.67-6.58,1.58-.64,3.28-1.04,4.99-1.09,1.01-.03,2.07.04,2.9.68.72.55.96,1.43,1.38,2.19.05.09.18.1.25.03h0Z"/>
    <path class="cls-1" d="M87.74,68.5c8.05-4.15,15.53-9.32,22.15-15.51l-1-.41c-.05,4.82-3.36,8.81-6.7,11.97-3.8,3.59-8.07,6.72-12.36,9.71-.59.42-.49,1.26.2,1.5,3.5,1.25,7.22,1.29,10.88.92,3.91-.4,7.81-1.07,11.67-1.8,7.96-1.49,15.82-3.47,23.53-5.95l-.94-1.23c-3.8,5.54-10.39,8.14-16.66,9.75-7.04,1.81-14.36,2.75-20.83,6.29-.84.46-.61,1.73.26,1.99,6.11,1.81,12.29,3.41,18.49,4.9,3.02.72,6.04,1.46,9.08,2.06,2.75.54,5.63.83,8.28-.28,1.23-.51.78-2.49-.57-2.06-13.48,4.27-28.42,2.98-41.14-3.11-3.58-1.71-6.94-3.8-10.08-6.22-.57-.44-1.55.02-1.68.69-.86,4.15,1.73,8.49,5.88,9.52l.29-2.16c-6.74-.45-12.69-5.37-14.51-11.85-.38-1.33-2.46-.77-2.08.57,2.11,7.42,8.93,12.89,16.59,13.47,1.25.09,1.47-1.85.29-2.16-2.91-.75-4.9-3.82-4.26-6.79l-1.92.51c11.54,9.03,26.5,13.31,41.09,11.98,4.1-.37,8.16-1.17,12.09-2.39l-.57-2.06c-2.68,1.1-5.47.62-8.21.02-2.99-.65-5.97-1.35-8.94-2.07-5.88-1.43-11.72-3.02-17.55-4.66l.26,1.99c12.04-6.8,29.18-4.57,37.84-17.07.42-.6-.27-1.44-.94-1.23-7.41,2.34-14.96,4.28-22.59,5.76-3.81.74-7.64,1.42-11.5,1.86s-7.53.5-11.12-.77l.2,1.5c4.58-3.21,9.17-6.7,13.12-10.69,3.38-3.41,6.03-7.49,6.28-12.41.03-.56-.64-.71-1-.41-6.93,5.6-14.33,10.63-22.19,14.85-.98.53-.11,1.99.87,1.48h0Z"/>
    <path class="cls-1" d="M63.32,65.65c3.53.53,7.13.64,10.69.83l-.69-.52c.16.89-.34,1.72-.98,2.29-.73.64-1.71.86-2.66.89-1.12.03-2.24-.16-3.34-.35-.87-.15-1.8-.3-2.56-.79-.59-.38-.93-.98-.85-1.7.09-.82.69-.86,1.4-.84,1.21.04,2.43.09,3.64.13,1.12.04,2.29,0,3.4.13.22.03.75.07.76.36.01.38-.94.86-1.22,1.02-1.05.58-2.23.75-3.41.61l.71.54c-.17-.46-.12-.85.15-1.26l-1.03.27c-.14-.09.04-.14-.07,0-.05.07-.07.17-.15.23-.36.24-1.01-.26-1.27-.46-.84-.62-1.57-1.29-2.68-1.3v1.53c3.05-.16,6.1-.34,9.16-.52.95-.05.96-1.53,0-1.48-3.05.16-6.1.31-9.16.48-.97.05-.99,1.52,0,1.53.82,0,1.44.77,2.07,1.19s1.48.74,2.27.51c1.29-.39,1.76-2.22.59-3-.35-.23-.82-.05-1.03.27-.47.72-.57,1.6-.27,2.41.13.33.36.5.71.54,1.42.13,2.87-.17,4.13-.85,1.04-.56,2.5-1.71,1.77-3.05-.61-1.12-2.12-1.07-3.21-1.11-1.69-.06-3.38-.13-5.07-.19-1.24-.05-2.67-.2-3.46.97-.63.93-.57,2.21-.07,3.18.57,1.11,1.79,1.73,2.94,2.05,1.38.38,2.93.53,4.35.55,1.57.02,3.13-.32,4.35-1.35,1.12-.94,1.74-2.33,1.46-3.79-.06-.31-.39-.51-.69-.52-3.51-.17-7.06-.44-10.58-.27-.46.02-.63.78-.12.86h0Z"/>
    <path class="cls-1" d="M120.09,46.67c18.13-7.68,35.61-16.77,52.23-27.33,4.68-2.97,9.22-6.11,13.69-9.38.53-.38.04-1.27-.52-.89-16.33,10.98-33.1,21.21-50.73,29.99-4.94,2.46-9.92,4.88-14.96,7.14-.32.14-.04.61.28.47h0Z"/>
    <path class="cls-1" d="M143.05,51.83c7.58-2.77,15.04-5.82,22.31-9.32.32-.15.04-.61-.28-.47-7.32,3.24-14.7,6.38-22.19,9.22-.35.13-.2.7.16.57h0Z"/>
    <path class="cls-1" d="M152.91,72.97c7.69-3.02,15.16-6.67,22.56-10.33s14.9-7.68,22.19-11.81c4.13-2.34,8.22-4.74,12.27-7.21.6-.37.06-1.3-.55-.94-14.36,8.34-29.02,16.16-44,23.33-4.27,2.05-8.59,4-12.84,6.1-.48.24-.14,1.07.37.87h0Z"/>
    <path class="cls-1" d="M66.71,55.59c0-2.44.31-4.88.87-7.26.18-.78-.94-1.08-1.19-.33-.5,1.48-.87,3.01-1.29,4.51-.18.64.66,1.16,1.14.66,1.87-1.97,3.72-3.95,5.57-5.94l-1.17-.68c-.93,5.15-1.86,10.36-1.52,15.61.05.85,1.24,1.05,1.5.2.73-2.39,1.44-4.79,2.15-7.19.2-.68,1.8-6.89,2.3-6.75l-.51-.51c1.23,3.34.82,6.94-1.08,9.95l1.43.19c-1.04-3.07-.57-6.55,1.39-9.16.23-.31.49-.6.76-.88.1-.11.21-.22.32-.32.31-.13.47-.04.49.27.44.6.51,1.94.62,2.65.27,1.76.27,3.59,0,5.35s-.75,3.43-1.49,5c-.32.68-.83,2.2-1.76,1.5-.58-.44-.85-1.31-1.04-1.97-1.1-3.84-1.33-7.94-.76-11.89h-1.64c.47,1.3.7,2.64.65,4.02-.03.77-.16,1.52-.36,2.26-.09.33-.39,1.46-.65,1.33-.35-.17-.73-1.34-.89-1.69-.29-.64-.52-1.29-.71-1.96-.18-.63-.33-1.26-.44-1.91-.06-.37-.16-.81-.15-1.18v-.24c.16-.26.11-.32-.15-.19l-.62-.62c.34,1.42.37,2.87.01,4.29-.17.69-.4,1.41-.78,2.02-.06.1-.42.71-.61.67-.11-.02-.22-.94-.22-.93-.18-1.42.05-2.92.66-4.21.33-.71,1.78-2.84,2.64-1.46.47.75,1.68.46,1.69-.46,0-1.32-.17-2.76,0-4.06.02-.18.02-.63.24-.71.16-.06.62.29.76.39.47.32.9.72,1.33,1.09,1.71,1.47,3.31,3.04,4.31,5.09l1.37-1.06c-2.23-1.78-7.14-6.9-9.92-3.2-1.05,1.4-.94,3.34-.98,5-.03,1.23-.02,2.46-.08,3.68-.02.5-.05,1.1-.31,1.54-.21.36-.78.85-1.2.47-.52-.47-1.28-.26-1.51.4-.47,1.35.32,2.7,1.65,3.11l-.22-1.68c-.59.25-1.23.33-1.86.23-1.17-.18-1.67,1.62-.49,1.79s2.19.04,3.29-.44c.77-.34.47-1.47-.22-1.68-.43-.13-.52-.47-.39-.86l-1.51.4c1.24,1.09,3.08.65,3.92-.73,1.05-1.73.65-4.32.69-6.25.02-1.43-.27-4.71,1.97-4.56,1.09.07,2.11.9,2.93,1.55,1.01.81,2.01,1.63,3.02,2.44.77.62,1.82-.13,1.37-1.06-.72-1.49-1.75-2.8-2.92-3.96-1.08-1.07-2.29-2.31-3.61-3.07-1.15-.66-2.61-.64-3.2.72-.29.66-.22,1.44-.22,2.15,0,1.08,0,2.17,0,3.25l1.69-.46c-.87-1.39-2.68-1.61-4.01-.73s-2.16,2.78-2.49,4.35c-.3,1.45-.57,3.98.59,5.16,1.31,1.33,2.95-.11,3.57-1.35.89-1.78,1.26-3.82,1.06-5.8-.07-.67-.07-1.71-.69-2.11-.57-.37-1.3-.17-1.73.3-1.15,1.28-.37,3.7.03,5.13.25.87.57,1.73.95,2.55.35.77.73,1.75,1.41,2.3,1.86,1.52,3.08-1.35,3.41-2.72.55-2.27.39-4.66-.41-6.85-.25-.69-1.51-.91-1.64,0-.58,4.15-.39,8.36.69,12.42.37,1.39,1.01,3.09,2.48,3.65,1.72.64,2.74-.94,3.37-2.27,1.61-3.37,2.22-7.17,1.76-10.87-.11-.86-.26-1.71-.48-2.55-.19-.73-.38-1.63-.97-2.17-1.31-1.19-2.72.55-3.46,1.53-2.26,2.99-2.96,7.01-1.79,10.57.21.65,1.06.76,1.43.19,1.25-1.93,1.93-4.19,1.96-6.5.02-1.14-.12-2.3-.42-3.4-.24-.9-.48-2.03-1.67-1.79-.92.19-1.36,1.18-1.62,1.98-.46,1.42-.87,2.85-1.3,4.27-.88,2.91-1.78,5.82-2.64,8.74l1.5.2c-.39-5.14.45-10.2,1.35-15.24.11-.64-.65-1.23-1.17-.68-1.85,1.98-3.71,3.96-5.55,5.96l1.14.66c.39-1.51.85-3.01,1.17-4.54l-1.21-.16c-.32,2.49-.26,4.93.06,7.42.02.17.28.19.28,0h0Z"/>
  </g>
</svg>